<svg xmlns="http://www.w3.org/2000/svg" xmlns:xlink="http://www.w3.org/1999/xlink" width="1280" zoomAndPan="magnify" viewBox="0 0 960 540.000001" height="720" preserveAspectRatio="xMidYMid meet" version="1.0"><defs><g/><clipPath id="b60a0e44bc"><path d="M 0.886719 112.589844 L 959.113281 112.589844 L 959.113281 539 L 0.886719 539 Z M 0.886719 112.589844 " clip-rule="nonzero"/></clipPath></defs><g clip-path="url(#b60a0e44bc)"><path fill="#171717" d="M 932.496094 166.085938 L 932.496094 139.464844 L 905.878906 139.464844 L 905.878906 112.847656 L 54.121094 112.847656 L 54.121094 139.464844 L 27.503906 139.464844 L 27.503906 166.085938 L 0.886719 166.085938 L 0.886719 405.640625 L 27.503906 405.640625 L 27.503906 432.257812 L 54.121094 432.257812 L 54.121094 458.875 L 133.972656 458.875 L 133.972656 485.492188 L 107.355469 485.492188 L 107.355469 538.726562 L 213.828125 538.726562 L 213.828125 512.109375 L 267.0625 512.109375 L 267.0625 485.492188 L 320.296875 485.492188 L 320.296875 458.875 L 905.878906 458.875 L 905.878906 432.257812 L 932.496094 432.257812 L 932.496094 405.640625 L 959.113281 405.640625 L 959.113281 166.085938 Z M 932.496094 166.085938 " fill-opacity="1" fill-rule="nonzero"/></g><path fill="#ffffff" d="M 905.890625 166.085938 L 905.890625 139.464844 L 54.132812 139.464844 L 54.132812 166.085938 L 27.515625 166.085938 L 27.515625 405.640625 L 54.132812 405.640625 L 54.132812 432.257812 L 160.605469 432.257812 L 160.605469 485.492188 L 133.988281 485.492188 L 133.988281 512.109375 L 213.839844 512.109375 L 213.839844 485.492188 L 267.074219 485.492188 L 267.074219 458.875 L 320.308594 458.875 L 320.308594 432.257812 L 905.890625 432.257812 L 905.890625 405.640625 L 932.507812 405.640625 L 932.507812 166.085938 Z M 905.890625 166.085938 " fill-opacity="1" fill-rule="nonzero"/><path fill="#ffffff" d="M 27.515625 379.023438 L 54.132812 379.023438 L 54.132812 405.640625 L 27.515625 405.640625 Z M 27.515625 379.023438 " fill-opacity="1" fill-rule="nonzero"/><path fill="#ffffff" d="M 160.605469 432.257812 L 160.605469 405.640625 L 54.132812 405.640625 L 54.132812 432.257812 Z M 160.605469 432.257812 " fill-opacity="1" fill-rule="nonzero"/><path fill="#ffffff" d="M 267.074219 432.257812 L 267.074219 458.875 L 320.308594 458.875 L 320.308594 432.257812 Z M 267.074219 432.257812 " fill-opacity="1" fill-rule="nonzero"/><path fill="#ffffff" d="M 213.839844 458.875 L 213.839844 485.492188 L 267.074219 485.492188 L 267.074219 458.875 Z M 213.839844 458.875 " fill-opacity="1" fill-rule="nonzero"/><path fill="#ffffff" d="M 160.605469 485.492188 L 133.988281 485.492188 L 133.988281 512.109375 L 213.839844 512.109375 L 213.839844 485.492188 Z M 160.605469 485.492188 " fill-opacity="1" fill-rule="nonzero"/><path fill="#ffffff" d="M 905.890625 379.023438 L 932.507812 379.023438 L 932.507812 405.640625 L 905.890625 405.640625 Z M 905.890625 379.023438 " fill-opacity="1" fill-rule="nonzero"/><path fill="#ffffff" d="M 852.65625 405.640625 L 320.308594 405.640625 L 320.308594 432.257812 L 905.890625 432.257812 L 905.890625 405.640625 Z M 852.65625 405.640625 " fill-opacity="1" fill-rule="nonzero"/><g fill="#000000" fill-opacity="1"><g transform="translate(464.408358, 131.556383)"><g><path d="M 2.625 0.09375 C 2.25 0.09375 1.953125 -0.0078125 1.734375 -0.21875 C 1.523438 -0.425781 1.421875 -0.703125 1.421875 -1.046875 C 1.421875 -1.378906 1.523438 -1.65625 1.734375 -1.875 C 1.953125 -2.09375 2.25 -2.203125 2.625 -2.203125 C 3 -2.203125 3.289062 -2.097656 3.5 -1.890625 C 3.71875 -1.679688 3.828125 -1.40625 3.828125 -1.0625 C 3.828125 -0.71875 3.71875 -0.4375 3.5 -0.21875 C 3.28125 -0.0078125 2.988281 0.09375 2.625 0.09375 Z M 2.625 0.09375 "/></g></g></g></svg>