<svg xmlns="http://www.w3.org/2000/svg" xmlns:xlink="http://www.w3.org/1999/xlink" width="1080" zoomAndPan="magnify" viewBox="0 0 810 1012.49997" height="1350" preserveAspectRatio="xMidYMid meet" version="1.0"><defs><clipPath id="5be3a81913"><path d="M 0.949219 373.25 L 809.050781 373.25 L 809.050781 732.855469 L 0.949219 732.855469 Z M 0.949219 373.25 " clip-rule="nonzero"/></clipPath></defs><g clip-path="url(#5be3a81913)"><path fill="#ffffff" d="M 786.605469 418.367188 L 786.605469 395.914062 L 764.15625 395.914062 L 764.15625 373.46875 L 45.84375 373.46875 L 45.84375 395.914062 L 23.394531 395.914062 L 23.394531 418.367188 L 0.949219 418.367188 L 0.949219 620.390625 L 23.394531 620.390625 L 23.394531 642.835938 L 45.84375 642.835938 L 45.84375 665.285156 L 113.183594 665.285156 L 113.183594 687.730469 L 90.738281 687.730469 L 90.738281 732.625 L 180.527344 732.625 L 180.527344 710.179688 L 225.421875 710.179688 L 225.421875 687.730469 L 270.316406 687.730469 L 270.316406 665.285156 L 764.15625 665.285156 L 764.15625 642.835938 L 786.605469 642.835938 L 786.605469 620.390625 L 809.050781 620.390625 L 809.050781 418.367188 Z M 786.605469 418.367188 " fill-opacity="1" fill-rule="nonzero"/></g><path fill="#71717a" d="M 764.167969 418.367188 L 764.167969 395.914062 L 45.851562 395.914062 L 45.851562 418.367188 L 23.40625 418.367188 L 23.40625 620.390625 L 45.851562 620.390625 L 45.851562 642.835938 L 135.644531 642.835938 L 135.644531 687.730469 L 113.195312 687.730469 L 113.195312 710.179688 L 180.539062 710.179688 L 180.539062 687.730469 L 225.433594 687.730469 L 225.433594 665.285156 L 270.328125 665.285156 L 270.328125 642.835938 L 764.167969 642.835938 L 764.167969 620.390625 L 786.613281 620.390625 L 786.613281 418.367188 Z M 764.167969 418.367188 " fill-opacity="1" fill-rule="nonzero"/><path fill="#71717a" d="M 23.40625 597.941406 L 45.851562 597.941406 L 45.851562 620.390625 L 23.40625 620.390625 Z M 23.40625 597.941406 " fill-opacity="1" fill-rule="nonzero"/><path fill="#71717a" d="M 135.644531 642.835938 L 135.644531 620.390625 L 45.851562 620.390625 L 45.851562 642.835938 Z M 135.644531 642.835938 " fill-opacity="1" fill-rule="nonzero"/><path fill="#71717a" d="M 225.433594 642.835938 L 225.433594 665.285156 L 270.328125 665.285156 L 270.328125 642.835938 Z M 225.433594 642.835938 " fill-opacity="1" fill-rule="nonzero"/><path fill="#71717a" d="M 180.539062 665.285156 L 180.539062 687.730469 L 225.433594 687.730469 L 225.433594 665.285156 Z M 180.539062 665.285156 " fill-opacity="1" fill-rule="nonzero"/><path fill="#71717a" d="M 135.644531 687.730469 L 113.195312 687.730469 L 113.195312 710.179688 L 180.539062 710.179688 L 180.539062 687.730469 Z M 135.644531 687.730469 " fill-opacity="1" fill-rule="nonzero"/><path fill="#71717a" d="M 764.167969 597.941406 L 786.613281 597.941406 L 786.613281 620.390625 L 764.167969 620.390625 Z M 764.167969 597.941406 " fill-opacity="1" fill-rule="nonzero"/><path fill="#71717a" d="M 719.273438 620.390625 L 270.328125 620.390625 L 270.328125 642.835938 L 764.167969 642.835938 L 764.167969 620.390625 Z M 719.273438 620.390625 " fill-opacity="1" fill-rule="nonzero"/><path fill="#000000" d="M 394.066406 389.324219 C 393.75 389.324219 393.5 389.238281 393.3125 389.0625 C 393.136719 388.886719 393.050781 388.652344 393.050781 388.363281 C 393.050781 388.082031 393.136719 387.847656 393.3125 387.664062 C 393.5 387.480469 393.75 387.386719 394.066406 387.386719 C 394.382812 387.386719 394.625 387.476562 394.800781 387.652344 C 394.988281 387.828125 395.078125 388.058594 395.078125 388.351562 C 395.078125 388.640625 394.988281 388.878906 394.800781 389.0625 C 394.617188 389.238281 394.371094 389.324219 394.066406 389.324219 Z M 394.066406 389.324219 " fill-opacity="1" fill-rule="nonzero"/></svg>