<svg xmlns="http://www.w3.org/2000/svg" xmlns:xlink="http://www.w3.org/1999/xlink" width="1280" zoomAndPan="magnify" viewBox="0 0 960 540.000001" height="720" preserveAspectRatio="xMidYMid meet" version="1.0"><defs><g/><clipPath id="1bc7ea40fa"><path d="M 294.808594 114.277344 L 665.375 114.277344 L 665.375 424.953125 L 294.808594 424.953125 Z M 294.808594 114.277344 " clip-rule="nonzero"/></clipPath><clipPath id="0dd7b20314"><path d="M 294.808594 114.277344 L 665.375 114.277344 L 665.375 424.953125 L 294.808594 424.953125 Z M 294.808594 114.277344 " clip-rule="nonzero"/></clipPath></defs><g clip-path="url(#1bc7ea40fa)"><path fill="#d2d2d1" d="M 665.261719 377.136719 L 665.261719 412.984375 L 486.082031 412.984375 L 486.082031 424.929688 L 414.410156 424.929688 L 414.410156 412.984375 L 294.953125 412.984375 L 294.953125 365.191406 L 306.90625 365.191406 L 306.90625 353.238281 L 318.847656 353.238281 L 318.847656 341.292969 L 330.792969 341.292969 L 330.792969 257.65625 L 342.734375 257.65625 L 342.734375 221.808594 L 330.792969 221.808594 L 330.792969 138.179688 L 342.734375 138.179688 L 342.734375 126.222656 L 521.910156 126.222656 L 521.910156 114.277344 L 557.75 114.277344 L 557.75 126.222656 L 617.472656 126.222656 L 617.472656 150.125 L 629.421875 150.125 L 629.421875 197.917969 L 617.472656 197.917969 L 617.472656 329.347656 L 629.421875 329.347656 L 629.421875 341.292969 L 641.367188 341.292969 L 641.367188 353.238281 L 653.308594 353.238281 L 653.308594 377.136719 Z M 665.261719 377.136719 " fill-opacity="1" fill-rule="nonzero"/></g><path fill="#d2d2d1" d="M 486.082031 401.03125 L 486.082031 412.984375 L 414.410156 412.984375 L 414.410156 389.085938 L 426.351562 389.085938 L 426.351562 377.136719 L 545.804688 377.136719 L 545.804688 401.03125 Z M 342.734375 269.601562 L 342.734375 257.65625 L 354.683594 257.65625 L 354.683594 221.808594 L 342.734375 221.808594 L 342.734375 138.179688 L 521.910156 138.179688 L 521.910156 126.222656 L 557.75 126.222656 L 557.75 138.179688 L 605.527344 138.179688 L 605.527344 150.125 L 617.472656 150.125 L 617.472656 197.917969 L 605.527344 197.917969 L 605.527344 305.445312 L 342.734375 305.445312 Z M 366.628906 257.65625 L 366.628906 281.554688 L 378.570312 281.554688 L 378.570312 293.5 L 474.132812 293.5 L 474.132812 281.554688 L 557.75 281.554688 L 557.75 293.5 L 581.644531 293.5 L 581.644531 281.554688 L 593.585938 281.554688 L 593.585938 162.070312 L 581.644531 162.070312 L 581.644531 150.125 L 390.523438 150.125 L 390.523438 162.070312 L 354.683594 162.070312 L 354.683594 209.863281 L 366.628906 209.863281 Z M 330.792969 353.238281 L 330.792969 341.292969 L 342.734375 341.292969 L 342.734375 329.347656 L 354.683594 329.347656 L 354.683594 317.394531 L 438.300781 317.394531 L 438.300781 329.347656 L 509.96875 329.347656 L 509.96875 317.394531 L 605.527344 317.394531 L 605.527344 329.347656 L 617.472656 329.347656 L 617.472656 341.292969 L 629.421875 341.292969 L 629.421875 365.191406 L 641.367188 365.191406 L 641.367188 377.136719 L 653.308594 377.136719 L 653.308594 401.03125 L 569.691406 401.03125 L 569.691406 389.085938 L 557.75 389.085938 L 557.75 377.136719 L 545.804688 377.136719 L 545.804688 365.191406 L 414.410156 365.191406 L 414.410156 389.085938 L 390.523438 389.085938 L 390.523438 401.03125 L 306.90625 401.03125 L 306.90625 377.136719 L 318.847656 377.136719 L 318.847656 365.191406 L 330.792969 365.191406 Z M 390.523438 377.136719 L 390.523438 365.191406 L 342.734375 365.191406 L 342.734375 377.136719 Z M 569.691406 377.136719 L 593.585938 377.136719 L 593.585938 365.191406 L 569.691406 365.191406 Z M 617.472656 365.191406 L 605.527344 365.191406 L 605.527344 377.136719 L 617.472656 377.136719 Z M 509.96875 341.292969 L 509.96875 353.238281 L 581.644531 353.238281 L 581.644531 341.292969 Z M 438.300781 341.292969 L 378.570312 341.292969 L 378.570312 353.238281 L 486.082031 353.238281 L 486.082031 341.292969 Z M 438.300781 341.292969 " fill-opacity="1" fill-rule="nonzero"/><g clip-path="url(#0dd7b20314)"><path fill="#000000" d="M 665.261719 377.136719 L 665.261719 412.984375 L 486.082031 412.984375 L 486.082031 401.03125 L 545.804688 401.03125 L 545.804688 377.136719 L 557.75 377.136719 L 557.75 389.085938 L 569.691406 389.085938 L 569.691406 401.03125 L 653.308594 401.03125 L 653.308594 377.136719 Z M 629.421875 365.191406 L 641.367188 365.191406 L 641.367188 377.136719 L 653.308594 377.136719 L 653.308594 353.238281 L 641.367188 353.238281 L 641.367188 341.292969 L 629.421875 341.292969 Z M 617.472656 174.015625 L 617.472656 197.917969 L 629.421875 197.917969 L 629.421875 150.125 L 617.472656 150.125 Z M 629.421875 341.292969 L 629.421875 329.347656 L 617.472656 329.347656 L 617.472656 341.292969 Z M 569.691406 138.179688 L 605.527344 138.179688 L 605.527344 150.125 L 617.472656 150.125 L 617.472656 126.222656 L 557.75 126.222656 L 557.75 138.179688 Z M 533.863281 365.191406 L 414.410156 365.191406 L 414.410156 389.085938 L 426.351562 389.085938 L 426.351562 377.136719 L 545.804688 377.136719 L 545.804688 365.191406 Z M 545.804688 126.222656 L 557.75 126.222656 L 557.75 114.277344 L 521.910156 114.277344 L 521.910156 126.222656 Z M 462.1875 412.984375 L 414.410156 412.984375 L 414.410156 424.929688 L 486.082031 424.929688 L 486.082031 412.984375 Z M 414.410156 389.085938 L 390.523438 389.085938 L 390.523438 401.03125 L 306.90625 401.03125 L 306.90625 377.136719 L 318.847656 377.136719 L 318.847656 365.191406 L 330.792969 365.191406 L 330.792969 341.292969 L 318.847656 341.292969 L 318.847656 353.238281 L 306.90625 353.238281 L 306.90625 365.191406 L 294.953125 365.191406 L 294.953125 412.984375 L 414.410156 412.984375 Z M 366.628906 281.554688 L 378.570312 281.554688 L 378.570312 293.5 L 474.132812 293.5 L 474.132812 281.554688 L 557.75 281.554688 L 557.75 293.5 L 581.644531 293.5 L 581.644531 281.554688 L 593.585938 281.554688 L 593.585938 162.070312 L 581.644531 162.070312 L 581.644531 150.125 L 390.523438 150.125 L 390.523438 162.070312 L 486.082031 162.070312 L 486.082031 174.015625 L 474.132812 174.015625 L 474.132812 185.96875 L 450.246094 185.96875 L 450.246094 197.917969 L 426.351562 197.917969 L 426.351562 209.863281 L 402.464844 209.863281 L 402.464844 221.808594 L 378.570312 221.808594 L 378.570312 209.863281 L 366.628906 209.863281 Z M 366.628906 185.96875 L 366.628906 174.015625 L 390.523438 174.015625 L 390.523438 162.070312 L 354.683594 162.070312 L 354.683594 209.863281 L 366.628906 209.863281 Z M 366.628906 138.179688 L 521.910156 138.179688 L 521.910156 126.222656 L 342.734375 126.222656 L 342.734375 138.179688 Z M 354.683594 245.707031 L 354.683594 221.808594 L 342.734375 221.808594 L 342.734375 257.65625 L 354.683594 257.65625 Z M 342.734375 329.347656 L 354.683594 329.347656 L 354.683594 317.394531 L 438.300781 317.394531 L 438.300781 329.347656 L 509.96875 329.347656 L 509.96875 317.394531 L 605.527344 317.394531 L 605.527344 329.347656 L 617.472656 329.347656 L 617.472656 197.917969 L 605.527344 197.917969 L 605.527344 305.445312 L 342.734375 305.445312 L 342.734375 257.65625 L 330.792969 257.65625 L 330.792969 341.292969 L 342.734375 341.292969 Z M 342.734375 197.917969 L 342.734375 138.179688 L 330.792969 138.179688 L 330.792969 221.808594 L 342.734375 221.808594 Z M 342.734375 197.917969 " fill-opacity="1" fill-rule="nonzero"/></g><path fill="#f7f7f0" d="M 605.527344 365.191406 L 617.472656 365.191406 L 617.472656 377.136719 L 605.527344 377.136719 Z M 593.585938 377.136719 L 593.585938 365.191406 L 569.691406 365.191406 L 569.691406 377.136719 Z M 521.910156 353.238281 L 581.644531 353.238281 L 581.644531 341.292969 L 509.96875 341.292969 L 509.96875 353.238281 Z M 414.410156 341.292969 L 378.570312 341.292969 L 378.570312 353.238281 L 486.082031 353.238281 L 486.082031 341.292969 Z M 378.570312 365.191406 L 342.734375 365.191406 L 342.734375 377.136719 L 390.523438 377.136719 L 390.523438 365.191406 Z M 378.570312 221.808594 L 402.464844 221.808594 L 402.464844 209.863281 L 426.351562 209.863281 L 426.351562 197.917969 L 450.246094 197.917969 L 450.246094 185.96875 L 474.132812 185.96875 L 474.132812 174.015625 L 486.082031 174.015625 L 486.082031 162.070312 L 390.523438 162.070312 L 390.523438 174.015625 L 366.628906 174.015625 L 366.628906 209.863281 L 378.570312 209.863281 Z M 378.570312 221.808594 " fill-opacity="1" fill-rule="nonzero"/><g fill="#000000" fill-opacity="1"><g transform="translate(464.408358, 131.556383)"><g><path d="M 2.625 0.09375 C 2.25 0.09375 1.953125 -0.0078125 1.734375 -0.21875 C 1.523438 -0.425781 1.421875 -0.703125 1.421875 -1.046875 C 1.421875 -1.378906 1.523438 -1.65625 1.734375 -1.875 C 1.953125 -2.09375 2.25 -2.203125 2.625 -2.203125 C 3 -2.203125 3.289062 -2.097656 3.5 -1.890625 C 3.71875 -1.679688 3.828125 -1.40625 3.828125 -1.0625 C 3.828125 -0.71875 3.71875 -0.4375 3.5 -0.21875 C 3.28125 -0.0078125 2.988281 0.09375 2.625 0.09375 Z M 2.625 0.09375 "/></g></g></g></svg>