<svg xmlns="http://www.w3.org/2000/svg" xmlns:xlink="http://www.w3.org/1999/xlink" width="1080" zoomAndPan="magnify" viewBox="0 0 810 1012.49997" height="1350" preserveAspectRatio="xMidYMid meet" version="1.0"><defs><g/><clipPath id="5026cb24d2"><path d="M 0.199219 405 L 202 405 L 202 607 L 0.199219 607 Z M 0.199219 405 " clip-rule="nonzero"/></clipPath><clipPath id="2a6a9371ae"><path d="M 608 405 L 809.800781 405 L 809.800781 607 L 608 607 Z M 608 405 " clip-rule="nonzero"/></clipPath></defs><g clip-path="url(#5026cb24d2)"><path fill="#ff5f56" d="M 201.621094 505.996094 C 201.621094 507.644531 201.578125 509.289062 201.5 510.9375 C 201.417969 512.582031 201.296875 514.226562 201.136719 515.867188 C 200.972656 517.507812 200.773438 519.140625 200.53125 520.773438 C 200.289062 522.402344 200.007812 524.027344 199.683594 525.640625 C 199.363281 527.257812 199.003906 528.867188 198.601562 530.464844 C 198.203125 532.0625 197.761719 533.652344 197.285156 535.230469 C 196.804688 536.804688 196.289062 538.371094 195.734375 539.921875 C 195.179688 541.476562 194.585938 543.011719 193.953125 544.535156 C 193.324219 546.058594 192.65625 547.5625 191.949219 549.054688 C 191.246094 550.542969 190.503906 552.015625 189.726562 553.46875 C 188.953125 554.921875 188.140625 556.355469 187.292969 557.769531 C 186.445312 559.183594 185.5625 560.574219 184.648438 561.945312 C 183.730469 563.316406 182.78125 564.664062 181.800781 565.988281 C 180.820312 567.3125 179.804688 568.609375 178.761719 569.882812 C 177.714844 571.160156 176.636719 572.40625 175.53125 573.628906 C 174.425781 574.847656 173.289062 576.042969 172.121094 577.207031 C 170.957031 578.371094 169.765625 579.507812 168.542969 580.617188 C 167.320312 581.722656 166.074219 582.800781 164.800781 583.84375 C 163.527344 584.890625 162.226562 585.902344 160.902344 586.886719 C 159.578125 587.867188 158.230469 588.816406 156.863281 589.730469 C 155.492188 590.648438 154.097656 591.527344 152.683594 592.375 C 151.273438 593.222656 149.839844 594.035156 148.382812 594.8125 C 146.929688 595.589844 145.460938 596.332031 143.96875 597.035156 C 142.480469 597.738281 140.972656 598.40625 139.449219 599.039062 C 137.925781 599.667969 136.390625 600.261719 134.839844 600.816406 C 133.285156 601.371094 131.722656 601.890625 130.144531 602.367188 C 128.566406 602.847656 126.980469 603.285156 125.378906 603.6875 C 123.78125 604.085938 122.175781 604.449219 120.558594 604.769531 C 118.941406 605.089844 117.316406 605.371094 115.6875 605.613281 C 114.058594 605.855469 112.421875 606.058594 110.78125 606.21875 C 109.140625 606.382812 107.496094 606.503906 105.851562 606.582031 C 104.207031 606.664062 102.558594 606.703125 100.910156 606.703125 C 99.261719 606.703125 97.613281 606.664062 95.96875 606.582031 C 94.320312 606.503906 92.679688 606.382812 91.039062 606.21875 C 89.398438 606.058594 87.761719 605.855469 86.132812 605.613281 C 84.503906 605.371094 82.878906 605.089844 81.261719 604.769531 C 79.644531 604.449219 78.039062 604.085938 76.441406 603.6875 C 74.839844 603.285156 73.253906 602.847656 71.675781 602.367188 C 70.097656 601.890625 68.535156 601.371094 66.980469 600.816406 C 65.429688 600.261719 63.894531 599.667969 62.371094 599.039062 C 60.847656 598.40625 59.339844 597.738281 57.851562 597.035156 C 56.359375 596.332031 54.890625 595.589844 53.4375 594.8125 C 51.980469 594.035156 50.546875 593.222656 49.132812 592.375 C 47.722656 591.527344 46.328125 590.648438 44.957031 589.730469 C 43.589844 588.816406 42.242188 587.867188 40.917969 586.886719 C 39.59375 585.902344 38.292969 584.890625 37.019531 583.84375 C 35.746094 582.800781 34.5 581.722656 33.277344 580.617188 C 32.054688 579.507812 30.863281 578.371094 29.695312 577.207031 C 28.53125 576.042969 27.394531 574.847656 26.289062 573.628906 C 25.183594 572.40625 24.105469 571.160156 23.058594 569.882812 C 22.015625 568.609375 21 567.3125 20.019531 565.988281 C 19.035156 564.664062 18.089844 563.316406 17.171875 561.945312 C 16.257812 560.574219 15.375 559.183594 14.527344 557.769531 C 13.679688 556.355469 12.867188 554.921875 12.089844 553.46875 C 11.316406 552.015625 10.574219 550.542969 9.871094 549.054688 C 9.164062 547.5625 8.496094 546.058594 7.867188 544.535156 C 7.234375 543.011719 6.640625 541.476562 6.085938 539.921875 C 5.53125 538.371094 5.015625 536.804688 4.535156 535.230469 C 4.058594 533.652344 3.617188 532.0625 3.21875 530.464844 C 2.816406 528.867188 2.457031 527.257812 2.136719 525.640625 C 1.8125 524.027344 1.53125 522.402344 1.289062 520.773438 C 1.046875 519.140625 0.847656 517.507812 0.683594 515.867188 C 0.523438 514.226562 0.402344 512.582031 0.320312 510.9375 C 0.242188 509.289062 0.199219 507.644531 0.199219 505.996094 C 0.199219 504.347656 0.242188 502.699219 0.320312 501.054688 C 0.402344 499.40625 0.523438 497.761719 0.683594 496.125 C 0.847656 494.484375 1.046875 492.847656 1.289062 491.21875 C 1.53125 489.585938 1.8125 487.964844 2.136719 486.347656 C 2.457031 484.730469 2.816406 483.121094 3.21875 481.523438 C 3.617188 479.925781 4.058594 478.335938 4.535156 476.761719 C 5.015625 475.183594 5.53125 473.617188 6.085938 472.066406 C 6.640625 470.515625 7.234375 468.976562 7.867188 467.453125 C 8.496094 465.933594 9.164062 464.425781 9.871094 462.933594 C 10.574219 461.445312 11.316406 459.972656 12.089844 458.519531 C 12.867188 457.066406 13.679688 455.632812 14.527344 454.21875 C 15.375 452.804688 16.257812 451.414062 17.171875 450.042969 C 18.089844 448.671875 19.035156 447.324219 20.019531 446 C 21 444.679688 22.015625 443.378906 23.058594 442.105469 C 24.105469 440.832031 25.183594 439.582031 26.289062 438.363281 C 27.394531 437.140625 28.53125 435.945312 29.695312 434.78125 C 30.863281 433.617188 32.054688 432.480469 33.277344 431.375 C 34.5 430.265625 35.746094 429.191406 37.019531 428.144531 C 38.292969 427.097656 39.59375 426.085938 40.917969 425.101562 C 42.242188 424.121094 43.589844 423.171875 44.957031 422.257812 C 46.328125 421.339844 47.722656 420.460938 49.132812 419.613281 C 50.546875 418.765625 51.980469 417.953125 53.4375 417.175781 C 54.890625 416.398438 56.359375 415.660156 57.851562 414.953125 C 59.339844 414.25 60.847656 413.582031 62.371094 412.949219 C 63.894531 412.320312 65.429688 411.726562 66.980469 411.171875 C 68.535156 410.617188 70.097656 410.097656 71.675781 409.621094 C 73.253906 409.144531 74.839844 408.703125 76.441406 408.300781 C 78.039062 407.902344 79.644531 407.542969 81.261719 407.21875 C 82.878906 406.898438 84.503906 406.617188 86.132812 406.375 C 87.761719 406.132812 89.398438 405.929688 91.039062 405.769531 C 92.679688 405.609375 94.320312 405.488281 95.96875 405.40625 C 97.613281 405.324219 99.261719 405.285156 100.910156 405.285156 C 102.558594 405.285156 104.207031 405.324219 105.851562 405.40625 C 107.496094 405.488281 109.140625 405.609375 110.78125 405.769531 C 112.421875 405.929688 114.058594 406.132812 115.6875 406.375 C 117.316406 406.617188 118.941406 406.898438 120.558594 407.21875 C 122.175781 407.542969 123.78125 407.902344 125.378906 408.300781 C 126.980469 408.703125 128.566406 409.144531 130.144531 409.621094 C 131.722656 410.097656 133.285156 410.617188 134.839844 411.171875 C 136.390625 411.726562 137.925781 412.320312 139.449219 412.949219 C 140.972656 413.582031 142.480469 414.25 143.96875 414.953125 C 145.460938 415.660156 146.929688 416.398438 148.382812 417.175781 C 149.839844 417.953125 151.273438 418.765625 152.683594 419.613281 C 154.097656 420.460938 155.492188 421.339844 156.863281 422.257812 C 158.230469 423.171875 159.578125 424.121094 160.902344 425.101562 C 162.226562 426.085938 163.527344 427.097656 164.800781 428.144531 C 166.074219 429.191406 167.320312 430.265625 168.542969 431.375 C 169.765625 432.480469 170.957031 433.617188 172.121094 434.78125 C 173.289062 435.945312 174.425781 437.140625 175.53125 438.363281 C 176.636719 439.582031 177.714844 440.832031 178.761719 442.105469 C 179.804688 443.378906 180.820312 444.679688 181.800781 446 C 182.78125 447.324219 183.730469 448.671875 184.648438 450.042969 C 185.5625 451.414062 186.445312 452.804688 187.292969 454.21875 C 188.140625 455.632812 188.953125 457.066406 189.726562 458.519531 C 190.503906 459.972656 191.246094 461.445312 191.949219 462.933594 C 192.65625 464.425781 193.324219 465.933594 193.953125 467.453125 C 194.585938 468.976562 195.175781 470.515625 195.734375 472.066406 C 196.289062 473.617188 196.804688 475.183594 197.285156 476.761719 C 197.761719 478.335938 198.203125 479.925781 198.601562 481.523438 C 199.003906 483.121094 199.363281 484.730469 199.683594 486.347656 C 200.007812 487.964844 200.289062 489.585938 200.53125 491.21875 C 200.773438 492.847656 200.972656 494.484375 201.136719 496.125 C 201.296875 497.761719 201.417969 499.40625 201.5 501.054688 C 201.578125 502.699219 201.621094 504.347656 201.621094 505.996094 Z M 201.621094 505.996094 " fill-opacity="1" fill-rule="nonzero"/></g><path fill="#ffbd2e" d="M 514.800781 505.988281 C 514.800781 507.636719 514.761719 509.285156 514.679688 510.929688 C 514.601562 512.578125 514.480469 514.21875 514.316406 515.859375 C 514.15625 517.5 513.953125 519.136719 513.710938 520.765625 C 513.46875 522.398438 513.1875 524.019531 512.867188 525.636719 C 512.546875 527.253906 512.183594 528.859375 511.785156 530.460938 C 511.382812 532.058594 510.945312 533.648438 510.464844 535.222656 C 509.988281 536.800781 509.46875 538.367188 508.914062 539.917969 C 508.359375 541.46875 507.765625 543.007812 507.136719 544.527344 C 506.503906 546.050781 505.835938 547.558594 505.132812 549.046875 C 504.429688 550.539062 503.6875 552.011719 502.910156 553.464844 C 502.132812 554.917969 501.320312 556.351562 500.472656 557.765625 C 499.625 559.179688 498.746094 560.570312 497.828125 561.941406 C 496.914062 563.3125 495.964844 564.660156 494.984375 565.980469 C 494 567.304688 492.988281 568.605469 491.941406 569.878906 C 490.898438 571.152344 489.820312 572.402344 488.714844 573.621094 C 487.605469 574.84375 486.46875 576.035156 485.304688 577.203125 C 484.140625 578.367188 482.945312 579.503906 481.726562 580.609375 C 480.503906 581.71875 479.257812 582.792969 477.980469 583.839844 C 476.707031 584.882812 475.410156 585.898438 474.085938 586.878906 C 472.761719 587.863281 471.414062 588.8125 470.042969 589.726562 C 468.671875 590.640625 467.28125 591.523438 465.867188 592.371094 C 464.453125 593.21875 463.019531 594.03125 461.566406 594.808594 C 460.113281 595.585938 458.640625 596.324219 457.152344 597.03125 C 455.660156 597.734375 454.15625 598.402344 452.632812 599.03125 C 451.109375 599.664062 449.570312 600.257812 448.019531 600.8125 C 446.46875 601.367188 444.902344 601.882812 443.328125 602.363281 C 441.75 602.839844 440.160156 603.28125 438.5625 603.679688 C 436.964844 604.082031 435.355469 604.441406 433.738281 604.765625 C 432.125 605.085938 430.5 605.367188 428.871094 605.609375 C 427.238281 605.851562 425.605469 606.054688 423.964844 606.214844 C 422.324219 606.375 420.679688 606.496094 419.035156 606.578125 C 417.386719 606.660156 415.742188 606.699219 414.09375 606.699219 C 412.445312 606.699219 410.796875 606.660156 409.152344 606.578125 C 407.503906 606.496094 405.859375 606.375 404.222656 606.214844 C 402.582031 606.054688 400.945312 605.851562 399.316406 605.609375 C 397.683594 605.367188 396.0625 605.085938 394.445312 604.765625 C 392.828125 604.441406 391.21875 604.082031 389.621094 603.679688 C 388.023438 603.28125 386.433594 602.839844 384.859375 602.363281 C 383.28125 601.882812 381.714844 601.367188 380.164062 600.8125 C 378.613281 600.257812 377.074219 599.664062 375.550781 599.03125 C 374.03125 598.402344 372.523438 597.734375 371.03125 597.03125 C 369.542969 596.324219 368.070312 595.585938 366.617188 594.808594 C 365.164062 594.03125 363.730469 593.21875 362.316406 592.371094 C 360.902344 591.523438 359.511719 590.640625 358.140625 589.726562 C 356.769531 588.8125 355.421875 587.863281 354.097656 586.878906 C 352.777344 585.898438 351.476562 584.882812 350.203125 583.839844 C 348.929688 582.792969 347.679688 581.71875 346.460938 580.609375 C 345.238281 579.503906 344.042969 578.367188 342.878906 577.203125 C 341.714844 576.035156 340.578125 574.84375 339.472656 573.621094 C 338.363281 572.402344 337.289062 571.152344 336.242188 569.878906 C 335.195312 568.605469 334.183594 567.304688 333.199219 565.980469 C 332.21875 564.660156 331.269531 563.3125 330.355469 561.941406 C 329.4375 560.570312 328.558594 559.179688 327.710938 557.765625 C 326.863281 556.351562 326.050781 554.917969 325.273438 553.464844 C 324.496094 552.011719 323.757812 550.539062 323.050781 549.046875 C 322.347656 547.558594 321.679688 546.050781 321.046875 544.527344 C 320.417969 543.007812 319.824219 541.46875 319.269531 539.917969 C 318.714844 538.367188 318.195312 536.800781 317.71875 535.222656 C 317.238281 533.648438 316.800781 532.058594 316.398438 530.460938 C 316 528.859375 315.640625 527.253906 315.316406 525.636719 C 314.996094 524.019531 314.714844 522.398438 314.472656 520.765625 C 314.230469 519.136719 314.027344 517.5 313.867188 515.859375 C 313.707031 514.21875 313.585938 512.578125 313.503906 510.929688 C 313.421875 509.285156 313.382812 507.636719 313.382812 505.988281 C 313.382812 504.339844 313.421875 502.695312 313.503906 501.046875 C 313.585938 499.402344 313.707031 497.757812 313.867188 496.117188 C 314.027344 494.476562 314.230469 492.84375 314.472656 491.210938 C 314.714844 489.582031 314.996094 487.957031 315.316406 486.339844 C 315.640625 484.726562 316 483.117188 316.398438 481.519531 C 316.800781 479.917969 317.238281 478.332031 317.71875 476.753906 C 318.195312 475.175781 318.714844 473.613281 319.269531 472.0625 C 319.824219 470.507812 320.417969 468.972656 321.046875 467.449219 C 321.679688 465.925781 322.347656 464.421875 323.050781 462.929688 C 323.757812 461.441406 324.496094 459.96875 325.273438 458.515625 C 326.050781 457.0625 326.863281 455.628906 327.710938 454.214844 C 328.558594 452.800781 329.4375 451.40625 330.355469 450.039062 C 331.269531 448.667969 332.21875 447.320312 333.199219 445.996094 C 334.183594 444.671875 335.195312 443.375 336.242188 442.097656 C 337.289062 440.824219 338.363281 439.578125 339.472656 438.355469 C 340.578125 437.136719 341.714844 435.941406 342.878906 434.777344 C 344.042969 433.609375 345.238281 432.476562 346.460938 431.367188 C 347.679688 430.261719 348.929688 429.183594 350.203125 428.140625 C 351.476562 427.09375 352.777344 426.078125 354.097656 425.097656 C 355.421875 424.117188 356.769531 423.167969 358.140625 422.25 C 359.511719 421.335938 360.902344 420.453125 362.316406 419.605469 C 363.730469 418.761719 365.164062 417.949219 366.617188 417.171875 C 368.070312 416.394531 369.542969 415.652344 371.03125 414.949219 C 372.523438 414.242188 374.03125 413.574219 375.550781 412.945312 C 377.074219 412.3125 378.613281 411.722656 380.164062 411.167969 C 381.714844 410.609375 383.28125 410.09375 384.859375 409.617188 C 386.433594 409.136719 388.023438 408.699219 389.621094 408.296875 C 391.21875 407.898438 392.828125 407.535156 394.445312 407.214844 C 396.0625 406.894531 397.683594 406.609375 399.316406 406.367188 C 400.945312 406.128906 402.582031 405.925781 404.222656 405.765625 C 405.859375 405.601562 407.503906 405.480469 409.152344 405.398438 C 410.796875 405.320312 412.445312 405.277344 414.09375 405.277344 C 415.742188 405.277344 417.386719 405.320312 419.035156 405.398438 C 420.679688 405.480469 422.324219 405.601562 423.964844 405.765625 C 425.605469 405.925781 427.238281 406.128906 428.871094 406.367188 C 430.5 406.609375 432.125 406.894531 433.738281 407.214844 C 435.355469 407.535156 436.964844 407.898438 438.5625 408.296875 C 440.160156 408.699219 441.75 409.136719 443.328125 409.617188 C 444.902344 410.09375 446.46875 410.609375 448.019531 411.167969 C 449.574219 411.722656 451.109375 412.3125 452.632812 412.945312 C 454.15625 413.574219 455.660156 414.242188 457.152344 414.949219 C 458.640625 415.652344 460.113281 416.394531 461.566406 417.171875 C 463.019531 417.949219 464.453125 418.761719 465.867188 419.605469 C 467.28125 420.453125 468.671875 421.335938 470.042969 422.25 C 471.414062 423.167969 472.761719 424.117188 474.085938 425.097656 C 475.410156 426.078125 476.707031 427.09375 477.980469 428.140625 C 479.257812 429.183594 480.503906 430.261719 481.726562 431.367188 C 482.945312 432.476562 484.140625 433.609375 485.304688 434.777344 C 486.46875 435.941406 487.605469 437.136719 488.714844 438.355469 C 489.820312 439.578125 490.898438 440.824219 491.941406 442.097656 C 492.988281 443.375 494 444.671875 494.984375 445.996094 C 495.964844 447.320312 496.914062 448.667969 497.828125 450.039062 C 498.746094 451.40625 499.625 452.800781 500.472656 454.214844 C 501.320312 455.628906 502.132812 457.0625 502.910156 458.515625 C 503.6875 459.96875 504.429688 461.441406 505.132812 462.929688 C 505.835938 464.421875 506.503906 465.925781 507.136719 467.449219 C 507.765625 468.972656 508.359375 470.507812 508.914062 472.0625 C 509.46875 473.613281 509.988281 475.175781 510.464844 476.753906 C 510.945312 478.332031 511.382812 479.917969 511.785156 481.519531 C 512.183594 483.117188 512.546875 484.726562 512.867188 486.339844 C 513.1875 487.957031 513.46875 489.582031 513.710938 491.210938 C 513.953125 492.84375 514.15625 494.476562 514.316406 496.117188 C 514.480469 497.757812 514.601562 499.402344 514.679688 501.046875 C 514.761719 502.695312 514.800781 504.339844 514.800781 505.988281 Z M 514.800781 505.988281 " fill-opacity="1" fill-rule="nonzero"/><g clip-path="url(#2a6a9371ae)"><path fill="#27c93f" d="M 809.566406 505.988281 C 809.566406 507.636719 809.523438 509.285156 809.445312 510.929688 C 809.363281 512.578125 809.242188 514.21875 809.078125 515.859375 C 808.917969 517.5 808.714844 519.136719 808.476562 520.765625 C 808.234375 522.398438 807.949219 524.019531 807.628906 525.636719 C 807.308594 527.253906 806.945312 528.859375 806.546875 530.460938 C 806.144531 532.058594 805.707031 533.648438 805.226562 535.222656 C 804.75 536.800781 804.234375 538.367188 803.675781 539.917969 C 803.121094 541.46875 802.527344 543.007812 801.898438 544.527344 C 801.269531 546.050781 800.601562 547.558594 799.894531 549.046875 C 799.191406 550.539062 798.449219 552.011719 797.671875 553.464844 C 796.894531 554.917969 796.082031 556.351562 795.234375 557.765625 C 794.390625 559.179688 793.507812 560.570312 792.59375 561.941406 C 791.675781 563.3125 790.726562 564.660156 789.746094 565.980469 C 788.765625 567.304688 787.75 568.605469 786.703125 569.878906 C 785.660156 571.152344 784.582031 572.402344 783.476562 573.621094 C 782.367188 574.84375 781.234375 576.035156 780.066406 577.203125 C 778.902344 578.367188 777.707031 579.503906 776.488281 580.609375 C 775.265625 581.71875 774.019531 582.792969 772.746094 583.839844 C 771.46875 584.882812 770.171875 585.898438 768.847656 586.878906 C 767.523438 587.863281 766.175781 588.8125 764.804688 589.726562 C 763.4375 590.640625 762.042969 591.523438 760.628906 592.371094 C 759.214844 593.21875 757.78125 594.03125 756.328125 594.808594 C 754.875 595.585938 753.402344 596.324219 751.914062 597.03125 C 750.421875 597.734375 748.917969 598.402344 747.394531 599.03125 C 745.871094 599.664062 744.335938 600.257812 742.78125 600.8125 C 741.230469 601.367188 739.667969 601.882812 738.089844 602.363281 C 736.511719 602.839844 734.925781 603.28125 733.324219 603.679688 C 731.726562 604.082031 730.117188 604.441406 728.503906 604.765625 C 726.886719 605.085938 725.261719 605.367188 723.632812 605.609375 C 722 605.851562 720.367188 606.054688 718.726562 606.214844 C 717.085938 606.375 715.441406 606.496094 713.796875 606.578125 C 712.148438 606.660156 710.503906 606.699219 708.855469 606.699219 C 707.207031 606.699219 705.558594 606.660156 703.914062 606.578125 C 702.265625 606.496094 700.625 606.375 698.984375 606.214844 C 697.34375 606.054688 695.707031 605.851562 694.078125 605.609375 C 692.445312 605.367188 690.824219 605.085938 689.207031 604.765625 C 687.589844 604.441406 685.984375 604.082031 684.382812 603.679688 C 682.785156 603.28125 681.195312 602.839844 679.621094 602.363281 C 678.042969 601.882812 676.476562 601.367188 674.925781 600.8125 C 673.375 600.257812 671.835938 599.664062 670.3125 599.03125 C 668.792969 598.402344 667.285156 597.734375 665.796875 597.03125 C 664.304688 596.324219 662.832031 595.585938 661.378906 594.808594 C 659.925781 594.03125 658.492188 593.21875 657.078125 592.371094 C 655.664062 591.523438 654.273438 590.640625 652.902344 589.726562 C 651.53125 588.8125 650.183594 587.863281 648.863281 586.878906 C 647.539062 585.898438 646.238281 584.882812 644.964844 583.839844 C 643.691406 582.792969 642.441406 581.71875 641.222656 580.609375 C 640 579.503906 638.808594 578.367188 637.640625 577.203125 C 636.476562 576.035156 635.339844 574.84375 634.234375 573.621094 C 633.125 572.402344 632.050781 571.152344 631.003906 569.878906 C 629.957031 568.605469 628.945312 567.304688 627.964844 565.980469 C 626.980469 564.660156 626.03125 563.3125 625.117188 561.941406 C 624.203125 560.570312 623.320312 559.179688 622.472656 557.765625 C 621.625 556.351562 620.8125 554.917969 620.035156 553.464844 C 619.257812 552.011719 618.519531 550.539062 617.8125 549.046875 C 617.109375 547.558594 616.441406 546.050781 615.808594 544.527344 C 615.179688 543.007812 614.585938 541.46875 614.03125 539.917969 C 613.476562 538.367188 612.960938 536.800781 612.480469 535.222656 C 612.003906 533.648438 611.5625 532.058594 611.164062 530.460938 C 610.761719 528.859375 610.402344 527.253906 610.078125 525.636719 C 609.757812 524.019531 609.476562 522.398438 609.234375 520.765625 C 608.992188 519.136719 608.789062 517.5 608.628906 515.859375 C 608.46875 514.21875 608.347656 512.578125 608.265625 510.929688 C 608.183594 509.285156 608.144531 507.636719 608.144531 505.988281 C 608.144531 504.339844 608.183594 502.695312 608.265625 501.046875 C 608.347656 499.402344 608.46875 497.757812 608.628906 496.117188 C 608.789062 494.476562 608.992188 492.84375 609.234375 491.210938 C 609.476562 489.582031 609.757812 487.957031 610.078125 486.339844 C 610.402344 484.726562 610.761719 483.117188 611.164062 481.519531 C 611.5625 479.917969 612.003906 478.332031 612.480469 476.753906 C 612.960938 475.175781 613.476562 473.613281 614.03125 472.0625 C 614.585938 470.507812 615.179688 468.972656 615.808594 467.449219 C 616.441406 465.925781 617.109375 464.421875 617.8125 462.929688 C 618.519531 461.441406 619.257812 459.96875 620.035156 458.515625 C 620.8125 457.0625 621.625 455.628906 622.472656 454.214844 C 623.320312 452.800781 624.203125 451.40625 625.117188 450.039062 C 626.03125 448.667969 626.980469 447.320312 627.964844 445.996094 C 628.945312 444.671875 629.960938 443.375 631.003906 442.097656 C 632.050781 440.824219 633.125 439.578125 634.234375 438.355469 C 635.339844 437.136719 636.476562 435.941406 637.640625 434.777344 C 638.808594 433.609375 640 432.476562 641.222656 431.367188 C 642.441406 430.261719 643.691406 429.183594 644.964844 428.140625 C 646.238281 427.09375 647.539062 426.078125 648.863281 425.097656 C 650.183594 424.117188 651.53125 423.167969 652.902344 422.25 C 654.273438 421.335938 655.664062 420.453125 657.078125 419.605469 C 658.492188 418.761719 659.925781 417.949219 661.378906 417.171875 C 662.832031 416.394531 664.304688 415.652344 665.796875 414.949219 C 667.285156 414.242188 668.792969 413.574219 670.3125 412.945312 C 671.835938 412.3125 673.375 411.722656 674.925781 411.167969 C 676.476562 410.609375 678.042969 410.09375 679.621094 409.617188 C 681.195312 409.136719 682.785156 408.699219 684.382812 408.296875 C 685.984375 407.898438 687.589844 407.535156 689.207031 407.214844 C 690.824219 406.894531 692.445312 406.609375 694.078125 406.367188 C 695.707031 406.128906 697.34375 405.925781 698.984375 405.765625 C 700.625 405.601562 702.265625 405.480469 703.914062 405.398438 C 705.558594 405.320312 707.207031 405.277344 708.855469 405.277344 C 710.503906 405.277344 712.148438 405.320312 713.796875 405.398438 C 715.441406 405.480469 717.085938 405.601562 718.726562 405.765625 C 720.367188 405.925781 722 406.128906 723.632812 406.367188 C 725.261719 406.609375 726.886719 406.894531 728.503906 407.214844 C 730.117188 407.535156 731.726562 407.898438 733.324219 408.296875 C 734.925781 408.699219 736.511719 409.136719 738.089844 409.617188 C 739.667969 410.09375 741.230469 410.609375 742.78125 411.167969 C 744.335938 411.722656 745.871094 412.3125 747.394531 412.945312 C 748.917969 413.574219 750.421875 414.242188 751.914062 414.949219 C 753.402344 415.652344 754.875 416.394531 756.328125 417.171875 C 757.78125 417.949219 759.214844 418.761719 760.628906 419.605469 C 762.042969 420.453125 763.4375 421.335938 764.804688 422.25 C 766.175781 423.167969 767.523438 424.117188 768.847656 425.097656 C 770.171875 426.078125 771.46875 427.09375 772.746094 428.140625 C 774.019531 429.183594 775.265625 430.261719 776.488281 431.367188 C 777.707031 432.476562 778.902344 433.609375 780.066406 434.777344 C 781.234375 435.941406 782.367188 437.136719 783.476562 438.355469 C 784.582031 439.578125 785.660156 440.824219 786.703125 442.097656 C 787.75 443.375 788.765625 444.671875 789.746094 445.996094 C 790.726562 447.320312 791.675781 448.667969 792.59375 450.039062 C 793.507812 451.40625 794.390625 452.800781 795.234375 454.214844 C 796.082031 455.628906 796.894531 457.0625 797.671875 458.515625 C 798.449219 459.96875 799.191406 461.441406 799.894531 462.929688 C 800.601562 464.421875 801.269531 465.925781 801.898438 467.449219 C 802.527344 468.972656 803.121094 470.507812 803.675781 472.0625 C 804.234375 473.613281 804.75 475.175781 805.226562 476.753906 C 805.707031 478.332031 806.144531 479.917969 806.546875 481.519531 C 806.945312 483.117188 807.308594 484.726562 807.628906 486.339844 C 807.949219 487.957031 808.234375 489.582031 808.476562 491.210938 C 808.714844 492.84375 808.917969 494.476562 809.078125 496.117188 C 809.242188 497.757812 809.363281 499.402344 809.445312 501.046875 C 809.523438 502.695312 809.566406 504.339844 809.566406 505.988281 Z M 809.566406 505.988281 " fill-opacity="1" fill-rule="nonzero"/></g><g fill="#000000" fill-opacity="1"><g transform="translate(443.639523, 634.871806)"><g><path d="M 3.9375 0.140625 C 3.382812 0.140625 2.945312 -0.015625 2.625 -0.328125 C 2.300781 -0.640625 2.140625 -1.050781 2.140625 -1.5625 C 2.140625 -2.070312 2.300781 -2.488281 2.625 -2.8125 C 2.945312 -3.144531 3.382812 -3.3125 3.9375 -3.3125 C 4.5 -3.3125 4.941406 -3.15625 5.265625 -2.84375 C 5.585938 -2.53125 5.75 -2.113281 5.75 -1.59375 C 5.75 -1.070312 5.582031 -0.648438 5.25 -0.328125 C 4.925781 -0.015625 4.488281 0.140625 3.9375 0.140625 Z M 3.9375 0.140625 "/></g></g></g><g fill="#ffffff" fill-opacity="1"><g transform="translate(699.369874, 848.341006)"><g><path d="M 45.609375 1.703125 C 39.160156 1.703125 34.070312 -0.101562 30.34375 -3.71875 C 26.613281 -7.34375 24.75 -12.148438 24.75 -18.140625 C 24.75 -24.015625 26.613281 -28.84375 30.34375 -32.625 C 34.070312 -36.414062 39.160156 -38.3125 45.609375 -38.3125 C 52.160156 -38.3125 57.300781 -36.503906 61.03125 -32.890625 C 64.757812 -29.273438 66.625 -24.472656 66.625 -18.484375 C 66.625 -12.492188 64.726562 -7.628906 60.9375 -3.890625 C 57.15625 -0.160156 52.046875 1.703125 45.609375 1.703125 Z M 45.609375 1.703125 "/></g></g></g><g fill="#ffffff" fill-opacity="1"><g transform="translate(616.024335, 789.004056)"><g><path d="M 3.9375 0.140625 C 3.382812 0.140625 2.945312 -0.015625 2.625 -0.328125 C 2.300781 -0.640625 2.140625 -1.050781 2.140625 -1.5625 C 2.140625 -2.070312 2.300781 -2.488281 2.625 -2.8125 C 2.945312 -3.144531 3.382812 -3.3125 3.9375 -3.3125 C 4.5 -3.3125 4.941406 -3.15625 5.265625 -2.84375 C 5.585938 -2.53125 5.75 -2.113281 5.75 -1.59375 C 5.75 -1.070312 5.582031 -0.648438 5.25 -0.328125 C 4.925781 -0.015625 4.488281 0.140625 3.9375 0.140625 Z M 3.9375 0.140625 "/></g></g></g></svg>