<svg xmlns="http://www.w3.org/2000/svg" xmlns:xlink="http://www.w3.org/1999/xlink" width="1080" zoomAndPan="magnify" viewBox="0 0 810 1012.49997" height="1350" preserveAspectRatio="xMidYMid meet" version="1.0"><defs><g/><clipPath id="c47dbdb2ba"><path d="M 54 142 L 809.800781 142 L 809.800781 907.554688 L 54 907.554688 Z M 54 142 " clip-rule="nonzero"/></clipPath><clipPath id="f670a0ac11"><path d="M 0.199219 114.449219 L 766 114.449219 L 766 880 L 0.199219 880 Z M 0.199219 114.449219 " clip-rule="nonzero"/></clipPath></defs><g clip-path="url(#c47dbdb2ba)"><path fill="#000000" d="M 792.957031 415.339844 L 792.957031 360.679688 L 765.621094 360.679688 L 765.621094 306.015625 L 738.285156 306.015625 L 738.285156 278.683594 L 710.949219 278.683594 L 710.949219 251.351562 L 683.613281 251.351562 L 683.613281 224.019531 L 656.277344 224.019531 L 656.277344 196.6875 L 628.9375 196.6875 L 628.9375 169.359375 L 546.929688 169.359375 L 546.929688 142.027344 L 328.238281 142.027344 L 328.238281 169.359375 L 246.226562 169.359375 L 246.226562 196.6875 L 218.890625 196.6875 L 218.890625 224.019531 L 191.554688 224.019531 L 191.554688 251.351562 L 164.21875 251.351562 L 164.21875 278.683594 L 136.882812 278.683594 L 136.882812 306.015625 L 109.546875 306.015625 L 109.546875 360.679688 L 82.210938 360.679688 L 82.210938 415.339844 L 54.871094 415.339844 L 54.871094 633.992188 L 82.210938 633.992188 L 82.210938 688.65625 L 109.546875 688.65625 L 109.546875 743.320312 L 136.882812 743.320312 L 136.882812 770.652344 L 164.21875 770.652344 L 164.21875 797.984375 L 191.554688 797.984375 L 191.554688 825.316406 L 218.890625 825.316406 L 218.890625 852.644531 L 246.226562 852.644531 L 246.226562 879.976562 L 328.238281 879.976562 L 328.238281 907.308594 L 546.929688 907.308594 L 546.929688 879.976562 L 628.9375 879.976562 L 628.9375 852.644531 L 656.277344 852.644531 L 656.277344 825.316406 L 683.613281 825.316406 L 683.613281 797.984375 L 710.949219 797.984375 L 710.949219 770.652344 L 738.285156 770.652344 L 738.285156 743.320312 L 765.621094 743.320312 L 765.621094 688.65625 L 792.957031 688.65625 L 792.957031 633.992188 L 820.292969 633.992188 L 820.292969 415.339844 Z M 792.957031 415.339844 " fill-opacity="0.3" fill-rule="nonzero"/></g><path fill="#ed1c24" d="M 27.535156 606.664062 L 27.535156 388.011719 L 54.871094 333.347656 L 82.210938 278.683594 L 191.554688 169.359375 L 273.566406 142.027344 L 492.257812 142.027344 L 574.265625 169.359375 L 683.613281 278.683594 L 738.285156 388.011719 L 738.285156 606.664062 L 710.949219 661.324219 L 683.613281 715.988281 L 574.265625 825.316406 L 492.257812 852.644531 L 273.566406 852.644531 L 191.554688 825.316406 L 82.210938 715.988281 Z M 27.535156 606.664062 " fill-opacity="1" fill-rule="nonzero"/><path fill="#000000" d="M 273.566406 196.6875 L 191.554688 196.6875 L 191.554688 169.359375 L 273.566406 169.359375 Z M 191.554688 196.6875 L 164.21875 196.6875 L 164.21875 224.019531 L 191.554688 224.019531 Z M 164.21875 224.019531 L 136.882812 224.019531 L 136.882812 251.351562 L 164.21875 251.351562 Z M 136.882812 251.351562 L 109.546875 251.351562 L 109.546875 278.683594 L 136.882812 278.683594 Z M 109.546875 306.015625 L 109.546875 278.683594 L 82.210938 278.683594 L 82.210938 333.347656 L 109.546875 333.347656 Z M 82.210938 360.679688 L 82.210938 333.347656 L 54.871094 333.347656 L 54.871094 388.011719 L 82.210938 388.011719 Z M 54.871094 552 L 54.871094 388.011719 L 27.535156 388.011719 L 27.535156 606.664062 L 54.871094 606.664062 Z M 82.210938 606.664062 L 54.871094 606.664062 L 54.871094 661.324219 L 82.210938 661.324219 Z M 109.546875 661.324219 L 82.210938 661.324219 L 82.210938 715.988281 L 109.546875 715.988281 Z M 109.546875 715.988281 L 109.546875 743.320312 L 136.882812 743.320312 L 136.882812 715.988281 Z M 136.882812 743.320312 L 136.882812 770.652344 L 164.21875 770.652344 L 164.21875 743.320312 Z M 164.21875 770.652344 L 164.21875 797.984375 L 191.554688 797.984375 L 191.554688 770.652344 Z M 191.554688 797.984375 L 191.554688 825.316406 L 273.566406 825.316406 L 273.566406 797.984375 Z M 273.566406 825.316406 L 273.566406 852.644531 L 492.257812 852.644531 L 492.257812 825.316406 Z M 273.566406 825.316406 " fill-opacity="0.3" fill-rule="nonzero"/><g clip-path="url(#f670a0ac11)"><path fill="#000000" d="M 300.902344 142.027344 L 273.566406 142.027344 L 273.566406 114.695312 L 492.257812 114.695312 L 492.257812 142.027344 Z M 246.226562 169.359375 L 273.566406 169.359375 L 273.566406 142.027344 L 191.554688 142.027344 L 191.554688 169.359375 Z M 519.59375 169.359375 L 574.265625 169.359375 L 574.265625 142.027344 L 492.257812 142.027344 L 492.257812 169.359375 Z M 191.554688 169.359375 L 164.21875 169.359375 L 164.21875 196.6875 L 191.554688 196.6875 Z M 601.601562 196.6875 L 601.601562 169.359375 L 574.265625 169.359375 L 574.265625 196.6875 Z M 164.21875 196.6875 L 136.882812 196.6875 L 136.882812 224.019531 L 164.21875 224.019531 Z M 628.9375 224.019531 L 628.9375 196.6875 L 601.601562 196.6875 L 601.601562 224.019531 Z M 136.882812 224.019531 L 109.546875 224.019531 L 109.546875 251.351562 L 136.882812 251.351562 Z M 656.277344 251.351562 L 656.277344 224.019531 L 628.9375 224.019531 L 628.9375 251.351562 Z M 109.546875 251.351562 L 82.210938 251.351562 L 82.210938 278.683594 L 109.546875 278.683594 Z M 683.613281 278.683594 L 683.613281 251.351562 L 656.277344 251.351562 L 656.277344 278.683594 Z M 82.210938 306.015625 L 82.210938 278.683594 L 54.871094 278.683594 L 54.871094 333.347656 L 82.210938 333.347656 Z M 683.613281 333.347656 L 710.949219 333.347656 L 710.949219 278.683594 L 683.613281 278.683594 Z M 54.871094 360.679688 L 54.871094 333.347656 L 27.535156 333.347656 L 27.535156 388.011719 L 54.871094 388.011719 Z M 710.949219 388.011719 L 738.285156 388.011719 L 738.285156 333.347656 L 710.949219 333.347656 Z M 738.285156 388.011719 L 738.285156 606.664062 L 765.621094 606.664062 L 765.621094 388.011719 Z M 27.535156 552 L 27.535156 388.011719 L 0.199219 388.011719 L 0.199219 606.664062 L 27.535156 606.664062 Z M 54.871094 606.664062 L 27.535156 606.664062 L 27.535156 661.324219 L 54.871094 661.324219 Z M 710.949219 633.992188 L 710.949219 661.324219 L 738.285156 661.324219 L 738.285156 606.664062 L 710.949219 606.664062 Z M 82.210938 661.324219 L 54.871094 661.324219 L 54.871094 715.988281 L 82.210938 715.988281 Z M 683.613281 688.65625 L 683.613281 715.988281 L 710.949219 715.988281 L 710.949219 661.324219 L 683.613281 661.324219 Z M 82.210938 715.988281 L 82.210938 743.320312 L 109.546875 743.320312 L 109.546875 715.988281 Z M 656.277344 743.320312 L 683.613281 743.320312 L 683.613281 715.988281 L 656.277344 715.988281 Z M 109.546875 743.320312 L 109.546875 770.652344 L 136.882812 770.652344 L 136.882812 743.320312 Z M 628.9375 770.652344 L 656.277344 770.652344 L 656.277344 743.320312 L 628.9375 743.320312 Z M 136.882812 770.652344 L 136.882812 797.984375 L 164.21875 797.984375 L 164.21875 770.652344 Z M 601.601562 797.984375 L 628.9375 797.984375 L 628.9375 770.652344 L 601.601562 770.652344 Z M 164.21875 797.984375 L 164.21875 825.316406 L 191.554688 825.316406 L 191.554688 797.984375 Z M 574.265625 825.316406 L 601.601562 825.316406 L 601.601562 797.984375 L 574.265625 797.984375 Z M 246.226562 825.316406 L 191.554688 825.316406 L 191.554688 852.644531 L 273.566406 852.644531 L 273.566406 825.316406 Z M 519.59375 825.316406 L 492.257812 825.316406 L 492.257812 852.644531 L 574.265625 852.644531 L 574.265625 825.316406 Z M 437.582031 852.644531 L 273.566406 852.644531 L 273.566406 879.976562 L 492.257812 879.976562 L 492.257812 852.644531 Z M 437.582031 852.644531 " fill-opacity="1" fill-rule="nonzero"/></g><path fill="#ffffff" d="M 464.921875 470.003906 L 464.921875 524.667969 L 492.257812 524.667969 L 492.257812 552 L 519.59375 552 L 519.59375 579.332031 L 546.929688 579.332031 L 546.929688 606.664062 L 574.265625 606.664062 L 574.265625 633.992188 L 601.601562 633.992188 L 601.601562 661.324219 L 574.265625 661.324219 L 574.265625 688.65625 L 546.929688 688.65625 L 546.929688 715.988281 L 519.59375 715.988281 L 519.59375 688.65625 L 492.257812 688.65625 L 492.257812 661.324219 L 464.921875 661.324219 L 464.921875 633.992188 L 437.582031 633.992188 L 437.582031 606.664062 L 410.246094 606.664062 L 410.246094 579.332031 L 355.574219 579.332031 L 355.574219 606.664062 L 328.238281 606.664062 L 328.238281 633.992188 L 300.902344 633.992188 L 300.902344 661.324219 L 273.566406 661.324219 L 273.566406 688.65625 L 246.226562 688.65625 L 246.226562 715.988281 L 218.890625 715.988281 L 218.890625 688.65625 L 191.554688 688.65625 L 191.554688 661.324219 L 164.21875 661.324219 L 164.21875 633.992188 L 191.554688 633.992188 L 191.554688 606.664062 L 218.890625 606.664062 L 218.890625 579.332031 L 246.226562 579.332031 L 246.226562 552 L 273.566406 552 L 273.566406 524.667969 L 300.902344 524.667969 L 300.902344 470.003906 L 273.566406 470.003906 L 273.566406 442.671875 L 246.226562 442.671875 L 246.226562 415.339844 L 218.890625 415.339844 L 218.890625 388.011719 L 191.554688 388.011719 L 191.554688 360.679688 L 164.21875 360.679688 L 164.21875 333.347656 L 191.554688 333.347656 L 191.554688 306.015625 L 218.890625 306.015625 L 218.890625 278.683594 L 246.226562 278.683594 L 246.226562 306.015625 L 273.566406 306.015625 L 273.566406 333.347656 L 300.902344 333.347656 L 300.902344 360.679688 L 328.238281 360.679688 L 328.238281 388.011719 L 355.574219 388.011719 L 355.574219 415.339844 L 410.246094 415.339844 L 410.246094 388.011719 L 437.582031 388.011719 L 437.582031 360.679688 L 464.921875 360.679688 L 464.921875 333.347656 L 492.257812 333.347656 L 492.257812 306.015625 L 519.59375 306.015625 L 519.59375 278.683594 L 546.929688 278.683594 L 546.929688 306.015625 L 574.265625 306.015625 L 574.265625 333.347656 L 601.601562 333.347656 L 601.601562 360.679688 L 574.265625 360.679688 L 574.265625 388.011719 L 546.929688 388.011719 L 546.929688 415.339844 L 519.59375 415.339844 L 519.59375 442.671875 L 492.257812 442.671875 L 492.257812 470.003906 Z M 464.921875 470.003906 " fill-opacity="1" fill-rule="nonzero"/><path fill="#ffffff" d="M 492.257812 797.984375 L 574.265625 797.984375 L 574.265625 825.316406 L 492.257812 825.316406 Z M 574.265625 797.984375 L 601.601562 797.984375 L 601.601562 770.652344 L 574.265625 770.652344 Z M 601.601562 770.652344 L 628.9375 770.652344 L 628.9375 743.320312 L 601.601562 743.320312 Z M 628.9375 743.320312 L 656.277344 743.320312 L 656.277344 715.988281 L 628.9375 715.988281 Z M 656.277344 688.65625 L 656.277344 715.988281 L 683.613281 715.988281 L 683.613281 661.324219 L 656.277344 661.324219 Z M 683.613281 633.992188 L 683.613281 661.324219 L 710.949219 661.324219 L 710.949219 606.664062 L 683.613281 606.664062 Z M 710.949219 388.011719 L 710.949219 606.664062 L 738.285156 606.664062 L 738.285156 388.011719 Z M 710.949219 333.347656 L 683.613281 333.347656 L 683.613281 388.011719 L 710.949219 388.011719 Z M 683.613281 278.683594 L 656.277344 278.683594 L 656.277344 333.347656 L 683.613281 333.347656 Z M 628.9375 251.351562 L 628.9375 278.683594 L 656.277344 278.683594 L 656.277344 251.351562 Z M 601.601562 224.019531 L 601.601562 251.351562 L 628.9375 251.351562 L 628.9375 224.019531 Z M 574.265625 196.6875 L 574.265625 224.019531 L 601.601562 224.019531 L 601.601562 196.6875 Z M 492.257812 169.359375 L 492.257812 196.6875 L 574.265625 196.6875 L 574.265625 169.359375 Z M 273.566406 142.027344 L 273.566406 169.359375 L 492.257812 169.359375 L 492.257812 142.027344 Z M 273.566406 142.027344 " fill-opacity="0.3" fill-rule="nonzero"/><g fill="#53c1de" fill-opacity="1"><g transform="translate(306.244258, 429.052819)"><g><path d="M 3.9375 0.140625 C 3.382812 0.140625 2.945312 -0.015625 2.625 -0.328125 C 2.300781 -0.640625 2.140625 -1.050781 2.140625 -1.5625 C 2.140625 -2.070312 2.300781 -2.488281 2.625 -2.8125 C 2.945312 -3.144531 3.382812 -3.3125 3.9375 -3.3125 C 4.5 -3.3125 4.941406 -3.15625 5.265625 -2.84375 C 5.585938 -2.53125 5.75 -2.113281 5.75 -1.59375 C 5.75 -1.070312 5.582031 -0.648438 5.25 -0.328125 C 4.925781 -0.015625 4.488281 0.140625 3.9375 0.140625 Z M 3.9375 0.140625 "/></g></g></g><g fill="#000000" fill-opacity="1"><g transform="translate(17.41633, 517.244534)"><g><path d="M 3.9375 0.140625 C 3.382812 0.140625 2.945312 -0.015625 2.625 -0.328125 C 2.300781 -0.640625 2.140625 -1.050781 2.140625 -1.5625 C 2.140625 -2.070312 2.300781 -2.488281 2.625 -2.8125 C 2.945312 -3.144531 3.382812 -3.3125 3.9375 -3.3125 C 4.5 -3.3125 4.941406 -3.15625 5.265625 -2.84375 C 5.585938 -2.53125 5.75 -2.113281 5.75 -1.59375 C 5.75 -1.070312 5.582031 -0.648438 5.25 -0.328125 C 4.925781 -0.015625 4.488281 0.140625 3.9375 0.140625 Z M 3.9375 0.140625 "/></g></g></g></svg>