<svg xmlns="http://www.w3.org/2000/svg" xmlns:xlink="http://www.w3.org/1999/xlink" width="1080" zoomAndPan="magnify" viewBox="0 0 810 1012.49997" height="1350" preserveAspectRatio="xMidYMid meet" version="1.0"><defs><clipPath id="f8bcc4e252"><path d="M 777 360 L 809.601562 360 L 809.601562 684 L 777 684 Z M 777 360 " clip-rule="nonzero"/></clipPath><clipPath id="dbaa3917f2"><path d="M 0.398438 360 L 33 360 L 33 684 L 0.398438 684 Z M 0.398438 360 " clip-rule="nonzero"/></clipPath></defs><path fill="#ffffff" d="M 777.222656 554.3125 L 777.222656 586.675781 L 744.859375 586.675781 L 744.859375 619.039062 L 712.496094 619.039062 L 712.496094 651.402344 L 680.132812 651.402344 L 680.132812 683.78125 L 647.753906 683.78125 L 647.753906 651.402344 L 615.390625 651.402344 L 615.390625 619.039062 L 583.027344 619.039062 L 583.027344 554.3125 L 226.980469 554.3125 L 226.980469 619.039062 L 194.605469 619.039062 L 194.605469 651.402344 L 162.242188 651.402344 L 162.242188 683.78125 L 129.875 683.78125 L 129.875 651.402344 L 97.511719 651.402344 L 97.511719 619.039062 L 65.136719 619.039062 L 65.136719 586.675781 L 32.773438 586.675781 L 32.773438 360.097656 L 65.136719 360.097656 L 65.136719 327.734375 L 97.511719 327.734375 L 97.511719 295.359375 L 226.984375 295.359375 L 226.984375 327.734375 L 259.347656 327.734375 L 259.347656 360.097656 L 550.664062 360.097656 L 550.664062 327.734375 L 583.027344 327.734375 L 583.027344 295.359375 L 712.5 295.359375 L 712.5 327.734375 L 744.863281 327.734375 L 744.863281 360.097656 L 777.226562 360.097656 L 777.226562 554.3125 Z M 744.859375 489.566406 L 744.859375 424.835938 L 680.132812 424.835938 L 680.132812 360.097656 L 615.390625 360.097656 L 615.390625 424.835938 L 550.664062 424.835938 L 550.664062 489.566406 L 615.390625 489.566406 L 615.390625 554.308594 L 680.132812 554.308594 L 680.132812 489.566406 Z M 485.917969 457.203125 L 485.917969 424.835938 L 421.175781 424.835938 L 421.175781 457.203125 Z M 388.8125 457.203125 L 388.8125 424.835938 L 324.082031 424.835938 L 324.082031 457.203125 Z M 226.976562 489.566406 L 226.976562 424.835938 L 194.601562 424.835938 L 194.601562 392.460938 L 129.871094 392.460938 L 129.871094 424.835938 L 97.507812 424.835938 L 97.507812 489.566406 L 129.871094 489.566406 L 129.871094 521.929688 L 194.601562 521.929688 L 194.601562 489.566406 Z M 226.976562 489.566406 " fill-opacity="1" fill-rule="nonzero"/><path fill="#dd0512" d="M 712.496094 424.835938 L 680.128906 424.835938 L 680.128906 489.566406 L 744.859375 489.566406 L 744.859375 424.835938 Z M 712.496094 424.835938 " fill-opacity="1" fill-rule="nonzero"/><path fill="#ffffff" d="M 615.386719 424.835938 L 680.128906 424.835938 L 680.128906 489.566406 L 615.386719 489.566406 Z M 615.386719 424.835938 " fill-opacity="1" fill-rule="nonzero"/><path fill="#63bff3" d="M 647.75 489.566406 L 615.386719 489.566406 L 615.386719 554.3125 L 680.128906 554.3125 L 680.128906 489.566406 Z M 647.75 489.566406 " fill-opacity="1" fill-rule="nonzero"/><path fill="#39ac37" d="M 647.75 360.097656 L 615.386719 360.097656 L 615.386719 424.835938 L 680.128906 424.835938 L 680.128906 360.097656 Z M 647.75 360.097656 " fill-opacity="1" fill-rule="nonzero"/><path fill="#f4dc1c" d="M 583.023438 424.835938 L 550.660156 424.835938 L 550.660156 489.566406 L 615.386719 489.566406 L 615.386719 424.835938 Z M 583.023438 424.835938 " fill-opacity="1" fill-rule="nonzero"/><path fill="#c7c7c5" d="M 744.859375 586.675781 L 744.859375 619.039062 L 712.496094 619.039062 L 712.496094 651.402344 L 680.128906 651.402344 L 680.128906 683.78125 L 647.75 683.78125 L 647.75 716.144531 L 744.859375 716.144531 L 744.859375 683.78125 L 777.222656 683.78125 L 777.222656 586.675781 Z M 744.859375 586.675781 " fill-opacity="1" fill-rule="nonzero"/><path fill="#c7c7c5" d="M 615.386719 651.402344 L 647.75 651.402344 L 647.75 683.78125 L 615.386719 683.78125 Z M 615.386719 651.402344 " fill-opacity="1" fill-rule="nonzero"/><path fill="#c7c7c5" d="M 583.023438 619.039062 L 615.386719 619.039062 L 615.386719 651.402344 L 583.023438 651.402344 Z M 583.023438 619.039062 " fill-opacity="1" fill-rule="nonzero"/><path fill="#c7c7c5" d="M 583.023438 554.3125 L 226.976562 554.3125 L 226.976562 619.039062 L 259.339844 619.039062 L 259.339844 586.675781 L 550.660156 586.675781 L 550.660156 619.039062 L 583.023438 619.039062 Z M 583.023438 554.3125 " fill-opacity="1" fill-rule="nonzero"/><path fill="#c7c7c5" d="M 194.601562 619.039062 L 226.976562 619.039062 L 226.976562 651.402344 L 194.601562 651.402344 Z M 194.601562 619.039062 " fill-opacity="1" fill-rule="nonzero"/><path fill="#c7c7c5" d="M 162.238281 651.402344 L 194.601562 651.402344 L 194.601562 683.78125 L 162.238281 683.78125 Z M 162.238281 651.402344 " fill-opacity="1" fill-rule="nonzero"/><path fill="#c7c7c5" d="M 129.871094 651.402344 L 97.503906 651.402344 L 97.503906 619.039062 L 65.128906 619.039062 L 65.128906 586.675781 L 32.761719 586.675781 L 32.761719 683.78125 L 65.128906 683.78125 L 65.128906 716.144531 L 162.238281 716.144531 L 162.238281 683.78125 L 129.871094 683.78125 Z M 129.871094 651.402344 " fill-opacity="1" fill-rule="nonzero"/><g clip-path="url(#f8bcc4e252)"><path fill="#000000" d="M 777.222656 360.097656 L 777.222656 683.78125 L 809.601562 683.78125 L 809.601562 360.097656 Z M 777.222656 360.097656 " fill-opacity="1" fill-rule="nonzero"/></g><path fill="#000000" d="M 744.859375 683.78125 L 777.222656 683.78125 L 777.222656 716.140625 L 744.859375 716.140625 Z M 744.859375 683.78125 " fill-opacity="1" fill-rule="nonzero"/><path fill="#000000" d="M 744.859375 327.734375 L 777.222656 327.734375 L 777.222656 360.097656 L 744.859375 360.097656 Z M 744.859375 327.734375 " fill-opacity="1" fill-rule="nonzero"/><path fill="#000000" d="M 712.496094 295.355469 L 744.859375 295.355469 L 744.859375 327.730469 L 712.496094 327.730469 Z M 712.496094 295.355469 " fill-opacity="1" fill-rule="nonzero"/><path fill="#000000" d="M 680.128906 716.144531 L 647.75 716.144531 L 647.75 748.507812 L 744.859375 748.507812 L 744.859375 716.144531 Z M 680.128906 716.144531 " fill-opacity="1" fill-rule="nonzero"/><path fill="#000000" d="M 615.386719 683.78125 L 647.75 683.78125 L 647.75 716.140625 L 615.386719 716.140625 Z M 615.386719 683.78125 " fill-opacity="1" fill-rule="nonzero"/><path fill="#000000" d="M 647.75 295.355469 L 712.496094 295.355469 L 712.496094 262.992188 L 583.023438 262.992188 L 583.023438 295.355469 Z M 647.75 295.355469 " fill-opacity="1" fill-rule="nonzero"/><path fill="#000000" d="M 583.023438 651.402344 L 615.386719 651.402344 L 615.386719 683.78125 L 583.023438 683.78125 Z M 583.023438 651.402344 " fill-opacity="1" fill-rule="nonzero"/><path fill="#000000" d="M 550.660156 619.039062 L 583.023438 619.039062 L 583.023438 651.402344 L 550.660156 651.402344 Z M 550.660156 619.039062 " fill-opacity="1" fill-rule="nonzero"/><path fill="#000000" d="M 550.660156 295.355469 L 583.023438 295.355469 L 583.023438 327.730469 L 550.660156 327.730469 Z M 550.660156 295.355469 " fill-opacity="1" fill-rule="nonzero"/><path fill="#000000" d="M 518.285156 586.675781 L 259.339844 586.675781 L 259.339844 619.039062 L 550.660156 619.039062 L 550.660156 586.675781 Z M 518.285156 586.675781 " fill-opacity="1" fill-rule="nonzero"/><path fill="#000000" d="M 421.175781 424.835938 L 421.175781 457.203125 L 485.917969 457.203125 L 485.917969 424.835938 Z M 421.175781 424.835938 " fill-opacity="1" fill-rule="nonzero"/><path fill="#000000" d="M 324.082031 424.835938 L 324.082031 457.203125 L 388.8125 457.203125 L 388.8125 424.835938 Z M 324.082031 424.835938 " fill-opacity="1" fill-rule="nonzero"/><path fill="#000000" d="M 291.707031 360.097656 L 550.660156 360.097656 L 550.660156 327.734375 L 259.339844 327.734375 L 259.339844 360.097656 Z M 291.707031 360.097656 " fill-opacity="1" fill-rule="nonzero"/><path fill="#000000" d="M 226.976562 619.039062 L 259.339844 619.039062 L 259.339844 651.402344 L 226.976562 651.402344 Z M 226.976562 619.039062 " fill-opacity="1" fill-rule="nonzero"/><path fill="#000000" d="M 226.976562 295.355469 L 259.339844 295.355469 L 259.339844 327.730469 L 226.976562 327.730469 Z M 226.976562 295.355469 " fill-opacity="1" fill-rule="nonzero"/><path fill="#000000" d="M 194.601562 651.402344 L 226.976562 651.402344 L 226.976562 683.78125 L 194.601562 683.78125 Z M 194.601562 651.402344 " fill-opacity="1" fill-rule="nonzero"/><path fill="#000000" d="M 162.238281 683.78125 L 194.601562 683.78125 L 194.601562 716.140625 L 162.238281 716.140625 Z M 162.238281 683.78125 " fill-opacity="1" fill-rule="nonzero"/><path fill="#000000" d="M 194.601562 392.460938 L 129.871094 392.460938 L 129.871094 424.835938 L 97.503906 424.835938 L 97.503906 489.566406 L 129.871094 489.566406 L 129.871094 521.933594 L 194.601562 521.933594 L 194.601562 489.566406 L 226.976562 489.566406 L 226.976562 424.835938 L 194.601562 424.835938 Z M 194.601562 392.460938 " fill-opacity="1" fill-rule="nonzero"/><path fill="#000000" d="M 162.238281 295.355469 L 226.976562 295.355469 L 226.976562 262.992188 L 97.503906 262.992188 L 97.503906 295.355469 Z M 162.238281 295.355469 " fill-opacity="1" fill-rule="nonzero"/><path fill="#000000" d="M 97.503906 716.144531 L 65.128906 716.144531 L 65.128906 748.507812 L 162.238281 748.507812 L 162.238281 716.144531 Z M 97.503906 716.144531 " fill-opacity="1" fill-rule="nonzero"/><path fill="#000000" d="M 65.128906 295.355469 L 97.503906 295.355469 L 97.503906 327.730469 L 65.128906 327.730469 Z M 65.128906 295.355469 " fill-opacity="1" fill-rule="nonzero"/><path fill="#000000" d="M 32.761719 683.78125 L 65.128906 683.78125 L 65.128906 716.140625 L 32.761719 716.140625 Z M 32.761719 683.78125 " fill-opacity="1" fill-rule="nonzero"/><path fill="#000000" d="M 32.761719 327.734375 L 65.128906 327.734375 L 65.128906 360.097656 L 32.761719 360.097656 Z M 32.761719 327.734375 " fill-opacity="1" fill-rule="nonzero"/><g clip-path="url(#dbaa3917f2)"><path fill="#000000" d="M 32.761719 619.039062 L 32.761719 360.097656 L 0.398438 360.097656 L 0.398438 683.78125 L 32.761719 683.78125 Z M 32.761719 619.039062 " fill-opacity="1" fill-rule="nonzero"/></g><path fill="#000000" d="M 447.554688 634.699219 C 447 634.699219 446.5625 634.542969 446.242188 634.230469 C 445.921875 633.917969 445.761719 633.507812 445.761719 632.996094 C 445.761719 632.488281 445.921875 632.070312 446.242188 631.746094 C 446.5625 631.414062 447 631.246094 447.554688 631.246094 C 448.117188 631.246094 448.558594 631.402344 448.882812 631.714844 C 449.203125 632.027344 449.367188 632.445312 449.367188 632.964844 C 449.367188 633.488281 449.199219 633.910156 448.867188 634.230469 C 448.542969 634.542969 448.105469 634.699219 447.554688 634.699219 Z M 447.554688 634.699219 " fill-opacity="1" fill-rule="nonzero"/></svg>