<svg xmlns="http://www.w3.org/2000/svg" xmlns:xlink="http://www.w3.org/1999/xlink" width="1080" zoomAndPan="magnify" viewBox="0 0 810 1012.49997" height="1350" preserveAspectRatio="xMidYMid meet" version="1.0"><defs><g/><clipPath id="bc7668d5e5"><path d="M 777 360 L 809.800781 360 L 809.800781 685 L 777 685 Z M 777 360 " clip-rule="nonzero"/></clipPath><clipPath id="8b4d64c726"><path d="M 0.199219 360 L 33 360 L 33 685 L 0.199219 685 Z M 0.199219 360 " clip-rule="nonzero"/></clipPath></defs><path fill="#ffffff" d="M 777.40625 554.585938 L 777.40625 586.964844 L 745.027344 586.964844 L 745.027344 619.34375 L 712.648438 619.34375 L 712.648438 651.722656 L 680.269531 651.722656 L 680.269531 684.117188 L 647.875 684.117188 L 647.875 651.722656 L 615.496094 651.722656 L 615.496094 619.34375 L 583.117188 619.34375 L 583.117188 554.585938 L 226.890625 554.585938 L 226.890625 619.34375 L 194.5 619.34375 L 194.5 651.722656 L 162.121094 651.722656 L 162.121094 684.117188 L 129.738281 684.117188 L 129.738281 651.722656 L 97.359375 651.722656 L 97.359375 619.34375 L 64.96875 619.34375 L 64.96875 586.964844 L 32.589844 586.964844 L 32.589844 360.277344 L 64.96875 360.277344 L 64.96875 327.894531 L 97.359375 327.894531 L 97.359375 295.503906 L 226.894531 295.503906 L 226.894531 327.894531 L 259.277344 327.894531 L 259.277344 360.277344 L 550.734375 360.277344 L 550.734375 327.894531 L 583.117188 327.894531 L 583.117188 295.503906 L 712.652344 295.503906 L 712.652344 327.894531 L 745.03125 327.894531 L 745.03125 360.277344 L 777.410156 360.277344 L 777.410156 554.585938 Z M 745.027344 489.808594 L 745.027344 425.046875 L 680.269531 425.046875 L 680.269531 360.277344 L 615.496094 360.277344 L 615.496094 425.046875 L 550.734375 425.046875 L 550.734375 489.808594 L 615.496094 489.808594 L 615.496094 554.582031 L 680.269531 554.582031 L 680.269531 489.808594 Z M 485.957031 457.429688 L 485.957031 425.046875 L 421.183594 425.046875 L 421.183594 457.429688 Z M 388.804688 457.429688 L 388.804688 425.046875 L 324.042969 425.046875 L 324.042969 457.429688 Z M 226.886719 489.808594 L 226.886719 425.046875 L 194.496094 425.046875 L 194.496094 392.65625 L 129.734375 392.65625 L 129.734375 425.046875 L 97.355469 425.046875 L 97.355469 489.808594 L 129.734375 489.808594 L 129.734375 522.1875 L 194.496094 522.1875 L 194.496094 489.808594 Z M 226.886719 489.808594 " fill-opacity="1" fill-rule="nonzero"/><path fill="#dd0512" d="M 712.648438 425.046875 L 680.265625 425.046875 L 680.265625 489.808594 L 745.027344 489.808594 L 745.027344 425.046875 Z M 712.648438 425.046875 " fill-opacity="1" fill-rule="nonzero"/><path fill="#ffffff" d="M 680.265625 457.429688 L 680.265625 489.808594 L 615.492188 489.808594 L 615.492188 425.046875 L 680.265625 425.046875 Z M 680.265625 457.429688 " fill-opacity="1" fill-rule="nonzero"/><path fill="#63bff3" d="M 647.871094 489.808594 L 615.492188 489.808594 L 615.492188 554.585938 L 680.265625 554.585938 L 680.265625 489.808594 Z M 647.871094 489.808594 " fill-opacity="1" fill-rule="nonzero"/><path fill="#39ac37" d="M 647.871094 360.277344 L 615.492188 360.277344 L 615.492188 425.046875 L 680.265625 425.046875 L 680.265625 360.277344 Z M 647.871094 360.277344 " fill-opacity="1" fill-rule="nonzero"/><path fill="#f4dc1c" d="M 583.113281 425.046875 L 550.730469 425.046875 L 550.730469 489.808594 L 615.492188 489.808594 L 615.492188 425.046875 Z M 583.113281 425.046875 " fill-opacity="1" fill-rule="nonzero"/><path fill="#c7c7c5" d="M 745.027344 586.964844 L 745.027344 619.34375 L 712.648438 619.34375 L 712.648438 651.722656 L 680.265625 651.722656 L 680.265625 684.117188 L 647.871094 684.117188 L 647.871094 716.5 L 745.027344 716.5 L 745.027344 684.117188 L 777.40625 684.117188 L 777.40625 586.964844 Z M 745.027344 586.964844 " fill-opacity="1" fill-rule="nonzero"/><path fill="#c7c7c5" d="M 615.492188 651.722656 L 647.871094 651.722656 L 647.871094 684.117188 L 615.492188 684.117188 Z M 615.492188 651.722656 " fill-opacity="1" fill-rule="nonzero"/><path fill="#c7c7c5" d="M 583.113281 619.34375 L 615.492188 619.34375 L 615.492188 651.722656 L 583.113281 651.722656 Z M 583.113281 619.34375 " fill-opacity="1" fill-rule="nonzero"/><path fill="#c7c7c5" d="M 583.113281 554.585938 L 226.886719 554.585938 L 226.886719 619.34375 L 259.269531 619.34375 L 259.269531 586.964844 L 550.730469 586.964844 L 550.730469 619.34375 L 583.113281 619.34375 Z M 583.113281 554.585938 " fill-opacity="1" fill-rule="nonzero"/><path fill="#c7c7c5" d="M 194.496094 619.34375 L 226.886719 619.34375 L 226.886719 651.722656 L 194.496094 651.722656 Z M 194.496094 619.34375 " fill-opacity="1" fill-rule="nonzero"/><path fill="#c7c7c5" d="M 162.117188 651.722656 L 194.496094 651.722656 L 194.496094 684.117188 L 162.117188 684.117188 Z M 162.117188 651.722656 " fill-opacity="1" fill-rule="nonzero"/><path fill="#c7c7c5" d="M 129.734375 651.722656 L 97.351562 651.722656 L 97.351562 619.34375 L 64.960938 619.34375 L 64.960938 586.964844 L 32.578125 586.964844 L 32.578125 684.117188 L 64.960938 684.117188 L 64.960938 716.5 L 162.117188 716.5 L 162.117188 684.117188 L 129.734375 684.117188 Z M 129.734375 651.722656 " fill-opacity="1" fill-rule="nonzero"/><g clip-path="url(#bc7668d5e5)"><path fill="#000000" d="M 777.40625 360.277344 L 777.40625 684.117188 L 809.800781 684.117188 L 809.800781 360.277344 Z M 777.40625 360.277344 " fill-opacity="1" fill-rule="nonzero"/></g><path fill="#000000" d="M 745.027344 684.117188 L 777.40625 684.117188 L 777.40625 716.496094 L 745.027344 716.496094 Z M 745.027344 684.117188 " fill-opacity="1" fill-rule="nonzero"/><path fill="#000000" d="M 745.027344 327.894531 L 777.40625 327.894531 L 777.40625 360.277344 L 745.027344 360.277344 Z M 745.027344 327.894531 " fill-opacity="1" fill-rule="nonzero"/><path fill="#000000" d="M 712.648438 295.5 L 745.027344 295.5 L 745.027344 327.890625 L 712.648438 327.890625 Z M 712.648438 295.5 " fill-opacity="1" fill-rule="nonzero"/><path fill="#000000" d="M 680.265625 716.5 L 647.871094 716.5 L 647.871094 748.878906 L 745.027344 748.878906 L 745.027344 716.5 Z M 680.265625 716.5 " fill-opacity="1" fill-rule="nonzero"/><path fill="#000000" d="M 615.492188 684.117188 L 647.871094 684.117188 L 647.871094 716.496094 L 615.492188 716.496094 Z M 615.492188 684.117188 " fill-opacity="1" fill-rule="nonzero"/><path fill="#000000" d="M 647.871094 295.5 L 712.648438 295.5 L 712.648438 263.121094 L 583.113281 263.121094 L 583.113281 295.5 Z M 647.871094 295.5 " fill-opacity="1" fill-rule="nonzero"/><path fill="#000000" d="M 583.113281 651.722656 L 615.492188 651.722656 L 615.492188 684.117188 L 583.113281 684.117188 Z M 583.113281 651.722656 " fill-opacity="1" fill-rule="nonzero"/><path fill="#000000" d="M 550.730469 619.34375 L 583.113281 619.34375 L 583.113281 651.722656 L 550.730469 651.722656 Z M 550.730469 619.34375 " fill-opacity="1" fill-rule="nonzero"/><path fill="#000000" d="M 550.730469 295.5 L 583.113281 295.5 L 583.113281 327.890625 L 550.730469 327.890625 Z M 550.730469 295.5 " fill-opacity="1" fill-rule="nonzero"/><path fill="#000000" d="M 518.339844 586.964844 L 259.269531 586.964844 L 259.269531 619.34375 L 550.730469 619.34375 L 550.730469 586.964844 Z M 518.339844 586.964844 " fill-opacity="1" fill-rule="nonzero"/><path fill="#000000" d="M 421.183594 425.046875 L 421.183594 457.429688 L 485.957031 457.429688 L 485.957031 425.046875 Z M 421.183594 425.046875 " fill-opacity="1" fill-rule="nonzero"/><path fill="#000000" d="M 324.042969 425.046875 L 324.042969 457.429688 L 388.804688 457.429688 L 388.804688 425.046875 Z M 324.042969 425.046875 " fill-opacity="1" fill-rule="nonzero"/><path fill="#000000" d="M 291.652344 360.277344 L 550.730469 360.277344 L 550.730469 327.894531 L 259.269531 327.894531 L 259.269531 360.277344 Z M 291.652344 360.277344 " fill-opacity="1" fill-rule="nonzero"/><path fill="#000000" d="M 226.886719 619.34375 L 259.269531 619.34375 L 259.269531 651.722656 L 226.886719 651.722656 Z M 226.886719 619.34375 " fill-opacity="1" fill-rule="nonzero"/><path fill="#000000" d="M 226.886719 295.5 L 259.269531 295.5 L 259.269531 327.890625 L 226.886719 327.890625 Z M 226.886719 295.5 " fill-opacity="1" fill-rule="nonzero"/><path fill="#000000" d="M 194.496094 651.722656 L 226.886719 651.722656 L 226.886719 684.117188 L 194.496094 684.117188 Z M 194.496094 651.722656 " fill-opacity="1" fill-rule="nonzero"/><path fill="#000000" d="M 162.117188 684.117188 L 194.496094 684.117188 L 194.496094 716.496094 L 162.117188 716.496094 Z M 162.117188 684.117188 " fill-opacity="1" fill-rule="nonzero"/><path fill="#000000" d="M 194.496094 392.65625 L 129.734375 392.65625 L 129.734375 425.046875 L 97.351562 425.046875 L 97.351562 489.808594 L 129.734375 489.808594 L 129.734375 522.191406 L 194.496094 522.191406 L 194.496094 489.808594 L 226.886719 489.808594 L 226.886719 425.046875 L 194.496094 425.046875 Z M 194.496094 392.65625 " fill-opacity="1" fill-rule="nonzero"/><path fill="#000000" d="M 162.117188 295.5 L 226.886719 295.5 L 226.886719 263.121094 L 97.351562 263.121094 L 97.351562 295.5 Z M 162.117188 295.5 " fill-opacity="1" fill-rule="nonzero"/><path fill="#000000" d="M 97.351562 716.5 L 64.960938 716.5 L 64.960938 748.878906 L 162.117188 748.878906 L 162.117188 716.5 Z M 97.351562 716.5 " fill-opacity="1" fill-rule="nonzero"/><path fill="#000000" d="M 64.960938 295.5 L 97.351562 295.5 L 97.351562 327.890625 L 64.960938 327.890625 Z M 64.960938 295.5 " fill-opacity="1" fill-rule="nonzero"/><path fill="#000000" d="M 32.578125 684.117188 L 64.960938 684.117188 L 64.960938 716.496094 L 32.578125 716.496094 Z M 32.578125 684.117188 " fill-opacity="1" fill-rule="nonzero"/><path fill="#000000" d="M 32.578125 327.894531 L 64.960938 327.894531 L 64.960938 360.277344 L 32.578125 360.277344 Z M 32.578125 327.894531 " fill-opacity="1" fill-rule="nonzero"/><g clip-path="url(#8b4d64c726)"><path fill="#000000" d="M 32.578125 619.34375 L 32.578125 360.277344 L 0.199219 360.277344 L 0.199219 684.117188 L 32.578125 684.117188 Z M 32.578125 619.34375 " fill-opacity="1" fill-rule="nonzero"/></g><g fill="#000000" fill-opacity="1"><g transform="translate(443.639523, 634.871806)"><g><path d="M 3.9375 0.140625 C 3.382812 0.140625 2.945312 -0.015625 2.625 -0.328125 C 2.300781 -0.640625 2.140625 -1.050781 2.140625 -1.5625 C 2.140625 -2.070312 2.300781 -2.488281 2.625 -2.8125 C 2.945312 -3.144531 3.382812 -3.3125 3.9375 -3.3125 C 4.5 -3.3125 4.941406 -3.15625 5.265625 -2.84375 C 5.585938 -2.53125 5.75 -2.113281 5.75 -1.59375 C 5.75 -1.070312 5.582031 -0.648438 5.25 -0.328125 C 4.925781 -0.015625 4.488281 0.140625 3.9375 0.140625 Z M 3.9375 0.140625 "/></g></g></g><g fill="#ffffff" fill-opacity="1"><g transform="translate(699.369874, 848.341006)"><g><path d="M 45.609375 1.703125 C 39.160156 1.703125 34.070312 -0.101562 30.34375 -3.71875 C 26.613281 -7.34375 24.75 -12.148438 24.75 -18.140625 C 24.75 -24.015625 26.613281 -28.84375 30.34375 -32.625 C 34.070312 -36.414062 39.160156 -38.3125 45.609375 -38.3125 C 52.160156 -38.3125 57.300781 -36.503906 61.03125 -32.890625 C 64.757812 -29.273438 66.625 -24.472656 66.625 -18.484375 C 66.625 -12.492188 64.726562 -7.628906 60.9375 -3.890625 C 57.15625 -0.160156 52.046875 1.703125 45.609375 1.703125 Z M 45.609375 1.703125 "/></g></g></g></svg>