<svg xmlns="http://www.w3.org/2000/svg" xmlns:xlink="http://www.w3.org/1999/xlink" width="1080" zoomAndPan="magnify" viewBox="0 0 810 1012.49997" height="1350" preserveAspectRatio="xMidYMid meet" version="1.0"><defs><g/><clipPath id="3b6dd3e9ea"><path d="M 103 279 L 805 279 L 805 733.601562 L 103 733.601562 Z M 103 279 " clip-rule="nonzero"/></clipPath><clipPath id="16a522a2cf"><path d="M 393 291 L 456 291 L 456 354 L 393 354 Z M 393 291 " clip-rule="nonzero"/></clipPath><clipPath id="0ba00d471c"><path d="M 243.4375 285.609375 L 243.4375 429.894531 L 174.457031 429.894531 L 174.457031 502.039062 L 116.703125 502.039062 L 116.054688 508.3125 C 112.449219 547.617188 119.304688 583.871094 135.066406 614.867188 L 140.359375 624.371094 C 143.496094 630.070312 147.257812 635.421875 151.140625 640.644531 C 155.019531 645.867188 156.425781 648.75 158.882812 652.214844 C 200.542969 699.015625 262.65625 721.597656 334.363281 721.597656 C 493.167969 721.597656 627.941406 651.21875 687.601562 493.109375 C 729.898438 497.449219 770.5 486.597656 789 450.46875 C 759.527344 433.457031 721.65625 438.910156 699.839844 449.882812 L 757.65625 285.59375 L 531.90625 429.882812 L 459.789062 429.882812 L 459.789062 285.59375 Z M 243.4375 285.609375 " clip-rule="nonzero"/></clipPath><clipPath id="375025c8cb"><path d="M 401 296 L 448 296 L 448 349 L 401 349 Z M 401 296 " clip-rule="nonzero"/></clipPath><clipPath id="b57c902b5e"><path d="M 243.4375 285.609375 L 243.4375 429.894531 L 174.457031 429.894531 L 174.457031 502.039062 L 116.703125 502.039062 L 116.054688 508.3125 C 112.449219 547.617188 119.304688 583.871094 135.066406 614.867188 L 140.359375 624.371094 C 143.496094 630.070312 147.257812 635.421875 151.140625 640.644531 C 155.019531 645.867188 156.425781 648.75 158.882812 652.214844 C 200.542969 699.015625 262.65625 721.597656 334.363281 721.597656 C 493.167969 721.597656 627.941406 651.21875 687.601562 493.109375 C 729.898438 497.449219 770.5 486.597656 789 450.46875 C 759.527344 433.457031 721.65625 438.910156 699.839844 449.882812 L 757.65625 285.59375 L 531.90625 429.882812 L 459.789062 429.882812 L 459.789062 285.59375 Z M 243.4375 285.609375 " clip-rule="nonzero"/></clipPath><clipPath id="f7b995f6f3"><path d="M 398 294 L 451 294 L 451 351 L 398 351 Z M 398 294 " clip-rule="nonzero"/></clipPath><clipPath id="b0da1a22f0"><path d="M 243.4375 285.609375 L 243.4375 429.894531 L 174.457031 429.894531 L 174.457031 502.039062 L 116.703125 502.039062 L 116.054688 508.3125 C 112.449219 547.617188 119.304688 583.871094 135.066406 614.867188 L 140.359375 624.371094 C 143.496094 630.070312 147.257812 635.421875 151.140625 640.644531 C 155.019531 645.867188 156.425781 648.75 158.882812 652.214844 C 200.542969 699.015625 262.65625 721.597656 334.363281 721.597656 C 493.167969 721.597656 627.941406 651.21875 687.601562 493.109375 C 729.898438 497.449219 770.5 486.597656 789 450.46875 C 759.527344 433.457031 721.65625 438.910156 699.839844 449.882812 L 757.65625 285.59375 L 531.90625 429.882812 L 459.789062 429.882812 L 459.789062 285.59375 Z M 243.4375 285.609375 " clip-rule="nonzero"/></clipPath><clipPath id="f6824b502e"><path d="M 465 291 L 528 291 L 528 354 L 465 354 Z M 465 291 " clip-rule="nonzero"/></clipPath><clipPath id="0c9f72fbe3"><path d="M 243.4375 285.609375 L 243.4375 429.894531 L 174.457031 429.894531 L 174.457031 502.039062 L 116.703125 502.039062 L 116.054688 508.3125 C 112.449219 547.617188 119.304688 583.871094 135.066406 614.867188 L 140.359375 624.371094 C 143.496094 630.070312 147.257812 635.421875 151.140625 640.644531 C 155.019531 645.867188 156.425781 648.75 158.882812 652.214844 C 200.542969 699.015625 262.65625 721.597656 334.363281 721.597656 C 493.167969 721.597656 627.941406 651.21875 687.601562 493.109375 C 729.898438 497.449219 770.5 486.597656 789 450.46875 C 759.527344 433.457031 721.65625 438.910156 699.839844 449.882812 L 757.65625 285.59375 L 531.90625 429.882812 L 459.789062 429.882812 L 459.789062 285.59375 Z M 243.4375 285.609375 " clip-rule="nonzero"/></clipPath><clipPath id="ab32a92dc2"><path d="M 472 296 L 520 296 L 520 349 L 472 349 Z M 472 296 " clip-rule="nonzero"/></clipPath><clipPath id="99e111f6ad"><path d="M 243.4375 285.609375 L 243.4375 429.894531 L 174.457031 429.894531 L 174.457031 502.039062 L 116.703125 502.039062 L 116.054688 508.3125 C 112.449219 547.617188 119.304688 583.871094 135.066406 614.867188 L 140.359375 624.371094 C 143.496094 630.070312 147.257812 635.421875 151.140625 640.644531 C 155.019531 645.867188 156.425781 648.75 158.882812 652.214844 C 200.542969 699.015625 262.65625 721.597656 334.363281 721.597656 C 493.167969 721.597656 627.941406 651.21875 687.601562 493.109375 C 729.898438 497.449219 770.5 486.597656 789 450.46875 C 759.527344 433.457031 721.65625 438.910156 699.839844 449.882812 L 757.65625 285.59375 L 531.90625 429.882812 L 459.789062 429.882812 L 459.789062 285.59375 Z M 243.4375 285.609375 " clip-rule="nonzero"/></clipPath><clipPath id="1f8f04f829"><path d="M 470 294 L 523 294 L 523 351 L 470 351 Z M 470 294 " clip-rule="nonzero"/></clipPath><clipPath id="5d4a50a17a"><path d="M 243.4375 285.609375 L 243.4375 429.894531 L 174.457031 429.894531 L 174.457031 502.039062 L 116.703125 502.039062 L 116.054688 508.3125 C 112.449219 547.617188 119.304688 583.871094 135.066406 614.867188 L 140.359375 624.371094 C 143.496094 630.070312 147.257812 635.421875 151.140625 640.644531 C 155.019531 645.867188 156.425781 648.75 158.882812 652.214844 C 200.542969 699.015625 262.65625 721.597656 334.363281 721.597656 C 493.167969 721.597656 627.941406 651.21875 687.601562 493.109375 C 729.898438 497.449219 770.5 486.597656 789 450.46875 C 759.527344 433.457031 721.65625 438.910156 699.839844 449.882812 L 757.65625 285.59375 L 531.90625 429.882812 L 459.789062 429.882812 L 459.789062 285.59375 Z M 243.4375 285.609375 " clip-rule="nonzero"/></clipPath><clipPath id="7012fa8c91"><path d="M 115 362 L 169 362 L 169 426 L 115 426 Z M 115 362 " clip-rule="nonzero"/></clipPath><clipPath id="e685ecaac7"><path d="M 243.4375 285.609375 L 243.4375 429.894531 L 174.457031 429.894531 L 174.457031 502.039062 L 116.703125 502.039062 L 116.054688 508.3125 C 112.449219 547.617188 119.304688 583.871094 135.066406 614.867188 L 140.359375 624.371094 C 143.496094 630.070312 147.257812 635.421875 151.140625 640.644531 C 155.019531 645.867188 156.425781 648.75 158.882812 652.214844 C 200.542969 699.015625 262.65625 721.597656 334.363281 721.597656 C 493.167969 721.597656 627.941406 651.21875 687.601562 493.109375 C 729.898438 497.449219 770.5 486.597656 789 450.46875 C 759.527344 433.457031 721.65625 438.910156 699.839844 449.882812 L 757.65625 285.59375 L 531.90625 429.882812 L 459.789062 429.882812 L 459.789062 285.59375 Z M 243.4375 285.609375 " clip-rule="nonzero"/></clipPath><clipPath id="e679b89618"><path d="M 115 434 L 169 434 L 169 497 L 115 497 Z M 115 434 " clip-rule="nonzero"/></clipPath><clipPath id="79b7c9adec"><path d="M 243.4375 285.609375 L 243.4375 429.894531 L 174.457031 429.894531 L 174.457031 502.039062 L 116.703125 502.039062 L 116.054688 508.3125 C 112.449219 547.617188 119.304688 583.871094 135.066406 614.867188 L 140.359375 624.371094 C 143.496094 630.070312 147.257812 635.421875 151.140625 640.644531 C 155.019531 645.867188 156.425781 648.75 158.882812 652.214844 C 200.542969 699.015625 262.65625 721.597656 334.363281 721.597656 C 493.167969 721.597656 627.941406 651.21875 687.601562 493.109375 C 729.898438 497.449219 770.5 486.597656 789 450.46875 C 759.527344 433.457031 721.65625 438.910156 699.839844 449.882812 L 757.65625 285.59375 L 531.90625 429.882812 L 459.789062 429.882812 L 459.789062 285.59375 Z M 243.4375 285.609375 " clip-rule="nonzero"/></clipPath><clipPath id="59f5c62664"><path d="M 115 368 L 162 368 L 162 420 L 115 420 Z M 115 368 " clip-rule="nonzero"/></clipPath><clipPath id="e3fc20a675"><path d="M 243.4375 285.609375 L 243.4375 429.894531 L 174.457031 429.894531 L 174.457031 502.039062 L 116.703125 502.039062 L 116.054688 508.3125 C 112.449219 547.617188 119.304688 583.871094 135.066406 614.867188 L 140.359375 624.371094 C 143.496094 630.070312 147.257812 635.421875 151.140625 640.644531 C 155.019531 645.867188 156.425781 648.75 158.882812 652.214844 C 200.542969 699.015625 262.65625 721.597656 334.363281 721.597656 C 493.167969 721.597656 627.941406 651.21875 687.601562 493.109375 C 729.898438 497.449219 770.5 486.597656 789 450.46875 C 759.527344 433.457031 721.65625 438.910156 699.839844 449.882812 L 757.65625 285.59375 L 531.90625 429.882812 L 459.789062 429.882812 L 459.789062 285.59375 Z M 243.4375 285.609375 " clip-rule="nonzero"/></clipPath><clipPath id="9f8c74932d"><path d="M 115 365 L 164 365 L 164 423 L 115 423 Z M 115 365 " clip-rule="nonzero"/></clipPath><clipPath id="5d852abb26"><path d="M 243.4375 285.609375 L 243.4375 429.894531 L 174.457031 429.894531 L 174.457031 502.039062 L 116.703125 502.039062 L 116.054688 508.3125 C 112.449219 547.617188 119.304688 583.871094 135.066406 614.867188 L 140.359375 624.371094 C 143.496094 630.070312 147.257812 635.421875 151.140625 640.644531 C 155.019531 645.867188 156.425781 648.75 158.882812 652.214844 C 200.542969 699.015625 262.65625 721.597656 334.363281 721.597656 C 493.167969 721.597656 627.941406 651.21875 687.601562 493.109375 C 729.898438 497.449219 770.5 486.597656 789 450.46875 C 759.527344 433.457031 721.65625 438.910156 699.839844 449.882812 L 757.65625 285.59375 L 531.90625 429.882812 L 459.789062 429.882812 L 459.789062 285.59375 Z M 243.4375 285.609375 " clip-rule="nonzero"/></clipPath><clipPath id="cfa3076431"><path d="M 115 439 L 162 439 L 162 492 L 115 492 Z M 115 439 " clip-rule="nonzero"/></clipPath><clipPath id="ccb0b0d45e"><path d="M 243.4375 285.609375 L 243.4375 429.894531 L 174.457031 429.894531 L 174.457031 502.039062 L 116.703125 502.039062 L 116.054688 508.3125 C 112.449219 547.617188 119.304688 583.871094 135.066406 614.867188 L 140.359375 624.371094 C 143.496094 630.070312 147.257812 635.421875 151.140625 640.644531 C 155.019531 645.867188 156.425781 648.75 158.882812 652.214844 C 200.542969 699.015625 262.65625 721.597656 334.363281 721.597656 C 493.167969 721.597656 627.941406 651.21875 687.601562 493.109375 C 729.898438 497.449219 770.5 486.597656 789 450.46875 C 759.527344 433.457031 721.65625 438.910156 699.839844 449.882812 L 757.65625 285.59375 L 531.90625 429.882812 L 459.789062 429.882812 L 459.789062 285.59375 Z M 243.4375 285.609375 " clip-rule="nonzero"/></clipPath><clipPath id="12759994f0"><path d="M 115 437 L 164 437 L 164 495 L 115 495 Z M 115 437 " clip-rule="nonzero"/></clipPath><clipPath id="4b36be6009"><path d="M 243.4375 285.609375 L 243.4375 429.894531 L 174.457031 429.894531 L 174.457031 502.039062 L 116.703125 502.039062 L 116.054688 508.3125 C 112.449219 547.617188 119.304688 583.871094 135.066406 614.867188 L 140.359375 624.371094 C 143.496094 630.070312 147.257812 635.421875 151.140625 640.644531 C 155.019531 645.867188 156.425781 648.75 158.882812 652.214844 C 200.542969 699.015625 262.65625 721.597656 334.363281 721.597656 C 493.167969 721.597656 627.941406 651.21875 687.601562 493.109375 C 729.898438 497.449219 770.5 486.597656 789 450.46875 C 759.527344 433.457031 721.65625 438.910156 699.839844 449.882812 L 757.65625 285.59375 L 531.90625 429.882812 L 459.789062 429.882812 L 459.789062 285.59375 Z M 243.4375 285.609375 " clip-rule="nonzero"/></clipPath><clipPath id="993d75f21f"><path d="M 178 434 L 241 434 L 241 497 L 178 497 Z M 178 434 " clip-rule="nonzero"/></clipPath><clipPath id="f1fafaae4d"><path d="M 243.4375 285.609375 L 243.4375 429.894531 L 174.457031 429.894531 L 174.457031 502.039062 L 116.703125 502.039062 L 116.054688 508.3125 C 112.449219 547.617188 119.304688 583.871094 135.066406 614.867188 L 140.359375 624.371094 C 143.496094 630.070312 147.257812 635.421875 151.140625 640.644531 C 155.019531 645.867188 156.425781 648.75 158.882812 652.214844 C 200.542969 699.015625 262.65625 721.597656 334.363281 721.597656 C 493.167969 721.597656 627.941406 651.21875 687.601562 493.109375 C 729.898438 497.449219 770.5 486.597656 789 450.46875 C 759.527344 433.457031 721.65625 438.910156 699.839844 449.882812 L 757.65625 285.59375 L 531.90625 429.882812 L 459.789062 429.882812 L 459.789062 285.59375 Z M 243.4375 285.609375 " clip-rule="nonzero"/></clipPath><clipPath id="4340a02c5e"><path d="M 178 363 L 241 363 L 241 426 L 178 426 Z M 178 363 " clip-rule="nonzero"/></clipPath><clipPath id="3c8e60e6cc"><path d="M 243.4375 285.609375 L 243.4375 429.894531 L 174.457031 429.894531 L 174.457031 502.039062 L 116.703125 502.039062 L 116.054688 508.3125 C 112.449219 547.617188 119.304688 583.871094 135.066406 614.867188 L 140.359375 624.371094 C 143.496094 630.070312 147.257812 635.421875 151.140625 640.644531 C 155.019531 645.867188 156.425781 648.75 158.882812 652.214844 C 200.542969 699.015625 262.65625 721.597656 334.363281 721.597656 C 493.167969 721.597656 627.941406 651.21875 687.601562 493.109375 C 729.898438 497.449219 770.5 486.597656 789 450.46875 C 759.527344 433.457031 721.65625 438.910156 699.839844 449.882812 L 757.65625 285.59375 L 531.90625 429.882812 L 459.789062 429.882812 L 459.789062 285.59375 Z M 243.4375 285.609375 " clip-rule="nonzero"/></clipPath><clipPath id="ce810bc98c"><path d="M 186 439 L 233 439 L 233 492 L 186 492 Z M 186 439 " clip-rule="nonzero"/></clipPath><clipPath id="83581cab6f"><path d="M 243.4375 285.609375 L 243.4375 429.894531 L 174.457031 429.894531 L 174.457031 502.039062 L 116.703125 502.039062 L 116.054688 508.3125 C 112.449219 547.617188 119.304688 583.871094 135.066406 614.867188 L 140.359375 624.371094 C 143.496094 630.070312 147.257812 635.421875 151.140625 640.644531 C 155.019531 645.867188 156.425781 648.75 158.882812 652.214844 C 200.542969 699.015625 262.65625 721.597656 334.363281 721.597656 C 493.167969 721.597656 627.941406 651.21875 687.601562 493.109375 C 729.898438 497.449219 770.5 486.597656 789 450.46875 C 759.527344 433.457031 721.65625 438.910156 699.839844 449.882812 L 757.65625 285.59375 L 531.90625 429.882812 L 459.789062 429.882812 L 459.789062 285.59375 Z M 243.4375 285.609375 " clip-rule="nonzero"/></clipPath><clipPath id="5fa6db7bd1"><path d="M 183 437 L 236 437 L 236 495 L 183 495 Z M 183 437 " clip-rule="nonzero"/></clipPath><clipPath id="774821a5ee"><path d="M 243.4375 285.609375 L 243.4375 429.894531 L 174.457031 429.894531 L 174.457031 502.039062 L 116.703125 502.039062 L 116.054688 508.3125 C 112.449219 547.617188 119.304688 583.871094 135.066406 614.867188 L 140.359375 624.371094 C 143.496094 630.070312 147.257812 635.421875 151.140625 640.644531 C 155.019531 645.867188 156.425781 648.75 158.882812 652.214844 C 200.542969 699.015625 262.65625 721.597656 334.363281 721.597656 C 493.167969 721.597656 627.941406 651.21875 687.601562 493.109375 C 729.898438 497.449219 770.5 486.597656 789 450.46875 C 759.527344 433.457031 721.65625 438.910156 699.839844 449.882812 L 757.65625 285.59375 L 531.90625 429.882812 L 459.789062 429.882812 L 459.789062 285.59375 Z M 243.4375 285.609375 " clip-rule="nonzero"/></clipPath><clipPath id="250fb22a62"><path d="M 186 368 L 233 368 L 233 420 L 186 420 Z M 186 368 " clip-rule="nonzero"/></clipPath><clipPath id="5fc9d880e3"><path d="M 243.4375 285.609375 L 243.4375 429.894531 L 174.457031 429.894531 L 174.457031 502.039062 L 116.703125 502.039062 L 116.054688 508.3125 C 112.449219 547.617188 119.304688 583.871094 135.066406 614.867188 L 140.359375 624.371094 C 143.496094 630.070312 147.257812 635.421875 151.140625 640.644531 C 155.019531 645.867188 156.425781 648.75 158.882812 652.214844 C 200.542969 699.015625 262.65625 721.597656 334.363281 721.597656 C 493.167969 721.597656 627.941406 651.21875 687.601562 493.109375 C 729.898438 497.449219 770.5 486.597656 789 450.46875 C 759.527344 433.457031 721.65625 438.910156 699.839844 449.882812 L 757.65625 285.59375 L 531.90625 429.882812 L 459.789062 429.882812 L 459.789062 285.59375 Z M 243.4375 285.609375 " clip-rule="nonzero"/></clipPath><clipPath id="43ee13cded"><path d="M 183 365 L 236 365 L 236 423 L 183 423 Z M 183 365 " clip-rule="nonzero"/></clipPath><clipPath id="2c5bc546d2"><path d="M 243.4375 285.609375 L 243.4375 429.894531 L 174.457031 429.894531 L 174.457031 502.039062 L 116.703125 502.039062 L 116.054688 508.3125 C 112.449219 547.617188 119.304688 583.871094 135.066406 614.867188 L 140.359375 624.371094 C 143.496094 630.070312 147.257812 635.421875 151.140625 640.644531 C 155.019531 645.867188 156.425781 648.75 158.882812 652.214844 C 200.542969 699.015625 262.65625 721.597656 334.363281 721.597656 C 493.167969 721.597656 627.941406 651.21875 687.601562 493.109375 C 729.898438 497.449219 770.5 486.597656 789 450.46875 C 759.527344 433.457031 721.65625 438.910156 699.839844 449.882812 L 757.65625 285.59375 L 531.90625 429.882812 L 459.789062 429.882812 L 459.789062 285.59375 Z M 243.4375 285.609375 " clip-rule="nonzero"/></clipPath><clipPath id="c78e0c7071"><path d="M 250 362 L 313 362 L 313 426 L 250 426 Z M 250 362 " clip-rule="nonzero"/></clipPath><clipPath id="40f0de8220"><path d="M 243.4375 285.609375 L 243.4375 429.894531 L 174.457031 429.894531 L 174.457031 502.039062 L 116.703125 502.039062 L 116.054688 508.3125 C 112.449219 547.617188 119.304688 583.871094 135.066406 614.867188 L 140.359375 624.371094 C 143.496094 630.070312 147.257812 635.421875 151.140625 640.644531 C 155.019531 645.867188 156.425781 648.75 158.882812 652.214844 C 200.542969 699.015625 262.65625 721.597656 334.363281 721.597656 C 493.167969 721.597656 627.941406 651.21875 687.601562 493.109375 C 729.898438 497.449219 770.5 486.597656 789 450.46875 C 759.527344 433.457031 721.65625 438.910156 699.839844 449.882812 L 757.65625 285.59375 L 531.90625 429.882812 L 459.789062 429.882812 L 459.789062 285.59375 Z M 243.4375 285.609375 " clip-rule="nonzero"/></clipPath><clipPath id="75d0e5a71d"><path d="M 250 434 L 313 434 L 313 497 L 250 497 Z M 250 434 " clip-rule="nonzero"/></clipPath><clipPath id="132d206601"><path d="M 243.4375 285.609375 L 243.4375 429.894531 L 174.457031 429.894531 L 174.457031 502.039062 L 116.703125 502.039062 L 116.054688 508.3125 C 112.449219 547.617188 119.304688 583.871094 135.066406 614.867188 L 140.359375 624.371094 C 143.496094 630.070312 147.257812 635.421875 151.140625 640.644531 C 155.019531 645.867188 156.425781 648.75 158.882812 652.214844 C 200.542969 699.015625 262.65625 721.597656 334.363281 721.597656 C 493.167969 721.597656 627.941406 651.21875 687.601562 493.109375 C 729.898438 497.449219 770.5 486.597656 789 450.46875 C 759.527344 433.457031 721.65625 438.910156 699.839844 449.882812 L 757.65625 285.59375 L 531.90625 429.882812 L 459.789062 429.882812 L 459.789062 285.59375 Z M 243.4375 285.609375 " clip-rule="nonzero"/></clipPath><clipPath id="fe5f3b6c01"><path d="M 257 368 L 305 368 L 305 420 L 257 420 Z M 257 368 " clip-rule="nonzero"/></clipPath><clipPath id="6f6cf9892b"><path d="M 243.4375 285.609375 L 243.4375 429.894531 L 174.457031 429.894531 L 174.457031 502.039062 L 116.703125 502.039062 L 116.054688 508.3125 C 112.449219 547.617188 119.304688 583.871094 135.066406 614.867188 L 140.359375 624.371094 C 143.496094 630.070312 147.257812 635.421875 151.140625 640.644531 C 155.019531 645.867188 156.425781 648.75 158.882812 652.214844 C 200.542969 699.015625 262.65625 721.597656 334.363281 721.597656 C 493.167969 721.597656 627.941406 651.21875 687.601562 493.109375 C 729.898438 497.449219 770.5 486.597656 789 450.46875 C 759.527344 433.457031 721.65625 438.910156 699.839844 449.882812 L 757.65625 285.59375 L 531.90625 429.882812 L 459.789062 429.882812 L 459.789062 285.59375 Z M 243.4375 285.609375 " clip-rule="nonzero"/></clipPath><clipPath id="e5e3ae3dac"><path d="M 255 365 L 308 365 L 308 423 L 255 423 Z M 255 365 " clip-rule="nonzero"/></clipPath><clipPath id="623de753c4"><path d="M 243.4375 285.609375 L 243.4375 429.894531 L 174.457031 429.894531 L 174.457031 502.039062 L 116.703125 502.039062 L 116.054688 508.3125 C 112.449219 547.617188 119.304688 583.871094 135.066406 614.867188 L 140.359375 624.371094 C 143.496094 630.070312 147.257812 635.421875 151.140625 640.644531 C 155.019531 645.867188 156.425781 648.75 158.882812 652.214844 C 200.542969 699.015625 262.65625 721.597656 334.363281 721.597656 C 493.167969 721.597656 627.941406 651.21875 687.601562 493.109375 C 729.898438 497.449219 770.5 486.597656 789 450.46875 C 759.527344 433.457031 721.65625 438.910156 699.839844 449.882812 L 757.65625 285.59375 L 531.90625 429.882812 L 459.789062 429.882812 L 459.789062 285.59375 Z M 243.4375 285.609375 " clip-rule="nonzero"/></clipPath><clipPath id="8b013b0fbb"><path d="M 257 439 L 305 439 L 305 492 L 257 492 Z M 257 439 " clip-rule="nonzero"/></clipPath><clipPath id="ce4fd0f3ff"><path d="M 243.4375 285.609375 L 243.4375 429.894531 L 174.457031 429.894531 L 174.457031 502.039062 L 116.703125 502.039062 L 116.054688 508.3125 C 112.449219 547.617188 119.304688 583.871094 135.066406 614.867188 L 140.359375 624.371094 C 143.496094 630.070312 147.257812 635.421875 151.140625 640.644531 C 155.019531 645.867188 156.425781 648.75 158.882812 652.214844 C 200.542969 699.015625 262.65625 721.597656 334.363281 721.597656 C 493.167969 721.597656 627.941406 651.21875 687.601562 493.109375 C 729.898438 497.449219 770.5 486.597656 789 450.46875 C 759.527344 433.457031 721.65625 438.910156 699.839844 449.882812 L 757.65625 285.59375 L 531.90625 429.882812 L 459.789062 429.882812 L 459.789062 285.59375 Z M 243.4375 285.609375 " clip-rule="nonzero"/></clipPath><clipPath id="00ea2d9990"><path d="M 255 437 L 308 437 L 308 495 L 255 495 Z M 255 437 " clip-rule="nonzero"/></clipPath><clipPath id="0f049c67f0"><path d="M 243.4375 285.609375 L 243.4375 429.894531 L 174.457031 429.894531 L 174.457031 502.039062 L 116.703125 502.039062 L 116.054688 508.3125 C 112.449219 547.617188 119.304688 583.871094 135.066406 614.867188 L 140.359375 624.371094 C 143.496094 630.070312 147.257812 635.421875 151.140625 640.644531 C 155.019531 645.867188 156.425781 648.75 158.882812 652.214844 C 200.542969 699.015625 262.65625 721.597656 334.363281 721.597656 C 493.167969 721.597656 627.941406 651.21875 687.601562 493.109375 C 729.898438 497.449219 770.5 486.597656 789 450.46875 C 759.527344 433.457031 721.65625 438.910156 699.839844 449.882812 L 757.65625 285.59375 L 531.90625 429.882812 L 459.789062 429.882812 L 459.789062 285.59375 Z M 243.4375 285.609375 " clip-rule="nonzero"/></clipPath><clipPath id="1340dc1800"><path d="M 321 434 L 384 434 L 384 497 L 321 497 Z M 321 434 " clip-rule="nonzero"/></clipPath><clipPath id="ae9af205bc"><path d="M 243.4375 285.609375 L 243.4375 429.894531 L 174.457031 429.894531 L 174.457031 502.039062 L 116.703125 502.039062 L 116.054688 508.3125 C 112.449219 547.617188 119.304688 583.871094 135.066406 614.867188 L 140.359375 624.371094 C 143.496094 630.070312 147.257812 635.421875 151.140625 640.644531 C 155.019531 645.867188 156.425781 648.75 158.882812 652.214844 C 200.542969 699.015625 262.65625 721.597656 334.363281 721.597656 C 493.167969 721.597656 627.941406 651.21875 687.601562 493.109375 C 729.898438 497.449219 770.5 486.597656 789 450.46875 C 759.527344 433.457031 721.65625 438.910156 699.839844 449.882812 L 757.65625 285.59375 L 531.90625 429.882812 L 459.789062 429.882812 L 459.789062 285.59375 Z M 243.4375 285.609375 " clip-rule="nonzero"/></clipPath><clipPath id="007889ae99"><path d="M 321 363 L 384 363 L 384 426 L 321 426 Z M 321 363 " clip-rule="nonzero"/></clipPath><clipPath id="9c2a0f723c"><path d="M 243.4375 285.609375 L 243.4375 429.894531 L 174.457031 429.894531 L 174.457031 502.039062 L 116.703125 502.039062 L 116.054688 508.3125 C 112.449219 547.617188 119.304688 583.871094 135.066406 614.867188 L 140.359375 624.371094 C 143.496094 630.070312 147.257812 635.421875 151.140625 640.644531 C 155.019531 645.867188 156.425781 648.75 158.882812 652.214844 C 200.542969 699.015625 262.65625 721.597656 334.363281 721.597656 C 493.167969 721.597656 627.941406 651.21875 687.601562 493.109375 C 729.898438 497.449219 770.5 486.597656 789 450.46875 C 759.527344 433.457031 721.65625 438.910156 699.839844 449.882812 L 757.65625 285.59375 L 531.90625 429.882812 L 459.789062 429.882812 L 459.789062 285.59375 Z M 243.4375 285.609375 " clip-rule="nonzero"/></clipPath><clipPath id="4d513cbf0f"><path d="M 329 439 L 377 439 L 377 492 L 329 492 Z M 329 439 " clip-rule="nonzero"/></clipPath><clipPath id="6a29757b31"><path d="M 243.4375 285.609375 L 243.4375 429.894531 L 174.457031 429.894531 L 174.457031 502.039062 L 116.703125 502.039062 L 116.054688 508.3125 C 112.449219 547.617188 119.304688 583.871094 135.066406 614.867188 L 140.359375 624.371094 C 143.496094 630.070312 147.257812 635.421875 151.140625 640.644531 C 155.019531 645.867188 156.425781 648.75 158.882812 652.214844 C 200.542969 699.015625 262.65625 721.597656 334.363281 721.597656 C 493.167969 721.597656 627.941406 651.21875 687.601562 493.109375 C 729.898438 497.449219 770.5 486.597656 789 450.46875 C 759.527344 433.457031 721.65625 438.910156 699.839844 449.882812 L 757.65625 285.59375 L 531.90625 429.882812 L 459.789062 429.882812 L 459.789062 285.59375 Z M 243.4375 285.609375 " clip-rule="nonzero"/></clipPath><clipPath id="4b6b2bf635"><path d="M 326 437 L 379 437 L 379 495 L 326 495 Z M 326 437 " clip-rule="nonzero"/></clipPath><clipPath id="dc6c8e77d1"><path d="M 243.4375 285.609375 L 243.4375 429.894531 L 174.457031 429.894531 L 174.457031 502.039062 L 116.703125 502.039062 L 116.054688 508.3125 C 112.449219 547.617188 119.304688 583.871094 135.066406 614.867188 L 140.359375 624.371094 C 143.496094 630.070312 147.257812 635.421875 151.140625 640.644531 C 155.019531 645.867188 156.425781 648.75 158.882812 652.214844 C 200.542969 699.015625 262.65625 721.597656 334.363281 721.597656 C 493.167969 721.597656 627.941406 651.21875 687.601562 493.109375 C 729.898438 497.449219 770.5 486.597656 789 450.46875 C 759.527344 433.457031 721.65625 438.910156 699.839844 449.882812 L 757.65625 285.59375 L 531.90625 429.882812 L 459.789062 429.882812 L 459.789062 285.59375 Z M 243.4375 285.609375 " clip-rule="nonzero"/></clipPath><clipPath id="525a632b46"><path d="M 329 368 L 377 368 L 377 420 L 329 420 Z M 329 368 " clip-rule="nonzero"/></clipPath><clipPath id="1d6b4defd0"><path d="M 243.4375 285.609375 L 243.4375 429.894531 L 174.457031 429.894531 L 174.457031 502.039062 L 116.703125 502.039062 L 116.054688 508.3125 C 112.449219 547.617188 119.304688 583.871094 135.066406 614.867188 L 140.359375 624.371094 C 143.496094 630.070312 147.257812 635.421875 151.140625 640.644531 C 155.019531 645.867188 156.425781 648.75 158.882812 652.214844 C 200.542969 699.015625 262.65625 721.597656 334.363281 721.597656 C 493.167969 721.597656 627.941406 651.21875 687.601562 493.109375 C 729.898438 497.449219 770.5 486.597656 789 450.46875 C 759.527344 433.457031 721.65625 438.910156 699.839844 449.882812 L 757.65625 285.59375 L 531.90625 429.882812 L 459.789062 429.882812 L 459.789062 285.59375 Z M 243.4375 285.609375 " clip-rule="nonzero"/></clipPath><clipPath id="66aab031ae"><path d="M 326 365 L 379 365 L 379 423 L 326 423 Z M 326 365 " clip-rule="nonzero"/></clipPath><clipPath id="755e0e5132"><path d="M 243.4375 285.609375 L 243.4375 429.894531 L 174.457031 429.894531 L 174.457031 502.039062 L 116.703125 502.039062 L 116.054688 508.3125 C 112.449219 547.617188 119.304688 583.871094 135.066406 614.867188 L 140.359375 624.371094 C 143.496094 630.070312 147.257812 635.421875 151.140625 640.644531 C 155.019531 645.867188 156.425781 648.75 158.882812 652.214844 C 200.542969 699.015625 262.65625 721.597656 334.363281 721.597656 C 493.167969 721.597656 627.941406 651.21875 687.601562 493.109375 C 729.898438 497.449219 770.5 486.597656 789 450.46875 C 759.527344 433.457031 721.65625 438.910156 699.839844 449.882812 L 757.65625 285.59375 L 531.90625 429.882812 L 459.789062 429.882812 L 459.789062 285.59375 Z M 243.4375 285.609375 " clip-rule="nonzero"/></clipPath><clipPath id="5b164c78b2"><path d="M 393 362 L 456 362 L 456 426 L 393 426 Z M 393 362 " clip-rule="nonzero"/></clipPath><clipPath id="9f64c3de16"><path d="M 243.4375 285.609375 L 243.4375 429.894531 L 174.457031 429.894531 L 174.457031 502.039062 L 116.703125 502.039062 L 116.054688 508.3125 C 112.449219 547.617188 119.304688 583.871094 135.066406 614.867188 L 140.359375 624.371094 C 143.496094 630.070312 147.257812 635.421875 151.140625 640.644531 C 155.019531 645.867188 156.425781 648.75 158.882812 652.214844 C 200.542969 699.015625 262.65625 721.597656 334.363281 721.597656 C 493.167969 721.597656 627.941406 651.21875 687.601562 493.109375 C 729.898438 497.449219 770.5 486.597656 789 450.46875 C 759.527344 433.457031 721.65625 438.910156 699.839844 449.882812 L 757.65625 285.59375 L 531.90625 429.882812 L 459.789062 429.882812 L 459.789062 285.59375 Z M 243.4375 285.609375 " clip-rule="nonzero"/></clipPath><clipPath id="ac3e40940d"><path d="M 393 434 L 456 434 L 456 497 L 393 497 Z M 393 434 " clip-rule="nonzero"/></clipPath><clipPath id="bb50dab055"><path d="M 243.4375 285.609375 L 243.4375 429.894531 L 174.457031 429.894531 L 174.457031 502.039062 L 116.703125 502.039062 L 116.054688 508.3125 C 112.449219 547.617188 119.304688 583.871094 135.066406 614.867188 L 140.359375 624.371094 C 143.496094 630.070312 147.257812 635.421875 151.140625 640.644531 C 155.019531 645.867188 156.425781 648.75 158.882812 652.214844 C 200.542969 699.015625 262.65625 721.597656 334.363281 721.597656 C 493.167969 721.597656 627.941406 651.21875 687.601562 493.109375 C 729.898438 497.449219 770.5 486.597656 789 450.46875 C 759.527344 433.457031 721.65625 438.910156 699.839844 449.882812 L 757.65625 285.59375 L 531.90625 429.882812 L 459.789062 429.882812 L 459.789062 285.59375 Z M 243.4375 285.609375 " clip-rule="nonzero"/></clipPath><clipPath id="07af69084e"><path d="M 401 368 L 448 368 L 448 420 L 401 420 Z M 401 368 " clip-rule="nonzero"/></clipPath><clipPath id="61a32b9b7b"><path d="M 243.4375 285.609375 L 243.4375 429.894531 L 174.457031 429.894531 L 174.457031 502.039062 L 116.703125 502.039062 L 116.054688 508.3125 C 112.449219 547.617188 119.304688 583.871094 135.066406 614.867188 L 140.359375 624.371094 C 143.496094 630.070312 147.257812 635.421875 151.140625 640.644531 C 155.019531 645.867188 156.425781 648.75 158.882812 652.214844 C 200.542969 699.015625 262.65625 721.597656 334.363281 721.597656 C 493.167969 721.597656 627.941406 651.21875 687.601562 493.109375 C 729.898438 497.449219 770.5 486.597656 789 450.46875 C 759.527344 433.457031 721.65625 438.910156 699.839844 449.882812 L 757.65625 285.59375 L 531.90625 429.882812 L 459.789062 429.882812 L 459.789062 285.59375 Z M 243.4375 285.609375 " clip-rule="nonzero"/></clipPath><clipPath id="4ec63d1e44"><path d="M 398 365 L 451 365 L 451 423 L 398 423 Z M 398 365 " clip-rule="nonzero"/></clipPath><clipPath id="a5ac6ec8c1"><path d="M 243.4375 285.609375 L 243.4375 429.894531 L 174.457031 429.894531 L 174.457031 502.039062 L 116.703125 502.039062 L 116.054688 508.3125 C 112.449219 547.617188 119.304688 583.871094 135.066406 614.867188 L 140.359375 624.371094 C 143.496094 630.070312 147.257812 635.421875 151.140625 640.644531 C 155.019531 645.867188 156.425781 648.75 158.882812 652.214844 C 200.542969 699.015625 262.65625 721.597656 334.363281 721.597656 C 493.167969 721.597656 627.941406 651.21875 687.601562 493.109375 C 729.898438 497.449219 770.5 486.597656 789 450.46875 C 759.527344 433.457031 721.65625 438.910156 699.839844 449.882812 L 757.65625 285.59375 L 531.90625 429.882812 L 459.789062 429.882812 L 459.789062 285.59375 Z M 243.4375 285.609375 " clip-rule="nonzero"/></clipPath><clipPath id="38c573589b"><path d="M 401 439 L 448 439 L 448 492 L 401 492 Z M 401 439 " clip-rule="nonzero"/></clipPath><clipPath id="7a74eaf132"><path d="M 243.4375 285.609375 L 243.4375 429.894531 L 174.457031 429.894531 L 174.457031 502.039062 L 116.703125 502.039062 L 116.054688 508.3125 C 112.449219 547.617188 119.304688 583.871094 135.066406 614.867188 L 140.359375 624.371094 C 143.496094 630.070312 147.257812 635.421875 151.140625 640.644531 C 155.019531 645.867188 156.425781 648.75 158.882812 652.214844 C 200.542969 699.015625 262.65625 721.597656 334.363281 721.597656 C 493.167969 721.597656 627.941406 651.21875 687.601562 493.109375 C 729.898438 497.449219 770.5 486.597656 789 450.46875 C 759.527344 433.457031 721.65625 438.910156 699.839844 449.882812 L 757.65625 285.59375 L 531.90625 429.882812 L 459.789062 429.882812 L 459.789062 285.59375 Z M 243.4375 285.609375 " clip-rule="nonzero"/></clipPath><clipPath id="7e8a5f1e36"><path d="M 398 437 L 451 437 L 451 495 L 398 495 Z M 398 437 " clip-rule="nonzero"/></clipPath><clipPath id="7af2a32744"><path d="M 243.4375 285.609375 L 243.4375 429.894531 L 174.457031 429.894531 L 174.457031 502.039062 L 116.703125 502.039062 L 116.054688 508.3125 C 112.449219 547.617188 119.304688 583.871094 135.066406 614.867188 L 140.359375 624.371094 C 143.496094 630.070312 147.257812 635.421875 151.140625 640.644531 C 155.019531 645.867188 156.425781 648.75 158.882812 652.214844 C 200.542969 699.015625 262.65625 721.597656 334.363281 721.597656 C 493.167969 721.597656 627.941406 651.21875 687.601562 493.109375 C 729.898438 497.449219 770.5 486.597656 789 450.46875 C 759.527344 433.457031 721.65625 438.910156 699.839844 449.882812 L 757.65625 285.59375 L 531.90625 429.882812 L 459.789062 429.882812 L 459.789062 285.59375 Z M 243.4375 285.609375 " clip-rule="nonzero"/></clipPath><clipPath id="15074dfd10"><path d="M 465 434 L 528 434 L 528 497 L 465 497 Z M 465 434 " clip-rule="nonzero"/></clipPath><clipPath id="67655be42a"><path d="M 243.4375 285.609375 L 243.4375 429.894531 L 174.457031 429.894531 L 174.457031 502.039062 L 116.703125 502.039062 L 116.054688 508.3125 C 112.449219 547.617188 119.304688 583.871094 135.066406 614.867188 L 140.359375 624.371094 C 143.496094 630.070312 147.257812 635.421875 151.140625 640.644531 C 155.019531 645.867188 156.425781 648.75 158.882812 652.214844 C 200.542969 699.015625 262.65625 721.597656 334.363281 721.597656 C 493.167969 721.597656 627.941406 651.21875 687.601562 493.109375 C 729.898438 497.449219 770.5 486.597656 789 450.46875 C 759.527344 433.457031 721.65625 438.910156 699.839844 449.882812 L 757.65625 285.59375 L 531.90625 429.882812 L 459.789062 429.882812 L 459.789062 285.59375 Z M 243.4375 285.609375 " clip-rule="nonzero"/></clipPath><clipPath id="f0cf98f811"><path d="M 465 363 L 528 363 L 528 426 L 465 426 Z M 465 363 " clip-rule="nonzero"/></clipPath><clipPath id="e8a0fe5c10"><path d="M 243.4375 285.609375 L 243.4375 429.894531 L 174.457031 429.894531 L 174.457031 502.039062 L 116.703125 502.039062 L 116.054688 508.3125 C 112.449219 547.617188 119.304688 583.871094 135.066406 614.867188 L 140.359375 624.371094 C 143.496094 630.070312 147.257812 635.421875 151.140625 640.644531 C 155.019531 645.867188 156.425781 648.75 158.882812 652.214844 C 200.542969 699.015625 262.65625 721.597656 334.363281 721.597656 C 493.167969 721.597656 627.941406 651.21875 687.601562 493.109375 C 729.898438 497.449219 770.5 486.597656 789 450.46875 C 759.527344 433.457031 721.65625 438.910156 699.839844 449.882812 L 757.65625 285.59375 L 531.90625 429.882812 L 459.789062 429.882812 L 459.789062 285.59375 Z M 243.4375 285.609375 " clip-rule="nonzero"/></clipPath><clipPath id="30d75d5ceb"><path d="M 472 439 L 520 439 L 520 492 L 472 492 Z M 472 439 " clip-rule="nonzero"/></clipPath><clipPath id="827d2e4af2"><path d="M 243.4375 285.609375 L 243.4375 429.894531 L 174.457031 429.894531 L 174.457031 502.039062 L 116.703125 502.039062 L 116.054688 508.3125 C 112.449219 547.617188 119.304688 583.871094 135.066406 614.867188 L 140.359375 624.371094 C 143.496094 630.070312 147.257812 635.421875 151.140625 640.644531 C 155.019531 645.867188 156.425781 648.75 158.882812 652.214844 C 200.542969 699.015625 262.65625 721.597656 334.363281 721.597656 C 493.167969 721.597656 627.941406 651.21875 687.601562 493.109375 C 729.898438 497.449219 770.5 486.597656 789 450.46875 C 759.527344 433.457031 721.65625 438.910156 699.839844 449.882812 L 757.65625 285.59375 L 531.90625 429.882812 L 459.789062 429.882812 L 459.789062 285.59375 Z M 243.4375 285.609375 " clip-rule="nonzero"/></clipPath><clipPath id="45d45a8994"><path d="M 470 437 L 523 437 L 523 495 L 470 495 Z M 470 437 " clip-rule="nonzero"/></clipPath><clipPath id="e76f575a69"><path d="M 243.4375 285.609375 L 243.4375 429.894531 L 174.457031 429.894531 L 174.457031 502.039062 L 116.703125 502.039062 L 116.054688 508.3125 C 112.449219 547.617188 119.304688 583.871094 135.066406 614.867188 L 140.359375 624.371094 C 143.496094 630.070312 147.257812 635.421875 151.140625 640.644531 C 155.019531 645.867188 156.425781 648.75 158.882812 652.214844 C 200.542969 699.015625 262.65625 721.597656 334.363281 721.597656 C 493.167969 721.597656 627.941406 651.21875 687.601562 493.109375 C 729.898438 497.449219 770.5 486.597656 789 450.46875 C 759.527344 433.457031 721.65625 438.910156 699.839844 449.882812 L 757.65625 285.59375 L 531.90625 429.882812 L 459.789062 429.882812 L 459.789062 285.59375 Z M 243.4375 285.609375 " clip-rule="nonzero"/></clipPath><clipPath id="2516c1d7eb"><path d="M 472 368 L 520 368 L 520 420 L 472 420 Z M 472 368 " clip-rule="nonzero"/></clipPath><clipPath id="cfdf59fb7c"><path d="M 243.4375 285.609375 L 243.4375 429.894531 L 174.457031 429.894531 L 174.457031 502.039062 L 116.703125 502.039062 L 116.054688 508.3125 C 112.449219 547.617188 119.304688 583.871094 135.066406 614.867188 L 140.359375 624.371094 C 143.496094 630.070312 147.257812 635.421875 151.140625 640.644531 C 155.019531 645.867188 156.425781 648.75 158.882812 652.214844 C 200.542969 699.015625 262.65625 721.597656 334.363281 721.597656 C 493.167969 721.597656 627.941406 651.21875 687.601562 493.109375 C 729.898438 497.449219 770.5 486.597656 789 450.46875 C 759.527344 433.457031 721.65625 438.910156 699.839844 449.882812 L 757.65625 285.59375 L 531.90625 429.882812 L 459.789062 429.882812 L 459.789062 285.59375 Z M 243.4375 285.609375 " clip-rule="nonzero"/></clipPath><clipPath id="d824eee2ca"><path d="M 470 365 L 523 365 L 523 423 L 470 423 Z M 470 365 " clip-rule="nonzero"/></clipPath><clipPath id="6085bb2126"><path d="M 243.4375 285.609375 L 243.4375 429.894531 L 174.457031 429.894531 L 174.457031 502.039062 L 116.703125 502.039062 L 116.054688 508.3125 C 112.449219 547.617188 119.304688 583.871094 135.066406 614.867188 L 140.359375 624.371094 C 143.496094 630.070312 147.257812 635.421875 151.140625 640.644531 C 155.019531 645.867188 156.425781 648.75 158.882812 652.214844 C 200.542969 699.015625 262.65625 721.597656 334.363281 721.597656 C 493.167969 721.597656 627.941406 651.21875 687.601562 493.109375 C 729.898438 497.449219 770.5 486.597656 789 450.46875 C 759.527344 433.457031 721.65625 438.910156 699.839844 449.882812 L 757.65625 285.59375 L 531.90625 429.882812 L 459.789062 429.882812 L 459.789062 285.59375 Z M 243.4375 285.609375 " clip-rule="nonzero"/></clipPath><clipPath id="87e9f3d738"><path d="M 115 369 L 789 369 L 789 721.609375 L 115 721.609375 Z M 115 369 " clip-rule="nonzero"/></clipPath><clipPath id="da72a02715"><path d="M 243.4375 285.609375 L 243.4375 429.894531 L 174.457031 429.894531 L 174.457031 502.039062 L 116.703125 502.039062 L 116.054688 508.3125 C 112.449219 547.617188 119.304688 583.871094 135.066406 614.867188 L 140.359375 624.371094 C 143.496094 630.070312 147.257812 635.421875 151.140625 640.644531 C 155.019531 645.867188 156.425781 648.75 158.882812 652.214844 C 200.542969 699.015625 262.65625 721.597656 334.363281 721.597656 C 493.167969 721.597656 627.941406 651.21875 687.601562 493.109375 C 729.898438 497.449219 770.5 486.597656 789 450.46875 C 759.527344 433.457031 721.65625 438.910156 699.839844 449.882812 L 757.65625 285.59375 L 531.90625 429.882812 L 459.789062 429.882812 L 459.789062 285.59375 Z M 243.4375 285.609375 " clip-rule="nonzero"/></clipPath><clipPath id="aaa10cc1e2"><path d="M 115 558 L 789 558 L 789 721.609375 L 115 721.609375 Z M 115 558 " clip-rule="nonzero"/></clipPath><clipPath id="825ed4e927"><path d="M 243.4375 285.609375 L 243.4375 429.894531 L 174.457031 429.894531 L 174.457031 502.039062 L 116.703125 502.039062 L 116.054688 508.3125 C 112.449219 547.617188 119.304688 583.871094 135.066406 614.867188 L 140.359375 624.371094 C 143.496094 630.070312 147.257812 635.421875 151.140625 640.644531 C 155.019531 645.867188 156.425781 648.75 158.882812 652.214844 C 200.542969 699.015625 262.65625 721.597656 334.363281 721.597656 C 493.167969 721.597656 627.941406 651.21875 687.601562 493.109375 C 729.898438 497.449219 770.5 486.597656 789 450.46875 C 759.527344 433.457031 721.65625 438.910156 699.839844 449.882812 L 757.65625 285.59375 L 531.90625 429.882812 L 459.789062 429.882812 L 459.789062 285.59375 Z M 243.4375 285.609375 " clip-rule="nonzero"/></clipPath><clipPath id="e50bc25f2c"><path d="M 146 643 L 354 643 L 354 721.609375 L 146 721.609375 Z M 146 643 " clip-rule="nonzero"/></clipPath><clipPath id="94ab89657e"><path d="M 243.4375 285.609375 L 243.4375 429.894531 L 174.457031 429.894531 L 174.457031 502.039062 L 116.703125 502.039062 L 116.054688 508.3125 C 112.449219 547.617188 119.304688 583.871094 135.066406 614.867188 L 140.359375 624.371094 C 143.496094 630.070312 147.257812 635.421875 151.140625 640.644531 C 155.019531 645.867188 156.425781 648.75 158.882812 652.214844 C 200.542969 699.015625 262.65625 721.597656 334.363281 721.597656 C 493.167969 721.597656 627.941406 651.21875 687.601562 493.109375 C 729.898438 497.449219 770.5 486.597656 789 450.46875 C 759.527344 433.457031 721.65625 438.910156 699.839844 449.882812 L 757.65625 285.59375 L 531.90625 429.882812 L 459.789062 429.882812 L 459.789062 285.59375 Z M 243.4375 285.609375 " clip-rule="nonzero"/></clipPath><clipPath id="f1a382fb6e"><path d="M 115 436 L 789 436 L 789 721.609375 L 115 721.609375 Z M 115 436 " clip-rule="nonzero"/></clipPath><clipPath id="70aac95427"><path d="M 243.4375 285.609375 L 243.4375 429.894531 L 174.457031 429.894531 L 174.457031 502.039062 L 116.703125 502.039062 L 116.054688 508.3125 C 112.449219 547.617188 119.304688 583.871094 135.066406 614.867188 L 140.359375 624.371094 C 143.496094 630.070312 147.257812 635.421875 151.140625 640.644531 C 155.019531 645.867188 156.425781 648.75 158.882812 652.214844 C 200.542969 699.015625 262.65625 721.597656 334.363281 721.597656 C 493.167969 721.597656 627.941406 651.21875 687.601562 493.109375 C 729.898438 497.449219 770.5 486.597656 789 450.46875 C 759.527344 433.457031 721.65625 438.910156 699.839844 449.882812 L 757.65625 285.59375 L 531.90625 429.882812 L 459.789062 429.882812 L 459.789062 285.59375 Z M 243.4375 285.609375 " clip-rule="nonzero"/></clipPath></defs><g clip-path="url(#3b6dd3e9ea)"><path fill="#394d54" d="M 467.570312 422.785156 L 539.257812 422.785156 L 539.257812 496.097656 L 575.507812 496.097656 C 592.566406 496.015625 609.175781 493.230469 625.328125 487.742188 C 633.136719 485.089844 641.863281 481.421875 649.539062 476.800781 C 639.417969 463.585938 634.257812 446.90625 632.558594 430.429688 C 630.488281 408.058594 635.003906 378.925781 650.152344 361.414062 L 657.691406 352.699219 L 666.6875 359.917969 C 689.304688 378.09375 708.324219 403.488281 711.683594 432.449219 C 738.902344 424.433594 770.875 426.335938 794.882812 440.195312 L 804.730469 445.886719 L 799.554688 456.011719 C 779.398438 495.589844 736.949219 507.871094 695.46875 505.695312 C 633.390625 660.355469 498.253906 733.585938 334.402344 733.585938 C 249.742188 733.585938 172.078125 701.921875 127.863281 626.792969 C 125.265625 622.121094 123.058594 617.246094 120.699219 612.457031 C 105.753906 579.382812 100.78125 543.152344 104.144531 507.140625 L 105.160156 496.300781 L 166.289062 496.300781 L 166.289062 422.835938 L 237.976562 422.835938 L 237.976562 351.117188 L 381.367188 351.117188 L 381.367188 279.402344 L 467.402344 279.402344 L 467.402344 422.851562 " fill-opacity="1" fill-rule="nonzero"/></g><g clip-path="url(#16a522a2cf)"><g clip-path="url(#0ba00d471c)"><path fill="#20c2ef" d="M 393.496094 291.285156 L 455.636719 291.285156 L 455.636719 353.449219 L 393.492188 353.449219 Z M 393.496094 291.285156 " fill-opacity="1" fill-rule="nonzero"/></g></g><g clip-path="url(#375025c8cb)"><g clip-path="url(#b57c902b5e)"><path fill="#000000" d="M 401.117188 348.269531 L 401.117188 296.460938 M 410.433594 348.265625 L 410.433594 296.460938 M 419.847656 348.265625 L 419.847656 296.460938 M 429.261719 348.265625 L 429.261719 296.460938 M 438.679688 348.265625 L 438.679688 296.460938 M 447.992188 348.265625 L 447.992188 296.460938 " fill-opacity="1" fill-rule="nonzero"/></g></g><g clip-path="url(#f7b995f6f3)"><g clip-path="url(#b0da1a22f0)"><path stroke-linecap="butt" transform="matrix(3.135425, 0, 0, 3.136716, 5.144021, 279.334038)" fill="none" stroke-linejoin="miter" d="M 126.290126 21.97696 L 126.290126 5.460136 M 129.261464 21.975715 L 129.261464 5.460136 M 132.263948 21.975715 L 132.263948 5.460136 M 135.266432 21.975715 L 135.266432 5.460136 M 138.270162 21.975715 L 138.270162 5.460136 M 141.240254 21.975715 L 141.240254 5.460136 " stroke="#394d54" stroke-width="1.56" stroke-opacity="1" stroke-miterlimit="4"/></g></g><g clip-path="url(#f6824b502e)"><g clip-path="url(#0c9f72fbe3)"><path fill="#00acd3" d="M 465.191406 353.480469 L 527.332031 353.480469 L 527.332031 291.320312 L 465.1875 291.320312 Z M 465.191406 353.480469 " fill-opacity="1" fill-rule="nonzero"/></g></g><g clip-path="url(#ab32a92dc2)"><g clip-path="url(#99e111f6ad)"><path fill="#000000" d="M 472.8125 296.464844 L 472.8125 348.273438 M 482.128906 296.46875 L 482.128906 348.273438 M 491.542969 296.46875 L 491.542969 348.273438 M 500.957031 296.46875 L 500.957031 348.273438 M 510.375 296.46875 L 510.375 348.273438 M 519.6875 296.46875 L 519.6875 348.273438 " fill-opacity="1" fill-rule="nonzero"/></g></g><g clip-path="url(#1f8f04f829)"><g clip-path="url(#5d4a50a17a)"><path stroke-linecap="butt" transform="matrix(3.135425, 0, 0, -3.136716, 76.838642, 365.401463)" fill="none" stroke-linejoin="miter" d="M 126.290346 21.977319 L 126.290346 5.460495 M 129.261684 21.976074 L 129.261684 5.460495 M 132.264168 21.976074 L 132.264168 5.460495 M 135.266652 21.976074 L 135.266652 5.460495 M 138.270382 21.976074 L 138.270382 5.460495 M 141.240474 21.976074 L 141.240474 5.460495 " stroke="#394d54" stroke-width="1.56" stroke-opacity="1" stroke-miterlimit="4"/></g></g><g clip-path="url(#7012fa8c91)"><g clip-path="url(#e685ecaac7)"><path fill="#00acd3" d="M 106.71875 362.976562 L 168.855469 362.976562 L 168.855469 425.136719 L 106.714844 425.136719 Z M 106.71875 362.976562 " fill-opacity="1" fill-rule="nonzero"/></g></g><g clip-path="url(#e679b89618)"><g clip-path="url(#79b7c9adec)"><path fill="#20c2ef" d="M 106.71875 434.734375 L 168.855469 434.734375 L 168.855469 496.898438 L 106.714844 496.898438 Z M 106.71875 434.734375 " fill-opacity="1" fill-rule="nonzero"/></g></g><g clip-path="url(#59f5c62664)"><g clip-path="url(#e3fc20a675)"><path fill="#000000" d="M 114.339844 419.992188 L 114.339844 368.183594 M 123.65625 419.992188 L 123.65625 368.183594 M 133.070312 419.992188 L 133.070312 368.183594 M 142.484375 419.992188 L 142.484375 368.183594 M 151.902344 419.992188 L 151.902344 368.183594 M 161.214844 419.992188 L 161.214844 368.183594 " fill-opacity="1" fill-rule="nonzero"/></g></g><g clip-path="url(#9f8c74932d)"><g clip-path="url(#5d852abb26)"><path stroke-linecap="butt" transform="matrix(3.135425, 0, 0, 3.136716, -281.634463, 351.058206)" fill="none" stroke-linejoin="miter" d="M 126.290489 21.976478 L 126.290489 5.459654 M 129.261827 21.976478 L 129.261827 5.459654 M 132.264311 21.976478 L 132.264311 5.459654 M 135.266795 21.976478 L 135.266795 5.459654 M 138.270525 21.976478 L 138.270525 5.459654 M 141.240617 21.976478 L 141.240617 5.459654 " stroke="#394d54" stroke-width="1.56" stroke-opacity="1" stroke-miterlimit="4"/></g></g><g clip-path="url(#cfa3076431)"><g clip-path="url(#ccb0b0d45e)"><path fill="#000000" d="M 114.339844 491.71875 L 114.339844 439.910156 M 123.65625 491.714844 L 123.65625 439.910156 M 133.070312 491.714844 L 133.070312 439.910156 M 142.484375 491.714844 L 142.484375 439.910156 M 151.902344 491.714844 L 151.902344 439.910156 M 161.214844 491.714844 L 161.214844 439.910156 " fill-opacity="1" fill-rule="nonzero"/></g></g><g clip-path="url(#12759994f0)"><g clip-path="url(#4b36be6009)"><path stroke-linecap="butt" transform="matrix(3.135425, 0, 0, 3.136716, -281.634463, 422.782332)" fill="none" stroke-linejoin="miter" d="M 126.290489 21.977255 L 126.290489 5.460431 M 129.261827 21.97601 L 129.261827 5.460431 M 132.264311 21.97601 L 132.264311 5.460431 M 135.266795 21.97601 L 135.266795 5.460431 M 138.270525 21.97601 L 138.270525 5.460431 M 141.240617 21.97601 L 141.240617 5.460431 " stroke="#394d54" stroke-width="1.56" stroke-opacity="1" stroke-miterlimit="4"/></g></g><g clip-path="url(#993d75f21f)"><g clip-path="url(#f1fafaae4d)"><path fill="#00acd3" d="M 178.414062 496.929688 L 240.550781 496.929688 L 240.550781 434.769531 L 178.40625 434.769531 Z M 178.414062 496.929688 " fill-opacity="1" fill-rule="nonzero"/></g></g><g clip-path="url(#4340a02c5e)"><g clip-path="url(#3c8e60e6cc)"><path fill="#20c2ef" d="M 178.414062 425.175781 L 240.550781 425.175781 L 240.550781 363.011719 L 178.40625 363.011719 Z M 178.414062 425.175781 " fill-opacity="1" fill-rule="nonzero"/></g></g><g clip-path="url(#ce810bc98c)"><g clip-path="url(#83581cab6f)"><path fill="#000000" d="M 186.03125 439.914062 L 186.03125 491.722656 M 195.351562 439.917969 L 195.351562 491.722656 M 204.765625 439.917969 L 204.765625 491.722656 M 214.179688 439.917969 L 214.179688 491.722656 M 223.59375 439.917969 L 223.59375 491.722656 M 232.90625 439.917969 L 232.90625 491.722656 " fill-opacity="1" fill-rule="nonzero"/></g></g><g clip-path="url(#5fa6db7bd1)"><g clip-path="url(#774821a5ee)"><path stroke-linecap="butt" transform="matrix(3.135425, 0, 0, -3.136716, -209.939844, 508.849784)" fill="none" stroke-linejoin="miter" d="M 126.289464 21.977033 L 126.289464 5.460209 M 129.262048 21.975788 L 129.262048 5.460209 M 132.264532 21.975788 L 132.264532 5.460209 M 135.267016 21.975788 L 135.267016 5.460209 M 138.269501 21.975788 L 138.269501 5.460209 M 141.239593 21.975788 L 141.239593 5.460209 " stroke="#394d54" stroke-width="1.56" stroke-opacity="1" stroke-miterlimit="4"/></g></g><g clip-path="url(#250fb22a62)"><g clip-path="url(#5fc9d880e3)"><path fill="#000000" d="M 186.03125 368.191406 L 186.03125 420 M 195.351562 368.191406 L 195.351562 420 M 204.765625 368.191406 L 204.765625 420 M 214.179688 368.191406 L 214.179688 420 M 223.59375 368.191406 L 223.59375 420 M 232.90625 368.191406 L 232.90625 420 " fill-opacity="1" fill-rule="nonzero"/></g></g><g clip-path="url(#43ee13cded)"><g clip-path="url(#2c5bc546d2)"><path stroke-linecap="butt" transform="matrix(3.135425, 0, 0, -3.136716, -209.939844, 437.125616)" fill="none" stroke-linejoin="miter" d="M 126.289464 21.976551 L 126.289464 5.459727 M 129.262048 21.976551 L 129.262048 5.459727 M 132.264532 21.976551 L 132.264532 5.459727 M 135.267016 21.976551 L 135.267016 5.459727 M 138.269501 21.976551 L 138.269501 5.459727 M 141.239593 21.976551 L 141.239593 5.459727 " stroke="#394d54" stroke-width="1.56" stroke-opacity="1" stroke-miterlimit="4"/></g></g><g clip-path="url(#c78e0c7071)"><g clip-path="url(#40f0de8220)"><path fill="#00acd3" d="M 250.109375 362.976562 L 312.246094 362.976562 L 312.246094 425.136719 L 250.101562 425.136719 Z M 250.109375 362.976562 " fill-opacity="1" fill-rule="nonzero"/></g></g><g clip-path="url(#75d0e5a71d)"><g clip-path="url(#132d206601)"><path fill="#20c2ef" d="M 250.109375 434.734375 L 312.246094 434.734375 L 312.246094 496.898438 L 250.101562 496.898438 Z M 250.109375 434.734375 " fill-opacity="1" fill-rule="nonzero"/></g></g><g clip-path="url(#fe5f3b6c01)"><g clip-path="url(#6f6cf9892b)"><path fill="#000000" d="M 257.726562 419.992188 L 257.726562 368.183594 M 267.046875 419.992188 L 267.046875 368.183594 M 276.457031 419.992188 L 276.457031 368.183594 M 285.875 419.992188 L 285.875 368.183594 M 295.289062 419.992188 L 295.289062 368.183594 M 304.601562 419.992188 L 304.601562 368.183594 " fill-opacity="1" fill-rule="nonzero"/></g></g><g clip-path="url(#e5e3ae3dac)"><g clip-path="url(#623de753c4)"><path stroke-linecap="butt" transform="matrix(3.135425, 0, 0, 3.136716, -138.245225, 351.058206)" fill="none" stroke-linejoin="miter" d="M 126.289686 21.976478 L 126.289686 5.459654 M 129.262269 21.976478 L 129.262269 5.459654 M 132.263508 21.976478 L 132.263508 5.459654 M 135.267238 21.976478 L 135.267238 5.459654 M 138.269722 21.976478 L 138.269722 5.459654 M 141.239814 21.976478 L 141.239814 5.459654 " stroke="#394d54" stroke-width="1.56" stroke-opacity="1" stroke-miterlimit="4"/></g></g><g clip-path="url(#8b013b0fbb)"><g clip-path="url(#ce4fd0f3ff)"><path fill="#000000" d="M 257.726562 491.71875 L 257.726562 439.910156 M 267.046875 491.714844 L 267.046875 439.910156 M 276.457031 491.714844 L 276.457031 439.910156 M 285.875 491.714844 L 285.875 439.910156 M 295.289062 491.714844 L 295.289062 439.910156 M 304.601562 491.714844 L 304.601562 439.910156 " fill-opacity="1" fill-rule="nonzero"/></g></g><g clip-path="url(#00ea2d9990)"><g clip-path="url(#0f049c67f0)"><path stroke-linecap="butt" transform="matrix(3.135425, 0, 0, 3.136716, -138.245225, 422.782332)" fill="none" stroke-linejoin="miter" d="M 126.289686 21.977255 L 126.289686 5.460431 M 129.262269 21.97601 L 129.262269 5.460431 M 132.263508 21.97601 L 132.263508 5.460431 M 135.267238 21.97601 L 135.267238 5.460431 M 138.269722 21.97601 L 138.269722 5.460431 M 141.239814 21.97601 L 141.239814 5.460431 " stroke="#394d54" stroke-width="1.56" stroke-opacity="1" stroke-miterlimit="4"/></g></g><g clip-path="url(#1340dc1800)"><g clip-path="url(#ae9af205bc)"><path fill="#00acd3" d="M 321.804688 496.929688 L 383.941406 496.929688 L 383.941406 434.769531 L 321.796875 434.769531 Z M 321.804688 496.929688 " fill-opacity="1" fill-rule="nonzero"/></g></g><g clip-path="url(#007889ae99)"><g clip-path="url(#9c2a0f723c)"><path fill="#20c2ef" d="M 321.804688 425.175781 L 383.941406 425.175781 L 383.941406 363.011719 L 321.796875 363.011719 Z M 321.804688 425.175781 " fill-opacity="1" fill-rule="nonzero"/></g></g><g clip-path="url(#4d513cbf0f)"><g clip-path="url(#6a29757b31)"><path fill="#000000" d="M 329.421875 439.914062 L 329.421875 491.722656 M 338.742188 439.917969 L 338.742188 491.722656 M 348.152344 439.917969 L 348.152344 491.722656 M 357.570312 439.917969 L 357.570312 491.722656 M 366.984375 439.917969 L 366.984375 491.722656 M 376.296875 439.917969 L 376.296875 491.722656 " fill-opacity="1" fill-rule="nonzero"/></g></g><g clip-path="url(#4b6b2bf635)"><g clip-path="url(#dc6c8e77d1)"><path stroke-linecap="butt" transform="matrix(3.135425, 0, 0, -3.136716, -66.550599, 508.849784)" fill="none" stroke-linejoin="miter" d="M 126.289905 21.977033 L 126.289905 5.460209 M 129.262488 21.975788 L 129.262488 5.460209 M 132.263727 21.975788 L 132.263727 5.460209 M 135.267457 21.975788 L 135.267457 5.460209 M 138.269941 21.975788 L 138.269941 5.460209 M 141.240033 21.975788 L 141.240033 5.460209 " stroke="#394d54" stroke-width="1.56" stroke-opacity="1" stroke-miterlimit="4"/></g></g><g clip-path="url(#525a632b46)"><g clip-path="url(#1d6b4defd0)"><path fill="#000000" d="M 329.421875 368.191406 L 329.421875 420 M 338.742188 368.191406 L 338.742188 420 M 348.152344 368.191406 L 348.152344 420 M 357.570312 368.191406 L 357.570312 420 M 366.984375 368.191406 L 366.984375 420 M 376.296875 368.191406 L 376.296875 420 " fill-opacity="1" fill-rule="nonzero"/></g></g><g clip-path="url(#66aab031ae)"><g clip-path="url(#755e0e5132)"><path stroke-linecap="butt" transform="matrix(3.135425, 0, 0, -3.136716, -66.550599, 437.125616)" fill="none" stroke-linejoin="miter" d="M 126.289905 21.976551 L 126.289905 5.459727 M 129.262488 21.976551 L 129.262488 5.459727 M 132.263727 21.976551 L 132.263727 5.459727 M 135.267457 21.976551 L 135.267457 5.459727 M 138.269941 21.976551 L 138.269941 5.459727 M 141.240033 21.976551 L 141.240033 5.459727 " stroke="#394d54" stroke-width="1.56" stroke-opacity="1" stroke-miterlimit="4"/></g></g><g clip-path="url(#5b164c78b2)"><g clip-path="url(#9f64c3de16)"><path fill="#00acd3" d="M 393.496094 362.976562 L 455.636719 362.976562 L 455.636719 425.136719 L 393.492188 425.136719 Z M 393.496094 362.976562 " fill-opacity="1" fill-rule="nonzero"/></g></g><g clip-path="url(#ac3e40940d)"><g clip-path="url(#bb50dab055)"><path fill="#20c2ef" d="M 393.496094 434.734375 L 455.636719 434.734375 L 455.636719 496.898438 L 393.492188 496.898438 Z M 393.496094 434.734375 " fill-opacity="1" fill-rule="nonzero"/></g></g><g clip-path="url(#07af69084e)"><g clip-path="url(#61a32b9b7b)"><path fill="#000000" d="M 401.117188 419.992188 L 401.117188 368.183594 M 410.433594 419.992188 L 410.433594 368.183594 M 419.847656 419.992188 L 419.847656 368.183594 M 429.261719 419.992188 L 429.261719 368.183594 M 438.679688 419.992188 L 438.679688 368.183594 M 447.992188 419.992188 L 447.992188 368.183594 " fill-opacity="1" fill-rule="nonzero"/></g></g><g clip-path="url(#4ec63d1e44)"><g clip-path="url(#a5ac6ec8c1)"><path stroke-linecap="butt" transform="matrix(3.135425, 0, 0, 3.136716, 5.144021, 351.058206)" fill="none" stroke-linejoin="miter" d="M 126.290126 21.976478 L 126.290126 5.459654 M 129.261464 21.976478 L 129.261464 5.459654 M 132.263948 21.976478 L 132.263948 5.459654 M 135.266432 21.976478 L 135.266432 5.459654 M 138.270162 21.976478 L 138.270162 5.459654 M 141.240254 21.976478 L 141.240254 5.459654 " stroke="#394d54" stroke-width="1.56" stroke-opacity="1" stroke-miterlimit="4"/></g></g><g clip-path="url(#38c573589b)"><g clip-path="url(#7a74eaf132)"><path fill="#000000" d="M 401.117188 491.71875 L 401.117188 439.910156 M 410.433594 491.714844 L 410.433594 439.910156 M 419.847656 491.714844 L 419.847656 439.910156 M 429.261719 491.714844 L 429.261719 439.910156 M 438.679688 491.714844 L 438.679688 439.910156 M 447.992188 491.714844 L 447.992188 439.910156 " fill-opacity="1" fill-rule="nonzero"/></g></g><g clip-path="url(#7e8a5f1e36)"><g clip-path="url(#7af2a32744)"><path stroke-linecap="butt" transform="matrix(3.135425, 0, 0, 3.136716, 5.144021, 422.782332)" fill="none" stroke-linejoin="miter" d="M 126.290126 21.977255 L 126.290126 5.460431 M 129.261464 21.97601 L 129.261464 5.460431 M 132.263948 21.97601 L 132.263948 5.460431 M 135.266432 21.97601 L 135.266432 5.460431 M 138.270162 21.97601 L 138.270162 5.460431 M 141.240254 21.97601 L 141.240254 5.460431 " stroke="#394d54" stroke-width="1.56" stroke-opacity="1" stroke-miterlimit="4"/></g></g><g clip-path="url(#15074dfd10)"><g clip-path="url(#67655be42a)"><path fill="#00acd3" d="M 465.191406 496.929688 L 527.332031 496.929688 L 527.332031 434.769531 L 465.1875 434.769531 Z M 465.191406 496.929688 " fill-opacity="1" fill-rule="nonzero"/></g></g><g clip-path="url(#f0cf98f811)"><g clip-path="url(#e8a0fe5c10)"><path fill="#20c2ef" d="M 465.191406 425.175781 L 527.332031 425.175781 L 527.332031 363.011719 L 465.1875 363.011719 Z M 465.191406 425.175781 " fill-opacity="1" fill-rule="nonzero"/></g></g><g clip-path="url(#30d75d5ceb)"><g clip-path="url(#827d2e4af2)"><path fill="#000000" d="M 472.8125 439.914062 L 472.8125 491.722656 M 482.128906 439.917969 L 482.128906 491.722656 M 491.542969 439.917969 L 491.542969 491.722656 M 500.957031 439.917969 L 500.957031 491.722656 M 510.375 439.917969 L 510.375 491.722656 M 519.6875 439.917969 L 519.6875 491.722656 " fill-opacity="1" fill-rule="nonzero"/></g></g><g clip-path="url(#45d45a8994)"><g clip-path="url(#e76f575a69)"><path stroke-linecap="butt" transform="matrix(3.135425, 0, 0, -3.136716, 76.838642, 508.849784)" fill="none" stroke-linejoin="miter" d="M 126.290346 21.977033 L 126.290346 5.460209 M 129.261684 21.975788 L 129.261684 5.460209 M 132.264168 21.975788 L 132.264168 5.460209 M 135.266652 21.975788 L 135.266652 5.460209 M 138.270382 21.975788 L 138.270382 5.460209 M 141.240474 21.975788 L 141.240474 5.460209 " stroke="#394d54" stroke-width="1.56" stroke-opacity="1" stroke-miterlimit="4"/></g></g><g clip-path="url(#2516c1d7eb)"><g clip-path="url(#cfdf59fb7c)"><path fill="#000000" d="M 472.8125 368.191406 L 472.8125 420 M 482.128906 368.191406 L 482.128906 420 M 491.542969 368.191406 L 491.542969 420 M 500.957031 368.191406 L 500.957031 420 M 510.375 368.191406 L 510.375 420 M 519.6875 368.191406 L 519.6875 420 " fill-opacity="1" fill-rule="nonzero"/></g></g><g clip-path="url(#d824eee2ca)"><g clip-path="url(#6085bb2126)"><path stroke-linecap="butt" transform="matrix(3.135425, 0, 0, -3.136716, 76.838642, 437.125616)" fill="none" stroke-linejoin="miter" d="M 126.290346 21.976551 L 126.290346 5.459727 M 129.261684 21.976551 L 129.261684 5.459727 M 132.264168 21.976551 L 132.264168 5.459727 M 135.266652 21.976551 L 135.266652 5.459727 M 138.270382 21.976551 L 138.270382 5.459727 M 141.240474 21.976551 L 141.240474 5.459727 " stroke="#394d54" stroke-width="1.56" stroke-opacity="1" stroke-miterlimit="4"/></g></g><g clip-path="url(#87e9f3d738)"><g clip-path="url(#da72a02715)"><path fill="#17b5eb" d="M 699.859375 449.910156 C 704.667969 412.535156 676.707031 383.175781 659.371094 369.238281 C 639.386719 392.351562 636.28125 452.921875 667.632812 478.417969 C 650.136719 493.964844 613.273438 508.054688 575.523438 508.054688 L 111.734375 508.054688 C 108.0625 547.472656 111.734375 737.292969 111.734375 737.292969 L 792.121094 737.292969 L 789.023438 450.523438 C 759.550781 433.511719 721.664062 438.9375 699.84375 449.90625 " fill-opacity="1" fill-rule="nonzero"/></g></g><g clip-path="url(#aaa10cc1e2)"><g clip-path="url(#825ed4e927)"><path fill="#000000" d="M 111.75 558.5 L 111.75 737.292969 L 792.136719 737.292969 L 792.136719 558.5 " fill-opacity="0.17" fill-rule="nonzero"/></g></g><g clip-path="url(#e50bc25f2c)"><g clip-path="url(#94ab89657e)"><path fill="#d4edf1" d="M 353.929688 721.296875 C 311.476562 701.144531 288.171875 673.746094 275.207031 643.839844 L 146.238281 649.453125 L 212.082031 737.28125 L 353.917969 721.285156 " fill-opacity="1" fill-rule="nonzero"/></g></g><g clip-path="url(#f1a382fb6e)"><g clip-path="url(#70aac95427)"><path fill="#000000" d="M 702.777344 448.523438 L 702.777344 448.617188 C 637.371094 532.992188 543.550781 606.644531 442.832031 645.351562 C 352.984375 679.878906 274.652344 680.042969 220.605469 652.316406 C 214.789062 649.027344 209.082031 645.375 203.363281 641.925781 C 163.738281 614.222656 141.425781 568.402344 143.300781 508.027344 L 111.757812 508.027344 L 111.757812 737.292969 L 792.144531 737.292969 L 792.144531 436.167969 L 713.757812 436.167969 Z M 702.777344 448.523438 " fill-opacity="0.085" fill-rule="nonzero"/></g></g><path stroke-linecap="round" transform="matrix(16.979449, 0, 0, 16.986444, -46.991369, 483.137387)" fill="none" stroke-linejoin="miter" d="M 11.495926 9.613095 C 14.11191 9.755902 16.902968 9.783038 19.337897 9.019101 " stroke="#394d54" stroke-width="0.628" stroke-opacity="1" stroke-miterlimit="4"/><path fill="#d4edf1" d="M 325.488281 614.832031 C 325.484375 615.394531 325.457031 615.953125 325.402344 616.511719 C 325.347656 617.070312 325.265625 617.625 325.15625 618.175781 C 325.046875 618.726562 324.910156 619.269531 324.746094 619.808594 C 324.582031 620.34375 324.394531 620.871094 324.179688 621.390625 C 323.964844 621.90625 323.722656 622.414062 323.457031 622.910156 C 323.195312 623.402344 322.90625 623.886719 322.59375 624.351562 C 322.28125 624.816406 321.949219 625.269531 321.59375 625.703125 C 321.238281 626.136719 320.859375 626.550781 320.464844 626.949219 C 320.066406 627.34375 319.652344 627.722656 319.21875 628.078125 C 318.785156 628.433594 318.335938 628.765625 317.867188 629.078125 C 317.402344 629.390625 316.921875 629.679688 316.425781 629.945312 C 315.933594 630.207031 315.425781 630.449219 314.90625 630.664062 C 314.390625 630.878906 313.863281 631.066406 313.324219 631.230469 C 312.789062 631.394531 312.246094 631.53125 311.695312 631.640625 C 311.144531 631.75 310.589844 631.832031 310.035156 631.886719 C 309.476562 631.945312 308.914062 631.972656 308.355469 631.972656 C 307.792969 631.972656 307.234375 631.945312 306.675781 631.890625 C 306.117188 631.835938 305.5625 631.753906 305.011719 631.644531 C 304.460938 631.535156 303.917969 631.398438 303.378906 631.234375 C 302.84375 631.070312 302.3125 630.882812 301.796875 630.667969 C 301.277344 630.453125 300.769531 630.214844 300.273438 629.949219 C 299.78125 629.683594 299.300781 629.398438 298.832031 629.085938 C 298.367188 628.773438 297.914062 628.4375 297.480469 628.082031 C 297.046875 627.726562 296.632812 627.351562 296.234375 626.953125 C 295.835938 626.558594 295.460938 626.140625 295.105469 625.707031 C 294.746094 625.273438 294.414062 624.824219 294.101562 624.355469 C 293.789062 623.890625 293.5 623.410156 293.234375 622.914062 C 292.972656 622.417969 292.730469 621.914062 292.515625 621.394531 C 292.300781 620.875 292.109375 620.347656 291.949219 619.808594 C 291.785156 619.273438 291.648438 618.730469 291.539062 618.179688 C 291.429688 617.628906 291.34375 617.074219 291.289062 616.515625 C 291.234375 615.953125 291.207031 615.394531 291.207031 614.832031 C 291.207031 614.269531 291.234375 613.710938 291.289062 613.152344 C 291.34375 612.59375 291.425781 612.039062 291.535156 611.484375 C 291.644531 610.933594 291.78125 610.390625 291.945312 609.851562 C 292.105469 609.316406 292.296875 608.785156 292.511719 608.269531 C 292.726562 607.75 292.964844 607.242188 293.230469 606.746094 C 293.496094 606.25 293.785156 605.769531 294.09375 605.300781 C 294.40625 604.835938 294.742188 604.382812 295.097656 603.949219 C 295.453125 603.515625 295.832031 603.097656 296.226562 602.703125 C 296.625 602.304688 297.042969 601.929688 297.476562 601.570312 C 297.910156 601.214844 298.359375 600.878906 298.828125 600.566406 C 299.292969 600.257812 299.773438 599.96875 300.269531 599.703125 C 300.765625 599.4375 301.273438 599.199219 301.792969 598.984375 C 302.3125 598.769531 302.839844 598.578125 303.375 598.414062 C 303.914062 598.253906 304.457031 598.117188 305.007812 598.007812 C 305.558594 597.898438 306.113281 597.816406 306.671875 597.757812 C 307.234375 597.703125 307.792969 597.675781 308.355469 597.675781 C 308.914062 597.675781 309.476562 597.707031 310.035156 597.761719 C 310.59375 597.816406 311.148438 597.898438 311.699219 598.007812 C 312.25 598.121094 312.792969 598.257812 313.328125 598.417969 C 313.867188 598.582031 314.394531 598.773438 314.910156 598.988281 C 315.429688 599.203125 315.9375 599.441406 316.433594 599.707031 C 316.925781 599.972656 317.40625 600.261719 317.875 600.574219 C 318.339844 600.886719 318.789062 601.222656 319.222656 601.578125 C 319.65625 601.933594 320.074219 602.3125 320.46875 602.707031 C 320.867188 603.105469 321.242188 603.519531 321.597656 603.957031 C 321.953125 604.390625 322.289062 604.839844 322.601562 605.308594 C 322.910156 605.773438 323.199219 606.253906 323.464844 606.75 C 323.730469 607.246094 323.96875 607.753906 324.183594 608.273438 C 324.398438 608.789062 324.585938 609.320312 324.75 609.855469 C 324.914062 610.394531 325.046875 610.9375 325.15625 611.488281 C 325.265625 612.039062 325.347656 612.59375 325.40625 613.152344 C 325.460938 613.710938 325.488281 614.273438 325.488281 614.832031 Z M 325.488281 614.832031 " fill-opacity="1" fill-rule="nonzero"/><path fill="#394d54" d="M 312.972656 603.402344 C 311.480469 604.25 310.460938 605.882812 310.460938 607.75 C 310.460938 610.519531 312.703125 612.761719 315.46875 612.761719 C 317.371094 612.761719 318.863281 611.707031 319.882812 610.144531 C 320.503906 611.652344 320.816406 613.21875 320.816406 614.851562 C 320.816406 621.644531 315.316406 627.132812 308.542969 627.132812 C 301.765625 627.132812 296.265625 621.628906 296.265625 614.851562 C 296.265625 608.074219 301.765625 602.570312 308.542969 602.570312 C 310.078125 602.566406 311.558594 602.84375 312.988281 603.402344 Z M 5.136719 562.125 L 802.558594 562.125 C 785.1875 557.707031 747.628906 551.933594 753.828125 529 C 722.246094 565.554688 646.109375 554.480469 626.90625 536.609375 C 605.511719 567.660156 480.933594 555.855469 472.257812 531.515625 C 445.429688 563.007812 362.316406 563.007812 335.488281 531.515625 C 326.792969 555.703125 202.234375 567.527344 180.976562 536.609375 C 161.585938 554.480469 85.449219 565.574219 53.867188 529 C 60.0625 551.761719 22.488281 557.878906 5.136719 562.125 " fill-opacity="1" fill-rule="nonzero"/><g fill="#000000" fill-opacity="1"><g transform="translate(443.639523, 634.871806)"><g><path d="M 3.9375 0.140625 C 3.382812 0.140625 2.945312 -0.015625 2.625 -0.328125 C 2.300781 -0.640625 2.140625 -1.050781 2.140625 -1.5625 C 2.140625 -2.070312 2.300781 -2.488281 2.625 -2.8125 C 2.945312 -3.144531 3.382812 -3.3125 3.9375 -3.3125 C 4.5 -3.3125 4.941406 -3.15625 5.265625 -2.84375 C 5.585938 -2.53125 5.75 -2.113281 5.75 -1.59375 C 5.75 -1.070312 5.582031 -0.648438 5.25 -0.328125 C 4.925781 -0.015625 4.488281 0.140625 3.9375 0.140625 Z M 3.9375 0.140625 "/></g></g></g><g fill="#ffffff" fill-opacity="1"><g transform="translate(658.125413, 704.96629)"><g><path d="M 45.609375 1.703125 C 39.160156 1.703125 34.070312 -0.101562 30.34375 -3.71875 C 26.613281 -7.34375 24.75 -12.148438 24.75 -18.140625 C 24.75 -24.015625 26.613281 -28.84375 30.34375 -32.625 C 34.070312 -36.414062 39.160156 -38.3125 45.609375 -38.3125 C 52.160156 -38.3125 57.300781 -36.503906 61.03125 -32.890625 C 64.757812 -29.273438 66.625 -24.472656 66.625 -18.484375 C 66.625 -12.492188 64.726562 -7.628906 60.9375 -3.890625 C 57.15625 -0.160156 52.046875 1.703125 45.609375 1.703125 Z M 45.609375 1.703125 "/></g></g></g></svg>