<svg xmlns="http://www.w3.org/2000/svg" xmlns:xlink="http://www.w3.org/1999/xlink" width="1080" zoomAndPan="magnify" viewBox="0 0 810 1012.49997" height="1350" preserveAspectRatio="xMidYMid meet" version="1.0"><defs><g/><clipPath id="6ab782ba35"><path d="M 0.199219 39.746094 L 809.800781 39.746094 L 809.800781 994.773438 L 0.199219 994.773438 Z M 0.199219 39.746094 " clip-rule="nonzero"/></clipPath><clipPath id="b2fab997df"><path d="M 1 40 L 809 40 L 809 994.773438 L 1 994.773438 Z M 1 40 " clip-rule="nonzero"/></clipPath></defs><g clip-path="url(#6ab782ba35)"><path fill="#000000" d="M 21.066406 122.582031 L 21.066406 123.90625 C 21.066406 253.347656 21.066406 382.726562 21.066406 512.171875 L 21.066406 513.492188 L 41.761719 513.492188 L 41.761719 538.679688 L 63.1875 538.679688 L 63.1875 559.4375 L 83.820312 559.4375 L 83.820312 578.414062 L 63.121094 578.414062 L 63.121094 598.707031 L 41.695312 598.511719 L 0.367188 598.511719 L 0.367188 767.222656 L 2.351562 767.15625 L 41.960938 767.15625 L 41.960938 787.847656 L 43.285156 787.847656 C 45.796875 787.847656 48.308594 787.847656 50.757812 787.847656 L 83.289062 787.847656 L 83.289062 808.542969 L 84.613281 808.542969 C 87.125 808.542969 89.640625 808.542969 92.085938 808.542969 L 124.753906 808.542969 L 124.753906 829.234375 L 126.074219 829.234375 C 128.589844 829.234375 131.101562 829.234375 133.546875 829.234375 L 166.082031 829.234375 L 166.082031 849.925781 L 167.40625 849.925781 C 169.917969 849.925781 172.429688 849.925781 174.878906 849.925781 L 207.410156 849.925781 L 207.410156 870.621094 L 208.734375 870.621094 C 211.246094 870.621094 213.761719 870.621094 216.207031 870.621094 L 248.742188 870.621094 L 248.742188 891.3125 L 250.0625 891.3125 C 252.578125 891.3125 255.089844 891.3125 257.535156 891.3125 L 290.070312 891.3125 L 290.070312 912.003906 L 291.394531 912.003906 C 293.90625 912.003906 296.417969 912.003906 298.867188 912.003906 L 331.398438 912.003906 L 331.398438 932.699219 L 332.722656 932.699219 C 335.234375 932.699219 337.75 932.699219 340.195312 932.699219 L 372.730469 932.699219 L 372.730469 953.390625 L 393.425781 953.390625 L 393.425781 974.082031 L 394.75 974.082031 C 400.238281 974.082031 405.660156 974.082031 411.148438 974.082031 L 443.683594 974.082031 L 443.683594 994.773438 L 445.007812 994.773438 C 462.730469 994.773438 480.449219 994.773438 498.238281 994.773438 L 499.5625 994.773438 L 499.5625 974.082031 L 520.257812 974.082031 L 520.257812 953.390625 L 552.792969 953.390625 C 555.308594 953.390625 557.820312 953.390625 560.265625 953.390625 L 561.589844 953.390625 L 561.589844 932.699219 L 594.125 932.699219 C 596.636719 932.699219 599.148438 932.699219 601.597656 932.699219 L 602.917969 932.699219 L 602.917969 911.871094 L 635.453125 911.871094 C 637.964844 911.871094 640.480469 911.871094 642.925781 911.871094 L 644.25 911.871094 L 644.25 891.179688 L 676.78125 891.179688 C 679.296875 891.179688 681.808594 891.179688 684.253906 891.179688 L 685.578125 891.179688 L 685.578125 870.488281 L 718.113281 870.488281 C 720.625 870.488281 723.136719 870.488281 725.585938 870.488281 L 726.90625 870.488281 L 726.90625 849.792969 L 759.441406 849.792969 C 761.953125 849.792969 764.46875 849.792969 766.914062 849.792969 L 768.238281 849.792969 L 768.238281 829.101562 L 788.933594 829.101562 L 788.933594 808.410156 L 809.632812 808.410156 L 809.632812 807.085938 C 809.632812 758.828125 809.632812 710.566406 809.632812 662.304688 L 809.632812 660.984375 L 788.933594 660.984375 L 788.933594 640.292969 L 768.238281 640.292969 L 768.238281 619.597656 L 747.539062 619.597656 L 747.539062 599.371094 L 705.546875 599.371094 L 705.546875 578.414062 L 665.011719 578.414062 L 665.011719 559.703125 L 706.011719 559.703125 L 706.011719 539.339844 L 747.871094 539.339844 L 747.871094 518.78125 L 768.566406 518.78125 L 768.566406 373.074219 L 789.265625 373.074219 L 789.265625 371.75 C 789.265625 316.617188 789.265625 261.480469 789.265625 206.277344 L 789.265625 204.957031 L 768.566406 204.957031 L 768.566406 184.261719 L 747.871094 184.261719 L 747.871094 163.570312 L 727.171875 163.570312 L 727.171875 142.878906 L 725.847656 142.878906 C 723.335938 142.878906 720.824219 142.878906 718.378906 142.878906 L 685.84375 142.878906 L 685.84375 122.515625 L 684.519531 122.515625 C 682.007812 122.515625 679.496094 122.515625 677.046875 122.515625 L 644.511719 122.515625 L 644.511719 101.824219 L 643.191406 101.824219 C 640.675781 101.824219 638.164062 101.824219 635.71875 101.824219 L 603.183594 101.824219 L 603.183594 81.132812 L 601.859375 81.132812 C 592.472656 81.132812 583.015625 81.132812 573.625 81.132812 L 541.089844 81.132812 L 541.089844 60.4375 L 539.765625 60.4375 C 488.980469 60.4375 438.195312 60.4375 387.410156 60.4375 L 354.875 60.4375 L 354.875 39.746094 L 353.554688 39.746094 C 305.28125 39.746094 257.007812 39.746094 208.734375 39.746094 L 207.410156 39.746094 L 207.410156 60.4375 L 174.878906 60.4375 C 165.488281 60.4375 156.03125 60.4375 146.640625 60.4375 L 145.316406 60.4375 L 145.316406 81.132812 L 112.785156 81.132812 C 103.394531 81.132812 94.003906 81.132812 84.613281 81.132812 L 83.289062 81.132812 L 83.289062 101.824219 L 50.757812 101.824219 C 48.242188 101.824219 45.730469 101.824219 43.285156 101.824219 L 41.960938 101.824219 L 41.960938 122.582031 Z M 21.066406 122.582031 " fill-opacity="1" fill-rule="evenodd"/></g><path fill="#e6e6e6" d="M 63.785156 123.90625 C 56.90625 123.90625 49.960938 123.90625 43.085938 123.90625 C 43.085938 130.78125 43.085938 137.722656 43.085938 144.597656 C 49.960938 144.597656 56.90625 144.597656 63.785156 144.597656 C 70.660156 144.597656 77.605469 144.597656 84.480469 144.597656 C 84.480469 151.472656 84.480469 158.414062 84.480469 165.289062 C 91.359375 165.289062 98.300781 165.289062 105.179688 165.289062 C 112.054688 165.289062 119 165.289062 125.875 165.289062 C 125.875 172.164062 125.875 179.105469 125.875 185.980469 C 132.753906 185.980469 139.699219 185.980469 146.574219 185.980469 C 153.453125 185.980469 160.394531 185.980469 167.273438 185.980469 C 167.273438 192.859375 167.273438 199.800781 167.273438 206.675781 C 174.148438 206.675781 181.09375 206.675781 187.96875 206.675781 C 194.847656 206.675781 201.789062 206.675781 208.667969 206.675781 C 208.667969 213.550781 208.667969 220.492188 208.667969 227.367188 C 215.546875 227.367188 222.488281 227.367188 229.367188 227.367188 C 236.242188 227.367188 243.1875 227.367188 250.0625 227.367188 C 250.0625 234.242188 250.0625 241.183594 250.0625 248.058594 C 256.941406 248.058594 263.882812 248.058594 270.761719 248.058594 C 277.640625 248.058594 284.582031 248.058594 291.460938 248.058594 C 291.460938 254.933594 291.460938 261.875 291.460938 268.753906 C 298.335938 268.753906 305.28125 268.753906 312.15625 268.753906 C 319.035156 268.753906 325.976562 268.753906 332.855469 268.753906 C 332.855469 275.628906 332.855469 282.570312 332.855469 289.445312 C 339.730469 289.445312 346.675781 289.445312 353.554688 289.445312 C 360.429688 289.445312 367.375 289.445312 374.25 289.445312 C 374.25 296.320312 374.25 303.261719 374.25 310.136719 C 381.128906 310.136719 388.070312 310.136719 394.949219 310.136719 C 401.824219 310.136719 408.769531 310.136719 415.644531 310.136719 C 422.523438 310.136719 429.46875 310.136719 436.34375 310.136719 C 436.34375 303.261719 436.34375 296.320312 436.34375 289.445312 C 443.222656 289.445312 450.164062 289.445312 457.042969 289.445312 C 463.917969 289.445312 470.863281 289.445312 477.738281 289.445312 C 477.738281 282.570312 477.738281 275.628906 477.738281 268.753906 C 484.617188 268.753906 491.558594 268.753906 498.4375 268.753906 C 505.316406 268.753906 512.257812 268.753906 519.136719 268.753906 C 526.011719 268.753906 532.957031 268.753906 539.832031 268.753906 C 539.832031 261.875 539.832031 254.933594 539.832031 248.058594 C 546.710938 248.058594 553.652344 248.058594 560.53125 248.058594 C 567.410156 248.058594 574.351562 248.058594 581.230469 248.058594 C 588.105469 248.058594 595.050781 248.058594 601.925781 248.058594 C 601.925781 241.183594 601.925781 234.242188 601.925781 227.367188 C 608.804688 227.367188 615.746094 227.367188 622.625 227.367188 C 629.503906 227.367188 636.445312 227.367188 643.324219 227.367188 C 650.199219 227.367188 657.144531 227.367188 664.019531 227.367188 C 670.898438 227.367188 677.839844 227.367188 684.71875 227.367188 C 684.71875 220.492188 684.71875 213.550781 684.71875 206.675781 C 691.597656 206.675781 698.539062 206.675781 705.417969 206.675781 C 712.292969 206.675781 719.238281 206.675781 726.113281 206.675781 C 732.992188 206.675781 739.933594 206.675781 746.8125 206.675781 C 746.8125 199.800781 746.8125 192.859375 746.8125 185.980469 C 739.933594 185.980469 732.992188 185.980469 726.113281 185.980469 C 726.113281 179.105469 726.113281 172.164062 726.113281 165.289062 C 712.292969 165.289062 698.472656 165.289062 684.785156 165.289062 C 684.785156 158.414062 684.785156 151.472656 684.785156 144.597656 C 670.964844 144.597656 657.144531 144.597656 643.457031 144.597656 C 643.457031 137.722656 643.457031 130.78125 643.457031 123.90625 C 629.632812 123.90625 615.8125 123.90625 602.125 123.90625 C 602.125 117.027344 602.125 110.085938 602.125 103.210938 C 581.429688 103.210938 560.796875 103.210938 540.03125 103.210938 C 540.03125 96.335938 540.03125 89.394531 540.03125 82.519531 C 477.9375 82.519531 415.910156 82.519531 353.816406 82.519531 C 353.816406 75.644531 353.816406 68.703125 353.816406 61.828125 C 305.542969 61.828125 257.273438 61.828125 209 61.828125 C 209 68.703125 209 75.644531 209 82.519531 C 188.300781 82.519531 167.667969 82.519531 146.90625 82.519531 C 146.90625 89.394531 146.90625 96.335938 146.90625 103.210938 C 126.207031 103.210938 105.574219 103.210938 84.878906 103.210938 C 84.878906 110.085938 84.878906 117.027344 84.878906 123.90625 C 77.539062 123.90625 70.660156 123.90625 63.785156 123.90625 Z M 167.273438 661.644531 C 167.273438 668.519531 167.273438 675.460938 167.273438 682.335938 C 174.148438 682.335938 181.09375 682.335938 187.96875 682.335938 C 194.847656 682.335938 201.789062 682.335938 208.667969 682.335938 C 208.667969 689.214844 208.667969 696.15625 208.667969 703.03125 C 215.546875 703.03125 222.488281 703.03125 229.367188 703.03125 C 236.242188 703.03125 243.1875 703.03125 250.0625 703.03125 C 250.0625 709.90625 250.0625 716.847656 250.0625 723.722656 C 256.941406 723.722656 263.882812 723.722656 270.761719 723.722656 C 277.640625 723.722656 284.582031 723.722656 291.460938 723.722656 C 298.335938 723.722656 305.28125 723.722656 312.15625 723.722656 C 312.15625 730.597656 312.15625 737.539062 312.15625 744.414062 C 319.035156 744.414062 325.976562 744.414062 332.855469 744.414062 C 332.855469 751.289062 332.855469 758.230469 332.855469 765.109375 C 339.730469 765.109375 346.675781 765.109375 353.554688 765.109375 C 360.429688 765.109375 367.375 765.109375 374.25 765.109375 C 381.128906 765.109375 388.070312 765.109375 394.949219 765.109375 C 394.949219 771.984375 394.949219 778.925781 394.949219 785.800781 C 401.824219 785.800781 408.769531 785.800781 415.644531 785.800781 C 422.523438 785.800781 429.46875 785.800781 436.34375 785.800781 C 436.34375 792.675781 436.34375 799.617188 436.34375 806.492188 C 443.222656 806.492188 450.164062 806.492188 457.042969 806.492188 C 463.917969 806.492188 470.863281 806.492188 477.738281 806.492188 C 477.738281 799.617188 477.738281 792.675781 477.738281 785.800781 C 484.617188 785.800781 491.558594 785.800781 498.4375 785.800781 C 498.4375 778.925781 498.4375 771.984375 498.4375 765.109375 C 505.316406 765.109375 512.257812 765.109375 519.136719 765.109375 C 526.011719 765.109375 532.957031 765.109375 539.832031 765.109375 C 539.832031 758.230469 539.832031 751.289062 539.832031 744.414062 C 546.710938 744.414062 553.652344 744.414062 560.53125 744.414062 C 567.410156 744.414062 574.351562 744.414062 581.230469 744.414062 C 581.230469 737.539062 581.230469 730.597656 581.230469 723.722656 C 588.105469 723.722656 595.050781 723.722656 601.925781 723.722656 C 608.804688 723.722656 615.746094 723.722656 622.625 723.722656 C 622.625 716.847656 622.625 709.90625 622.625 703.03125 C 629.503906 703.03125 636.445312 703.03125 643.324219 703.03125 C 650.199219 703.03125 657.144531 703.03125 664.019531 703.03125 C 664.019531 696.15625 664.019531 689.214844 664.019531 682.335938 C 670.898438 682.335938 677.839844 682.335938 684.71875 682.335938 C 691.597656 682.335938 698.539062 682.335938 705.417969 682.335938 C 712.292969 682.335938 719.238281 682.335938 726.113281 682.335938 C 726.113281 675.460938 726.113281 668.519531 726.113281 661.644531 C 732.992188 661.644531 739.933594 661.644531 746.8125 661.644531 C 753.6875 661.644531 760.632812 661.644531 767.511719 661.644531 C 767.511719 654.769531 767.511719 647.828125 767.511719 640.953125 C 760.632812 640.953125 753.6875 640.953125 746.8125 640.953125 C 746.8125 634.078125 746.8125 627.136719 746.8125 620.261719 C 732.992188 620.261719 719.171875 620.261719 705.484375 620.261719 C 705.484375 613.382812 705.484375 606.441406 705.484375 599.566406 C 691.660156 599.566406 677.839844 599.566406 664.152344 599.566406 C 650.464844 599.566406 636.511719 599.566406 622.824219 599.566406 C 622.824219 606.441406 622.824219 613.382812 622.824219 620.261719 C 615.945312 620.261719 609.003906 620.261719 602.125 620.261719 C 595.25 620.261719 588.304688 620.261719 581.429688 620.261719 C 581.429688 627.136719 581.429688 634.078125 581.429688 640.953125 C 581.429688 647.828125 581.429688 654.769531 581.429688 661.644531 C 581.429688 668.519531 581.429688 675.460938 581.429688 682.335938 C 574.550781 682.335938 567.605469 682.335938 560.730469 682.335938 C 560.730469 689.214844 560.730469 696.15625 560.730469 703.03125 C 553.851562 703.03125 546.910156 703.03125 540.03125 703.03125 C 533.15625 703.03125 526.210938 703.03125 519.335938 703.03125 L 519.335938 723.722656 C 512.457031 723.722656 505.511719 723.722656 498.636719 723.722656 L 477.9375 723.722656 C 477.9375 730.597656 477.9375 737.539062 477.9375 744.414062 C 471.0625 744.414062 464.117188 744.414062 457.242188 744.414062 C 450.363281 744.414062 443.421875 744.414062 436.542969 744.414062 C 429.664062 744.414062 422.722656 744.414062 415.84375 744.414062 C 408.96875 744.414062 402.023438 744.414062 395.148438 744.414062 C 388.269531 744.414062 381.328125 744.414062 374.449219 744.414062 C 374.449219 737.539062 374.449219 730.597656 374.449219 723.722656 C 367.570312 723.722656 360.628906 723.722656 353.75 723.722656 C 346.875 723.722656 339.929688 723.722656 333.054688 723.722656 C 333.054688 716.847656 333.054688 709.90625 333.054688 703.03125 C 326.175781 703.03125 319.234375 703.03125 312.355469 703.03125 C 305.480469 703.03125 298.535156 703.03125 291.65625 703.03125 C 291.65625 696.15625 291.65625 689.214844 291.65625 682.335938 C 284.78125 682.335938 277.835938 682.335938 270.960938 682.335938 C 264.082031 682.335938 257.140625 682.335938 250.261719 682.335938 C 250.261719 675.460938 250.261719 668.519531 250.261719 661.644531 C 243.386719 661.644531 236.441406 661.644531 229.566406 661.644531 C 222.6875 661.644531 215.742188 661.644531 208.867188 661.644531 C 208.867188 654.769531 208.867188 647.828125 208.867188 640.953125 C 201.988281 640.953125 195.046875 640.953125 188.167969 640.953125 C 181.292969 640.953125 174.347656 640.953125 167.472656 640.953125 C 167.472656 634.078125 167.472656 627.136719 167.472656 620.261719 C 160.59375 620.261719 153.652344 620.261719 146.773438 620.261719 C 146.773438 613.382812 146.773438 606.441406 146.773438 599.566406 C 139.894531 599.566406 132.953125 599.566406 126.074219 599.566406 C 119.199219 599.566406 112.253906 599.566406 105.378906 599.566406 C 98.5 599.566406 91.558594 599.566406 84.679688 599.566406 C 77.800781 599.566406 70.859375 599.566406 63.980469 599.566406 C 63.980469 606.441406 63.980469 613.382812 63.980469 620.261719 C 70.859375 620.261719 77.800781 620.261719 84.679688 620.261719 C 84.679688 627.136719 84.679688 634.078125 84.679688 640.953125 C 91.558594 640.953125 98.5 640.953125 105.378906 640.953125 C 112.253906 640.953125 119.199219 640.953125 126.074219 640.953125 C 126.074219 647.828125 126.074219 654.769531 126.074219 661.644531 C 132.953125 661.644531 139.894531 661.644531 146.773438 661.644531 C 153.453125 661.644531 160.328125 661.644531 167.273438 661.644531 Z M 539.636719 227.300781 C 539.636719 234.175781 539.636719 241.117188 539.636719 247.992188 C 532.757812 247.992188 525.816406 247.992188 518.9375 247.992188 C 512.058594 247.992188 505.117188 247.992188 498.238281 247.992188 C 491.363281 247.992188 484.417969 247.992188 477.542969 247.992188 C 477.542969 241.117188 477.542969 234.175781 477.542969 227.300781 C 498.238281 227.300781 518.9375 227.300781 539.636719 227.300781 Z M 477.542969 227.300781 C 463.722656 227.300781 449.898438 227.300781 436.210938 227.300781 C 436.210938 220.425781 436.210938 213.484375 436.210938 206.609375 C 450.03125 206.609375 463.851562 206.609375 477.542969 206.609375 C 477.542969 213.484375 477.542969 220.359375 477.542969 227.300781 Z M 436.210938 206.609375 C 422.390625 206.609375 408.570312 206.609375 394.882812 206.609375 C 394.882812 199.734375 394.882812 192.792969 394.882812 185.917969 C 408.703125 185.917969 422.523438 185.917969 436.210938 185.917969 C 436.210938 192.859375 436.210938 199.734375 436.210938 206.609375 Z M 394.816406 185.917969 C 387.9375 185.917969 380.996094 185.917969 374.117188 185.917969 C 374.117188 179.039062 374.117188 172.097656 374.117188 165.222656 C 380.996094 165.222656 387.9375 165.222656 394.816406 165.222656 C 394.816406 172.097656 394.816406 179.039062 394.816406 185.917969 Z M 374.117188 165.222656 C 360.296875 165.222656 346.476562 165.222656 332.789062 165.222656 C 332.789062 158.347656 332.789062 151.40625 332.789062 144.53125 C 346.609375 144.53125 360.429688 144.53125 374.117188 144.53125 C 374.117188 151.40625 374.117188 158.347656 374.117188 165.222656 Z M 332.722656 144.597656 C 318.902344 144.597656 305.082031 144.597656 291.394531 144.597656 C 291.394531 137.722656 291.394531 130.78125 291.394531 123.90625 C 305.214844 123.90625 319.035156 123.90625 332.722656 123.90625 C 332.722656 130.78125 332.722656 137.65625 332.722656 144.597656 Z M 291.394531 123.90625 C 277.574219 123.90625 263.753906 123.90625 250.0625 123.90625 C 250.0625 117.027344 250.0625 110.085938 250.0625 103.210938 C 263.882812 103.210938 277.703125 103.210938 291.394531 103.210938 C 291.394531 110.085938 291.394531 116.964844 291.394531 123.90625 Z M 249.996094 103.210938 C 236.175781 103.210938 222.355469 103.210938 208.667969 103.210938 C 208.667969 96.335938 208.667969 89.394531 208.667969 82.519531 C 222.488281 82.519531 236.308594 82.519531 249.996094 82.519531 C 249.996094 89.394531 249.996094 96.269531 249.996094 103.210938 Z M 249.996094 103.210938 " fill-opacity="1" fill-rule="evenodd"/><path fill="#adadad" d="M 436.210938 289.3125 L 436.210938 310.003906 L 415.515625 310.003906 L 415.515625 702.964844 L 457.371094 702.964844 L 457.371094 682.273438 C 471.195312 682.273438 485.015625 682.273438 498.703125 682.273438 L 498.703125 702.964844 C 484.882812 702.964844 471.0625 702.964844 457.371094 702.964844 C 457.371094 709.839844 457.371094 716.78125 457.371094 723.65625 C 450.496094 723.65625 443.550781 723.65625 436.675781 723.65625 C 429.796875 723.65625 422.855469 723.65625 415.976562 723.65625 C 409.101562 723.65625 402.15625 723.65625 395.277344 723.65625 C 395.277344 716.78125 395.277344 709.839844 395.277344 702.964844 C 388.402344 702.964844 381.457031 702.964844 374.582031 702.964844 C 367.703125 702.964844 360.761719 702.964844 353.882812 702.964844 C 353.882812 696.089844 353.882812 689.148438 353.882812 682.273438 C 347.007812 682.273438 340.0625 682.273438 333.1875 682.273438 C 326.308594 682.273438 319.363281 682.273438 312.488281 682.273438 C 312.488281 675.394531 312.488281 668.453125 312.488281 661.578125 C 305.609375 661.578125 298.667969 661.578125 291.789062 661.578125 C 284.914062 661.578125 277.96875 661.578125 271.09375 661.578125 C 271.09375 654.703125 271.09375 647.761719 271.09375 640.886719 C 264.214844 640.886719 257.273438 640.886719 250.394531 640.886719 C 243.515625 640.886719 236.574219 640.886719 229.695312 640.886719 C 229.695312 634.011719 229.695312 627.070312 229.695312 620.195312 C 222.820312 620.195312 215.875 620.195312 209 620.195312 C 202.121094 620.195312 195.179688 620.195312 188.300781 620.195312 C 188.300781 613.320312 188.300781 606.375 188.300781 599.5 C 181.421875 599.5 174.480469 599.5 167.601562 599.5 C 160.726562 599.5 153.78125 599.5 146.90625 599.5 C 146.90625 592.625 146.90625 585.683594 146.90625 578.808594 C 140.027344 578.808594 133.085938 578.808594 126.207031 578.808594 L 105.574219 578.808594 C 105.445312 578.808594 105.378906 578.808594 105.246094 578.808594 C 105.113281 578.808594 105.046875 578.808594 104.914062 578.808594 C 104.78125 578.808594 104.714844 578.808594 104.582031 578.808594 C 104.453125 578.808594 104.386719 578.808594 104.253906 578.808594 C 104.121094 578.808594 104.054688 578.808594 103.921875 578.808594 C 103.789062 578.808594 103.722656 578.808594 103.59375 578.808594 C 103.460938 578.808594 103.394531 578.808594 103.261719 578.808594 C 103.128906 578.808594 103.0625 578.808594 102.929688 578.808594 C 102.796875 578.808594 102.730469 578.808594 102.601562 578.808594 C 102.46875 578.808594 102.402344 578.808594 102.269531 578.808594 C 102.136719 578.808594 102.070312 578.808594 101.9375 578.808594 C 101.804688 578.808594 101.742188 578.808594 101.609375 578.808594 C 101.476562 578.808594 101.410156 578.808594 101.277344 578.808594 C 101.144531 578.808594 101.078125 578.808594 100.945312 578.808594 C 100.816406 578.808594 100.75 578.808594 100.617188 578.808594 C 100.484375 578.808594 100.417969 578.808594 100.285156 578.808594 C 100.152344 578.808594 100.085938 578.808594 99.953125 578.808594 C 99.824219 578.808594 99.757812 578.808594 99.625 578.808594 C 99.492188 578.808594 99.425781 578.808594 99.292969 578.808594 C 99.160156 578.808594 99.09375 578.808594 98.964844 578.808594 C 98.832031 578.808594 98.765625 578.808594 98.632812 578.808594 C 98.5 578.808594 98.433594 578.808594 98.300781 578.808594 C 98.167969 578.808594 98.101562 578.808594 97.972656 578.808594 C 97.839844 578.808594 97.773438 578.808594 97.640625 578.808594 C 97.507812 578.808594 97.441406 578.808594 97.308594 578.808594 C 97.175781 578.808594 97.113281 578.808594 96.980469 578.808594 C 96.847656 578.808594 96.78125 578.808594 96.648438 578.808594 C 96.515625 578.808594 96.449219 578.808594 96.316406 578.808594 C 96.1875 578.808594 96.121094 578.808594 95.988281 578.808594 C 95.855469 578.808594 95.789062 578.808594 95.65625 578.808594 C 95.523438 578.808594 95.457031 578.808594 95.324219 578.808594 C 95.195312 578.808594 95.128906 578.808594 94.996094 578.808594 C 94.863281 578.808594 94.796875 578.808594 94.664062 578.808594 C 94.53125 578.808594 94.464844 578.808594 94.335938 578.808594 C 94.203125 578.808594 94.136719 578.808594 94.003906 578.808594 C 93.871094 578.808594 93.804688 578.808594 93.671875 578.808594 C 93.539062 578.808594 93.472656 578.808594 93.34375 578.808594 C 93.210938 578.808594 93.144531 578.808594 93.011719 578.808594 C 92.878906 578.808594 92.8125 578.808594 92.679688 578.808594 C 92.546875 578.808594 92.484375 578.808594 92.351562 578.808594 C 92.21875 578.808594 92.152344 578.808594 92.019531 578.808594 C 91.886719 578.808594 91.820312 578.808594 91.6875 578.808594 C 91.558594 578.808594 91.492188 578.808594 91.359375 578.808594 C 91.226562 578.808594 91.160156 578.808594 91.027344 578.808594 C 90.894531 578.808594 90.828125 578.808594 90.695312 578.808594 C 90.566406 578.808594 90.5 578.808594 90.367188 578.808594 C 90.234375 578.808594 90.167969 578.808594 90.035156 578.808594 C 89.902344 578.808594 89.835938 578.808594 89.707031 578.808594 C 89.574219 578.808594 89.507812 578.808594 89.375 578.808594 C 89.242188 578.808594 89.175781 578.808594 89.042969 578.808594 C 88.910156 578.808594 88.84375 578.808594 88.714844 578.808594 C 88.582031 578.808594 88.515625 578.808594 88.382812 578.808594 C 88.25 578.808594 88.183594 578.808594 88.050781 578.808594 C 87.917969 578.808594 87.855469 578.808594 87.722656 578.808594 C 87.589844 578.808594 87.523438 578.808594 87.390625 578.808594 C 87.257812 578.808594 87.191406 578.808594 87.058594 578.808594 C 86.929688 578.808594 86.863281 578.808594 86.730469 578.808594 C 86.597656 578.808594 86.53125 578.808594 86.398438 578.808594 C 86.265625 578.808594 86.199219 578.808594 86.066406 578.808594 C 85.9375 578.808594 85.871094 578.808594 85.738281 578.808594 C 85.605469 578.808594 85.539062 578.808594 85.40625 578.808594 C 85.273438 578.808594 85.207031 578.808594 85.078125 578.808594 C 84.945312 578.808594 84.878906 578.808594 84.746094 578.808594 C 84.613281 578.808594 84.546875 578.808594 84.414062 578.808594 C 84.414062 585.683594 84.414062 592.625 84.414062 599.5 C 91.292969 599.5 98.234375 599.5 105.113281 599.5 C 111.988281 599.5 118.933594 599.5 125.8125 599.5 C 132.6875 599.5 139.632812 599.5 146.507812 599.5 C 146.507812 606.375 146.507812 613.320312 146.507812 620.195312 C 153.386719 620.195312 160.328125 620.195312 167.207031 620.195312 C 167.207031 627.070312 167.207031 634.011719 167.207031 640.886719 C 174.082031 640.886719 181.027344 640.886719 187.902344 640.886719 C 194.78125 640.886719 201.726562 640.886719 208.601562 640.886719 C 208.601562 647.761719 208.601562 654.703125 208.601562 661.578125 C 215.480469 661.578125 222.421875 661.578125 229.300781 661.578125 C 236.175781 661.578125 243.121094 661.578125 249.996094 661.578125 C 249.996094 668.453125 249.996094 675.394531 249.996094 682.273438 C 256.875 682.273438 263.816406 682.273438 270.695312 682.273438 C 277.574219 682.273438 284.515625 682.273438 291.394531 682.273438 C 291.394531 689.148438 291.394531 696.089844 291.394531 702.964844 C 298.269531 702.964844 305.214844 702.964844 312.089844 702.964844 C 318.96875 702.964844 325.910156 702.964844 332.789062 702.964844 C 332.789062 709.839844 332.789062 716.78125 332.789062 723.65625 C 339.667969 723.65625 346.609375 723.65625 353.488281 723.65625 C 360.363281 723.65625 367.308594 723.65625 374.183594 723.65625 C 374.183594 730.53125 374.183594 737.472656 374.183594 744.347656 C 381.0625 744.347656 388.003906 744.347656 394.882812 744.347656 C 401.757812 744.347656 408.703125 744.347656 415.582031 744.347656 C 422.457031 744.347656 429.402344 744.347656 436.277344 744.347656 C 443.15625 744.347656 450.097656 744.347656 456.976562 744.347656 C 463.851562 744.347656 470.796875 744.347656 477.671875 744.347656 C 477.671875 737.472656 477.671875 730.53125 477.671875 723.65625 L 498.371094 723.65625 C 505.25 723.65625 512.191406 723.65625 519.070312 723.65625 L 519.070312 702.964844 C 525.945312 702.964844 532.890625 702.964844 539.765625 702.964844 C 546.644531 702.964844 553.589844 702.964844 560.464844 702.964844 C 560.464844 696.089844 560.464844 689.148438 560.464844 682.273438 C 567.34375 682.273438 574.285156 682.273438 581.164062 682.273438 C 581.164062 675.394531 581.164062 668.453125 581.164062 661.578125 C 581.164062 654.703125 581.164062 647.761719 581.164062 640.886719 C 581.164062 634.011719 581.164062 627.070312 581.164062 620.195312 C 588.039062 620.195312 594.984375 620.195312 601.859375 620.195312 C 608.738281 620.195312 615.679688 620.195312 622.558594 620.195312 C 622.558594 613.320312 622.558594 606.375 622.558594 599.5 C 636.378906 599.5 650.199219 599.5 663.886719 599.5 C 663.886719 592.625 663.886719 585.683594 663.886719 578.808594 C 650.066406 578.808594 636.246094 578.808594 622.558594 578.808594 C 622.558594 571.933594 622.558594 564.992188 622.558594 558.117188 C 636.378906 558.117188 650.199219 558.117188 663.886719 558.117188 C 663.886719 551.242188 663.886719 544.300781 663.886719 537.425781 C 677.707031 537.425781 691.53125 537.425781 705.21875 537.425781 C 705.21875 530.546875 705.21875 523.605469 705.21875 516.730469 C 719.039062 516.730469 732.859375 516.730469 746.546875 516.730469 L 746.546875 392.773438 C 739.671875 392.773438 732.726562 392.773438 725.847656 392.773438 C 725.847656 385.898438 725.847656 378.957031 725.847656 372.082031 C 732.726562 372.082031 739.671875 372.082031 746.546875 372.082031 L 746.546875 351.257812 C 753.425781 351.257812 760.367188 351.257812 767.246094 351.257812 L 767.246094 206.609375 C 760.367188 206.609375 753.425781 206.609375 746.546875 206.609375 C 739.671875 206.609375 732.726562 206.609375 725.847656 206.609375 C 718.972656 206.609375 712.027344 206.609375 705.152344 206.609375 C 698.273438 206.609375 691.332031 206.609375 684.453125 206.609375 C 684.453125 213.484375 684.453125 220.425781 684.453125 227.300781 C 677.578125 227.300781 670.632812 227.300781 663.757812 227.300781 C 656.878906 227.300781 649.933594 227.300781 643.058594 227.300781 C 636.179688 227.300781 629.238281 227.300781 622.359375 227.300781 C 615.484375 227.300781 608.539062 227.300781 601.664062 227.300781 C 601.664062 234.175781 601.664062 241.117188 601.664062 247.992188 C 594.785156 247.992188 587.839844 247.992188 580.964844 247.992188 C 574.085938 247.992188 567.144531 247.992188 560.265625 247.992188 L 560.265625 558.183594 C 567.144531 558.183594 574.085938 558.183594 580.964844 558.183594 C 580.964844 565.058594 580.964844 572 580.964844 578.875 C 574.085938 578.875 567.144531 578.875 560.265625 578.875 L 560.265625 599.566406 C 567.144531 599.566406 574.085938 599.566406 580.964844 599.566406 C 580.964844 606.441406 580.964844 613.386719 580.964844 620.261719 C 574.085938 620.261719 567.144531 620.261719 560.265625 620.261719 C 560.265625 627.136719 560.265625 634.078125 560.265625 640.953125 C 560.265625 647.828125 560.265625 654.769531 560.265625 661.644531 C 553.390625 661.644531 546.445312 661.644531 539.570312 661.644531 C 539.570312 530.679688 539.570312 399.652344 539.570312 268.6875 C 532.691406 268.6875 525.75 268.6875 518.871094 268.6875 C 511.992188 268.6875 505.050781 268.6875 498.171875 268.6875 C 491.296875 268.6875 484.351562 268.6875 477.476562 268.6875 C 477.476562 275.5625 477.476562 282.503906 477.476562 289.378906 C 470.597656 289.378906 463.65625 289.378906 456.777344 289.378906 C 450.03125 289.3125 443.089844 289.3125 436.210938 289.3125 Z M 622.359375 578.875 C 622.359375 585.75 622.359375 592.691406 622.359375 599.566406 C 615.484375 599.566406 608.539062 599.566406 601.664062 599.566406 C 594.785156 599.566406 587.839844 599.566406 580.964844 599.566406 C 580.964844 592.691406 580.964844 585.75 580.964844 578.875 C 594.851562 578.875 608.605469 578.875 622.359375 578.875 Z M 663.820312 496.171875 C 656.945312 496.171875 650 496.171875 643.125 496.171875 C 643.125 489.296875 643.125 482.355469 643.125 475.480469 C 650 475.480469 656.945312 475.480469 663.820312 475.480469 C 663.820312 482.421875 663.820312 489.296875 663.820312 496.171875 Z M 643.058594 496.171875 C 643.058594 503.046875 643.058594 509.988281 643.058594 516.863281 C 636.179688 516.863281 629.238281 516.863281 622.359375 516.863281 C 622.359375 509.988281 622.359375 503.046875 622.359375 496.171875 C 629.304688 496.171875 636.179688 496.171875 643.058594 496.171875 Z M 622.359375 516.863281 C 622.359375 523.738281 622.359375 530.679688 622.359375 537.554688 C 615.484375 537.554688 608.539062 537.554688 601.664062 537.554688 C 601.664062 530.679688 601.664062 523.738281 601.664062 516.863281 C 608.605469 516.863281 615.484375 516.863281 622.359375 516.863281 Z M 601.730469 537.554688 C 601.730469 544.433594 601.730469 551.375 601.730469 558.25 C 594.851562 558.25 587.90625 558.25 581.03125 558.25 C 581.03125 551.375 581.03125 544.433594 581.03125 537.554688 C 587.90625 537.554688 594.851562 537.554688 601.730469 537.554688 Z M 725.847656 392.773438 C 725.847656 406.59375 725.847656 420.410156 725.847656 434.09375 C 718.972656 434.09375 712.027344 434.09375 705.152344 434.09375 C 705.152344 420.277344 705.152344 406.460938 705.152344 392.773438 C 712.027344 392.773438 718.972656 392.773438 725.847656 392.773438 Z M 705.152344 434.09375 C 705.152344 440.96875 705.152344 447.910156 705.152344 454.785156 C 698.273438 454.785156 691.332031 454.785156 684.453125 454.785156 C 684.453125 447.910156 684.453125 440.96875 684.453125 434.09375 C 691.332031 434.09375 698.273438 434.09375 705.152344 434.09375 Z M 684.453125 454.785156 C 684.453125 461.660156 684.453125 468.601562 684.453125 475.480469 C 677.578125 475.480469 670.632812 475.480469 663.757812 475.480469 C 663.757812 468.601562 663.757812 461.660156 663.757812 454.785156 C 670.699219 454.785156 677.511719 454.785156 684.453125 454.785156 Z M 456.910156 827.117188 C 456.910156 875.378906 456.910156 923.640625 456.910156 971.902344 C 463.789062 971.902344 470.730469 971.902344 477.609375 971.902344 C 484.484375 971.902344 491.429688 971.902344 498.304688 971.902344 C 498.304688 965.023438 498.304688 958.082031 498.304688 951.207031 C 505.183594 951.207031 512.125 951.207031 519.003906 951.207031 C 519.003906 944.332031 519.003906 937.390625 519.003906 930.515625 C 532.824219 930.515625 546.644531 930.515625 560.332031 930.515625 C 560.332031 923.640625 560.332031 916.699219 560.332031 909.824219 C 574.152344 909.824219 587.972656 909.824219 601.664062 909.824219 C 601.664062 902.949219 601.664062 896.007812 601.664062 889.128906 C 615.484375 889.128906 629.304688 889.128906 642.992188 889.128906 C 642.992188 882.253906 642.992188 875.3125 642.992188 868.4375 C 656.8125 868.4375 670.632812 868.4375 684.320312 868.4375 C 684.320312 861.5625 684.320312 854.621094 684.320312 847.746094 C 698.140625 847.746094 711.960938 847.746094 725.652344 847.746094 C 725.652344 840.871094 725.652344 833.929688 725.652344 827.054688 C 739.472656 827.054688 753.292969 827.054688 766.980469 827.054688 C 766.980469 820.175781 766.980469 813.234375 766.980469 806.359375 C 773.859375 806.359375 780.800781 806.359375 787.679688 806.359375 C 787.679688 765.042969 787.679688 723.589844 787.679688 682.269531 C 787.679688 675.394531 787.679688 668.453125 787.679688 661.578125 C 780.800781 661.578125 773.859375 661.578125 766.980469 661.578125 C 760.101562 661.578125 753.160156 661.578125 746.28125 661.578125 C 739.40625 661.578125 732.460938 661.578125 725.585938 661.578125 C 725.585938 668.453125 725.585938 675.394531 725.585938 682.269531 C 718.707031 682.269531 711.765625 682.269531 704.886719 682.269531 C 698.011719 682.269531 691.066406 682.269531 684.1875 682.269531 C 677.3125 682.269531 670.367188 682.269531 663.492188 682.269531 C 663.492188 689.148438 663.492188 696.089844 663.492188 702.964844 C 656.613281 702.964844 649.671875 702.964844 642.792969 702.964844 C 635.917969 702.964844 628.972656 702.964844 622.09375 702.964844 C 622.09375 709.839844 622.09375 716.78125 622.09375 723.65625 C 615.21875 723.65625 608.273438 723.65625 601.398438 723.65625 C 594.519531 723.65625 587.578125 723.65625 580.699219 723.65625 C 580.699219 730.53125 580.699219 737.472656 580.699219 744.347656 C 573.824219 744.347656 566.878906 744.347656 560.003906 744.347656 C 553.125 744.347656 546.179688 744.347656 539.304688 744.347656 C 539.304688 751.222656 539.304688 758.167969 539.304688 765.042969 C 532.425781 765.042969 525.484375 765.042969 518.605469 765.042969 C 511.730469 765.042969 504.785156 765.042969 497.910156 765.042969 C 497.910156 771.917969 497.910156 778.859375 497.910156 785.734375 C 491.03125 785.734375 484.085938 785.734375 477.210938 785.734375 C 477.210938 792.609375 477.210938 799.550781 477.210938 806.425781 C 470.332031 806.425781 463.390625 806.425781 456.511719 806.425781 Z M 498.238281 682.335938 C 498.238281 675.460938 498.238281 668.519531 498.238281 661.644531 C 512.058594 661.644531 525.878906 661.644531 539.570312 661.644531 C 539.570312 668.519531 539.570312 675.460938 539.570312 682.335938 C 532.691406 682.335938 525.75 682.335938 518.871094 682.335938 C 512.058594 682.335938 505.183594 682.335938 498.238281 682.335938 Z M 498.238281 682.335938 " fill-opacity="1" fill-rule="evenodd"/><path fill="#d8d8d8" d="M 63.785156 537.554688 C 70.660156 537.554688 77.605469 537.554688 84.480469 537.554688 C 91.359375 537.554688 98.300781 537.554688 105.179688 537.554688 L 105.179688 558.25 L 146.507812 558.25 C 146.507812 565.125 146.507812 572.066406 146.507812 578.941406 C 160.328125 578.941406 174.148438 578.941406 187.839844 578.941406 C 187.839844 585.816406 187.839844 592.757812 187.839844 599.632812 C 201.660156 599.632812 215.480469 599.632812 229.167969 599.632812 C 229.167969 606.507812 229.167969 613.449219 229.167969 620.328125 C 242.988281 620.328125 256.808594 620.328125 270.496094 620.328125 C 270.496094 627.203125 270.496094 634.144531 270.496094 641.019531 C 284.316406 641.019531 298.136719 641.019531 311.828125 641.019531 C 311.828125 647.894531 311.828125 654.835938 311.828125 661.710938 C 325.648438 661.710938 339.46875 661.710938 353.15625 661.710938 C 353.15625 668.585938 353.15625 675.527344 353.15625 682.402344 C 366.976562 682.402344 380.796875 682.402344 394.484375 682.402344 C 394.484375 689.28125 394.484375 696.222656 394.484375 703.097656 C 408.304688 703.097656 422.125 703.097656 435.816406 703.097656 C 435.816406 572.132812 435.816406 441.101562 435.816406 310.136719 C 428.9375 310.136719 421.996094 310.136719 415.117188 310.136719 C 408.238281 310.136719 401.296875 310.136719 394.417969 310.136719 C 387.542969 310.136719 380.597656 310.136719 373.722656 310.136719 C 373.722656 303.261719 373.722656 296.320312 373.722656 289.445312 C 366.84375 289.445312 359.902344 289.445312 353.023438 289.445312 C 346.148438 289.445312 339.203125 289.445312 332.324219 289.445312 C 332.324219 282.570312 332.324219 275.628906 332.324219 268.753906 C 325.449219 268.753906 318.503906 268.753906 311.628906 268.753906 C 304.75 268.753906 297.808594 268.753906 290.929688 268.753906 C 290.929688 261.878906 290.929688 254.933594 290.929688 248.058594 C 284.054688 248.058594 277.109375 248.058594 270.234375 248.058594 C 263.355469 248.058594 256.410156 248.058594 249.535156 248.058594 C 249.535156 241.183594 249.535156 234.242188 249.535156 227.367188 C 242.65625 227.367188 235.714844 227.367188 228.835938 227.367188 C 221.960938 227.367188 215.015625 227.367188 208.140625 227.367188 C 208.140625 220.492188 208.140625 213.550781 208.140625 206.675781 C 201.261719 206.675781 194.320312 206.675781 187.441406 206.675781 C 180.5625 206.675781 173.621094 206.675781 166.742188 206.675781 C 166.742188 199.800781 166.742188 192.859375 166.742188 185.984375 C 159.867188 185.984375 152.921875 185.984375 146.046875 185.984375 C 139.167969 185.984375 132.226562 185.984375 125.347656 185.984375 C 125.347656 179.105469 125.347656 172.164062 125.347656 165.289062 C 118.46875 165.289062 111.527344 165.289062 104.648438 165.289062 C 97.773438 165.289062 90.828125 165.289062 83.953125 165.289062 C 83.953125 158.414062 83.953125 151.472656 83.953125 144.597656 C 77.074219 144.597656 70.132812 144.597656 63.253906 144.597656 C 56.378906 144.597656 49.433594 144.597656 42.554688 144.597656 L 42.554688 502.320312 L 63.253906 502.320312 L 63.253906 537.359375 Z M 63.785156 620.328125 C 56.90625 620.328125 49.960938 620.328125 43.085938 620.328125 L 22.386719 620.328125 L 22.386719 744.414062 L 43.085938 744.414062 C 43.085938 751.289062 43.085938 758.230469 43.085938 765.109375 C 56.90625 765.109375 70.726562 765.109375 84.414062 765.109375 C 84.414062 771.984375 84.414062 778.925781 84.414062 785.800781 C 98.234375 785.800781 112.054688 785.800781 125.746094 785.800781 C 125.746094 792.675781 125.746094 799.617188 125.746094 806.492188 C 139.566406 806.492188 153.386719 806.492188 167.074219 806.492188 C 167.074219 813.367188 167.074219 820.308594 167.074219 827.183594 C 180.894531 827.183594 194.714844 827.183594 208.402344 827.183594 C 208.402344 834.0625 208.402344 841.003906 208.402344 847.878906 C 222.222656 847.878906 236.042969 847.878906 249.734375 847.878906 C 249.734375 854.753906 249.734375 861.695312 249.734375 868.570312 C 263.554688 868.570312 277.375 868.570312 291.0625 868.570312 C 291.0625 875.445312 291.0625 882.386719 291.0625 889.261719 C 304.882812 889.261719 318.703125 889.261719 332.390625 889.261719 C 332.390625 896.136719 332.390625 903.078125 332.390625 909.957031 C 346.210938 909.957031 360.035156 909.957031 373.722656 909.957031 C 373.722656 916.832031 373.722656 923.773438 373.722656 930.648438 C 380.597656 930.648438 387.542969 930.648438 394.417969 930.648438 C 394.417969 937.523438 394.417969 944.464844 394.417969 951.339844 C 411.148438 951.339844 427.945312 951.339844 444.675781 951.339844 C 444.675781 958.214844 444.675781 965.15625 444.675781 972.03125 C 448.578125 972.03125 452.613281 972.03125 456.511719 972.03125 C 456.511719 923.773438 456.511719 875.511719 456.511719 827.25 L 456.511719 806.558594 C 449.636719 806.558594 442.691406 806.558594 435.816406 806.558594 C 435.816406 799.683594 435.816406 792.742188 435.816406 785.867188 C 428.9375 785.867188 421.996094 785.867188 415.117188 785.867188 C 408.238281 785.867188 401.296875 785.867188 394.417969 785.867188 C 394.417969 778.992188 394.417969 772.050781 394.417969 765.175781 C 387.542969 765.175781 380.597656 765.175781 373.722656 765.175781 C 366.84375 765.175781 359.902344 765.175781 353.023438 765.175781 C 346.148438 765.175781 339.203125 765.175781 332.328125 765.175781 C 332.328125 758.296875 332.328125 751.355469 332.328125 744.480469 C 325.449219 744.480469 318.503906 744.480469 311.628906 744.480469 C 311.628906 737.605469 311.628906 730.664062 311.628906 723.789062 C 304.75 723.789062 297.808594 723.789062 290.929688 723.789062 C 284.054688 723.789062 277.109375 723.789062 270.234375 723.789062 C 263.355469 723.789062 256.410156 723.789062 249.535156 723.789062 C 249.535156 716.914062 249.535156 709.972656 249.535156 703.097656 C 242.65625 703.097656 235.714844 703.097656 228.835938 703.097656 C 221.960938 703.097656 215.015625 703.097656 208.140625 703.097656 C 208.140625 696.222656 208.140625 689.28125 208.140625 682.402344 C 201.261719 682.402344 194.320312 682.402344 187.441406 682.402344 C 180.5625 682.402344 173.621094 682.402344 166.742188 682.402344 C 166.742188 675.527344 166.742188 668.585938 166.742188 661.710938 C 159.867188 661.710938 152.921875 661.710938 146.046875 661.710938 C 139.167969 661.710938 132.226562 661.710938 125.347656 661.710938 C 125.347656 654.835938 125.347656 647.894531 125.347656 641.019531 C 118.46875 641.019531 111.527344 641.019531 104.648438 641.019531 C 97.773438 641.019531 90.828125 641.019531 83.953125 641.019531 C 83.953125 634.144531 83.953125 627.203125 83.953125 620.328125 C 77.539062 620.328125 70.660156 620.328125 63.785156 620.328125 Z M 63.785156 620.328125 " fill-opacity="1" fill-rule="evenodd"/><g clip-path="url(#b2fab997df)"><path fill="#000000" d="M 22.386719 123.90625 C 22.386719 253.28125 22.386719 382.726562 22.386719 512.171875 C 29.265625 512.171875 36.207031 512.171875 43.085938 512.171875 L 43.085938 538.085938 C 49.960938 538.085938 56.90625 538.085938 63.785156 538.085938 C 63.785156 544.960938 63.785156 551.902344 63.785156 558.777344 C 70.660156 558.777344 77.605469 558.777344 84.480469 558.777344 L 84.480469 579.46875 C 77.605469 579.46875 70.660156 579.46875 63.785156 579.46875 C 63.785156 586.347656 63.785156 593.289062 63.785156 600.164062 L 1.625 600.164062 L 1.625 766.5625 L 43.480469 766.5625 C 43.480469 773.4375 43.480469 780.378906 43.480469 787.253906 C 57.304688 787.253906 71.125 787.253906 84.8125 787.253906 C 84.8125 794.128906 84.8125 801.070312 84.8125 807.949219 C 98.632812 807.949219 112.453125 807.949219 126.140625 807.949219 C 126.140625 814.824219 126.140625 821.765625 126.140625 828.640625 C 139.960938 828.640625 153.78125 828.640625 167.472656 828.640625 C 167.472656 835.515625 167.472656 842.457031 167.472656 849.332031 C 181.292969 849.332031 195.113281 849.332031 208.800781 849.332031 C 208.800781 856.207031 208.800781 863.148438 208.800781 870.023438 C 222.621094 870.023438 236.441406 870.023438 250.128906 870.023438 C 250.128906 876.902344 250.128906 883.84375 250.128906 890.71875 C 263.949219 890.71875 277.769531 890.71875 291.460938 890.71875 C 291.460938 897.59375 291.460938 904.535156 291.460938 911.410156 C 305.28125 911.410156 319.101562 911.410156 332.789062 911.410156 C 332.789062 918.285156 332.789062 925.226562 332.789062 932.101562 C 346.609375 932.101562 360.429688 932.101562 374.117188 932.101562 C 374.117188 938.976562 374.117188 945.917969 374.117188 952.796875 C 380.996094 952.796875 387.9375 952.796875 394.816406 952.796875 C 394.816406 959.671875 394.816406 966.613281 394.816406 973.488281 C 411.546875 973.488281 428.34375 973.488281 445.074219 973.488281 C 445.074219 980.363281 445.074219 987.304688 445.074219 994.179688 C 462.796875 994.179688 480.515625 994.179688 498.304688 994.179688 C 498.304688 987.304688 498.304688 980.363281 498.304688 973.488281 C 505.183594 973.488281 512.125 973.488281 519.003906 973.488281 C 519.003906 966.613281 519.003906 959.671875 519.003906 952.796875 C 532.824219 952.796875 546.644531 952.796875 560.332031 952.796875 C 560.332031 945.917969 560.332031 938.976562 560.332031 932.101562 C 574.152344 932.101562 587.972656 932.101562 601.664062 932.101562 C 601.664062 925.226562 601.664062 918.285156 601.664062 911.410156 C 615.484375 911.410156 629.304688 911.410156 642.992188 911.410156 C 642.992188 904.535156 642.992188 897.59375 642.992188 890.71875 C 656.8125 890.71875 670.632812 890.71875 684.320312 890.71875 C 684.320312 883.84375 684.320312 876.902344 684.320312 870.023438 C 698.140625 870.023438 711.960938 870.023438 725.652344 870.023438 C 725.652344 863.148438 725.652344 856.207031 725.652344 849.332031 C 739.472656 849.332031 753.292969 849.332031 766.980469 849.332031 C 766.980469 842.457031 766.980469 835.515625 766.980469 828.640625 C 773.859375 828.640625 780.800781 828.640625 787.679688 828.640625 C 787.679688 821.765625 787.679688 814.824219 787.679688 807.949219 C 794.554688 807.949219 801.5 807.949219 808.375 807.949219 C 808.375 759.6875 808.375 711.425781 808.375 663.164062 C 801.5 663.164062 794.554688 663.164062 787.679688 663.164062 C 787.679688 656.289062 787.679688 649.347656 787.679688 642.472656 C 780.800781 642.472656 773.859375 642.472656 766.980469 642.472656 C 766.980469 635.597656 766.980469 628.65625 766.980469 621.78125 C 760.101562 621.78125 753.160156 621.78125 746.28125 621.78125 C 746.28125 614.90625 746.28125 607.964844 746.28125 601.089844 C 732.460938 601.089844 718.640625 601.089844 704.953125 601.089844 C 704.953125 594.210938 704.953125 587.269531 704.953125 580.394531 C 691.132812 580.394531 677.3125 580.394531 663.625 580.394531 C 663.625 573.519531 663.625 566.578125 663.625 559.703125 C 677.445312 559.703125 691.265625 559.703125 704.953125 559.703125 C 704.953125 552.828125 704.953125 545.886719 704.953125 539.011719 C 718.773438 539.011719 732.59375 539.011719 746.28125 539.011719 C 746.28125 532.136719 746.28125 525.195312 746.28125 518.316406 C 753.160156 518.316406 760.101562 518.316406 766.980469 518.316406 L 766.980469 371.882812 C 773.859375 371.882812 780.800781 371.882812 787.679688 371.882812 C 787.679688 316.75 787.679688 261.613281 787.679688 206.410156 C 780.800781 206.410156 773.859375 206.410156 766.980469 206.410156 C 766.980469 199.535156 766.980469 192.59375 766.980469 185.71875 C 760.101562 185.71875 753.160156 185.71875 746.28125 185.71875 C 746.28125 178.84375 746.28125 171.902344 746.28125 165.023438 C 739.40625 165.023438 732.460938 165.023438 725.585938 165.023438 C 725.585938 158.148438 725.585938 151.207031 725.585938 144.332031 C 711.765625 144.332031 697.945312 144.332031 684.253906 144.332031 C 684.253906 137.457031 684.253906 130.515625 684.253906 123.640625 C 670.433594 123.640625 656.613281 123.640625 642.925781 123.640625 C 642.925781 116.765625 642.925781 109.824219 642.925781 102.949219 C 629.105469 102.949219 615.285156 102.949219 601.597656 102.949219 C 601.597656 96.074219 601.597656 89.128906 601.597656 82.253906 C 580.898438 82.253906 560.265625 82.253906 539.503906 82.253906 C 539.503906 75.378906 539.503906 68.4375 539.503906 61.5625 C 477.410156 61.5625 415.382812 61.5625 353.289062 61.5625 C 353.289062 54.6875 353.289062 47.746094 353.289062 40.871094 C 305.015625 40.871094 256.742188 40.871094 208.46875 40.871094 C 208.46875 47.746094 208.46875 54.6875 208.46875 61.5625 C 187.773438 61.5625 167.140625 61.5625 146.375 61.5625 C 146.375 68.4375 146.375 75.378906 146.375 82.253906 C 125.679688 82.253906 105.046875 82.253906 84.347656 82.253906 C 84.347656 89.128906 84.347656 96.074219 84.347656 102.949219 C 70.527344 102.949219 56.707031 102.949219 43.019531 102.949219 C 43.019531 109.824219 43.019531 116.765625 43.019531 123.640625 C 36.207031 123.90625 29.332031 123.90625 22.386719 123.90625 Z M 43.085938 502.320312 L 43.085938 123.90625 C 56.90625 123.90625 70.726562 123.90625 84.414062 123.90625 C 84.414062 117.027344 84.414062 110.085938 84.414062 103.210938 C 105.113281 103.210938 125.746094 103.210938 146.441406 103.210938 C 146.441406 96.335938 146.441406 89.394531 146.441406 82.519531 C 167.140625 82.519531 187.773438 82.519531 208.535156 82.519531 C 208.535156 89.394531 208.535156 96.335938 208.535156 103.210938 C 222.355469 103.210938 236.175781 103.210938 249.867188 103.210938 C 249.867188 110.085938 249.867188 117.027344 249.867188 123.90625 C 263.6875 123.90625 277.507812 123.90625 291.195312 123.90625 C 291.195312 130.78125 291.195312 137.722656 291.195312 144.597656 C 305.015625 144.597656 318.835938 144.597656 332.523438 144.597656 C 332.523438 151.472656 332.523438 158.414062 332.523438 165.289062 C 346.34375 165.289062 360.164062 165.289062 373.855469 165.289062 C 373.855469 172.164062 373.855469 179.105469 373.855469 185.980469 C 380.730469 185.980469 387.675781 185.980469 394.550781 185.980469 C 394.550781 192.859375 394.550781 199.800781 394.550781 206.675781 C 408.371094 206.675781 422.191406 206.675781 435.882812 206.675781 C 435.882812 213.550781 435.882812 220.492188 435.882812 227.367188 C 449.703125 227.367188 463.523438 227.367188 477.210938 227.367188 C 477.210938 234.242188 477.210938 241.183594 477.210938 248.058594 C 497.910156 248.058594 518.539062 248.058594 539.304688 248.058594 C 539.304688 385.964844 539.304688 523.871094 539.304688 661.710938 C 525.484375 661.710938 511.664062 661.710938 497.976562 661.710938 C 497.976562 668.585938 497.976562 675.527344 497.976562 682.402344 C 484.152344 682.402344 470.332031 682.402344 456.644531 682.402344 C 456.644531 689.28125 456.644531 696.222656 456.644531 703.097656 C 435.949219 703.097656 415.316406 703.097656 394.550781 703.097656 C 394.550781 696.222656 394.550781 689.28125 394.550781 682.402344 C 380.730469 682.402344 366.910156 682.402344 353.222656 682.402344 C 353.222656 675.527344 353.222656 668.585938 353.222656 661.710938 C 339.402344 661.710938 325.582031 661.710938 311.894531 661.710938 C 311.894531 654.835938 311.894531 647.894531 311.894531 641.019531 C 298.070312 641.019531 284.25 641.019531 270.5625 641.019531 C 270.5625 634.144531 270.5625 627.203125 270.5625 620.328125 C 256.742188 620.328125 242.921875 620.328125 229.234375 620.328125 C 229.234375 613.449219 229.234375 606.507812 229.234375 599.632812 C 215.414062 599.632812 201.59375 599.632812 187.902344 599.632812 C 187.902344 592.757812 187.902344 585.816406 187.902344 578.941406 C 174.082031 578.941406 160.261719 578.941406 146.574219 578.941406 C 146.574219 572.066406 146.574219 565.125 146.574219 558.25 L 105.246094 558.25 L 105.246094 537.554688 C 98.367188 537.554688 91.425781 537.554688 84.546875 537.554688 C 77.671875 537.554688 70.726562 537.554688 63.847656 537.554688 L 63.847656 501.855469 Z M 394.816406 951.273438 C 394.816406 944.398438 394.816406 937.457031 394.816406 930.582031 C 387.9375 930.582031 380.996094 930.582031 374.117188 930.582031 C 374.117188 923.707031 374.117188 916.765625 374.117188 909.890625 C 360.296875 909.890625 346.476562 909.890625 332.789062 909.890625 C 332.789062 903.011719 332.789062 896.070312 332.789062 889.195312 C 318.96875 889.195312 305.148438 889.195312 291.460938 889.195312 C 291.460938 882.320312 291.460938 875.378906 291.460938 868.503906 C 277.640625 868.503906 263.816406 868.503906 250.128906 868.503906 C 250.128906 861.628906 250.128906 854.6875 250.128906 847.8125 C 236.308594 847.8125 222.488281 847.8125 208.800781 847.8125 C 208.800781 840.9375 208.800781 833.996094 208.800781 827.117188 C 194.980469 827.117188 181.160156 827.117188 167.472656 827.117188 C 167.472656 820.242188 167.472656 813.300781 167.472656 806.425781 C 153.648438 806.425781 139.828125 806.425781 126.140625 806.425781 C 126.140625 799.550781 126.140625 792.609375 126.140625 785.734375 C 112.320312 785.734375 98.5 785.734375 84.8125 785.734375 C 84.8125 778.859375 84.8125 771.917969 84.8125 765.042969 C 70.992188 765.042969 57.171875 765.042969 43.480469 765.042969 C 43.480469 758.164062 43.480469 751.222656 43.480469 744.347656 L 22.785156 744.347656 L 22.785156 620.261719 L 63.914062 620.261719 C 63.914062 613.382812 63.914062 606.441406 63.914062 599.566406 C 70.792969 599.566406 77.734375 599.566406 84.613281 599.566406 C 84.613281 592.691406 84.613281 585.75 84.613281 578.875 L 146.773438 578.875 C 146.773438 585.75 146.773438 592.691406 146.773438 599.566406 C 160.59375 599.566406 174.414062 599.566406 188.101562 599.566406 C 188.101562 606.441406 188.101562 613.382812 188.101562 620.261719 C 201.921875 620.261719 215.742188 620.261719 229.433594 620.261719 C 229.433594 627.136719 229.433594 634.078125 229.433594 640.953125 C 243.253906 640.953125 257.074219 640.953125 270.761719 640.953125 C 270.761719 647.828125 270.761719 654.769531 270.761719 661.644531 C 284.582031 661.644531 298.402344 661.644531 312.089844 661.644531 C 312.089844 668.519531 312.089844 675.460938 312.089844 682.335938 C 325.910156 682.335938 339.730469 682.335938 353.421875 682.335938 C 353.421875 689.214844 353.421875 696.15625 353.421875 703.03125 C 367.242188 703.03125 381.0625 703.03125 394.75 703.03125 C 394.75 709.90625 394.75 716.847656 394.75 723.722656 C 415.449219 723.722656 436.078125 723.722656 456.84375 723.722656 C 456.84375 716.847656 456.84375 709.90625 456.84375 703.03125 C 470.664062 703.03125 484.484375 703.03125 498.171875 703.03125 C 498.171875 696.15625 498.171875 689.214844 498.171875 682.335938 C 511.992188 682.335938 525.816406 682.335938 539.503906 682.335938 C 539.503906 675.460938 539.503906 668.519531 539.503906 661.644531 C 546.378906 661.644531 553.324219 661.644531 560.199219 661.644531 L 560.199219 620.324219 C 567.078125 620.324219 574.019531 620.324219 580.898438 620.324219 C 580.898438 613.449219 580.898438 606.507812 580.898438 599.632812 C 594.71875 599.632812 608.539062 599.632812 622.226562 599.632812 C 622.226562 592.757812 622.226562 585.816406 622.226562 578.941406 C 636.046875 578.941406 649.871094 578.941406 663.558594 578.941406 C 663.558594 585.816406 663.558594 592.757812 663.558594 599.632812 C 677.378906 599.632812 691.199219 599.632812 704.886719 599.632812 C 704.886719 606.507812 704.886719 613.449219 704.886719 620.324219 C 718.707031 620.324219 732.527344 620.324219 746.214844 620.324219 C 746.214844 627.203125 746.214844 634.144531 746.214844 641.019531 C 753.09375 641.019531 760.039062 641.019531 766.914062 641.019531 C 766.914062 647.894531 766.914062 654.835938 766.914062 661.710938 C 773.792969 661.710938 780.734375 661.710938 787.613281 661.710938 C 787.613281 709.972656 787.613281 758.230469 787.613281 806.492188 C 780.734375 806.492188 773.792969 806.492188 766.914062 806.492188 C 766.914062 813.367188 766.914062 820.308594 766.914062 827.183594 C 753.09375 827.183594 739.273438 827.183594 725.585938 827.183594 C 725.585938 834.058594 725.585938 841.003906 725.585938 847.878906 C 711.765625 847.878906 697.945312 847.878906 684.253906 847.878906 C 684.253906 854.753906 684.253906 861.695312 684.253906 868.570312 C 670.433594 868.570312 656.613281 868.570312 642.925781 868.570312 C 642.925781 875.445312 642.925781 882.386719 642.925781 889.261719 C 629.105469 889.261719 615.285156 889.261719 601.597656 889.261719 C 601.597656 896.136719 601.597656 903.078125 601.597656 909.957031 C 587.777344 909.957031 573.957031 909.957031 560.265625 909.957031 C 560.265625 916.832031 560.265625 923.773438 560.265625 930.648438 C 546.445312 930.648438 532.625 930.648438 518.9375 930.648438 C 518.9375 937.523438 518.9375 944.464844 518.9375 951.339844 C 512.058594 951.339844 505.117188 951.339844 498.238281 951.339844 C 498.238281 958.214844 498.238281 965.15625 498.238281 972.03125 C 480.515625 972.03125 462.796875 972.03125 445.007812 972.03125 C 445.007812 965.15625 445.007812 958.214844 445.007812 951.339844 C 428.277344 951.273438 411.546875 951.273438 394.816406 951.273438 Z M 746.480469 516.863281 C 732.660156 516.863281 718.839844 516.863281 705.152344 516.863281 C 705.152344 523.738281 705.152344 530.679688 705.152344 537.554688 C 691.332031 537.554688 677.511719 537.554688 663.820312 537.554688 C 663.820312 544.433594 663.820312 551.375 663.820312 558.25 C 650 558.25 636.179688 558.25 622.492188 558.25 C 622.492188 565.125 622.492188 572.066406 622.492188 578.941406 C 608.671875 578.941406 594.851562 578.941406 581.164062 578.941406 C 581.164062 572.066406 581.164062 565.125 581.164062 558.25 C 588.039062 558.25 594.984375 558.25 601.859375 558.25 C 601.859375 551.375 601.859375 544.433594 601.859375 537.554688 C 608.738281 537.554688 615.679688 537.554688 622.558594 537.554688 C 622.558594 530.679688 622.558594 523.738281 622.558594 516.863281 C 629.4375 516.863281 636.378906 516.863281 643.257812 516.863281 C 643.257812 509.988281 643.257812 503.046875 643.257812 496.171875 C 650.132812 496.171875 657.078125 496.171875 663.953125 496.171875 C 663.953125 489.296875 663.953125 482.355469 663.953125 475.480469 C 670.832031 475.480469 677.773438 475.480469 684.652344 475.480469 C 684.652344 468.601562 684.652344 461.660156 684.652344 454.785156 C 691.53125 454.785156 698.472656 454.785156 705.351562 454.785156 C 705.351562 447.910156 705.351562 440.96875 705.351562 434.09375 C 712.226562 434.09375 719.171875 434.09375 726.046875 434.09375 C 726.046875 420.277344 726.046875 406.460938 726.046875 392.773438 C 732.925781 392.773438 739.867188 392.773438 746.746094 392.773438 Z M 560.332031 599.632812 L 560.332031 578.941406 C 567.210938 578.941406 574.152344 578.941406 581.03125 578.941406 C 581.03125 585.816406 581.03125 592.757812 581.03125 599.632812 C 574.152344 599.632812 567.210938 599.632812 560.332031 599.632812 Z M 560.332031 558.25 L 560.332031 247.992188 C 553.457031 247.992188 546.511719 247.992188 539.636719 247.992188 C 539.636719 241.117188 539.636719 234.175781 539.636719 227.300781 C 518.9375 227.300781 498.304688 227.300781 477.542969 227.300781 C 477.542969 220.425781 477.542969 213.484375 477.542969 206.609375 C 463.722656 206.609375 449.898438 206.609375 436.210938 206.609375 C 436.210938 199.734375 436.210938 192.792969 436.210938 185.917969 C 422.390625 185.917969 408.570312 185.917969 394.882812 185.917969 C 394.882812 179.039062 394.882812 172.097656 394.882812 165.222656 C 388.003906 165.222656 381.0625 165.222656 374.183594 165.222656 C 374.183594 158.347656 374.183594 151.40625 374.183594 144.53125 C 360.363281 144.53125 346.542969 144.53125 332.855469 144.53125 C 332.855469 137.65625 332.855469 130.714844 332.855469 123.839844 C 319.035156 123.839844 305.214844 123.839844 291.527344 123.839844 C 291.527344 116.964844 291.527344 110.023438 291.527344 103.144531 C 277.703125 103.144531 263.882812 103.144531 250.195312 103.144531 C 250.195312 96.269531 250.195312 89.328125 250.195312 82.453125 C 236.375 82.453125 222.554688 82.453125 208.867188 82.453125 C 208.867188 75.578125 208.867188 68.636719 208.867188 61.761719 C 257.140625 61.761719 305.414062 61.761719 353.683594 61.761719 C 353.683594 68.636719 353.683594 75.578125 353.683594 82.453125 C 415.777344 82.453125 477.804688 82.453125 539.898438 82.453125 C 539.898438 89.328125 539.898438 96.269531 539.898438 103.144531 C 560.597656 103.144531 581.230469 103.144531 601.992188 103.144531 C 601.992188 110.023438 601.992188 116.964844 601.992188 123.839844 C 615.8125 123.839844 629.632812 123.839844 643.324219 123.839844 C 643.324219 130.714844 643.324219 137.65625 643.324219 144.53125 C 657.144531 144.53125 670.964844 144.53125 684.652344 144.53125 C 684.652344 151.40625 684.652344 158.347656 684.652344 165.222656 C 698.472656 165.222656 712.292969 165.222656 725.980469 165.222656 C 725.980469 172.097656 725.980469 179.039062 725.980469 185.917969 C 732.859375 185.917969 739.800781 185.917969 746.679688 185.917969 C 746.679688 192.792969 746.679688 199.734375 746.679688 206.609375 C 753.558594 206.609375 760.5 206.609375 767.378906 206.609375 L 767.378906 351.390625 C 760.5 351.390625 753.558594 351.390625 746.679688 351.390625 L 746.679688 372.214844 C 739.800781 372.214844 732.859375 372.214844 725.980469 372.214844 C 725.980469 379.089844 725.980469 386.03125 725.980469 392.90625 C 719.105469 392.90625 712.160156 392.90625 705.285156 392.90625 C 705.285156 406.722656 705.285156 420.542969 705.285156 434.226562 C 698.40625 434.226562 691.464844 434.226562 684.585938 434.226562 C 684.585938 441.101562 684.585938 448.042969 684.585938 454.917969 C 677.707031 454.917969 670.765625 454.917969 663.886719 454.917969 C 663.886719 461.792969 663.886719 468.734375 663.886719 475.609375 C 657.011719 475.609375 650.066406 475.609375 643.191406 475.609375 C 643.191406 482.488281 643.191406 489.429688 643.191406 496.304688 C 636.3125 496.304688 629.371094 496.304688 622.492188 496.304688 C 622.492188 503.179688 622.492188 510.121094 622.492188 516.996094 C 615.613281 516.996094 608.671875 516.996094 601.792969 516.996094 C 601.792969 523.871094 601.792969 530.8125 601.792969 537.6875 C 594.917969 537.6875 587.972656 537.6875 581.097656 537.6875 C 581.097656 544.5625 581.097656 551.503906 581.097656 558.382812 C 574.152344 558.25 567.210938 558.25 560.332031 558.25 Z M 560.332031 558.25 " fill-opacity="1" fill-rule="evenodd"/></g><path fill="#999999" d="M 270.628906 785.734375 C 256.808594 785.734375 242.988281 785.734375 229.300781 785.734375 C 229.300781 792.609375 229.300781 799.550781 229.300781 806.425781 C 243.121094 806.425781 256.941406 806.425781 270.628906 806.425781 C 270.628906 813.300781 270.628906 820.242188 270.628906 827.117188 C 284.449219 827.117188 298.269531 827.117188 311.957031 827.117188 C 311.957031 833.996094 311.957031 840.9375 311.957031 847.8125 C 325.78125 847.8125 339.601562 847.8125 353.289062 847.8125 C 353.289062 854.6875 353.289062 861.628906 353.289062 868.503906 C 367.109375 868.503906 380.929688 868.503906 394.617188 868.503906 C 394.617188 861.628906 394.617188 854.6875 394.617188 847.8125 C 380.796875 847.8125 366.976562 847.8125 353.289062 847.8125 C 353.289062 840.9375 353.289062 833.996094 353.289062 827.117188 C 339.46875 827.117188 325.648438 827.117188 311.957031 827.117188 C 311.957031 820.242188 311.957031 813.300781 311.957031 806.425781 C 298.136719 806.425781 284.316406 806.425781 270.628906 806.425781 C 270.628906 799.550781 270.628906 792.675781 270.628906 785.734375 Z M 270.628906 785.734375 " fill-opacity="1" fill-rule="evenodd"/><path fill="#000000" d="M 270.628906 785.734375 C 270.628906 778.859375 270.628906 771.917969 270.628906 765.042969 C 256.808594 765.042969 242.988281 765.042969 229.300781 765.042969 C 229.300781 771.917969 229.300781 778.859375 229.300781 785.734375 C 243.121094 785.734375 256.941406 785.734375 270.628906 785.734375 C 270.628906 792.609375 270.628906 799.550781 270.628906 806.425781 C 284.449219 806.425781 298.269531 806.425781 311.957031 806.425781 C 311.957031 813.300781 311.957031 820.242188 311.957031 827.117188 C 325.78125 827.117188 339.601562 827.117188 353.289062 827.117188 C 353.289062 833.996094 353.289062 840.9375 353.289062 847.8125 C 367.109375 847.8125 380.929688 847.8125 394.617188 847.8125 C 394.617188 840.9375 394.617188 833.996094 394.617188 827.117188 C 380.796875 827.117188 366.976562 827.117188 353.289062 827.117188 C 353.289062 820.242188 353.289062 813.300781 353.289062 806.425781 C 339.46875 806.425781 325.648438 806.425781 311.957031 806.425781 C 311.957031 799.550781 311.957031 792.609375 311.957031 785.734375 C 298.269531 785.734375 284.449219 785.734375 270.628906 785.734375 Z M 270.628906 785.734375 " fill-opacity="1" fill-rule="evenodd"/><path fill="#000000" d="M 63.785156 682.335938 C 70.660156 682.335938 77.605469 682.335938 84.480469 682.335938 C 84.480469 689.214844 84.480469 696.15625 84.480469 703.03125 C 77.605469 703.03125 70.660156 703.03125 63.785156 703.03125 C 63.785156 696.089844 63.785156 689.214844 63.785156 682.335938 Z M 84.480469 682.335938 C 84.480469 675.460938 84.480469 668.519531 84.480469 661.644531 C 77.605469 661.644531 70.660156 661.644531 63.785156 661.644531 C 56.90625 661.644531 49.960938 661.644531 43.085938 661.644531 C 43.085938 668.519531 43.085938 675.460938 43.085938 682.335938 C 43.085938 689.214844 43.085938 696.15625 43.085938 703.03125 C 49.960938 703.03125 56.90625 703.03125 63.785156 703.03125 C 63.785156 709.90625 63.785156 716.847656 63.785156 723.722656 C 70.660156 723.722656 77.605469 723.722656 84.480469 723.722656 C 91.359375 723.722656 98.300781 723.722656 105.179688 723.722656 C 105.179688 716.847656 105.179688 709.90625 105.179688 703.03125 C 105.179688 696.15625 105.179688 689.214844 105.179688 682.335938 C 98.300781 682.335938 91.359375 682.335938 84.480469 682.335938 Z M 84.480469 682.335938 " fill-opacity="1" fill-rule="evenodd"/><path fill="#9dff87" d="M 84.480469 703.03125 C 84.480469 696.15625 84.480469 689.214844 84.480469 682.335938 C 77.605469 682.335938 70.660156 682.335938 63.785156 682.335938 C 63.785156 689.214844 63.785156 696.15625 63.785156 703.03125 C 70.660156 703.03125 77.539062 703.03125 84.480469 703.03125 Z M 84.480469 703.03125 " fill-opacity="1" fill-rule="evenodd"/><path fill="#000000" d="M 105.179688 227.300781 L 105.179688 496.632812 C 112.054688 496.632812 119 496.632812 125.875 496.632812 C 132.753906 496.632812 139.699219 496.632812 146.574219 496.632812 C 146.574219 503.507812 146.574219 510.453125 146.574219 517.328125 C 153.453125 517.328125 160.394531 517.328125 167.273438 517.328125 C 174.148438 517.328125 181.09375 517.328125 187.96875 517.328125 C 187.96875 524.203125 187.96875 531.144531 187.96875 538.019531 C 194.847656 538.019531 201.789062 538.019531 208.667969 538.019531 C 215.546875 538.019531 222.488281 538.019531 229.367188 538.019531 C 229.367188 544.894531 229.367188 551.835938 229.367188 558.710938 C 236.242188 558.710938 243.1875 558.710938 250.0625 558.710938 C 256.941406 558.710938 263.882812 558.710938 270.761719 558.710938 C 270.761719 565.585938 270.761719 572.527344 270.761719 579.402344 C 277.640625 579.402344 284.582031 579.402344 291.460938 579.402344 C 298.335938 579.402344 305.28125 579.402344 312.15625 579.402344 C 312.15625 586.28125 312.15625 593.222656 312.15625 600.097656 C 319.035156 600.097656 325.976562 600.097656 332.855469 600.097656 C 339.730469 600.097656 346.675781 600.097656 353.554688 600.097656 C 353.554688 606.972656 353.554688 613.914062 353.554688 620.789062 C 360.429688 620.789062 367.375 620.789062 374.25 620.789062 C 381.128906 620.789062 388.070312 620.789062 394.949219 620.789062 C 394.949219 524.269531 394.949219 427.746094 394.949219 331.226562 C 388.070312 331.226562 381.128906 331.226562 374.25 331.226562 C 367.375 331.226562 360.429688 331.226562 353.554688 331.226562 C 353.554688 324.351562 353.554688 317.410156 353.554688 310.535156 C 346.675781 310.535156 339.730469 310.535156 332.855469 310.535156 C 325.976562 310.535156 319.035156 310.535156 312.15625 310.535156 C 312.15625 303.660156 312.15625 296.71875 312.15625 289.839844 C 305.28125 289.839844 298.335938 289.839844 291.460938 289.839844 C 284.582031 289.839844 277.640625 289.839844 270.761719 289.839844 C 270.761719 282.964844 270.761719 276.023438 270.761719 269.148438 C 263.882812 269.148438 256.941406 269.148438 250.0625 269.148438 C 243.1875 269.148438 236.242188 269.148438 229.367188 269.148438 C 229.367188 262.273438 229.367188 255.332031 229.367188 248.457031 C 222.488281 248.457031 215.546875 248.457031 208.667969 248.457031 C 201.789062 248.457031 194.847656 248.457031 187.96875 248.457031 C 187.96875 241.582031 187.96875 234.640625 187.96875 227.765625 C 181.09375 227.765625 174.148438 227.765625 167.273438 227.765625 C 160.394531 227.765625 153.453125 227.765625 146.574219 227.765625 C 146.574219 220.886719 146.574219 213.945312 146.574219 207.070312 C 139.699219 207.070312 132.753906 207.070312 125.875 207.070312 C 119 207.070312 112.054688 207.070312 105.179688 207.070312 L 105.179688 227.894531 Z M 125.875 247.992188 L 125.875 227.101562 C 132.753906 227.101562 139.699219 227.101562 146.574219 227.101562 C 146.574219 233.976562 146.574219 240.917969 146.574219 247.796875 C 153.453125 247.796875 160.394531 247.796875 167.273438 247.796875 C 174.148438 247.796875 181.09375 247.796875 187.96875 247.796875 C 187.96875 254.671875 187.96875 261.613281 187.96875 268.488281 C 194.847656 268.488281 201.789062 268.488281 208.667969 268.488281 C 215.546875 268.488281 222.488281 268.488281 229.367188 268.488281 C 229.367188 275.363281 229.367188 282.304688 229.367188 289.179688 C 236.242188 289.179688 243.1875 289.179688 250.0625 289.179688 C 256.941406 289.179688 263.882812 289.179688 270.761719 289.179688 C 270.761719 296.054688 270.761719 302.996094 270.761719 309.871094 C 277.640625 309.871094 284.582031 309.871094 291.460938 309.871094 C 298.335938 309.871094 305.28125 309.871094 312.15625 309.871094 C 312.15625 316.75 312.15625 323.691406 312.15625 330.566406 C 319.035156 330.566406 325.976562 330.566406 332.855469 330.566406 C 339.730469 330.566406 346.675781 330.566406 353.554688 330.566406 C 353.554688 337.441406 353.554688 344.382812 353.554688 351.257812 C 360.429688 351.257812 367.375 351.257812 374.25 351.257812 L 374.25 599.433594 C 367.375 599.433594 360.429688 599.433594 353.554688 599.433594 C 353.554688 592.558594 353.554688 585.617188 353.554688 578.742188 C 346.675781 578.742188 339.730469 578.742188 332.855469 578.742188 C 325.976562 578.742188 319.035156 578.742188 312.15625 578.742188 C 312.15625 571.867188 312.15625 564.925781 312.15625 558.050781 C 305.28125 558.050781 298.335938 558.050781 291.460938 558.050781 C 284.582031 558.050781 277.640625 558.050781 270.761719 558.050781 C 270.761719 551.175781 270.761719 544.234375 270.761719 537.359375 C 263.882812 537.359375 256.941406 537.359375 250.0625 537.359375 C 243.1875 537.359375 236.242188 537.359375 229.367188 537.359375 C 229.367188 530.480469 229.367188 523.539062 229.367188 516.664062 C 222.488281 516.664062 215.546875 516.664062 208.667969 516.664062 C 201.789062 516.664062 194.847656 516.664062 187.96875 516.664062 C 187.96875 509.789062 187.96875 502.847656 187.96875 495.972656 C 181.09375 495.972656 174.148438 495.972656 167.273438 495.972656 C 160.394531 495.972656 153.453125 495.972656 146.574219 495.972656 C 146.574219 489.097656 146.574219 482.15625 146.574219 475.28125 C 139.699219 475.28125 132.753906 475.28125 125.875 475.28125 Z M 125.875 247.992188 " fill-opacity="1" fill-rule="evenodd"/><path fill="#0b69c6" d="M 125.875 247.992188 L 125.875 475.546875 C 132.753906 475.546875 139.699219 475.546875 146.574219 475.546875 C 146.574219 482.421875 146.574219 489.363281 146.574219 496.238281 C 153.453125 496.238281 160.394531 496.238281 167.273438 496.238281 C 174.148438 496.238281 181.09375 496.238281 187.96875 496.238281 C 187.96875 503.113281 187.96875 510.054688 187.96875 516.929688 C 194.847656 516.929688 201.789062 516.929688 208.667969 516.929688 C 215.546875 516.929688 222.488281 516.929688 229.367188 516.929688 C 229.367188 523.804688 229.367188 530.746094 229.367188 537.621094 C 236.242188 537.621094 243.1875 537.621094 250.0625 537.621094 C 256.941406 537.621094 263.882812 537.621094 270.761719 537.621094 C 270.761719 544.496094 270.761719 551.441406 270.761719 558.316406 C 277.640625 558.316406 284.582031 558.316406 291.460938 558.316406 C 298.335938 558.316406 305.28125 558.316406 312.15625 558.316406 C 312.15625 565.191406 312.15625 572.132812 312.15625 579.007812 C 319.035156 579.007812 325.976562 579.007812 332.855469 579.007812 C 339.730469 579.007812 346.675781 579.007812 353.554688 579.007812 C 353.554688 585.882812 353.554688 592.824219 353.554688 599.699219 C 360.429688 599.699219 367.375 599.699219 374.25 599.699219 L 374.25 351.390625 C 367.375 351.390625 360.429688 351.390625 353.554688 351.390625 C 353.554688 344.515625 353.554688 337.574219 353.554688 330.699219 C 346.675781 330.699219 339.730469 330.699219 332.855469 330.699219 C 325.976562 330.699219 319.035156 330.699219 312.15625 330.699219 C 312.15625 323.820312 312.15625 316.878906 312.15625 310.003906 C 305.28125 310.003906 298.335938 310.003906 291.460938 310.003906 C 284.582031 310.003906 277.640625 310.003906 270.761719 310.003906 C 270.761719 303.128906 270.761719 296.1875 270.761719 289.3125 C 263.882812 289.3125 256.941406 289.3125 250.0625 289.3125 C 243.1875 289.3125 236.242188 289.3125 229.367188 289.3125 C 229.367188 282.4375 229.367188 275.496094 229.367188 268.621094 C 222.488281 268.621094 215.546875 268.621094 208.667969 268.621094 C 201.789062 268.621094 194.847656 268.621094 187.96875 268.621094 C 187.96875 261.746094 187.96875 254.804688 187.96875 247.925781 C 181.09375 247.925781 174.148438 247.925781 167.273438 247.925781 C 160.394531 247.925781 153.453125 247.925781 146.574219 247.925781 C 146.574219 241.050781 146.574219 234.109375 146.574219 227.234375 C 139.699219 227.234375 132.753906 227.234375 125.875 227.234375 Z M 125.875 247.992188 " fill-opacity="1" fill-rule="evenodd"/><path fill="#4291e1" d="M 146.507812 247.992188 C 146.507812 241.117188 146.507812 234.175781 146.507812 227.300781 C 139.632812 227.300781 132.6875 227.300781 125.8125 227.300781 C 125.8125 227.433594 125.8125 227.5 125.8125 227.632812 C 125.8125 227.765625 125.8125 227.828125 125.8125 227.960938 C 125.8125 228.09375 125.8125 228.160156 125.8125 228.292969 C 125.8125 228.425781 125.8125 228.492188 125.8125 228.625 C 125.8125 228.753906 125.8125 228.820312 125.8125 228.953125 C 125.8125 229.085938 125.8125 229.152344 125.8125 229.285156 C 125.8125 229.417969 125.8125 229.484375 125.8125 229.613281 C 125.8125 229.746094 125.8125 229.8125 125.8125 229.945312 C 125.8125 230.078125 125.8125 230.144531 125.8125 230.277344 C 125.8125 230.410156 125.8125 230.472656 125.8125 230.605469 C 125.8125 230.738281 125.8125 230.804688 125.8125 230.9375 C 125.8125 231.070312 125.8125 231.136719 125.8125 231.269531 C 125.8125 231.398438 125.8125 231.464844 125.8125 231.597656 C 125.8125 231.730469 125.8125 231.796875 125.8125 231.929688 C 125.8125 232.0625 125.8125 232.128906 125.8125 232.257812 C 125.8125 232.390625 125.8125 232.457031 125.8125 232.589844 C 125.8125 232.722656 125.8125 232.789062 125.8125 232.921875 C 125.8125 233.050781 125.8125 233.117188 125.8125 233.25 C 125.8125 233.382812 125.8125 233.449219 125.8125 233.582031 C 125.8125 233.714844 125.8125 233.78125 125.8125 233.910156 C 125.8125 234.042969 125.8125 234.109375 125.8125 234.242188 C 125.8125 234.375 125.8125 234.441406 125.8125 234.574219 C 125.8125 234.707031 125.8125 234.773438 125.8125 234.902344 C 125.8125 235.035156 125.8125 235.101562 125.8125 235.234375 C 125.8125 235.367188 125.8125 235.433594 125.8125 235.566406 C 125.8125 235.695312 125.8125 235.761719 125.8125 235.894531 C 125.8125 236.027344 125.8125 236.09375 125.8125 236.226562 C 125.8125 236.359375 125.8125 236.425781 125.8125 236.554688 C 125.8125 236.6875 125.8125 236.753906 125.8125 236.886719 C 125.8125 237.019531 125.8125 237.085938 125.8125 237.21875 C 125.8125 237.351562 125.8125 237.414062 125.8125 237.546875 C 125.8125 237.679688 125.8125 237.746094 125.8125 237.878906 C 125.8125 238.011719 125.8125 238.078125 125.8125 238.210938 C 125.8125 238.339844 125.8125 238.40625 125.8125 238.539062 C 125.8125 238.671875 125.8125 238.738281 125.8125 238.871094 C 125.8125 239.003906 125.8125 239.070312 125.8125 239.199219 C 125.8125 239.332031 125.8125 239.398438 125.8125 239.53125 C 125.8125 239.664062 125.8125 239.730469 125.8125 239.863281 C 125.8125 239.996094 125.8125 240.058594 125.8125 240.191406 C 125.8125 240.324219 125.8125 240.390625 125.8125 240.523438 C 125.8125 240.65625 125.8125 240.722656 125.8125 240.855469 C 125.8125 240.984375 125.8125 241.050781 125.8125 241.183594 C 125.8125 241.316406 125.8125 241.382812 125.8125 241.515625 C 125.8125 241.648438 125.8125 241.714844 125.8125 241.84375 C 125.8125 241.976562 125.8125 242.042969 125.8125 242.175781 C 125.8125 242.308594 125.8125 242.375 125.8125 242.507812 C 125.8125 242.636719 125.8125 242.703125 125.8125 242.835938 C 125.8125 242.96875 125.8125 243.035156 125.8125 243.167969 C 125.8125 243.300781 125.8125 243.367188 125.8125 243.5 C 125.8125 243.628906 125.8125 243.695312 125.8125 243.828125 C 125.8125 243.960938 125.8125 244.027344 125.8125 244.160156 C 125.8125 244.292969 125.8125 244.359375 125.8125 244.488281 C 125.8125 244.621094 125.8125 244.6875 125.8125 244.820312 C 125.8125 244.953125 125.8125 245.019531 125.8125 245.152344 C 125.8125 245.28125 125.8125 245.347656 125.8125 245.480469 C 125.8125 245.613281 125.8125 245.679688 125.8125 245.8125 C 125.8125 245.945312 125.8125 246.011719 125.8125 246.140625 C 125.8125 246.273438 125.8125 246.339844 125.8125 246.472656 C 125.8125 246.605469 125.8125 246.671875 125.8125 246.804688 C 125.8125 246.9375 125.8125 247 125.8125 247.132812 C 125.8125 247.265625 125.8125 247.332031 125.8125 247.464844 C 125.8125 247.597656 125.8125 247.664062 125.8125 247.796875 C 125.8125 247.925781 125.8125 247.992188 125.8125 248.125 C 125.8125 248.257812 125.8125 248.324219 125.8125 248.457031 C 125.8125 255.332031 125.8125 262.273438 125.8125 269.148438 C 132.6875 269.148438 139.632812 269.148438 146.507812 269.148438 C 146.507812 276.023438 146.507812 282.964844 146.507812 289.839844 C 153.386719 289.839844 160.328125 289.839844 167.207031 289.839844 C 167.207031 296.714844 167.207031 303.660156 167.207031 310.535156 C 174.082031 310.535156 181.027344 310.535156 187.902344 310.535156 C 187.902344 317.410156 187.902344 324.351562 187.902344 331.226562 C 194.78125 331.226562 201.726562 331.226562 208.601562 331.226562 C 208.601562 338.101562 208.601562 345.042969 208.601562 351.917969 C 215.480469 351.917969 222.421875 351.917969 229.300781 351.917969 C 229.300781 358.792969 229.300781 365.734375 229.300781 372.609375 C 229.300781 379.488281 229.300781 386.429688 229.300781 393.304688 C 229.300781 400.179688 229.300781 407.121094 229.300781 413.996094 C 229.300781 420.871094 229.300781 427.8125 229.300781 434.6875 C 236.175781 434.6875 243.121094 434.6875 249.996094 434.6875 C 249.996094 441.5625 249.996094 448.503906 249.996094 455.382812 C 249.996094 462.257812 249.996094 469.199219 249.996094 476.074219 C 256.875 476.074219 263.816406 476.074219 270.695312 476.074219 C 270.695312 482.949219 270.695312 489.890625 270.695312 496.765625 C 270.695312 503.640625 270.695312 510.582031 270.695312 517.457031 C 277.574219 517.457031 284.515625 517.457031 291.394531 517.457031 C 291.394531 524.335938 291.394531 531.277344 291.394531 538.152344 C 298.269531 538.152344 305.214844 538.152344 312.089844 538.152344 C 312.089844 545.027344 312.089844 551.96875 312.089844 558.84375 C 318.96875 558.84375 325.910156 558.84375 332.789062 558.84375 C 332.789062 565.71875 332.789062 572.660156 332.789062 579.535156 C 339.667969 579.535156 346.609375 579.535156 353.488281 579.535156 C 353.488281 586.410156 353.488281 593.351562 353.488281 600.230469 C 360.363281 600.230469 367.308594 600.230469 374.183594 600.230469 L 374.183594 351.917969 C 367.308594 351.917969 360.363281 351.917969 353.488281 351.917969 C 353.488281 345.042969 353.488281 338.101562 353.488281 331.226562 C 346.609375 331.226562 339.667969 331.226562 332.789062 331.226562 C 325.910156 331.226562 318.96875 331.226562 312.089844 331.226562 C 312.089844 324.351562 312.089844 317.410156 312.089844 310.535156 C 305.214844 310.535156 298.269531 310.535156 291.394531 310.535156 C 284.515625 310.535156 277.574219 310.535156 270.695312 310.535156 C 270.695312 303.660156 270.695312 296.714844 270.695312 289.839844 C 263.816406 289.839844 256.875 289.839844 249.996094 289.839844 C 243.121094 289.839844 236.175781 289.839844 229.300781 289.839844 C 229.300781 282.964844 229.300781 276.023438 229.300781 269.148438 C 222.421875 269.148438 215.480469 269.148438 208.601562 269.148438 C 201.726562 269.148438 194.78125 269.148438 187.902344 269.148438 C 187.902344 262.273438 187.902344 255.332031 187.902344 248.457031 C 181.027344 248.457031 174.082031 248.457031 167.207031 248.457031 C 160.328125 247.992188 153.453125 247.992188 146.507812 247.992188 Z M 146.507812 247.992188 " fill-opacity="1" fill-rule="evenodd"/><path fill="#9f8f92" d="M 63.785156 723.722656 L 105.179688 723.722656 L 105.179688 744.414062 L 63.785156 744.414062 L 63.785156 723.722656 L 43.085938 723.722656 L 43.085938 703.03125 L 63.785156 703.03125 Z M 63.785156 723.722656 " fill-opacity="1" fill-rule="evenodd"/><g fill="#000000" fill-opacity="1"><g transform="translate(163.770126, 535.235648)"><g><path d="M 3.9375 0.140625 C 3.382812 0.140625 2.945312 -0.015625 2.625 -0.328125 C 2.300781 -0.640625 2.140625 -1.050781 2.140625 -1.5625 C 2.140625 -2.070312 2.300781 -2.488281 2.625 -2.8125 C 2.945312 -3.144531 3.382812 -3.3125 3.9375 -3.3125 C 4.5 -3.3125 4.941406 -3.15625 5.265625 -2.84375 C 5.585938 -2.53125 5.75 -2.113281 5.75 -1.59375 C 5.75 -1.070312 5.582031 -0.648438 5.25 -0.328125 C 4.925781 -0.015625 4.488281 0.140625 3.9375 0.140625 Z M 3.9375 0.140625 "/></g></g></g></svg>