<svg xmlns="http://www.w3.org/2000/svg" xmlns:xlink="http://www.w3.org/1999/xlink" width="1080" zoomAndPan="magnify" viewBox="0 0 810 1012.49997" height="1350" preserveAspectRatio="xMidYMid meet" version="1.0"><defs><g/><clipPath id="220ce55524"><path d="M 0.199219 101.199219 L 809.800781 101.199219 L 809.800781 910.800781 L 0.199219 910.800781 Z M 0.199219 101.199219 " clip-rule="nonzero"/></clipPath></defs><g clip-path="url(#220ce55524)"><path fill="#f03c2e" d="M 794.519531 469.949219 L 441.050781 116.480469 C 439.84375 115.273438 438.582031 114.128906 437.261719 113.042969 C 435.941406 111.960938 434.574219 110.945312 433.152344 109.996094 C 431.734375 109.046875 430.269531 108.171875 428.765625 107.363281 C 427.261719 106.558594 425.71875 105.832031 424.140625 105.175781 C 422.5625 104.523438 420.957031 103.949219 419.324219 103.453125 C 417.691406 102.957031 416.035156 102.542969 414.359375 102.210938 C 412.6875 101.875 411 101.625 409.300781 101.457031 C 407.601562 101.289062 405.898438 101.207031 404.191406 101.207031 C 402.484375 101.207031 400.78125 101.289062 399.082031 101.457031 C 397.382812 101.625 395.695312 101.875 394.019531 102.210938 C 392.34375 102.542969 390.691406 102.957031 389.058594 103.453125 C 387.421875 103.949219 385.816406 104.523438 384.238281 105.175781 C 382.664062 105.832031 381.121094 106.558594 379.613281 107.363281 C 378.109375 108.171875 376.648438 109.046875 375.226562 109.996094 C 373.808594 110.945312 372.4375 111.960938 371.117188 113.042969 C 369.796875 114.128906 368.535156 115.273438 367.328125 116.480469 L 293.957031 189.851562 L 387.0625 282.957031 C 408.71875 275.367188 433.511719 280.550781 450.769531 297.804688 C 452.8125 299.851562 454.703125 302.03125 456.441406 304.34375 C 458.179688 306.65625 459.746094 309.078125 461.144531 311.609375 C 462.546875 314.140625 463.761719 316.757812 464.796875 319.457031 C 465.828125 322.160156 466.667969 324.921875 467.3125 327.738281 C 467.960938 330.558594 468.40625 333.410156 468.65625 336.289062 C 468.902344 339.171875 468.949219 342.058594 468.792969 344.945312 C 468.636719 347.832031 468.28125 350.695312 467.722656 353.535156 C 467.164062 356.371094 466.414062 359.160156 465.46875 361.890625 L 555.207031 451.628906 C 576.914062 444.140625 601.960938 448.972656 619.292969 466.355469 C 620.730469 467.792969 622.09375 469.296875 623.382812 470.867188 C 624.671875 472.4375 625.882812 474.070312 627.011719 475.757812 C 628.144531 477.449219 629.1875 479.191406 630.144531 480.980469 C 631.105469 482.773438 631.972656 484.609375 632.75 486.488281 C 633.53125 488.367188 634.214844 490.277344 634.804688 492.222656 C 635.394531 494.167969 635.890625 496.136719 636.285156 498.132812 C 636.683594 500.125 636.980469 502.132812 637.179688 504.15625 C 637.378906 506.179688 637.480469 508.207031 637.480469 510.242188 C 637.480469 512.273438 637.382812 514.300781 637.183594 516.324219 C 636.984375 518.347656 636.683594 520.355469 636.289062 522.351562 C 635.890625 524.34375 635.398438 526.3125 634.808594 528.257812 C 634.21875 530.203125 633.535156 532.117188 632.757812 533.992188 C 631.980469 535.871094 631.109375 537.707031 630.152344 539.5 C 629.195312 541.292969 628.148438 543.035156 627.019531 544.722656 C 625.890625 546.414062 624.679688 548.046875 623.390625 549.617188 C 622.101562 551.1875 620.738281 552.691406 619.300781 554.128906 C 617.863281 555.566406 616.359375 556.929688 614.785156 558.21875 C 613.214844 559.507812 611.582031 560.71875 609.890625 561.847656 C 608.203125 562.976562 606.460938 564.019531 604.667969 564.976562 C 602.875 565.933594 601.039062 566.804688 599.160156 567.582031 C 597.28125 568.359375 595.371094 569.042969 593.425781 569.632812 C 591.480469 570.21875 589.507812 570.714844 587.515625 571.109375 C 585.519531 571.503906 583.511719 571.800781 581.488281 572 C 579.464844 572.199219 577.4375 572.296875 575.40625 572.296875 C 573.371094 572.296875 571.34375 572.195312 569.320312 571.996094 C 567.296875 571.796875 565.289062 571.496094 563.296875 571.101562 C 561.304688 570.703125 559.332031 570.207031 557.390625 569.617188 C 555.445312 569.027344 553.53125 568.339844 551.65625 567.5625 C 549.777344 566.78125 547.941406 565.914062 546.148438 564.953125 C 544.355469 563.996094 542.617188 562.949219 540.925781 561.820312 C 539.238281 560.691406 537.605469 559.480469 536.035156 558.1875 C 534.464844 556.898438 532.960938 555.535156 531.523438 554.09375 C 513.308594 535.878906 508.804688 509.0625 518.015625 486.621094 L 434.324219 402.929688 L 434.324219 623.164062 C 440.4375 626.191406 445.917969 630.105469 450.769531 634.902344 C 452.203125 636.339844 453.566406 637.84375 454.855469 639.414062 C 456.144531 640.984375 457.355469 642.617188 458.484375 644.304688 C 459.613281 645.996094 460.65625 647.734375 461.613281 649.527344 C 462.570312 651.320312 463.4375 653.152344 464.214844 655.03125 C 464.996094 656.910156 465.679688 658.820312 466.269531 660.765625 C 466.859375 662.707031 467.351562 664.675781 467.746094 666.671875 C 468.144531 668.664062 468.441406 670.671875 468.640625 672.691406 C 468.839844 674.714844 468.9375 676.742188 468.9375 678.773438 C 468.9375 680.804688 468.839844 682.832031 468.640625 684.855469 C 468.441406 686.878906 468.144531 688.882812 467.746094 690.878906 C 467.351562 692.871094 466.859375 694.839844 466.269531 696.785156 C 465.679688 698.726562 464.996094 700.640625 464.214844 702.515625 C 463.4375 704.394531 462.570312 706.226562 461.613281 708.019531 C 460.65625 709.8125 459.613281 711.554688 458.484375 713.242188 C 457.355469 714.933594 456.144531 716.5625 454.855469 718.132812 C 453.566406 719.703125 452.203125 721.207031 450.769531 722.644531 C 449.332031 724.082031 447.828125 725.445312 446.257812 726.734375 C 444.6875 728.023438 443.054688 729.230469 441.367188 730.359375 C 439.675781 731.488281 437.9375 732.53125 436.144531 733.488281 C 434.351562 734.449219 432.515625 735.316406 430.640625 736.09375 C 428.761719 736.871094 426.851562 737.554688 424.90625 738.144531 C 422.960938 738.734375 420.996094 739.226562 419 739.625 C 417.007812 740.019531 415 740.316406 412.980469 740.515625 C 410.957031 740.714844 408.929688 740.816406 406.898438 740.816406 C 404.867188 740.816406 402.839844 740.714844 400.816406 740.515625 C 398.792969 740.316406 396.785156 740.019531 394.792969 739.625 C 392.800781 739.226562 390.832031 738.734375 388.886719 738.144531 C 386.941406 737.554688 385.03125 736.871094 383.15625 736.09375 C 381.277344 735.316406 379.441406 734.449219 377.652344 733.488281 C 375.859375 732.53125 374.117188 731.488281 372.429688 730.359375 C 370.738281 729.230469 369.109375 728.023438 367.539062 726.734375 C 365.96875 725.445312 364.464844 724.082031 363.027344 722.644531 C 361.589844 721.207031 360.222656 719.707031 358.933594 718.136719 C 357.644531 716.566406 356.433594 714.933594 355.300781 713.246094 C 354.171875 711.558594 353.128906 709.816406 352.167969 708.023438 C 351.207031 706.234375 350.339844 704.398438 349.5625 702.519531 C 348.78125 700.644531 348.097656 698.730469 347.507812 696.789062 C 346.917969 694.84375 346.421875 692.875 346.027344 690.878906 C 345.628906 688.886719 345.332031 686.878906 345.132812 684.855469 C 344.933594 682.832031 344.832031 680.804688 344.832031 678.773438 C 344.832031 676.742188 344.933594 674.714844 345.132812 672.691406 C 345.332031 670.667969 345.628906 668.660156 346.027344 666.667969 C 346.421875 664.671875 346.917969 662.703125 347.507812 660.761719 C 348.097656 658.816406 348.78125 656.902344 349.5625 655.027344 C 350.339844 653.148438 351.207031 651.316406 352.167969 649.523438 C 353.128906 647.730469 354.171875 645.992188 355.300781 644.300781 C 356.433594 642.613281 357.644531 640.984375 358.933594 639.414062 C 360.222656 637.84375 361.589844 636.339844 363.027344 634.902344 C 369.023438 628.933594 375.675781 624.402344 383.34375 621.367188 L 383.34375 399.082031 C 375.957031 396.046875 369.023438 391.566406 363.027344 385.546875 C 361.945312 384.464844 360.90625 383.347656 359.90625 382.191406 C 358.910156 381.035156 357.953125 379.839844 357.042969 378.613281 C 356.132812 377.386719 355.269531 376.125 354.453125 374.835938 C 353.632812 373.542969 352.867188 372.222656 352.144531 370.875 C 351.425781 369.527344 350.757812 368.152344 350.140625 366.753906 C 349.519531 365.355469 348.957031 363.9375 348.441406 362.496094 C 347.929688 361.058594 347.46875 359.601562 347.066406 358.128906 C 346.660156 356.652344 346.308594 355.167969 346.015625 353.667969 C 345.71875 352.167969 345.480469 350.660156 345.296875 349.140625 C 345.109375 347.625 344.984375 346.101562 344.914062 344.574219 C 344.839844 343.046875 344.828125 341.519531 344.867188 339.992188 C 344.910156 338.464844 345.007812 336.941406 345.164062 335.421875 C 345.316406 333.898438 345.527344 332.386719 345.796875 330.882812 C 346.0625 329.375 346.382812 327.882812 346.761719 326.402344 C 347.136719 324.921875 347.570312 323.457031 348.054688 322.007812 C 348.539062 320.554688 349.078125 319.128906 349.667969 317.71875 L 257.828125 225.929688 L 15.457031 468.050781 C 14.246094 469.257812 13.101562 470.519531 12.015625 471.839844 C 10.933594 473.160156 9.914062 474.53125 8.964844 475.949219 C 8.015625 477.371094 7.136719 478.832031 6.332031 480.339844 C 5.527344 481.847656 4.796875 483.386719 4.140625 484.964844 C 3.488281 486.542969 2.914062 488.148438 2.417969 489.785156 C 1.921875 491.417969 1.503906 493.074219 1.171875 494.75 C 0.839844 496.425781 0.589844 498.113281 0.421875 499.8125 C 0.253906 501.511719 0.167969 503.214844 0.167969 504.925781 C 0.167969 506.632812 0.253906 508.335938 0.421875 510.039062 C 0.589844 511.738281 0.839844 513.425781 1.171875 515.101562 C 1.503906 516.777344 1.921875 518.429688 2.417969 520.066406 C 2.914062 521.699219 3.488281 523.304688 4.140625 524.882812 C 4.796875 526.460938 5.527344 528.003906 6.332031 529.511719 C 7.136719 531.015625 8.015625 532.480469 8.964844 533.898438 C 9.914062 535.320312 10.933594 536.6875 12.015625 538.007812 C 13.101562 539.328125 14.246094 540.59375 15.457031 541.800781 L 368.949219 895.242188 C 370.15625 896.449219 371.417969 897.59375 372.738281 898.675781 C 374.058594 899.761719 375.425781 900.777344 376.847656 901.726562 C 378.265625 902.675781 379.726562 903.550781 381.234375 904.355469 C 382.738281 905.160156 384.28125 905.890625 385.859375 906.546875 C 387.4375 907.199219 389.042969 907.773438 390.675781 908.269531 C 392.308594 908.765625 393.964844 909.179688 395.640625 909.511719 C 397.3125 909.847656 399 910.097656 400.699219 910.261719 C 402.398438 910.429688 404.101562 910.515625 405.808594 910.515625 C 407.515625 910.515625 409.21875 910.429688 410.917969 910.261719 C 412.617188 910.097656 414.304688 909.847656 415.980469 909.511719 C 417.65625 909.179688 419.308594 908.765625 420.941406 908.269531 C 422.578125 907.773438 424.183594 907.199219 425.761719 906.546875 C 427.335938 905.890625 428.878906 905.160156 430.386719 904.355469 C 431.890625 903.550781 433.351562 902.675781 434.773438 901.726562 C 436.191406 900.777344 437.5625 899.761719 438.882812 898.675781 C 440.203125 897.59375 441.464844 896.449219 442.671875 895.242188 L 794.519531 543.949219 C 795.726562 542.742188 796.875 541.480469 797.957031 540.160156 C 799.042969 538.839844 800.058594 537.46875 801.007812 536.050781 C 801.957031 534.628906 802.835938 533.167969 803.640625 531.660156 C 804.449219 530.152344 805.179688 528.613281 805.832031 527.035156 C 806.488281 525.457031 807.0625 523.851562 807.558594 522.214844 C 808.054688 520.582031 808.46875 518.925781 808.800781 517.25 C 809.136719 515.574219 809.386719 513.886719 809.554688 512.1875 C 809.722656 510.488281 809.804688 508.785156 809.804688 507.074219 C 809.804688 505.367188 809.722656 503.664062 809.554688 501.964844 C 809.386719 500.261719 809.136719 498.574219 808.800781 496.898438 C 808.46875 495.226562 808.054688 493.570312 807.558594 491.933594 C 807.0625 490.300781 806.488281 488.695312 805.832031 487.117188 C 805.179688 485.539062 804.449219 483.996094 803.640625 482.488281 C 802.835938 480.984375 801.957031 479.519531 801.007812 478.101562 C 800.058594 476.679688 799.042969 475.3125 797.957031 473.992188 C 796.875 472.671875 795.726562 471.40625 794.519531 470.199219 " fill-opacity="1" fill-rule="nonzero"/></g><g fill="#000000" fill-opacity="1"><g transform="translate(443.639523, 634.871806)"><g><path d="M 3.9375 0.140625 C 3.382812 0.140625 2.945312 -0.015625 2.625 -0.328125 C 2.300781 -0.640625 2.140625 -1.050781 2.140625 -1.5625 C 2.140625 -2.070312 2.300781 -2.488281 2.625 -2.8125 C 2.945312 -3.144531 3.382812 -3.3125 3.9375 -3.3125 C 4.5 -3.3125 4.941406 -3.15625 5.265625 -2.84375 C 5.585938 -2.53125 5.75 -2.113281 5.75 -1.59375 C 5.75 -1.070312 5.582031 -0.648438 5.25 -0.328125 C 4.925781 -0.015625 4.488281 0.140625 3.9375 0.140625 Z M 3.9375 0.140625 "/></g></g></g><g fill="#ffffff" fill-opacity="1"><g transform="translate(658.125413, 704.96629)"><g><path d="M 45.609375 1.703125 C 39.160156 1.703125 34.070312 -0.101562 30.34375 -3.71875 C 26.613281 -7.34375 24.75 -12.148438 24.75 -18.140625 C 24.75 -24.015625 26.613281 -28.84375 30.34375 -32.625 C 34.070312 -36.414062 39.160156 -38.3125 45.609375 -38.3125 C 52.160156 -38.3125 57.300781 -36.503906 61.03125 -32.890625 C 64.757812 -29.273438 66.625 -24.472656 66.625 -18.484375 C 66.625 -12.492188 64.726562 -7.628906 60.9375 -3.890625 C 57.15625 -0.160156 52.046875 1.703125 45.609375 1.703125 Z M 45.609375 1.703125 "/></g></g></g></svg>