<svg xmlns="http://www.w3.org/2000/svg" xmlns:xlink="http://www.w3.org/1999/xlink" width="1080" zoomAndPan="magnify" viewBox="0 0 810 1012.49997" height="1350" preserveAspectRatio="xMidYMid meet" version="1.0"><defs><g/><clipPath id="1a44952bfa"><path d="M 0.199219 139.65625 L 809.800781 139.65625 L 809.800781 872.042969 L 0.199219 872.042969 Z M 0.199219 139.65625 " clip-rule="nonzero"/></clipPath><clipPath id="ed7989588a"><path d="M 736 286 L 809.800781 286 L 809.800781 506 L 736 506 Z M 736 286 " clip-rule="nonzero"/></clipPath><clipPath id="1acb7d8e31"><path d="M 515 139.65625 L 663 139.65625 L 663 213 L 515 213 Z M 515 139.65625 " clip-rule="nonzero"/></clipPath><clipPath id="157b0c7c94"><path d="M 368 798 L 442 798 L 442 872.042969 L 368 872.042969 Z M 368 798 " clip-rule="nonzero"/></clipPath><clipPath id="0bd7d1d420"><path d="M 147 139.65625 L 295 139.65625 L 295 213 L 147 213 Z M 147 139.65625 " clip-rule="nonzero"/></clipPath><clipPath id="8a4fb90672"><path d="M 0.199219 286 L 75 286 L 75 506 L 0.199219 506 Z M 0.199219 286 " clip-rule="nonzero"/></clipPath></defs><g clip-path="url(#1a44952bfa)"><path fill="#000000" d="M 736.019531 286.171875 L 736.019531 212.84375 L 662.472656 212.84375 L 662.472656 139.703125 L 515.371094 139.703125 L 515.371094 212.84375 L 441.632812 212.84375 L 441.632812 286.171875 L 368.273438 286.171875 L 368.273438 212.84375 L 294.726562 212.84375 L 294.726562 139.703125 L 147.4375 139.703125 L 147.4375 212.84375 L 74.078125 212.84375 L 74.078125 286.171875 L 0.339844 286.171875 L 0.339844 505.78125 L 74.078125 505.78125 L 74.078125 579.109375 L 147.4375 579.109375 L 147.4375 652.441406 L 220.984375 652.441406 L 220.984375 725.582031 L 294.726562 725.582031 L 294.726562 798.910156 L 368.273438 798.910156 L 368.273438 872.050781 L 441.632812 872.050781 L 441.632812 798.910156 L 515.371094 798.910156 L 515.371094 725.582031 L 588.921875 725.582031 L 588.921875 652.441406 L 662.472656 652.441406 L 662.472656 579.109375 L 736.019531 579.109375 L 736.019531 505.78125 L 809.570312 505.78125 L 809.570312 286.171875 Z M 736.019531 286.171875 " fill-opacity="1" fill-rule="nonzero"/></g><path fill="#de265d" d="M 594.277344 254.398438 L 515.359375 286.171875 L 492.242188 330.984375 L 441.726562 359.3125 L 422.101562 404.332031 L 387.570312 403.972656 L 368.324219 359.3125 L 331.507812 325.949219 L 294.691406 286.171875 L 221.058594 260.152344 L 147.425781 286.171875 L 74.023438 286.171875 L 33.023438 359.3125 L 74.023438 432.6875 L 104.964844 463.417969 L 147.425781 505.828125 L 188.054688 539.285156 L 221.058594 579.203125 L 254.242188 611.917969 L 294.691406 652.347656 L 339.25 682.75 L 368.324219 725.488281 L 405.023438 747.46875 L 441.726562 725.488281 L 469.582031 681.671875 L 515.359375 652.347656 L 548.714844 611.558594 L 588.992188 579.203125 L 615.738281 548.753906 L 662.394531 505.828125 L 709.621094 469.257812 L 700.027344 357.230469 L 662.394531 286.171875 Z M 594.277344 254.398438 " fill-opacity="1" fill-rule="nonzero"/><path fill="#ab1d48" d="M 662.394531 432.6875 L 736.03125 432.6875 L 736.03125 505.828125 L 662.394531 505.828125 Z M 662.394531 432.6875 " fill-opacity="1" fill-rule="nonzero"/><path fill="#ab1d48" d="M 588.992188 505.828125 L 662.394531 505.828125 L 662.394531 579.203125 L 588.992188 579.203125 Z M 588.992188 505.828125 " fill-opacity="1" fill-rule="nonzero"/><path fill="#ab1d48" d="M 515.359375 579.203125 L 588.992188 579.203125 L 588.992188 652.347656 L 515.359375 652.347656 Z M 515.359375 579.203125 " fill-opacity="1" fill-rule="nonzero"/><path fill="#ab1d48" d="M 441.726562 652.347656 L 515.359375 652.347656 L 515.359375 725.488281 L 441.726562 725.488281 Z M 441.726562 652.347656 " fill-opacity="1" fill-rule="nonzero"/><path fill="#ab1d48" d="M 368.324219 725.488281 L 441.726562 725.488281 L 441.726562 798.863281 L 368.324219 798.863281 Z M 368.324219 725.488281 " fill-opacity="1" fill-rule="nonzero"/><path fill="#ab1d48" d="M 294.691406 652.347656 L 368.324219 652.347656 L 368.324219 725.488281 L 294.691406 725.488281 Z M 294.691406 652.347656 " fill-opacity="1" fill-rule="nonzero"/><path fill="#ab1d48" d="M 221.058594 579.203125 L 294.691406 579.203125 L 294.691406 652.347656 L 221.058594 652.347656 Z M 221.058594 579.203125 " fill-opacity="1" fill-rule="nonzero"/><path fill="#ab1d48" d="M 147.425781 505.828125 L 221.058594 505.828125 L 221.058594 579.203125 L 147.425781 579.203125 Z M 147.425781 505.828125 " fill-opacity="1" fill-rule="nonzero"/><path fill="#ab1d48" d="M 74.023438 432.6875 L 147.425781 432.6875 L 147.425781 505.828125 L 74.023438 505.828125 Z M 74.023438 432.6875 " fill-opacity="1" fill-rule="nonzero"/><path fill="#f75687" d="M 662.394531 286.171875 L 662.394531 432.6875 L 736.03125 432.6875 L 736.03125 286.171875 Z M 662.394531 286.171875 " fill-opacity="1" fill-rule="nonzero"/><path fill="#f75687" d="M 588.992188 212.796875 L 515.359375 212.796875 L 515.359375 286.171875 L 662.394531 286.171875 L 662.394531 212.796875 Z M 588.992188 212.796875 " fill-opacity="1" fill-rule="nonzero"/><path fill="#f75687" d="M 441.726562 286.171875 L 515.359375 286.171875 L 515.359375 359.3125 L 441.726562 359.3125 Z M 441.726562 286.171875 " fill-opacity="1" fill-rule="nonzero"/><path fill="#f75687" d="M 368.324219 359.3125 L 441.726562 359.3125 L 441.726562 432.6875 L 368.324219 432.6875 Z M 368.324219 359.3125 " fill-opacity="1" fill-rule="nonzero"/><path fill="#f75687" d="M 294.691406 286.171875 L 368.324219 286.171875 L 368.324219 359.3125 L 294.691406 359.3125 Z M 294.691406 286.171875 " fill-opacity="1" fill-rule="nonzero"/><path fill="#f75687" d="M 221.058594 212.796875 L 147.425781 212.796875 L 147.425781 286.171875 L 294.691406 286.171875 L 294.691406 212.796875 Z M 221.058594 212.796875 " fill-opacity="1" fill-rule="nonzero"/><g clip-path="url(#ed7989588a)"><path fill="#000000" d="M 736.03125 286.171875 L 736.03125 505.828125 L 809.660156 505.828125 L 809.660156 286.171875 Z M 736.03125 286.171875 " fill-opacity="1" fill-rule="nonzero"/></g><path fill="#000000" d="M 662.394531 505.828125 L 736.03125 505.828125 L 736.03125 579.203125 L 662.394531 579.203125 Z M 662.394531 505.828125 " fill-opacity="1" fill-rule="nonzero"/><path fill="#000000" d="M 662.394531 212.796875 L 736.03125 212.796875 L 736.03125 286.171875 L 662.394531 286.171875 Z M 662.394531 212.796875 " fill-opacity="1" fill-rule="nonzero"/><path fill="#000000" d="M 588.992188 579.203125 L 662.394531 579.203125 L 662.394531 652.347656 L 588.992188 652.347656 Z M 588.992188 579.203125 " fill-opacity="1" fill-rule="nonzero"/><g clip-path="url(#1acb7d8e31)"><path fill="#000000" d="M 662.394531 212.796875 L 662.394531 139.65625 L 515.359375 139.65625 L 515.359375 212.796875 Z M 662.394531 212.796875 " fill-opacity="1" fill-rule="nonzero"/></g><path fill="#000000" d="M 515.359375 652.347656 L 588.992188 652.347656 L 588.992188 725.488281 L 515.359375 725.488281 Z M 515.359375 652.347656 " fill-opacity="1" fill-rule="nonzero"/><path fill="#000000" d="M 441.726562 725.488281 L 515.359375 725.488281 L 515.359375 798.863281 L 441.726562 798.863281 Z M 441.726562 725.488281 " fill-opacity="1" fill-rule="nonzero"/><path fill="#000000" d="M 441.726562 212.796875 L 515.359375 212.796875 L 515.359375 286.171875 L 441.726562 286.171875 Z M 441.726562 212.796875 " fill-opacity="1" fill-rule="nonzero"/><g clip-path="url(#157b0c7c94)"><path fill="#000000" d="M 368.324219 798.863281 L 441.726562 798.863281 L 441.726562 872.003906 L 368.324219 872.003906 Z M 368.324219 798.863281 " fill-opacity="1" fill-rule="nonzero"/></g><path fill="#000000" d="M 368.324219 286.171875 L 441.726562 286.171875 L 441.726562 359.3125 L 368.324219 359.3125 Z M 368.324219 286.171875 " fill-opacity="1" fill-rule="nonzero"/><path fill="#000000" d="M 294.691406 725.488281 L 368.324219 725.488281 L 368.324219 798.863281 L 294.691406 798.863281 Z M 294.691406 725.488281 " fill-opacity="1" fill-rule="nonzero"/><path fill="#000000" d="M 294.691406 212.796875 L 368.324219 212.796875 L 368.324219 286.171875 L 294.691406 286.171875 Z M 294.691406 212.796875 " fill-opacity="1" fill-rule="nonzero"/><path fill="#000000" d="M 221.058594 652.347656 L 294.691406 652.347656 L 294.691406 725.488281 L 221.058594 725.488281 Z M 221.058594 652.347656 " fill-opacity="1" fill-rule="nonzero"/><g clip-path="url(#0bd7d1d420)"><path fill="#000000" d="M 294.691406 212.796875 L 294.691406 139.65625 L 147.425781 139.65625 L 147.425781 212.796875 Z M 294.691406 212.796875 " fill-opacity="1" fill-rule="nonzero"/></g><path fill="#000000" d="M 147.425781 579.203125 L 221.058594 579.203125 L 221.058594 652.347656 L 147.425781 652.347656 Z M 147.425781 579.203125 " fill-opacity="1" fill-rule="nonzero"/><path fill="#000000" d="M 74.023438 505.828125 L 147.425781 505.828125 L 147.425781 579.203125 L 74.023438 579.203125 Z M 74.023438 505.828125 " fill-opacity="1" fill-rule="nonzero"/><path fill="#000000" d="M 74.023438 212.796875 L 147.425781 212.796875 L 147.425781 286.171875 L 74.023438 286.171875 Z M 74.023438 212.796875 " fill-opacity="1" fill-rule="nonzero"/><g clip-path="url(#8a4fb90672)"><path fill="#000000" d="M 74.023438 359.3125 L 74.023438 286.171875 L 0.390625 286.171875 L 0.390625 505.828125 L 74.023438 505.828125 Z M 74.023438 359.3125 " fill-opacity="1" fill-rule="nonzero"/></g><g fill="#ffffff" fill-opacity="1"><g transform="translate(654.557415, 630.815673)"><g><path d="M 3.9375 0.140625 C 3.382812 0.140625 2.945312 -0.015625 2.625 -0.328125 C 2.300781 -0.640625 2.140625 -1.050781 2.140625 -1.5625 C 2.140625 -2.070312 2.300781 -2.488281 2.625 -2.8125 C 2.945312 -3.144531 3.382812 -3.3125 3.9375 -3.3125 C 4.5 -3.3125 4.941406 -3.15625 5.265625 -2.84375 C 5.585938 -2.53125 5.75 -2.113281 5.75 -1.59375 C 5.75 -1.070312 5.582031 -0.648438 5.25 -0.328125 C 4.925781 -0.015625 4.488281 0.140625 3.9375 0.140625 Z M 3.9375 0.140625 "/></g></g></g></svg>