<svg xmlns="http://www.w3.org/2000/svg" xmlns:xlink="http://www.w3.org/1999/xlink" width="1080" zoomAndPan="magnify" viewBox="0 0 810 1012.49997" height="1350" preserveAspectRatio="xMidYMid meet" version="1.0"><defs><g/><clipPath id="fe999850b1"><path d="M 0.199219 46 L 809.800781 46 L 809.800781 966 L 0.199219 966 Z M 0.199219 46 " clip-rule="nonzero"/></clipPath></defs><g clip-path="url(#fe999850b1)"><path fill="#e44d26" d="M 73.695312 873.292969 L -0.03125 46.679688 L 810.03125 46.679688 L 736.246094 873.175781 L 404.484375 965.078125 Z M 73.695312 873.292969 " fill-opacity="1" fill-rule="nonzero"/></g><path fill="#f16529" d="M 673.058594 820.539062 L 736.132812 114.269531 L 405 114.269531 L 405 894.847656 Z M 673.058594 820.539062 " fill-opacity="1" fill-rule="nonzero"/><path fill="#ebebeb" d="M 404.65625 215.640625 L 150.695312 215.640625 L 178.054688 522.222656 L 405 522.222656 L 405 420.851562 L 270.8125 420.851562 L 261.539062 317.039062 L 405 317.039062 L 405 215.640625 Z M 405 683.808594 L 404.570312 683.921875 L 291.628906 653.441406 L 284.449219 572.59375 L 182.589844 572.59375 L 196.800781 731.769531 L 404.539062 789.167969 L 405 789.027344 Z M 405 683.808594 " fill-opacity="1" fill-rule="nonzero"/><path fill="#ffffff" d="M 404.65625 522.222656 L 529.539062 522.222656 L 518.058594 653.671875 L 404.941406 684.179688 L 404.941406 789.65625 L 612.855469 732.054688 L 640.703125 420.792969 L 405 420.792969 Z M 656.261719 242.847656 L 658.675781 215.640625 L 404.597656 215.640625 L 404.597656 317.011719 L 649.546875 317.011719 L 651.554688 294.222656 Z M 656.261719 242.847656 " fill-opacity="1" fill-rule="nonzero"/><g fill="#000000" fill-opacity="1"><g transform="translate(443.639523, 634.871806)"><g><path d="M 3.9375 0.140625 C 3.382812 0.140625 2.945312 -0.015625 2.625 -0.328125 C 2.300781 -0.640625 2.140625 -1.050781 2.140625 -1.5625 C 2.140625 -2.070312 2.300781 -2.488281 2.625 -2.8125 C 2.945312 -3.144531 3.382812 -3.3125 3.9375 -3.3125 C 4.5 -3.3125 4.941406 -3.15625 5.265625 -2.84375 C 5.585938 -2.53125 5.75 -2.113281 5.75 -1.59375 C 5.75 -1.070312 5.582031 -0.648438 5.25 -0.328125 C 4.925781 -0.015625 4.488281 0.140625 3.9375 0.140625 Z M 3.9375 0.140625 "/></g></g></g><g fill="#ffffff" fill-opacity="1"><g transform="translate(516.161537, 680.62959)"><g><path d="M 45.609375 1.703125 C 39.160156 1.703125 34.070312 -0.101562 30.34375 -3.71875 C 26.613281 -7.34375 24.75 -12.148438 24.75 -18.140625 C 24.75 -24.015625 26.613281 -28.84375 30.34375 -32.625 C 34.070312 -36.414062 39.160156 -38.3125 45.609375 -38.3125 C 52.160156 -38.3125 57.300781 -36.503906 61.03125 -32.890625 C 64.757812 -29.273438 66.625 -24.472656 66.625 -18.484375 C 66.625 -12.492188 64.726562 -7.628906 60.9375 -3.890625 C 57.15625 -0.160156 52.046875 1.703125 45.609375 1.703125 Z M 45.609375 1.703125 "/></g></g></g></svg>