<svg xmlns="http://www.w3.org/2000/svg" xmlns:xlink="http://www.w3.org/1999/xlink" width="1080" zoomAndPan="magnify" viewBox="0 0 810 1012.49997" height="1350" preserveAspectRatio="xMidYMid meet" version="1.0"><defs><g/></defs><path fill="#4e7896" d="M 312.667969 544.769531 C 312.667969 544.769531 285.625 561.226562 331.488281 565.933594 C 386.878906 572.988281 416.164062 571.808594 477.308594 560.058594 C 477.308594 560.058594 493.769531 570.652344 516.117188 578.878906 C 378.507812 637.667969 204.464844 575.351562 312.667969 544.769531 Z M 295.027344 468.339844 C 295.027344 468.339844 265.625 490.683594 311.488281 495.382812 C 371.453125 501.257812 418.511719 502.4375 499.65625 485.988281 C 499.65625 485.988281 510.253906 497.753906 527.878906 503.628906 C 362.074219 553.015625 176.253906 508.324219 295.027344 468.351562 Z M 619.609375 602.390625 C 619.609375 602.390625 639.597656 618.851562 597.261719 631.792969 C 518.464844 655.308594 266.804688 662.375 196.242188 631.792969 C 171.558594 621.199219 218.589844 605.90625 233.871094 603.570312 C 249.164062 600.042969 257.386719 600.042969 257.386719 600.042969 C 230.34375 581.226562 77.457031 638.847656 179.769531 655.425781 C 460.835938 701.300781 692.519531 635.441406 619.597656 602.511719 Z M 325.601562 388.371094 C 325.601562 388.371094 197.410156 418.953125 279.722656 429.523438 C 315.003906 434.21875 384.386719 433.050781 449.070312 428.34375 C 501.992188 423.648438 555.035156 414.230469 555.035156 414.230469 C 555.035156 414.230469 536.214844 422.46875 523.28125 430.691406 C 392.632812 464.824219 142.140625 449.53125 213.882812 414.257812 C 275.050781 384.855469 325.601562 388.371094 325.601562 388.371094 Z M 554.914062 516.546875 C 686.644531 448.339844 625.472656 382.496094 583.136719 390.730469 C 572.542969 393.078125 567.84375 395.425781 567.84375 395.425781 C 567.84375 395.425781 571.375 388.371094 579.609375 386.035156 C 663.101562 356.632812 728.96875 474.226562 552.566406 520.085938 C 552.566406 520.085938 553.746094 518.90625 554.914062 516.558594 Z M 338.53125 702.324219 C 465.542969 710.558594 659.585938 697.628906 664.296875 637.644531 C 664.296875 637.644531 654.902344 661.15625 559.632812 678.796875 C 451.441406 698.78125 317.363281 696.433594 238.578125 683.492188 C 238.578125 683.492188 255.039062 697.601562 338.542969 702.308594 Z M 338.53125 702.324219 " fill-opacity="1" fill-rule="nonzero"/><path fill="#f58219" d="M 474.839844 0.324219 C 474.839844 0.324219 547.75 74.40625 405.457031 186.101562 C 291.378906 276.640625 379.570312 328.386719 405.457031 387.167969 C 338.425781 327.207031 290.222656 274.28125 323.132812 224.894531 C 371.464844 152.027344 504.339844 116.75 474.839844 0.324219 Z M 437.210938 337.804688 C 471.3125 376.605469 427.816406 411.882812 427.816406 411.882812 C 427.816406 411.882812 514.839844 367.214844 474.863281 311.929688 C 438.402344 259.015625 410.179688 233.140625 563.066406 144.9375 C 563.066406 144.9375 321.976562 204.894531 437.234375 337.777344 Z M 437.210938 337.804688 " fill-opacity="1" fill-rule="nonzero"/><path fill="#4e7896" d="M 376.523438 954.066406 L 376.523438 838.84375 C 376.523438 809.441406 360.0625 789.457031 318.894531 789.457031 C 295.378906 789.457031 275.375 795.332031 257.722656 802.386719 L 263.601562 823.550781 C 276.53125 818.855469 293.003906 814.160156 310.644531 814.160156 C 332.992188 814.160156 343.578125 823.550781 343.578125 842.382812 L 343.578125 857.671875 L 331.8125 857.671875 C 275.363281 857.671875 249.488281 878.839844 249.488281 913.054688 C 249.488281 941.277344 267.128906 957.722656 298.882812 957.722656 C 318.871094 957.722656 334.160156 948.332031 348.273438 936.558594 L 350.621094 954.195312 L 376.511719 954.195312 Z M 343.589844 916.441406 C 331.824219 927.035156 318.90625 932.898438 307.128906 932.898438 C 291.835938 932.898438 282.445312 923.507812 282.445312 907.011719 C 282.445312 890.519531 291.835938 878.789062 329.488281 878.789062 L 343.589844 878.789062 Z M 487.0625 954.066406 L 445.902344 954.066406 L 396.511719 792.972656 L 431.792969 792.972656 L 462.375 891.746094 L 469.433594 921.148438 C 484.726562 878.816406 496.476562 835.304688 501.183594 792.972656 L 536.464844 792.972656 C 527.074219 845.886719 510.578125 903.496094 487.074219 954.066406 Z M 677.578125 954.066406 L 677.578125 838.84375 C 677.578125 809.441406 661.117188 789.457031 619.949219 789.457031 C 596.429688 789.457031 576.429688 795.332031 558.777344 802.386719 L 563.472656 823.550781 C 577.585938 818.855469 594.058594 814.160156 611.6875 814.160156 C 634.035156 814.160156 644.621094 823.550781 644.621094 842.382812 L 644.621094 857.671875 L 632.855469 857.671875 C 576.40625 857.671875 550.53125 878.839844 550.53125 913.054688 C 550.53125 941.277344 566.992188 957.722656 598.742188 957.722656 C 619.910156 957.722656 635.203125 948.332031 649.316406 936.558594 L 651.664062 954.195312 L 677.550781 954.195312 Z M 644.644531 916.441406 C 632.878906 927.035156 619.960938 932.898438 608.183594 932.898438 C 592.890625 932.898438 583.5 923.507812 583.5 907.011719 C 583.5 890.519531 592.890625 878.789062 630.542969 878.789062 L 644.65625 878.789062 L 644.65625 916.414062 Z M 213.0625 981.09375 C 203.671875 995.203125 189.546875 1005.777344 171.90625 1011.675781 L 156.613281 992.855469 C 168.378906 985.800781 180.132812 975.21875 184.839844 965.816406 C 189.535156 957.582031 190.714844 945.828125 190.714844 918.777344 L 190.714844 735.359375 L 225.996094 735.359375 L 225.996094 916.441406 C 225.996094 952.898438 222.46875 967.007812 213.0625 981.117188 Z M 213.0625 981.09375 " fill-opacity="1" fill-rule="nonzero"/><g fill="#000000" fill-opacity="1"><g transform="translate(443.639523, 634.871806)"><g><path d="M 3.9375 0.140625 C 3.382812 0.140625 2.945312 -0.015625 2.625 -0.328125 C 2.300781 -0.640625 2.140625 -1.050781 2.140625 -1.5625 C 2.140625 -2.070312 2.300781 -2.488281 2.625 -2.8125 C 2.945312 -3.144531 3.382812 -3.3125 3.9375 -3.3125 C 4.5 -3.3125 4.941406 -3.15625 5.265625 -2.84375 C 5.585938 -2.53125 5.75 -2.113281 5.75 -1.59375 C 5.75 -1.070312 5.582031 -0.648438 5.25 -0.328125 C 4.925781 -0.015625 4.488281 0.140625 3.9375 0.140625 Z M 3.9375 0.140625 "/></g></g></g><g fill="#ffffff" fill-opacity="1"><g transform="translate(658.125413, 704.96629)"><g><path d="M 45.609375 1.703125 C 39.160156 1.703125 34.070312 -0.101562 30.34375 -3.71875 C 26.613281 -7.34375 24.75 -12.148438 24.75 -18.140625 C 24.75 -24.015625 26.613281 -28.84375 30.34375 -32.625 C 34.070312 -36.414062 39.160156 -38.3125 45.609375 -38.3125 C 52.160156 -38.3125 57.300781 -36.503906 61.03125 -32.890625 C 64.757812 -29.273438 66.625 -24.472656 66.625 -18.484375 C 66.625 -12.492188 64.726562 -7.628906 60.9375 -3.890625 C 57.15625 -0.160156 52.046875 1.703125 45.609375 1.703125 Z M 45.609375 1.703125 "/></g></g></g></svg>