<svg xmlns="http://www.w3.org/2000/svg" xmlns:xlink="http://www.w3.org/1999/xlink" width="1080" zoomAndPan="magnify" viewBox="0 0 810 1012.49997" height="1350" preserveAspectRatio="xMidYMid meet" version="1.0"><defs><g/><clipPath id="a051824f2d"><path d="M 0.199219 101.199219 L 809.800781 101.199219 L 809.800781 910.800781 L 0.199219 910.800781 Z M 0.199219 101.199219 " clip-rule="nonzero"/></clipPath></defs><g clip-path="url(#a051824f2d)"><path fill="#eee400" d="M 620.675781 847.328125 C 550.046875 847.328125 504.371094 813.648438 482.105469 769.605469 L 544.039062 733.726562 C 560.363281 760.375 581.523438 779.921875 619.042969 779.921875 C 650.535156 779.921875 670.644531 764.164062 670.644531 742.417969 C 670.644531 709.726562 627.007812 696.917969 596.210938 683.738281 C 541.320312 660.375 504.886719 631.019531 504.886719 569.050781 C 504.886719 512.007812 548.363281 468.546875 616.339844 468.546875 C 664.671875 468.546875 699.484375 485.386719 724.453125 529.378906 L 665.222656 567.433594 C 652.1875 544.066406 638.066406 534.835938 616.320312 534.835938 C 594.027344 534.835938 579.890625 548.972656 579.890625 567.433594 C 579.890625 590.261719 594.007812 599.492188 626.636719 613.628906 C 695 642.917969 746.730469 665.960938 746.730469 741.332031 C 746.765625 809.84375 692.976562 847.328125 620.675781 847.328125 Z M 445.480469 732.65625 C 445.480469 811.464844 396.9375 853.125 329.546875 853.125 C 268.664062 853.125 232.199219 829.839844 214.257812 789.359375 L 213.207031 789.359375 L 275.089844 746.097656 C 287.042969 767.257812 297.808594 782.285156 323.878906 782.285156 C 348.894531 782.285156 364.519531 769.625 364.519531 731.605469 L 364.519531 465.519531 L 445.480469 465.519531 Z M 0.199219 910.800781 L 809.800781 910.800781 L 809.800781 101.199219 L 0.199219 101.199219 Z M 0.199219 910.800781 " fill-opacity="1" fill-rule="evenodd"/></g><g fill="#ffffff" fill-opacity="1"><g transform="translate(616.024335, 789.004056)"><g><path d="M 3.9375 0.140625 C 3.382812 0.140625 2.945312 -0.015625 2.625 -0.328125 C 2.300781 -0.640625 2.140625 -1.050781 2.140625 -1.5625 C 2.140625 -2.070312 2.300781 -2.488281 2.625 -2.8125 C 2.945312 -3.144531 3.382812 -3.3125 3.9375 -3.3125 C 4.5 -3.3125 4.941406 -3.15625 5.265625 -2.84375 C 5.585938 -2.53125 5.75 -2.113281 5.75 -1.59375 C 5.75 -1.070312 5.582031 -0.648438 5.25 -0.328125 C 4.925781 -0.015625 4.488281 0.140625 3.9375 0.140625 Z M 3.9375 0.140625 "/></g></g></g><g fill="#000000" fill-opacity="1"><g transform="translate(705.26117, 904.053489)"><g><path d="M 3.9375 0.140625 C 3.382812 0.140625 2.945312 -0.015625 2.625 -0.328125 C 2.300781 -0.640625 2.140625 -1.050781 2.140625 -1.5625 C 2.140625 -2.070312 2.300781 -2.488281 2.625 -2.8125 C 2.945312 -3.144531 3.382812 -3.3125 3.9375 -3.3125 C 4.5 -3.3125 4.941406 -3.15625 5.265625 -2.84375 C 5.585938 -2.53125 5.75 -2.113281 5.75 -1.59375 C 5.75 -1.070312 5.582031 -0.648438 5.25 -0.328125 C 4.925781 -0.015625 4.488281 0.140625 3.9375 0.140625 Z M 3.9375 0.140625 "/></g></g></g></svg>