<svg xmlns="http://www.w3.org/2000/svg" xmlns:xlink="http://www.w3.org/1999/xlink" width="1080" zoomAndPan="magnify" viewBox="0 0 810 1012.49997" height="1350" preserveAspectRatio="xMidYMid meet" version="1.0"><defs><g/><clipPath id="7fe287c359"><path d="M 0.199219 320.527344 L 809.800781 320.527344 L 809.800781 691.59375 L 0.199219 691.59375 Z M 0.199219 320.527344 " clip-rule="nonzero"/></clipPath><clipPath id="2074d58e6e"><path d="M 0.199219 320.527344 L 809.800781 320.527344 L 809.800781 691.59375 L 0.199219 691.59375 Z M 0.199219 320.527344 " clip-rule="nonzero"/></clipPath></defs><g clip-path="url(#7fe287c359)"><path fill="#181425" d="M 809.660156 354.261719 L 809.660156 657.863281 L 792.796875 657.863281 L 792.796875 674.726562 L 775.9375 674.726562 L 775.9375 691.59375 L 34.0625 691.59375 L 34.0625 674.726562 L 17.203125 674.726562 L 17.203125 657.863281 L 0.339844 657.863281 L 0.339844 354.261719 L 17.203125 354.261719 L 17.203125 337.394531 L 34.0625 337.394531 L 34.0625 320.527344 L 775.9375 320.527344 L 775.9375 337.394531 L 792.796875 337.394531 L 792.796875 354.261719 Z M 809.660156 354.261719 " fill-opacity="1" fill-rule="nonzero"/></g><path fill="#5a6988" d="M 792.796875 354.261719 L 792.796875 657.863281 L 775.9375 657.863281 L 775.9375 674.726562 L 34.0625 674.726562 L 34.0625 657.863281 L 17.203125 657.863281 L 17.203125 354.261719 L 34.0625 354.261719 L 34.0625 337.394531 L 775.9375 337.394531 L 775.9375 354.261719 Z M 792.796875 354.261719 " fill-opacity="1" fill-rule="nonzero"/><g clip-path="url(#2074d58e6e)"><path fill="#181425" d="M 775.9375 320.527344 L 775.9375 337.394531 L 34.0625 337.394531 L 34.0625 320.527344 Z M 17.203125 337.394531 L 17.203125 354.261719 L 34.0625 354.261719 L 34.0625 337.394531 Z M 17.203125 657.863281 L 17.203125 674.726562 L 34.0625 674.726562 L 34.0625 657.863281 Z M 34.0625 674.726562 L 34.0625 691.59375 L 775.9375 691.59375 L 775.9375 674.726562 Z M 775.9375 657.863281 L 775.9375 674.726562 L 792.796875 674.726562 L 792.796875 657.863281 Z M 775.9375 337.394531 L 775.9375 354.261719 L 792.796875 354.261719 L 792.796875 337.394531 Z M 0.339844 354.261719 L 0.339844 657.863281 L 17.203125 657.863281 L 17.203125 354.261719 Z M 792.796875 354.261719 L 792.796875 657.863281 L 809.660156 657.863281 L 809.660156 354.261719 Z M 792.796875 354.261719 " fill-opacity="1" fill-rule="nonzero"/></g><path fill="#c0cbdc" d="M 135.226562 387.996094 L 135.226562 421.726562 L 101.503906 421.726562 L 101.503906 387.996094 Z M 152.085938 387.996094 L 152.085938 421.726562 L 185.808594 421.726562 L 185.808594 387.996094 Z M 202.671875 387.996094 L 202.671875 421.726562 L 236.390625 421.726562 L 236.390625 387.996094 Z M 286.972656 387.996094 L 286.972656 421.726562 L 320.695312 421.726562 L 320.695312 387.996094 Z M 337.558594 387.996094 L 337.558594 421.726562 L 371.277344 421.726562 L 371.277344 387.996094 Z M 388.140625 387.996094 L 388.140625 421.726562 L 421.859375 421.726562 L 421.859375 387.996094 Z M 472.441406 387.996094 L 472.441406 421.726562 L 506.164062 421.726562 L 506.164062 387.996094 Z M 523.027344 387.996094 L 523.027344 421.726562 L 556.746094 421.726562 L 556.746094 387.996094 Z M 573.609375 387.996094 L 573.609375 421.726562 L 607.328125 421.726562 L 607.328125 387.996094 Z M 641.050781 387.996094 L 641.050781 421.726562 L 674.773438 421.726562 L 674.773438 387.996094 Z M 691.632812 387.996094 L 691.632812 421.726562 L 725.355469 421.726562 L 725.355469 387.996094 Z M 742.214844 387.996094 L 742.214844 421.726562 L 775.9375 421.726562 L 775.9375 387.996094 Z M 691.632812 522.929688 L 691.632812 556.660156 L 725.355469 556.660156 L 725.355469 522.929688 Z M 641.050781 590.394531 L 641.050781 624.128906 L 674.773438 624.128906 L 674.773438 590.394531 Z M 742.214844 590.394531 L 742.214844 624.128906 L 775.9375 624.128906 L 775.9375 590.394531 Z M 691.632812 590.394531 L 691.632812 624.128906 L 725.355469 624.128906 L 725.355469 590.394531 Z M 34.0625 455.460938 L 34.0625 489.195312 L 84.644531 489.195312 L 84.644531 455.460938 Z M 506.164062 522.929688 L 506.164062 556.660156 L 607.328125 556.660156 L 607.328125 522.929688 Z M 101.503906 455.460938 L 101.503906 489.195312 L 135.226562 489.195312 L 135.226562 455.460938 Z M 152.085938 455.460938 L 152.085938 489.195312 L 185.808594 489.195312 L 185.808594 455.460938 Z M 202.671875 455.460938 L 202.671875 489.195312 L 236.390625 489.195312 L 236.390625 455.460938 Z M 253.253906 455.460938 L 253.253906 489.195312 L 286.972656 489.195312 L 286.972656 455.460938 Z M 303.835938 455.460938 L 303.835938 489.195312 L 337.558594 489.195312 L 337.558594 455.460938 Z M 354.417969 455.460938 L 354.417969 489.195312 L 388.140625 489.195312 L 388.140625 455.460938 Z M 405 455.460938 L 405 489.195312 L 438.722656 489.195312 L 438.722656 455.460938 Z M 455.582031 455.460938 L 455.582031 489.195312 L 489.304688 489.195312 L 489.304688 455.460938 Z M 506.164062 455.460938 L 506.164062 489.195312 L 539.886719 489.195312 L 539.886719 455.460938 Z M 152.085938 522.929688 L 152.085938 556.660156 L 185.808594 556.660156 L 185.808594 522.929688 Z M 202.671875 522.929688 L 202.671875 556.660156 L 236.390625 556.660156 L 236.390625 522.929688 Z M 253.253906 522.929688 L 253.253906 556.660156 L 286.972656 556.660156 L 286.972656 522.929688 Z M 303.835938 522.929688 L 303.835938 556.660156 L 337.558594 556.660156 L 337.558594 522.929688 Z M 354.417969 522.929688 L 354.417969 556.660156 L 388.140625 556.660156 L 388.140625 522.929688 Z M 405 522.929688 L 405 556.660156 L 438.722656 556.660156 L 438.722656 522.929688 Z M 455.582031 522.929688 L 455.582031 556.660156 L 489.304688 556.660156 L 489.304688 522.929688 Z M 168.949219 590.394531 L 168.949219 624.128906 L 472.441406 624.128906 L 472.441406 590.394531 Z M 101.503906 590.394531 L 101.503906 624.128906 L 152.085938 624.128906 L 152.085938 590.394531 Z M 50.921875 590.394531 L 50.921875 624.128906 L 84.644531 624.128906 L 84.644531 590.394531 Z M 489.304688 590.394531 L 489.304688 624.128906 L 539.886719 624.128906 L 539.886719 590.394531 Z M 556.746094 590.394531 L 556.746094 624.128906 L 590.46875 624.128906 L 590.46875 590.394531 Z M 270.113281 337.394531 L 34.0625 337.394531 L 34.0625 354.261719 L 270.113281 354.261719 Z M 354.417969 337.394531 L 303.835938 337.394531 L 303.835938 354.261719 L 354.417969 354.261719 Z M 371.277344 354.261719 L 388.140625 354.261719 L 388.140625 337.394531 L 371.277344 337.394531 Z M 691.632812 337.394531 L 472.441406 337.394531 L 472.441406 354.261719 L 691.632812 354.261719 Z M 775.9375 337.394531 L 725.355469 337.394531 L 725.355469 354.261719 L 775.9375 354.261719 Z M 775.9375 337.394531 " fill-opacity="1" fill-rule="nonzero"/><path fill="#262b44" d="M 84.644531 506.0625 L 34.0625 506.0625 L 34.0625 489.195312 L 84.644531 489.195312 Z M 135.226562 556.660156 L 34.0625 556.660156 L 34.0625 573.527344 L 135.226562 573.527344 Z M 135.226562 489.195312 L 101.503906 489.195312 L 101.503906 506.0625 L 135.226562 506.0625 Z M 185.808594 489.195312 L 152.085938 489.195312 L 152.085938 506.0625 L 185.808594 506.0625 Z M 185.808594 556.660156 L 152.085938 556.660156 L 152.085938 573.527344 L 185.808594 573.527344 Z M 236.390625 556.660156 L 202.671875 556.660156 L 202.671875 573.527344 L 236.390625 573.527344 Z M 286.972656 556.660156 L 253.253906 556.660156 L 253.253906 573.527344 L 286.972656 573.527344 Z M 337.558594 556.660156 L 303.835938 556.660156 L 303.835938 573.527344 L 337.558594 573.527344 Z M 388.140625 556.660156 L 354.417969 556.660156 L 354.417969 573.527344 L 388.140625 573.527344 Z M 438.722656 556.660156 L 405 556.660156 L 405 573.527344 L 438.722656 573.527344 Z M 489.304688 556.660156 L 455.582031 556.660156 L 455.582031 573.527344 L 489.304688 573.527344 Z M 607.328125 556.660156 L 506.164062 556.660156 L 506.164062 573.527344 L 607.328125 573.527344 Z M 236.390625 489.195312 L 202.671875 489.195312 L 202.671875 506.0625 L 236.390625 506.0625 Z M 286.972656 489.195312 L 253.253906 489.195312 L 253.253906 506.0625 L 286.972656 506.0625 Z M 337.558594 489.195312 L 303.835938 489.195312 L 303.835938 506.0625 L 337.558594 506.0625 Z M 388.140625 489.195312 L 354.417969 489.195312 L 354.417969 506.0625 L 388.140625 506.0625 Z M 438.722656 489.195312 L 405 489.195312 L 405 506.0625 L 438.722656 506.0625 Z M 489.304688 489.195312 L 455.582031 489.195312 L 455.582031 506.0625 L 489.304688 506.0625 Z M 539.886719 489.195312 L 506.164062 489.195312 L 506.164062 506.0625 L 539.886719 506.0625 Z M 607.328125 489.195312 L 556.746094 489.195312 L 556.746094 506.0625 L 607.328125 506.0625 Z M 84.644531 624.128906 L 50.921875 624.128906 L 50.921875 640.996094 L 84.644531 640.996094 Z M 152.085938 624.128906 L 101.503906 624.128906 L 101.503906 640.996094 L 152.085938 640.996094 Z M 472.441406 624.128906 L 168.949219 624.128906 L 168.949219 640.996094 L 472.441406 640.996094 Z M 539.886719 624.128906 L 489.304688 624.128906 L 489.304688 640.996094 L 539.886719 640.996094 Z M 590.46875 624.128906 L 556.746094 624.128906 L 556.746094 640.996094 L 590.46875 640.996094 Z M 674.773438 624.128906 L 641.050781 624.128906 L 641.050781 640.996094 L 674.773438 640.996094 Z M 725.355469 624.128906 L 691.632812 624.128906 L 691.632812 640.996094 L 725.355469 640.996094 Z M 775.9375 624.128906 L 742.214844 624.128906 L 742.214844 640.996094 L 775.9375 640.996094 Z M 725.355469 556.660156 L 691.632812 556.660156 L 691.632812 573.527344 L 725.355469 573.527344 Z M 67.785156 421.726562 L 34.0625 421.726562 L 34.0625 438.59375 L 67.785156 438.59375 Z M 135.226562 421.726562 L 101.503906 421.726562 L 101.503906 438.59375 L 135.226562 438.59375 Z M 185.808594 421.726562 L 152.085938 421.726562 L 152.085938 438.59375 L 185.808594 438.59375 Z M 236.390625 421.726562 L 202.671875 421.726562 L 202.671875 438.59375 L 236.390625 438.59375 Z M 320.695312 421.726562 L 286.972656 421.726562 L 286.972656 438.59375 L 320.695312 438.59375 Z M 371.277344 421.726562 L 337.558594 421.726562 L 337.558594 438.59375 L 371.277344 438.59375 Z M 421.859375 421.726562 L 388.140625 421.726562 L 388.140625 438.59375 L 421.859375 438.59375 Z M 506.164062 421.726562 L 472.441406 421.726562 L 472.441406 438.59375 L 506.164062 438.59375 Z M 556.746094 421.726562 L 523.027344 421.726562 L 523.027344 438.59375 L 556.746094 438.59375 Z M 607.328125 421.726562 L 573.609375 421.726562 L 573.609375 438.59375 L 607.328125 438.59375 Z M 674.773438 421.726562 L 641.050781 421.726562 L 641.050781 438.59375 L 674.773438 438.59375 Z M 725.355469 421.726562 L 691.632812 421.726562 L 691.632812 438.59375 L 725.355469 438.59375 Z M 775.9375 421.726562 L 742.214844 421.726562 L 742.214844 438.59375 L 775.9375 438.59375 Z M 775.9375 421.726562 " fill-opacity="1" fill-rule="nonzero"/><path fill="#ffffff" d="M 118.367188 404.863281 L 101.503906 404.863281 L 101.503906 387.996094 L 118.367188 387.996094 Z M 168.949219 387.996094 L 152.085938 387.996094 L 152.085938 404.863281 L 168.949219 404.863281 Z M 219.53125 387.996094 L 202.671875 387.996094 L 202.671875 404.863281 L 219.53125 404.863281 Z M 303.835938 387.996094 L 286.972656 387.996094 L 286.972656 404.863281 L 303.835938 404.863281 Z M 354.417969 387.996094 L 337.558594 387.996094 L 337.558594 404.863281 L 354.417969 404.863281 Z M 405 387.996094 L 388.140625 387.996094 L 388.140625 404.863281 L 405 404.863281 Z M 489.304688 387.996094 L 472.441406 387.996094 L 472.441406 404.863281 L 489.304688 404.863281 Z M 539.886719 387.996094 L 523.027344 387.996094 L 523.027344 404.863281 L 539.886719 404.863281 Z M 590.46875 387.996094 L 573.609375 387.996094 L 573.609375 404.863281 L 590.46875 404.863281 Z M 657.914062 387.996094 L 641.050781 387.996094 L 641.050781 404.863281 L 657.914062 404.863281 Z M 708.496094 387.996094 L 691.632812 387.996094 L 691.632812 404.863281 L 708.496094 404.863281 Z M 759.078125 387.996094 L 742.214844 387.996094 L 742.214844 404.863281 L 759.078125 404.863281 Z M 67.785156 455.460938 L 34.0625 455.460938 L 34.0625 472.328125 L 67.785156 472.328125 Z M 118.367188 455.460938 L 101.503906 455.460938 L 101.503906 472.328125 L 118.367188 472.328125 Z M 168.949219 455.460938 L 152.085938 455.460938 L 152.085938 472.328125 L 168.949219 472.328125 Z M 168.949219 522.929688 L 152.085938 522.929688 L 152.085938 539.792969 L 168.949219 539.792969 Z M 219.53125 522.929688 L 202.671875 522.929688 L 202.671875 539.792969 L 219.53125 539.792969 Z M 270.113281 522.929688 L 253.253906 522.929688 L 253.253906 539.792969 L 270.113281 539.792969 Z M 320.695312 522.929688 L 303.835938 522.929688 L 303.835938 539.792969 L 320.695312 539.792969 Z M 371.277344 522.929688 L 354.417969 522.929688 L 354.417969 539.792969 L 371.277344 539.792969 Z M 421.859375 522.929688 L 405 522.929688 L 405 539.792969 L 421.859375 539.792969 Z M 472.441406 522.929688 L 455.582031 522.929688 L 455.582031 539.792969 L 472.441406 539.792969 Z M 590.46875 522.929688 L 506.164062 522.929688 L 506.164062 539.792969 L 590.46875 539.792969 Z M 219.53125 455.460938 L 202.671875 455.460938 L 202.671875 472.328125 L 219.53125 472.328125 Z M 270.113281 455.460938 L 253.253906 455.460938 L 253.253906 472.328125 L 270.113281 472.328125 Z M 320.695312 455.460938 L 303.835938 455.460938 L 303.835938 472.328125 L 320.695312 472.328125 Z M 371.277344 455.460938 L 354.417969 455.460938 L 354.417969 472.328125 L 371.277344 472.328125 Z M 421.859375 455.460938 L 405 455.460938 L 405 472.328125 L 421.859375 472.328125 Z M 472.441406 455.460938 L 455.582031 455.460938 L 455.582031 472.328125 L 472.441406 472.328125 Z M 523.027344 455.460938 L 506.164062 455.460938 L 506.164062 472.328125 L 523.027344 472.328125 Z M 67.785156 590.394531 L 50.921875 590.394531 L 50.921875 607.261719 L 67.785156 607.261719 Z M 135.226562 590.394531 L 101.503906 590.394531 L 101.503906 607.261719 L 135.226562 607.261719 Z M 320.695312 590.394531 L 168.949219 590.394531 L 168.949219 607.261719 L 320.695312 607.261719 Z M 371.277344 590.394531 L 337.558594 590.394531 L 337.558594 607.261719 L 371.277344 607.261719 Z M 405 590.394531 L 388.140625 590.394531 L 388.140625 607.261719 L 405 607.261719 Z M 523.027344 590.394531 L 489.304688 590.394531 L 489.304688 607.261719 L 523.027344 607.261719 Z M 573.609375 590.394531 L 556.746094 590.394531 L 556.746094 607.261719 L 573.609375 607.261719 Z M 708.496094 522.929688 L 691.632812 522.929688 L 691.632812 539.792969 L 708.496094 539.792969 Z M 657.914062 590.394531 L 641.050781 590.394531 L 641.050781 607.261719 L 657.914062 607.261719 Z M 708.496094 590.394531 L 691.632812 590.394531 L 691.632812 607.261719 L 708.496094 607.261719 Z M 759.078125 590.394531 L 742.214844 590.394531 L 742.214844 607.261719 L 759.078125 607.261719 Z M 759.078125 590.394531 " fill-opacity="1" fill-rule="nonzero"/><path fill="#3a4466" d="M 67.785156 421.726562 L 67.785156 387.996094 L 101.503906 387.996094 L 101.503906 421.726562 Z M 152.085938 421.726562 L 152.085938 387.996094 L 135.226562 387.996094 L 135.226562 421.726562 Z M 202.671875 421.726562 L 202.671875 387.996094 L 185.808594 387.996094 L 185.808594 421.726562 Z M 253.253906 421.726562 L 253.253906 387.996094 L 236.390625 387.996094 L 236.390625 421.726562 Z M 337.558594 421.726562 L 337.558594 387.996094 L 320.695312 387.996094 L 320.695312 421.726562 Z M 135.226562 371.128906 L 101.503906 371.128906 L 101.503906 387.996094 L 135.226562 387.996094 Z M 185.808594 371.128906 L 152.085938 371.128906 L 152.085938 387.996094 L 185.808594 387.996094 Z M 236.390625 371.128906 L 202.671875 371.128906 L 202.671875 387.996094 L 236.390625 387.996094 Z M 320.695312 371.128906 L 286.972656 371.128906 L 286.972656 387.996094 L 320.695312 387.996094 Z M 388.140625 421.726562 L 388.140625 387.996094 L 371.277344 387.996094 L 371.277344 421.726562 Z M 371.277344 371.128906 L 337.558594 371.128906 L 337.558594 387.996094 L 371.277344 387.996094 Z M 421.859375 371.128906 L 388.140625 371.128906 L 388.140625 387.996094 L 421.859375 387.996094 Z M 438.722656 421.726562 L 438.722656 387.996094 L 421.859375 387.996094 L 421.859375 421.726562 Z M 286.972656 387.996094 L 270.113281 387.996094 L 270.113281 421.726562 L 286.972656 421.726562 Z M 455.582031 421.726562 L 472.441406 421.726562 L 472.441406 387.996094 L 455.582031 387.996094 Z M 472.441406 371.128906 L 472.441406 387.996094 L 506.164062 387.996094 L 506.164062 371.128906 Z M 506.164062 421.726562 L 523.027344 421.726562 L 523.027344 387.996094 L 506.164062 387.996094 Z M 523.027344 371.128906 L 523.027344 387.996094 L 556.746094 387.996094 L 556.746094 371.128906 Z M 556.746094 421.726562 L 573.609375 421.726562 L 573.609375 387.996094 L 556.746094 387.996094 Z M 573.609375 371.128906 L 573.609375 387.996094 L 607.328125 387.996094 L 607.328125 371.128906 Z M 607.328125 387.996094 L 607.328125 421.726562 L 641.050781 421.726562 L 641.050781 387.996094 Z M 641.050781 371.128906 L 641.050781 387.996094 L 674.773438 387.996094 L 674.773438 371.128906 Z M 674.773438 421.726562 L 691.632812 421.726562 L 691.632812 387.996094 L 674.773438 387.996094 Z M 101.503906 489.195312 L 101.503906 455.460938 L 84.644531 455.460938 L 84.644531 489.195312 Z M 135.226562 438.59375 L 101.503906 438.59375 L 101.503906 455.460938 L 135.226562 455.460938 Z M 152.085938 489.195312 L 152.085938 455.460938 L 135.226562 455.460938 L 135.226562 489.195312 Z M 185.808594 438.59375 L 152.085938 438.59375 L 152.085938 455.460938 L 185.808594 455.460938 Z M 202.671875 489.195312 L 202.671875 455.460938 L 185.808594 455.460938 L 185.808594 489.195312 Z M 236.390625 438.59375 L 202.671875 438.59375 L 202.671875 455.460938 L 236.390625 455.460938 Z M 253.253906 489.195312 L 253.253906 455.460938 L 236.390625 455.460938 L 236.390625 489.195312 Z M 286.972656 438.59375 L 253.253906 438.59375 L 253.253906 455.460938 L 286.972656 455.460938 Z M 303.835938 489.195312 L 303.835938 455.460938 L 286.972656 455.460938 L 286.972656 489.195312 Z M 337.558594 438.59375 L 303.835938 438.59375 L 303.835938 455.460938 L 337.558594 455.460938 Z M 354.417969 489.195312 L 354.417969 455.460938 L 337.558594 455.460938 L 337.558594 489.195312 Z M 388.140625 438.59375 L 354.417969 438.59375 L 354.417969 455.460938 L 388.140625 455.460938 Z M 405 489.195312 L 405 455.460938 L 388.140625 455.460938 L 388.140625 489.195312 Z M 438.722656 438.59375 L 405 438.59375 L 405 455.460938 L 438.722656 455.460938 Z M 455.582031 489.195312 L 455.582031 455.460938 L 438.722656 455.460938 L 438.722656 489.195312 Z M 489.304688 438.59375 L 455.582031 438.59375 L 455.582031 455.460938 L 489.304688 455.460938 Z M 506.164062 489.195312 L 506.164062 455.460938 L 489.304688 455.460938 L 489.304688 489.195312 Z M 539.886719 438.59375 L 506.164062 438.59375 L 506.164062 455.460938 L 539.886719 455.460938 Z M 556.746094 489.195312 L 556.746094 455.460938 L 539.886719 455.460938 L 539.886719 489.195312 Z M 607.328125 438.59375 L 556.746094 438.59375 L 556.746094 455.460938 L 607.328125 455.460938 Z M 624.191406 489.195312 L 624.191406 455.460938 L 607.328125 455.460938 L 607.328125 489.195312 Z M 152.085938 556.660156 L 152.085938 522.929688 L 135.226562 522.929688 L 135.226562 556.660156 Z M 185.808594 506.0625 L 152.085938 506.0625 L 152.085938 522.929688 L 185.808594 522.929688 Z M 202.671875 556.660156 L 202.671875 522.929688 L 185.808594 522.929688 L 185.808594 556.660156 Z M 236.390625 506.0625 L 202.671875 506.0625 L 202.671875 522.929688 L 236.390625 522.929688 Z M 253.253906 556.660156 L 253.253906 522.929688 L 236.390625 522.929688 L 236.390625 556.660156 Z M 286.972656 506.0625 L 253.253906 506.0625 L 253.253906 522.929688 L 286.972656 522.929688 Z M 303.835938 556.660156 L 303.835938 522.929688 L 286.972656 522.929688 L 286.972656 556.660156 Z M 337.558594 506.0625 L 303.835938 506.0625 L 303.835938 522.929688 L 337.558594 522.929688 Z M 354.417969 556.660156 L 354.417969 522.929688 L 337.558594 522.929688 L 337.558594 556.660156 Z M 388.140625 506.0625 L 354.417969 506.0625 L 354.417969 522.929688 L 388.140625 522.929688 Z M 405 556.660156 L 405 522.929688 L 388.140625 522.929688 L 388.140625 556.660156 Z M 438.722656 506.0625 L 405 506.0625 L 405 522.929688 L 438.722656 522.929688 Z M 455.582031 556.660156 L 455.582031 522.929688 L 438.722656 522.929688 L 438.722656 556.660156 Z M 489.304688 506.0625 L 455.582031 506.0625 L 455.582031 522.929688 L 489.304688 522.929688 Z M 506.164062 556.660156 L 506.164062 522.929688 L 489.304688 522.929688 L 489.304688 556.660156 Z M 607.328125 506.0625 L 506.164062 506.0625 L 506.164062 522.929688 L 607.328125 522.929688 Z M 624.191406 556.660156 L 624.191406 522.929688 L 607.328125 522.929688 L 607.328125 556.660156 Z M 674.773438 556.660156 L 691.632812 556.660156 L 691.632812 522.929688 L 674.773438 522.929688 Z M 50.921875 573.527344 L 50.921875 590.394531 L 84.644531 590.394531 L 84.644531 573.527344 Z M 84.644531 624.128906 L 101.503906 624.128906 L 101.503906 590.394531 L 84.644531 590.394531 Z M 101.503906 573.527344 L 101.503906 590.394531 L 152.085938 590.394531 L 152.085938 573.527344 Z M 152.085938 624.128906 L 168.949219 624.128906 L 168.949219 590.394531 L 152.085938 590.394531 Z M 472.441406 573.527344 L 168.949219 573.527344 L 168.949219 590.394531 L 472.441406 590.394531 Z M 489.304688 624.128906 L 489.304688 590.394531 L 472.441406 590.394531 L 472.441406 624.128906 Z M 539.886719 573.527344 L 489.304688 573.527344 L 489.304688 590.394531 L 539.886719 590.394531 Z M 556.746094 624.128906 L 556.746094 590.394531 L 539.886719 590.394531 L 539.886719 624.128906 Z M 590.46875 573.527344 L 556.746094 573.527344 L 556.746094 590.394531 L 590.46875 590.394531 Z M 607.328125 624.128906 L 607.328125 590.394531 L 590.46875 590.394531 L 590.46875 624.128906 Z M 624.191406 624.128906 L 641.050781 624.128906 L 641.050781 590.394531 L 624.191406 590.394531 Z M 641.050781 573.527344 L 641.050781 590.394531 L 674.773438 590.394531 L 674.773438 573.527344 Z M 674.773438 624.128906 L 691.632812 624.128906 L 691.632812 590.394531 L 674.773438 590.394531 Z M 286.972656 674.726562 L 320.695312 674.726562 L 320.695312 657.863281 L 286.972656 657.863281 Z M 253.253906 674.726562 L 270.113281 674.726562 L 270.113281 657.863281 L 253.253906 657.863281 Z M 775.9375 354.261719 L 775.9375 371.128906 L 759.078125 371.128906 L 759.078125 354.261719 L 742.214844 354.261719 L 742.214844 371.128906 L 691.632812 371.128906 L 691.632812 387.996094 L 725.355469 387.996094 L 725.355469 421.726562 L 742.214844 421.726562 L 742.214844 387.996094 L 775.9375 387.996094 L 775.9375 438.59375 L 759.078125 438.59375 L 759.078125 455.460938 L 775.9375 455.460938 L 775.9375 472.328125 L 759.078125 472.328125 L 759.078125 489.195312 L 775.9375 489.195312 L 775.9375 506.0625 L 759.078125 506.0625 L 759.078125 522.929688 L 775.9375 522.929688 L 775.9375 539.792969 L 759.078125 539.792969 L 759.078125 556.660156 L 775.9375 556.660156 L 775.9375 573.527344 L 759.078125 573.527344 L 759.078125 556.660156 L 742.214844 556.660156 L 742.214844 573.527344 L 691.632812 573.527344 L 691.632812 590.394531 L 725.355469 590.394531 L 725.355469 624.128906 L 742.214844 624.128906 L 742.214844 590.394531 L 775.9375 590.394531 L 775.9375 640.996094 L 523.027344 640.996094 L 523.027344 657.863281 L 354.417969 657.863281 L 354.417969 674.726562 L 775.9375 674.726562 L 775.9375 657.863281 L 792.796875 657.863281 L 792.796875 354.261719 Z M 759.078125 539.792969 L 759.078125 522.929688 L 742.214844 522.929688 L 742.214844 506.0625 L 691.632812 506.0625 L 691.632812 522.929688 L 725.355469 522.929688 L 725.355469 556.660156 L 742.214844 556.660156 L 742.214844 539.792969 Z M 759.078125 489.195312 L 742.214844 489.195312 L 742.214844 506.0625 L 759.078125 506.0625 Z M 759.078125 455.460938 L 742.214844 455.460938 L 742.214844 472.328125 L 759.078125 472.328125 Z M 725.355469 438.59375 L 725.355469 455.460938 L 742.214844 455.460938 L 742.214844 438.59375 Z M 725.355469 472.328125 L 725.355469 489.195312 L 742.214844 489.195312 L 742.214844 472.328125 Z M 34.0625 522.929688 L 135.226562 522.929688 L 135.226562 506.0625 L 34.0625 506.0625 L 34.0625 455.460938 L 84.644531 455.460938 L 84.644531 438.59375 L 34.0625 438.59375 L 34.0625 387.996094 L 67.785156 387.996094 L 67.785156 371.128906 L 34.0625 371.128906 L 34.0625 354.261719 L 17.203125 354.261719 L 17.203125 657.863281 L 34.0625 657.863281 L 34.0625 674.726562 L 152.085938 674.726562 L 152.085938 657.863281 L 50.921875 657.863281 L 50.921875 640.996094 L 34.0625 640.996094 L 34.0625 624.128906 L 50.921875 624.128906 L 50.921875 590.394531 L 34.0625 590.394531 Z M 34.0625 522.929688 " fill-opacity="1" fill-rule="nonzero"/><path fill="#feae34" d="M 34.0625 387.996094 L 67.785156 387.996094 L 67.785156 421.726562 L 34.0625 421.726562 Z M 34.0625 387.996094 " fill-opacity="1" fill-rule="nonzero"/><path fill="#fee761" d="M 34.0625 387.996094 L 50.921875 387.996094 L 50.921875 404.863281 L 34.0625 404.863281 Z M 34.0625 387.996094 " fill-opacity="1" fill-rule="nonzero"/><path fill="#3e8948" d="M 34.0625 522.929688 L 135.226562 522.929688 L 135.226562 556.660156 L 34.0625 556.660156 Z M 34.0625 522.929688 " fill-opacity="1" fill-rule="nonzero"/><path fill="#63c74d" d="M 34.0625 522.929688 L 118.367188 522.929688 L 118.367188 539.792969 L 34.0625 539.792969 Z M 34.0625 522.929688 " fill-opacity="1" fill-rule="nonzero"/><path fill="#e43b44" d="M 556.746094 455.460938 L 607.328125 455.460938 L 607.328125 489.195312 L 556.746094 489.195312 Z M 556.746094 455.460938 " fill-opacity="1" fill-rule="nonzero"/><path fill="#f6757a" d="M 556.746094 455.460938 L 590.46875 455.460938 L 590.46875 472.328125 L 556.746094 472.328125 Z M 556.746094 455.460938 " fill-opacity="1" fill-rule="nonzero"/><g fill="#ffffff" fill-opacity="1"><g transform="translate(397.100788, 598.94451)"><g><path d="M 3.9375 0.140625 C 3.382812 0.140625 2.945312 -0.015625 2.625 -0.328125 C 2.300781 -0.640625 2.140625 -1.050781 2.140625 -1.5625 C 2.140625 -2.070312 2.300781 -2.488281 2.625 -2.8125 C 2.945312 -3.144531 3.382812 -3.3125 3.9375 -3.3125 C 4.5 -3.3125 4.941406 -3.15625 5.265625 -2.84375 C 5.585938 -2.53125 5.75 -2.113281 5.75 -1.59375 C 5.75 -1.070312 5.582031 -0.648438 5.25 -0.328125 C 4.925781 -0.015625 4.488281 0.140625 3.9375 0.140625 Z M 3.9375 0.140625 "/></g></g></g></svg>