<svg xmlns="http://www.w3.org/2000/svg" xmlns:xlink="http://www.w3.org/1999/xlink" width="1080" zoomAndPan="magnify" viewBox="0 0 810 1012.49997" height="1350" preserveAspectRatio="xMidYMid meet" version="1.0"><defs><clipPath id="5785ae5e21"><path d="M 81.160156 238.539062 L 630.277344 238.539062 L 630.277344 773.460938 L 81.160156 773.460938 Z M 81.160156 238.539062 " clip-rule="nonzero"/></clipPath><clipPath id="02bfe553c9"><path d="M 0.160156 0.539062 L 549.277344 0.539062 L 549.277344 535.460938 L 0.160156 535.460938 Z M 0.160156 0.539062 " clip-rule="nonzero"/></clipPath><clipPath id="fc25188e79"><rect x="0" width="550" y="0" height="536"/></clipPath><clipPath id="fcc038d00b"><path d="M 0.398438 161 L 684.863281 161 L 684.863281 845.582031 L 0.398438 845.582031 Z M 0.398438 161 " clip-rule="nonzero"/></clipPath></defs><g clip-path="url(#5785ae5e21)"><g transform="matrix(1, 0, 0, 1, 81, 238)"><g clip-path="url(#fc25188e79)"><g clip-path="url(#02bfe553c9)"><path fill="#ffffff" d="M 0.160156 0.539062 L 549.707031 0.539062 L 549.707031 535.460938 L 0.160156 535.460938 Z M 0.160156 0.539062 " fill-opacity="1" fill-rule="nonzero"/></g></g></g></g><g clip-path="url(#fcc038d00b)"><path fill="#0a66c2" d="M 583.191406 744.128906 L 481.855469 744.128906 L 481.855469 585.40625 C 481.855469 547.574219 481.175781 498.835938 429.15625 498.835938 C 377.136719 498.835938 368.296875 540.089844 368.296875 582.664062 L 368.296875 744.128906 L 266.960938 744.128906 L 266.960938 417.714844 L 364.265625 417.714844 L 364.265625 462.328125 L 365.621094 462.328125 C 385.453125 428.394531 422.351562 408.136719 461.601562 409.589844 C 564.324219 409.589844 583.253906 477.164062 583.253906 565.054688 L 583.253906 744.128906 Z M 152.566406 373.109375 C 120.085938 373.109375 93.734375 346.789062 93.734375 314.308594 C 93.734375 281.828125 120.054688 255.480469 152.53125 255.480469 C 185.011719 255.480469 211.359375 281.796875 211.359375 314.277344 C 211.359375 346.757812 185.042969 373.109375 152.566406 373.109375 M 203.265625 744.128906 L 101.796875 744.128906 L 101.796875 417.714844 L 203.265625 417.714844 Z M 633.730469 161.332031 L 50.875 161.332031 C 23.328125 161.039062 0.722656 183.101562 0.398438 210.644531 L 0.398438 795.960938 C 0.722656 823.539062 23.296875 845.601562 50.875 845.308594 L 633.730469 845.308594 C 661.339844 845.664062 684.011719 823.570312 684.398438 795.960938 L 684.398438 210.613281 C 684.011719 183.003906 661.339844 160.945312 633.730469 161.296875 " fill-opacity="1" fill-rule="nonzero"/></g></svg>