<svg xmlns="http://www.w3.org/2000/svg" xmlns:xlink="http://www.w3.org/1999/xlink" width="1080" zoomAndPan="magnify" viewBox="0 0 810 1012.49997" height="1350" preserveAspectRatio="xMidYMid meet" version="1.0"><defs><g/><clipPath id="4a9514782b"><path d="M 0.199219 161 L 685 161 L 685 846 L 0.199219 846 Z M 0.199219 161 " clip-rule="nonzero"/></clipPath><clipPath id="6e43c4b8b4"><path d="M 716 757 L 809.800781 757 L 809.800781 851 L 716 851 Z M 716 757 " clip-rule="nonzero"/></clipPath></defs><path fill="#0a66c2" d="M 769.820312 806.875 C 776.824219 806.9375 782.566406 801.324219 782.628906 794.320312 C 782.628906 794.03125 782.628906 793.738281 782.628906 793.449219 C 782.628906 783.929688 776.886719 779.414062 765.140625 779.414062 L 746.136719 779.414062 L 746.136719 829.171875 L 753.300781 829.171875 L 753.300781 807.488281 L 762.074219 807.488281 L 762.269531 807.746094 L 775.917969 829.171875 L 783.566406 829.171875 L 768.882812 807.003906 L 769.851562 806.875 Z M 761.558594 801.871094 L 753.265625 801.871094 L 753.265625 785.058594 L 763.785156 785.058594 C 769.207031 785.058594 775.402344 785.964844 775.402344 793.0625 C 775.402344 801.226562 769.140625 801.90625 761.527344 801.90625 " fill-opacity="1" fill-rule="nonzero"/><g clip-path="url(#4a9514782b)"><path fill="#0a66c2" d="M 583.28125 744.496094 L 481.894531 744.496094 L 481.894531 585.695312 C 481.894531 547.84375 481.214844 499.082031 429.167969 499.082031 C 377.121094 499.082031 368.277344 540.355469 368.277344 582.953125 L 368.277344 744.496094 L 266.894531 744.496094 L 266.894531 417.921875 L 364.246094 417.921875 L 364.246094 462.554688 L 365.601562 462.554688 C 385.445312 428.605469 422.359375 408.339844 461.628906 409.792969 C 564.402344 409.792969 583.34375 477.398438 583.34375 565.332031 L 583.34375 744.496094 Z M 152.441406 373.292969 C 119.945312 373.292969 93.582031 346.960938 93.582031 314.464844 C 93.582031 281.96875 119.914062 255.605469 152.40625 255.605469 C 184.902344 255.605469 211.265625 281.9375 211.265625 314.433594 C 211.265625 346.929688 184.933594 373.292969 152.441406 373.292969 M 203.164062 744.496094 L 101.648438 744.496094 L 101.648438 417.921875 L 203.164062 417.921875 Z M 633.84375 161.410156 L 50.699219 161.410156 C 23.140625 161.117188 0.523438 183.191406 0.199219 210.75 L 0.199219 796.355469 C 0.523438 823.945312 23.109375 846.019531 50.699219 845.726562 L 633.84375 845.726562 C 661.464844 846.082031 684.148438 823.976562 684.535156 796.355469 L 684.535156 210.71875 C 684.148438 183.09375 661.464844 161.023438 633.84375 161.375 " fill-opacity="1" fill-rule="nonzero"/></g><g clip-path="url(#6e43c4b8b4)"><path fill="#0a66c2" d="M 762.398438 757.242188 C 736.617188 757.5 715.933594 778.574219 716.191406 804.355469 C 716.449219 830.140625 737.519531 850.824219 763.300781 850.566406 C 789.085938 850.308594 809.769531 829.238281 809.507812 803.453125 C 809.25 778.023438 788.730469 757.46875 763.300781 757.242188 L 762.398438 757.242188 M 762.398438 845.242188 C 739.8125 845.628906 721.191406 827.589844 720.804688 805.003906 C 720.417969 782.414062 738.457031 763.792969 761.042969 763.40625 C 783.632812 763.019531 802.25 781.058594 802.636719 803.648438 L 802.636719 804.324219 C 803.121094 826.429688 785.566406 844.726562 763.464844 845.210938 L 762.398438 845.210938 " fill-opacity="1" fill-rule="nonzero"/></g><g fill="#ffffff" fill-opacity="1"><g transform="translate(753.932198, 602.422912)"><g><path d="M 3.9375 0.140625 C 3.382812 0.140625 2.945312 -0.015625 2.625 -0.328125 C 2.300781 -0.640625 2.140625 -1.050781 2.140625 -1.5625 C 2.140625 -2.070312 2.300781 -2.488281 2.625 -2.8125 C 2.945312 -3.144531 3.382812 -3.3125 3.9375 -3.3125 C 4.5 -3.3125 4.941406 -3.15625 5.265625 -2.84375 C 5.585938 -2.53125 5.75 -2.113281 5.75 -1.59375 C 5.75 -1.070312 5.582031 -0.648438 5.25 -0.328125 C 4.925781 -0.015625 4.488281 0.140625 3.9375 0.140625 Z M 3.9375 0.140625 "/></g></g></g></svg>