<svg xmlns="http://www.w3.org/2000/svg" xmlns:xlink="http://www.w3.org/1999/xlink" width="1080" zoomAndPan="magnify" viewBox="0 0 810 1012.49997" height="1350" preserveAspectRatio="xMidYMid meet" version="1.0"><defs><g/><clipPath id="9a7e71f72c"><path d="M 0.199219 104.742188 L 809.800781 104.742188 L 809.800781 910.59375 L 0.199219 910.59375 Z M 0.199219 104.742188 " clip-rule="nonzero"/></clipPath></defs><path fill="#ebded4" d="M 735.75 851.550781 L 737.417969 851.550781 L 737.417969 874.078125 L 76.15625 874.078125 L 76.15625 851.550781 L 95.546875 851.550781 L 95.546875 832.359375 L 114.855469 832.359375 L 114.855469 813.164062 L 134.214844 813.164062 L 134.214844 793.972656 L 153.554688 793.972656 L 153.554688 774.78125 L 192.339844 774.78125 L 192.339844 755.589844 L 211.699219 755.589844 L 211.699219 736.398438 L 231.039062 736.398438 L 231.039062 717.207031 L 250.398438 717.207031 L 250.398438 698.015625 L 269.742188 698.015625 L 269.742188 678.824219 L 311.777344 678.824219 L 311.777344 698.015625 L 350.480469 698.015625 L 350.480469 717.207031 L 369.839844 717.207031 L 369.839844 736.398438 L 424.476562 736.398438 L 424.476562 717.207031 L 463.175781 717.207031 L 463.175781 698.015625 L 482.519531 698.015625 L 482.519531 678.824219 L 543.914062 678.824219 L 543.914062 698.015625 L 563.257812 698.015625 L 563.257812 717.207031 L 582.617188 717.207031 L 582.617188 736.398438 L 601.957031 736.398438 L 601.957031 755.589844 L 621.316406 755.589844 L 621.316406 774.78125 L 640.65625 774.78125 L 640.65625 793.972656 L 679.359375 793.972656 L 679.359375 813.164062 L 698.71875 813.164062 L 698.71875 832.359375 L 718.023438 832.359375 L 718.023438 851.550781 Z M 79.492188 835.695312 L 79.492188 816.503906 L 98.882812 816.503906 L 98.882812 797.3125 L 118.191406 797.3125 L 118.191406 778.121094 L 137.550781 778.121094 L 137.550781 758.929688 L 156.894531 758.929688 L 156.894531 739.738281 L 176.253906 739.738281 L 176.253906 720.546875 L 195.675781 720.546875 L 195.675781 701.351562 L 215.035156 701.351562 L 215.035156 682.160156 L 234.378906 682.160156 L 234.378906 662.96875 L 273.078125 662.96875 L 273.078125 640.441406 L 253.652344 640.441406 L 253.652344 621.25 L 234.292969 621.25 L 234.292969 602.058594 L 195.675781 602.058594 L 195.675781 582.867188 L 176.253906 582.867188 L 176.253906 563.671875 L 156.894531 563.671875 L 156.894531 544.480469 L 137.550781 544.480469 L 137.550781 525.289062 L 98.882812 525.289062 L 98.882812 506.097656 L 79.492188 506.097656 L 79.492188 486.90625 L 60.152344 486.90625 L 60.152344 467.714844 L 37.453125 467.714844 L 37.453125 835.695312 Z M 774.449219 467.714844 L 753.421875 467.714844 L 753.421875 486.90625 L 734.078125 486.90625 L 734.078125 506.097656 L 714.6875 506.097656 L 714.6875 525.289062 L 676.019531 525.289062 L 676.019531 544.480469 L 656.679688 544.480469 L 656.679688 563.671875 L 637.320312 563.671875 L 637.320312 582.867188 L 617.976562 582.867188 L 617.976562 602.058594 L 579.277344 602.058594 L 579.277344 621.25 L 559.917969 621.25 L 559.917969 640.441406 L 540.578125 640.441406 L 540.578125 662.96875 L 559.917969 662.96875 L 559.917969 682.160156 L 598.621094 682.160156 L 598.621094 701.351562 L 617.976562 701.351562 L 617.976562 720.546875 L 637.320312 720.546875 L 637.320312 739.738281 L 656.679688 739.738281 L 656.679688 758.929688 L 676.019531 758.929688 L 676.019531 778.121094 L 695.378906 778.121094 L 695.378906 797.3125 L 714.6875 797.3125 L 714.6875 816.503906 L 734.046875 816.503906 L 734.046875 835.695312 L 753.386719 835.695312 L 753.386719 854.886719 L 776.085938 854.886719 L 776.085938 467.714844 Z M 774.449219 467.714844 " fill-opacity="1" fill-rule="nonzero"/><path fill="#ffffff" d="M 445.488281 448.523438 L 447.15625 448.523438 L 447.15625 490.246094 L 427.8125 490.246094 L 427.8125 509.4375 L 385.757812 509.4375 L 385.757812 490.246094 L 366.417969 490.246094 L 366.417969 448.523438 L 385.757812 448.523438 L 385.757812 429.332031 L 427.8125 429.332031 L 427.8125 448.523438 Z M 660.015625 275.796875 L 660.015625 528.628906 L 621.316406 528.628906 L 621.316406 547.820312 L 601.957031 547.820312 L 601.957031 567.011719 L 582.617188 567.011719 L 582.617188 586.203125 L 563.257812 586.203125 L 563.257812 605.394531 L 524.554688 605.394531 L 524.554688 624.585938 L 505.214844 624.585938 L 505.214844 643.777344 L 485.855469 643.777344 L 485.855469 662.96875 L 466.515625 662.96875 L 466.515625 682.160156 L 427.8125 682.160156 L 427.8125 701.351562 L 366.417969 701.351562 L 366.417969 682.160156 L 347.058594 682.160156 L 347.058594 662.96875 L 327.714844 662.96875 L 327.714844 643.777344 L 308.359375 643.777344 L 308.359375 624.585938 L 269.65625 624.585938 L 269.65625 605.394531 L 250.316406 605.394531 L 250.316406 586.203125 L 230.957031 586.203125 L 230.957031 567.011719 L 211.613281 567.011719 L 211.613281 547.820312 L 172.914062 547.820312 L 172.914062 528.628906 L 153.554688 528.628906 L 153.554688 275.796875 Z M 311.695312 563.671875 L 311.695312 582.867188 L 350.394531 582.867188 L 350.394531 602.058594 L 463.175781 602.058594 L 463.175781 567.011719 L 347.058594 567.011719 L 347.058594 547.820312 L 327.714844 547.820312 L 327.714844 528.628906 L 308.359375 528.628906 L 308.359375 410.140625 L 327.714844 410.140625 L 327.714844 390.949219 L 366.417969 390.949219 L 366.417969 371.757812 L 466.546875 371.757812 L 466.546875 390.949219 L 485.890625 390.949219 L 485.890625 410.140625 L 505.246094 410.140625 L 505.246094 509.4375 L 482.550781 509.4375 L 482.550781 413.476562 L 369.753906 413.476562 L 369.753906 432.667969 L 350.394531 432.667969 L 350.394531 471.054688 L 331.054688 471.054688 L 331.054688 486.90625 L 350.394531 486.90625 L 350.394531 525.289062 L 369.753906 525.289062 L 369.753906 544.480469 L 424.476562 544.480469 L 424.476562 525.289062 L 466.515625 525.289062 L 466.515625 544.480469 L 521.21875 544.480469 L 521.21875 525.289062 L 540.578125 525.289062 L 540.578125 413.476562 L 521.21875 413.476562 L 521.21875 375.09375 L 501.875 375.09375 L 501.875 355.902344 L 463.175781 355.902344 L 463.175781 336.710938 L 350.394531 336.710938 L 350.394531 355.902344 L 331.054688 355.902344 L 331.054688 375.09375 L 311.695312 375.09375 L 311.695312 394.285156 L 292.355469 394.285156 L 292.355469 413.476562 L 272.996094 413.476562 L 272.996094 525.289062 L 292.355469 525.289062 L 292.355469 563.671875 Z M 311.695312 563.671875 " fill-opacity="1" fill-rule="nonzero"/><path fill="#fbf5de" d="M 756.757812 410.140625 L 756.757812 451.859375 L 718.023438 451.859375 L 718.023438 471.054688 L 695.378906 471.054688 L 695.378906 371.757812 L 718.023438 371.757812 L 718.023438 390.949219 L 737.382812 390.949219 L 737.382812 410.140625 Z M 97.214844 371.757812 L 95.546875 371.757812 L 95.546875 390.949219 L 76.15625 390.949219 L 76.15625 410.140625 L 56.8125 410.140625 L 56.8125 451.859375 L 95.546875 451.859375 L 95.546875 471.054688 L 118.191406 471.054688 L 118.191406 371.757812 Z M 505.246094 218.222656 L 505.246094 199.03125 L 485.890625 199.03125 L 485.890625 179.839844 L 466.515625 179.839844 L 466.515625 160.648438 L 427.8125 160.648438 L 427.8125 141.457031 L 366.417969 141.457031 L 366.417969 160.648438 L 347.058594 160.648438 L 347.058594 179.839844 L 327.714844 179.839844 L 327.714844 199.03125 L 308.359375 199.03125 L 308.359375 218.222656 L 289.015625 218.222656 L 289.015625 240.753906 L 524.554688 240.753906 L 524.554688 218.222656 L 505.214844 218.222656 Z M 505.246094 218.222656 " fill-opacity="1" fill-rule="nonzero"/><g clip-path="url(#9a7e71f72c)"><path fill="#000000" d="M 290.683594 546.152344 L 290.683594 565.34375 L 310.027344 565.34375 L 310.027344 584.535156 L 348.726562 584.535156 L 348.726562 603.726562 L 464.84375 603.726562 L 464.84375 565.34375 L 348.726562 565.34375 L 348.726562 546.152344 L 329.386719 546.152344 L 329.386719 526.960938 L 310.027344 526.960938 L 310.027344 411.808594 L 329.386719 411.808594 L 329.386719 392.617188 L 368.085938 392.617188 L 368.085938 373.425781 L 464.878906 373.425781 L 464.878906 392.617188 L 484.21875 392.617188 L 484.21875 411.808594 L 503.578125 411.808594 L 503.578125 507.765625 L 484.21875 507.765625 L 484.21875 411.808594 L 368.085938 411.808594 L 368.085938 431 L 348.726562 431 L 348.726562 469.382812 L 329.386719 469.382812 L 329.386719 488.574219 L 348.726562 488.574219 L 348.726562 526.960938 L 368.085938 526.960938 L 368.085938 546.152344 L 426.144531 546.152344 L 426.144531 526.960938 L 464.84375 526.960938 L 464.84375 546.152344 L 522.886719 546.152344 L 522.886719 526.960938 L 542.246094 526.960938 L 542.246094 411.808594 L 522.886719 411.808594 L 522.886719 373.425781 L 503.546875 373.425781 L 503.546875 354.234375 L 464.84375 354.234375 L 464.84375 335.042969 L 348.726562 335.042969 L 348.726562 354.234375 L 329.386719 354.234375 L 329.386719 373.425781 L 310.027344 373.425781 L 310.027344 392.617188 L 290.683594 392.617188 L 290.683594 411.808594 L 271.328125 411.808594 L 271.328125 526.960938 L 290.683594 526.960938 Z M 406.785156 507.765625 L 387.425781 507.765625 L 387.425781 488.574219 L 368.085938 488.574219 L 368.085938 450.191406 L 387.425781 450.191406 L 387.425781 431 L 426.144531 431 L 426.144531 450.191406 L 445.488281 450.191406 L 445.488281 488.574219 L 426.144531 488.574219 L 426.144531 507.765625 Z M 793.789062 411.808594 L 793.789062 392.617188 L 774.449219 392.617188 L 774.449219 373.425781 L 755.089844 373.425781 L 755.089844 354.234375 L 716.355469 354.234375 L 716.355469 335.042969 L 697.046875 335.042969 L 697.046875 258.277344 L 677.6875 258.277344 L 677.6875 239.082031 L 638.988281 239.082031 L 638.988281 258.277344 L 619.648438 258.277344 L 619.648438 239.082031 L 580.945312 239.082031 L 580.945312 219.890625 L 561.589844 219.890625 L 561.589844 200.699219 L 542.246094 200.699219 L 542.246094 181.507812 L 522.886719 181.507812 L 522.886719 162.316406 L 484.1875 162.316406 L 484.1875 143.125 L 464.84375 143.125 L 464.84375 123.933594 L 445.488281 123.933594 L 445.488281 104.742188 L 368.085938 104.742188 L 368.085938 123.933594 L 348.726562 123.933594 L 348.726562 143.125 L 329.386719 143.125 L 329.386719 162.316406 L 290.683594 162.316406 L 290.683594 181.507812 L 271.328125 181.507812 L 271.328125 200.699219 L 251.984375 200.699219 L 251.984375 219.890625 L 232.625 219.890625 L 232.625 239.082031 L 155.226562 239.082031 L 155.226562 258.277344 L 116.523438 258.277344 L 116.523438 335.042969 L 97.214844 335.042969 L 97.214844 354.234375 L 58.480469 354.234375 L 58.480469 373.425781 L 39.125 373.425781 L 39.125 392.617188 L 19.78125 392.617188 L 19.78125 411.808594 L 0.421875 411.808594 L 0.421875 891.601562 L 19.78125 891.601562 L 19.78125 910.792969 L 774.449219 910.792969 L 774.449219 891.601562 L 793.789062 891.601562 L 793.789062 872.410156 L 813.148438 872.410156 L 813.148438 411.808594 Z M 774.449219 488.574219 L 774.449219 853.21875 L 755.089844 853.21875 L 755.089844 834.027344 L 735.75 834.027344 L 735.75 814.835938 L 716.355469 814.835938 L 716.355469 795.644531 L 697.046875 795.644531 L 697.046875 776.453125 L 677.6875 776.453125 L 677.6875 757.257812 L 658.347656 757.257812 L 658.347656 738.066406 L 638.988281 738.066406 L 638.988281 718.875 L 619.648438 718.875 L 619.648438 699.683594 L 600.289062 699.683594 L 600.289062 680.492188 L 561.589844 680.492188 L 561.589844 661.300781 L 542.246094 661.300781 L 542.246094 642.109375 L 561.589844 642.109375 L 561.589844 622.917969 L 580.945312 622.917969 L 580.945312 603.726562 L 619.648438 603.726562 L 619.648438 584.535156 L 638.988281 584.535156 L 638.988281 565.34375 L 658.347656 565.34375 L 658.347656 546.152344 L 677.691406 546.152344 L 677.691406 526.960938 L 716.355469 526.960938 L 716.355469 507.765625 L 735.714844 507.765625 L 735.714844 488.574219 L 755.058594 488.574219 L 755.058594 469.382812 L 774.414062 469.382812 Z M 39.125 814.835938 L 39.125 469.382812 L 58.480469 469.382812 L 58.480469 488.574219 L 77.824219 488.574219 L 77.824219 507.765625 L 97.214844 507.765625 L 97.214844 526.960938 L 135.882812 526.960938 L 135.882812 546.152344 L 155.226562 546.152344 L 155.226562 565.34375 L 174.582031 565.34375 L 174.582031 584.535156 L 194.007812 584.535156 L 194.007812 603.726562 L 232.710938 603.726562 L 232.710938 622.917969 L 252.066406 622.917969 L 252.066406 642.109375 L 271.410156 642.109375 L 271.410156 661.300781 L 232.625 661.300781 L 232.625 680.492188 L 213.285156 680.492188 L 213.285156 699.683594 L 194.007812 699.683594 L 194.007812 718.875 L 174.582031 718.875 L 174.582031 738.066406 L 155.226562 738.066406 L 155.226562 757.257812 L 135.882812 757.257812 L 135.882812 776.453125 L 116.523438 776.453125 L 116.523438 795.644531 L 97.214844 795.644531 L 97.214844 814.835938 L 77.824219 814.835938 L 77.824219 834.027344 L 39.125 834.027344 Z M 77.824219 853.21875 L 97.214844 853.21875 L 97.214844 834.027344 L 116.523438 834.027344 L 116.523438 814.835938 L 135.882812 814.835938 L 135.882812 795.644531 L 155.226562 795.644531 L 155.226562 776.453125 L 194.007812 776.453125 L 194.007812 757.257812 L 213.367188 757.257812 L 213.367188 738.066406 L 232.710938 738.066406 L 232.710938 718.875 L 252.066406 718.875 L 252.066406 699.683594 L 271.410156 699.683594 L 271.410156 680.492188 L 310.109375 680.492188 L 310.109375 699.683594 L 348.8125 699.683594 L 348.8125 718.875 L 368.167969 718.875 L 368.167969 738.066406 L 426.144531 738.066406 L 426.144531 718.875 L 464.84375 718.875 L 464.84375 699.683594 L 484.1875 699.683594 L 484.1875 680.492188 L 542.246094 680.492188 L 542.246094 699.683594 L 561.589844 699.683594 L 561.589844 718.875 L 580.945312 718.875 L 580.945312 738.066406 L 600.289062 738.066406 L 600.289062 757.257812 L 619.648438 757.257812 L 619.648438 776.453125 L 638.988281 776.453125 L 638.988281 795.644531 L 677.691406 795.644531 L 677.691406 814.835938 L 697.046875 814.835938 L 697.046875 834.027344 L 716.355469 834.027344 L 716.355469 853.21875 L 735.714844 853.21875 L 735.714844 872.410156 L 77.824219 872.410156 Z M 735.75 392.617188 L 735.75 411.808594 L 755.089844 411.808594 L 755.089844 450.191406 L 716.355469 450.191406 L 716.355469 469.382812 L 697.046875 469.382812 L 697.046875 373.425781 L 716.355469 373.425781 L 716.355469 392.617188 Z M 348.726562 181.507812 L 348.726562 162.316406 L 368.085938 162.316406 L 368.085938 143.125 L 426.144531 143.125 L 426.144531 162.316406 L 464.84375 162.316406 L 464.84375 181.507812 L 484.1875 181.507812 L 484.1875 200.699219 L 503.546875 200.699219 L 503.546875 219.890625 L 522.886719 219.890625 L 522.886719 239.082031 L 290.683594 239.082031 L 290.683594 219.890625 L 310.027344 219.890625 L 310.027344 200.699219 L 329.386719 200.699219 L 329.386719 181.507812 Z M 174.582031 277.46875 L 658.347656 277.46875 L 658.347656 526.960938 L 619.648438 526.960938 L 619.648438 546.152344 L 600.289062 546.152344 L 600.289062 565.34375 L 580.945312 565.34375 L 580.945312 584.535156 L 561.589844 584.535156 L 561.589844 603.726562 L 522.886719 603.726562 L 522.886719 622.917969 L 503.546875 622.917969 L 503.546875 642.109375 L 484.1875 642.109375 L 484.1875 661.300781 L 464.84375 661.300781 L 464.84375 680.492188 L 426.144531 680.492188 L 426.144531 699.683594 L 368.085938 699.683594 L 368.085938 680.492188 L 348.726562 680.492188 L 348.726562 661.300781 L 329.386719 661.300781 L 329.386719 642.109375 L 310.027344 642.109375 L 310.027344 622.917969 L 271.328125 622.917969 L 271.328125 603.726562 L 251.984375 603.726562 L 251.984375 584.535156 L 232.625 584.535156 L 232.625 565.34375 L 213.285156 565.34375 L 213.285156 546.152344 L 174.582031 546.152344 L 174.582031 526.960938 L 155.226562 526.960938 L 155.226562 277.46875 Z M 116.523438 373.425781 L 116.523438 469.382812 L 97.214844 469.382812 L 97.214844 450.191406 L 58.480469 450.191406 L 58.480469 411.808594 L 77.824219 411.808594 L 77.824219 392.617188 L 97.214844 392.617188 L 97.214844 373.425781 Z M 116.523438 373.425781 " fill-opacity="1" fill-rule="nonzero"/></g><g fill="#ffffff" fill-opacity="1"><g transform="translate(616.024335, 789.004056)"><g><path d="M 3.9375 0.140625 C 3.382812 0.140625 2.945312 -0.015625 2.625 -0.328125 C 2.300781 -0.640625 2.140625 -1.050781 2.140625 -1.5625 C 2.140625 -2.070312 2.300781 -2.488281 2.625 -2.8125 C 2.945312 -3.144531 3.382812 -3.3125 3.9375 -3.3125 C 4.5 -3.3125 4.941406 -3.15625 5.265625 -2.84375 C 5.585938 -2.53125 5.75 -2.113281 5.75 -1.59375 C 5.75 -1.070312 5.582031 -0.648438 5.25 -0.328125 C 4.925781 -0.015625 4.488281 0.140625 3.9375 0.140625 Z M 3.9375 0.140625 "/></g></g></g><g fill="#000000" fill-opacity="1"><g transform="translate(705.26117, 904.053489)"><g><path d="M 3.9375 0.140625 C 3.382812 0.140625 2.945312 -0.015625 2.625 -0.328125 C 2.300781 -0.640625 2.140625 -1.050781 2.140625 -1.5625 C 2.140625 -2.070312 2.300781 -2.488281 2.625 -2.8125 C 2.945312 -3.144531 3.382812 -3.3125 3.9375 -3.3125 C 4.5 -3.3125 4.941406 -3.15625 5.265625 -2.84375 C 5.585938 -2.53125 5.75 -2.113281 5.75 -1.59375 C 5.75 -1.070312 5.582031 -0.648438 5.25 -0.328125 C 4.925781 -0.015625 4.488281 0.140625 3.9375 0.140625 Z M 3.9375 0.140625 "/></g></g></g></svg>