<svg xmlns="http://www.w3.org/2000/svg" xmlns:xlink="http://www.w3.org/1999/xlink" width="1080" zoomAndPan="magnify" viewBox="0 0 810 1012.49997" height="1350" preserveAspectRatio="xMidYMid meet" version="1.0"><defs><g/><clipPath id="2db0fe3ed0"><path d="M 386 760 L 445 760 L 445 1012 L 386 1012 Z M 386 760 " clip-rule="nonzero"/></clipPath></defs><path fill="#599636" d="M 403.316406 2.75 L 430.3125 53.476562 C 436.382812 62.839844 442.957031 71.125 450.703125 78.839844 C 473.304688 101.453125 494.769531 125.140625 514.054688 150.503906 C 559.796875 210.589844 590.648438 277.320312 612.683594 349.488281 C 625.894531 393.574219 633.070312 438.796875 633.609375 484.527344 C 635.820312 621.242188 588.972656 738.632812 494.515625 836.195312 C 479.089844 851.628906 462.589844 865.925781 444.886719 878.636719 C 435.53125 878.636719 431.105469 871.457031 427.246094 864.847656 C 420.070312 852.738281 415.675781 838.917969 413.464844 825.160156 C 410.144531 808.621094 407.964844 792.078125 409.039062 775.003906 L 409.039062 767.285156 C 408.28125 765.640625 400.03125 6.640625 403.316406 2.75 Z M 403.316406 2.75 " fill-opacity="1" fill-rule="nonzero"/><path fill="#6cac48" d="M 403.316406 1.074219 C 402.210938 -1.136719 401.105469 0.539062 399.996094 1.613281 C 400.535156 12.679688 396.679688 22.546875 390.640625 31.972656 C 384.003906 41.332031 375.214844 48.511719 366.394531 56.230469 C 317.394531 98.671875 278.832031 149.933594 247.945312 207.269531 C 206.851562 284.433594 185.671875 367.132812 179.664062 454.199219 C 176.914062 485.601562 189.589844 596.414062 199.484375 628.390625 C 226.480469 713.269531 274.972656 784.394531 337.785156 846.128906 C 353.210938 860.992188 369.714844 874.777344 386.785156 888.03125 C 391.746094 888.03125 392.285156 883.601562 393.421875 880.3125 C 395.601562 873.265625 397.253906 866.097656 398.386719 858.808594 L 409.449219 776.140625 Z M 403.316406 1.074219 " fill-opacity="1" fill-rule="nonzero"/><g clip-path="url(#2db0fe3ed0)"><path fill="#c2bfbf" d="M 430.3125 912.222656 C 431.421875 899.574219 437.488281 889.074219 444.097656 878.605469 C 437.457031 875.855469 432.527344 870.382812 428.667969 864.28125 C 425.351562 858.777344 422.601562 852.167969 420.449219 846.09375 C 412.738281 822.945312 411.09375 798.65625 408.882812 775.003906 L 408.882812 760.675781 C 406.128906 762.890625 405.5625 781.613281 405.5625 784.394531 C 403.949219 809.425781 400.640625 834.230469 395.636719 858.808594 C 393.992188 868.738281 392.886719 878.636719 386.785156 887.460938 C 386.785156 888.566406 386.785156 889.675781 387.320312 891.320312 C 397.246094 920.539062 399.964844 950.300781 401.640625 980.628906 L 401.640625 991.695312 C 401.640625 1004.917969 401.105469 1002.132812 412.074219 1006.5625 C 416.5 1008.207031 421.429688 1008.773438 425.855469 1012.0625 C 429.175781 1012.0625 429.714844 1009.3125 429.714844 1007.097656 L 428.070312 988.914062 L 428.070312 938.1875 C 427.53125 929.332031 429.175781 920.539062 430.28125 912.253906 Z M 430.3125 912.222656 " fill-opacity="1" fill-rule="nonzero"/></g><g fill="#000000" fill-opacity="1"><g transform="translate(443.639523, 634.871806)"><g><path d="M 3.9375 0.140625 C 3.382812 0.140625 2.945312 -0.015625 2.625 -0.328125 C 2.300781 -0.640625 2.140625 -1.050781 2.140625 -1.5625 C 2.140625 -2.070312 2.300781 -2.488281 2.625 -2.8125 C 2.945312 -3.144531 3.382812 -3.3125 3.9375 -3.3125 C 4.5 -3.3125 4.941406 -3.15625 5.265625 -2.84375 C 5.585938 -2.53125 5.75 -2.113281 5.75 -1.59375 C 5.75 -1.070312 5.582031 -0.648438 5.25 -0.328125 C 4.925781 -0.015625 4.488281 0.140625 3.9375 0.140625 Z M 3.9375 0.140625 "/></g></g></g><g fill="#ffffff" fill-opacity="1"><g transform="translate(658.125413, 704.96629)"><g><path d="M 45.609375 1.703125 C 39.160156 1.703125 34.070312 -0.101562 30.34375 -3.71875 C 26.613281 -7.34375 24.75 -12.148438 24.75 -18.140625 C 24.75 -24.015625 26.613281 -28.84375 30.34375 -32.625 C 34.070312 -36.414062 39.160156 -38.3125 45.609375 -38.3125 C 52.160156 -38.3125 57.300781 -36.503906 61.03125 -32.890625 C 64.757812 -29.273438 66.625 -24.472656 66.625 -18.484375 C 66.625 -12.492188 64.726562 -7.628906 60.9375 -3.890625 C 57.15625 -0.160156 52.046875 1.703125 45.609375 1.703125 Z M 45.609375 1.703125 "/></g></g></g></svg>