<svg xmlns="http://www.w3.org/2000/svg" xmlns:xlink="http://www.w3.org/1999/xlink" width="1080" zoomAndPan="magnify" viewBox="0 0 810 1012.49997" height="1350" preserveAspectRatio="xMidYMid meet" version="1.0"><defs><clipPath id="f426b12c87"><path d="M 0.398438 404 L 202 404 L 202 605.890625 L 0.398438 605.890625 Z M 0.398438 404 " clip-rule="nonzero"/></clipPath><clipPath id="1d1e8821e5"><path d="M 608 404 L 809.601562 404 L 809.601562 605.890625 L 608 605.890625 Z M 608 404 " clip-rule="nonzero"/></clipPath></defs><g clip-path="url(#f426b12c87)"><path fill="#ff5f56" d="M 201.722656 504.933594 C 201.722656 506.582031 201.679688 508.226562 201.601562 509.875 C 201.519531 511.519531 201.398438 513.160156 201.238281 514.800781 C 201.074219 516.441406 200.875 518.074219 200.632812 519.707031 C 200.390625 521.332031 200.109375 522.957031 199.785156 524.570312 C 199.464844 526.1875 199.105469 527.796875 198.703125 529.390625 C 198.304688 530.988281 197.863281 532.578125 197.386719 534.15625 C 196.90625 535.730469 196.390625 537.292969 195.835938 538.84375 C 195.285156 540.398438 194.691406 541.933594 194.058594 543.457031 C 193.429688 544.976562 192.761719 546.480469 192.054688 547.972656 C 191.351562 549.460938 190.609375 550.933594 189.832031 552.382812 C 189.058594 553.835938 188.246094 555.269531 187.402344 556.683594 C 186.554688 558.097656 185.671875 559.484375 184.757812 560.855469 C 183.839844 562.226562 182.890625 563.574219 181.910156 564.898438 C 180.929688 566.222656 179.914062 567.515625 178.875 568.789062 C 177.828125 570.066406 176.75 571.3125 175.644531 572.535156 C 174.539062 573.753906 173.402344 574.949219 172.234375 576.109375 C 171.074219 577.273438 169.882812 578.410156 168.660156 579.519531 C 167.4375 580.625 166.191406 581.703125 164.917969 582.746094 C 163.648438 583.789062 162.347656 584.800781 161.023438 585.785156 C 159.699219 586.765625 158.351562 587.714844 156.984375 588.628906 C 155.617188 589.546875 154.222656 590.425781 152.808594 591.269531 C 151.398438 592.117188 149.964844 592.929688 148.507812 593.707031 C 147.058594 594.484375 145.589844 595.226562 144.097656 595.929688 C 142.609375 596.632812 141.101562 597.300781 139.582031 597.933594 C 138.058594 598.5625 136.523438 599.152344 134.972656 599.707031 C 133.417969 600.261719 131.859375 600.78125 130.28125 601.257812 C 128.703125 601.738281 127.117188 602.175781 125.515625 602.578125 C 123.921875 602.976562 122.316406 603.339844 120.699219 603.660156 C 119.082031 603.980469 117.457031 604.261719 115.832031 604.503906 C 114.203125 604.746094 112.566406 604.949219 110.925781 605.109375 C 109.285156 605.273438 107.644531 605.394531 106 605.472656 C 104.355469 605.554688 102.707031 605.59375 101.058594 605.59375 C 99.414062 605.59375 97.765625 605.554688 96.121094 605.472656 C 94.472656 605.394531 92.832031 605.273438 91.195312 605.109375 C 89.554688 604.949219 87.917969 604.746094 86.289062 604.503906 C 84.664062 604.261719 83.039062 603.980469 81.421875 603.660156 C 79.804688 603.339844 78.199219 602.976562 76.605469 602.578125 C 75.003906 602.175781 73.417969 601.738281 71.839844 601.257812 C 70.261719 600.78125 68.703125 600.261719 67.148438 599.707031 C 65.597656 599.152344 64.0625 598.5625 62.539062 597.933594 C 61.015625 597.300781 59.511719 596.632812 58.023438 595.929688 C 56.53125 595.226562 55.0625 594.484375 53.609375 593.707031 C 52.15625 592.929688 50.722656 592.117188 49.308594 591.269531 C 47.898438 590.425781 46.503906 589.546875 45.132812 588.628906 C 43.769531 587.714844 42.421875 586.765625 41.097656 585.785156 C 39.773438 584.800781 38.472656 583.789062 37.203125 582.746094 C 35.929688 581.703125 34.683594 580.625 33.460938 579.519531 C 32.238281 578.410156 31.046875 577.273438 29.878906 576.109375 C 28.71875 574.949219 27.582031 573.753906 26.476562 572.535156 C 25.371094 571.3125 24.292969 570.066406 23.246094 568.789062 C 22.203125 567.515625 21.191406 566.222656 20.210938 564.898438 C 19.226562 563.574219 18.28125 562.226562 17.363281 560.855469 C 16.449219 559.484375 15.566406 558.097656 14.71875 556.683594 C 13.871094 555.269531 13.0625 553.835938 12.285156 552.382812 C 11.511719 550.933594 10.769531 549.460938 10.066406 547.972656 C 9.359375 546.480469 8.691406 544.976562 8.0625 543.457031 C 7.429688 541.933594 6.835938 540.398438 6.28125 538.84375 C 5.726562 537.292969 5.214844 535.730469 4.734375 534.15625 C 4.257812 532.578125 3.816406 530.988281 3.417969 529.390625 C 3.015625 527.796875 2.65625 526.1875 2.335938 524.570312 C 2.011719 522.957031 1.730469 521.332031 1.488281 519.707031 C 1.246094 518.074219 1.046875 516.441406 0.882812 514.800781 C 0.722656 513.160156 0.601562 511.519531 0.519531 509.875 C 0.441406 508.226562 0.398438 506.582031 0.398438 504.933594 C 0.398438 503.289062 0.441406 501.640625 0.519531 499.996094 C 0.601562 498.347656 0.722656 496.703125 0.882812 495.070312 C 1.046875 493.429688 1.246094 491.792969 1.488281 490.164062 C 1.730469 488.53125 2.011719 486.914062 2.335938 485.296875 C 2.65625 483.679688 3.015625 482.070312 3.417969 480.472656 C 3.816406 478.878906 4.257812 477.289062 4.734375 475.714844 C 5.214844 474.136719 5.726562 472.570312 6.28125 471.023438 C 6.835938 469.472656 7.429688 467.933594 8.0625 466.410156 C 8.691406 464.890625 9.359375 463.386719 10.066406 461.894531 C 10.769531 460.40625 11.511719 458.933594 12.285156 457.480469 C 13.0625 456.03125 13.871094 454.597656 14.71875 453.183594 C 15.566406 451.769531 16.449219 450.378906 17.363281 449.007812 C 18.28125 447.640625 19.226562 446.292969 20.210938 444.96875 C 21.191406 443.648438 22.203125 442.347656 23.246094 441.074219 C 24.292969 439.804688 25.371094 438.554688 26.476562 437.335938 C 27.582031 436.113281 28.71875 434.917969 29.878906 433.753906 C 31.046875 432.59375 32.238281 431.457031 33.460938 430.351562 C 34.683594 429.242188 35.929688 428.167969 37.203125 427.121094 C 38.472656 426.074219 39.773438 425.0625 41.097656 424.082031 C 42.421875 423.101562 43.769531 422.152344 45.132812 421.238281 C 46.503906 420.320312 47.898438 419.441406 49.308594 418.59375 C 50.722656 417.746094 52.15625 416.9375 53.609375 416.160156 C 55.0625 415.382812 56.53125 414.644531 58.023438 413.9375 C 59.511719 413.234375 61.015625 412.566406 62.539062 411.933594 C 64.0625 411.304688 65.597656 410.710938 67.148438 410.15625 C 68.703125 409.601562 70.261719 409.085938 71.839844 408.609375 C 73.417969 408.132812 75.003906 407.691406 76.605469 407.289062 C 78.199219 406.890625 79.804688 406.53125 81.421875 406.207031 C 83.039062 405.886719 84.664062 405.605469 86.289062 405.363281 C 87.917969 405.121094 89.554688 404.917969 91.195312 404.757812 C 92.832031 404.597656 94.472656 404.476562 96.121094 404.394531 C 97.765625 404.3125 99.414062 404.273438 101.058594 404.273438 C 102.707031 404.273438 104.355469 404.3125 106 404.394531 C 107.644531 404.476562 109.285156 404.597656 110.925781 404.757812 C 112.566406 404.917969 114.203125 405.121094 115.832031 405.363281 C 117.457031 405.605469 119.082031 405.886719 120.699219 406.207031 C 122.316406 406.53125 123.921875 406.890625 125.515625 407.289062 C 127.117188 407.691406 128.703125 408.132812 130.28125 408.609375 C 131.859375 409.085938 133.417969 409.601562 134.972656 410.15625 C 136.523438 410.710938 138.058594 411.304688 139.582031 411.933594 C 141.101562 412.566406 142.609375 413.234375 144.097656 413.9375 C 145.589844 414.644531 147.058594 415.382812 148.507812 416.160156 C 149.964844 416.9375 151.398438 417.746094 152.808594 418.59375 C 154.222656 419.441406 155.617188 420.320312 156.984375 421.238281 C 158.351562 422.152344 159.699219 423.101562 161.023438 424.082031 C 162.347656 425.0625 163.648438 426.074219 164.917969 427.121094 C 166.191406 428.167969 167.4375 429.242188 168.660156 430.351562 C 169.882812 431.457031 171.074219 432.59375 172.234375 433.753906 C 173.402344 434.917969 174.539062 436.113281 175.644531 437.335938 C 176.75 438.554688 177.828125 439.804688 178.875 441.074219 C 179.914062 442.347656 180.929688 443.648438 181.910156 444.96875 C 182.890625 446.292969 183.839844 447.640625 184.757812 449.007812 C 185.671875 450.378906 186.554688 451.769531 187.402344 453.183594 C 188.246094 454.597656 189.058594 456.03125 189.832031 457.480469 C 190.609375 458.933594 191.351562 460.40625 192.054688 461.894531 C 192.761719 463.386719 193.429688 464.890625 194.058594 466.410156 C 194.691406 467.933594 195.28125 469.472656 195.835938 471.023438 C 196.390625 472.570312 196.90625 474.136719 197.386719 475.714844 C 197.863281 477.289062 198.304688 478.878906 198.703125 480.472656 C 199.105469 482.070312 199.464844 483.679688 199.785156 485.296875 C 200.109375 486.914062 200.390625 488.53125 200.632812 490.164062 C 200.875 491.792969 201.074219 493.429688 201.238281 495.070312 C 201.398438 496.703125 201.519531 498.347656 201.601562 499.996094 C 201.679688 501.640625 201.722656 503.289062 201.722656 504.933594 Z M 201.722656 504.933594 " fill-opacity="1" fill-rule="nonzero"/></g><path fill="#ffbd2e" d="M 514.746094 504.925781 C 514.746094 506.574219 514.707031 508.222656 514.625 509.867188 C 514.546875 511.515625 514.425781 513.152344 514.261719 514.792969 C 514.101562 516.433594 513.898438 518.070312 513.65625 519.699219 C 513.414062 521.328125 513.132812 522.949219 512.8125 524.566406 C 512.492188 526.183594 512.128906 527.789062 511.734375 529.386719 C 511.332031 530.984375 510.894531 532.574219 510.414062 534.148438 C 509.9375 535.726562 509.417969 537.289062 508.863281 538.839844 C 508.308594 540.390625 507.714844 541.929688 507.085938 543.449219 C 506.453125 544.96875 505.785156 546.476562 505.082031 547.964844 C 504.378906 549.457031 503.640625 550.929688 502.863281 552.378906 C 502.085938 553.832031 501.273438 555.265625 500.425781 556.679688 C 499.578125 558.09375 498.699219 559.480469 497.78125 560.851562 C 496.867188 562.222656 495.921875 563.570312 494.941406 564.890625 C 493.957031 566.214844 492.945312 567.511719 491.898438 568.785156 C 490.855469 570.058594 489.777344 571.308594 488.671875 572.527344 C 487.566406 573.75 486.429688 574.941406 485.265625 576.105469 C 484.101562 577.269531 482.90625 578.40625 481.6875 579.511719 C 480.464844 580.621094 479.222656 581.695312 477.945312 582.742188 C 476.671875 583.78125 475.375 584.796875 474.050781 585.777344 C 472.726562 586.761719 471.382812 587.710938 470.011719 588.625 C 468.640625 589.539062 467.25 590.421875 465.835938 591.265625 C 464.421875 592.113281 462.992188 592.925781 461.539062 593.703125 C 460.085938 594.480469 458.613281 595.21875 457.125 595.925781 C 455.636719 596.628906 454.132812 597.296875 452.609375 597.925781 C 451.085938 598.558594 449.546875 599.148438 448 599.703125 C 446.449219 600.257812 444.882812 600.773438 443.308594 601.253906 C 441.730469 601.730469 440.144531 602.171875 438.546875 602.570312 C 436.949219 602.972656 435.339844 603.332031 433.722656 603.65625 C 432.113281 603.976562 430.488281 604.257812 428.859375 604.5 C 427.226562 604.742188 425.59375 604.945312 423.957031 605.105469 C 422.316406 605.265625 420.671875 605.386719 419.027344 605.46875 C 417.378906 605.550781 415.738281 605.589844 414.089844 605.589844 C 412.441406 605.589844 410.792969 605.550781 409.148438 605.46875 C 407.503906 605.386719 405.859375 605.265625 404.222656 605.105469 C 402.582031 604.945312 400.949219 604.742188 399.320312 604.5 C 397.6875 604.257812 396.066406 603.976562 394.449219 603.65625 C 392.835938 603.332031 391.226562 602.972656 389.628906 602.570312 C 388.03125 602.171875 386.441406 601.730469 384.871094 601.253906 C 383.292969 600.773438 381.726562 600.257812 380.175781 599.703125 C 378.625 599.148438 377.089844 598.558594 375.566406 597.925781 C 374.046875 597.296875 372.539062 596.628906 371.046875 595.925781 C 369.558594 595.21875 368.089844 594.480469 366.636719 593.703125 C 365.183594 592.925781 363.75 592.113281 362.335938 591.265625 C 360.925781 590.421875 359.535156 589.539062 358.164062 588.625 C 356.792969 587.710938 355.445312 586.761719 354.121094 585.777344 C 352.804688 584.796875 351.503906 583.78125 350.230469 582.742188 C 348.957031 581.695312 347.707031 580.621094 346.488281 579.511719 C 345.269531 578.40625 344.074219 577.269531 342.910156 576.105469 C 341.746094 574.941406 340.609375 573.75 339.503906 572.527344 C 338.394531 571.308594 337.324219 570.058594 336.277344 568.785156 C 335.230469 567.511719 334.21875 566.214844 333.234375 564.890625 C 332.253906 563.570312 331.304688 562.222656 330.390625 560.851562 C 329.476562 559.480469 328.597656 558.09375 327.75 556.679688 C 326.902344 555.265625 326.089844 553.832031 325.3125 552.378906 C 324.535156 550.929688 323.796875 549.457031 323.089844 547.964844 C 322.386719 546.476562 321.722656 544.96875 321.089844 543.449219 C 320.460938 541.929688 319.867188 540.390625 319.3125 538.839844 C 318.757812 537.289062 318.238281 535.726562 317.761719 534.148438 C 317.28125 532.574219 316.84375 530.984375 316.441406 529.386719 C 316.042969 527.789062 315.683594 526.183594 315.359375 524.566406 C 315.039062 522.949219 314.757812 521.328125 314.515625 519.699219 C 314.273438 518.070312 314.070312 516.433594 313.914062 514.792969 C 313.753906 513.152344 313.632812 511.515625 313.550781 509.867188 C 313.46875 508.222656 313.429688 506.574219 313.429688 504.925781 C 313.429688 503.28125 313.46875 501.636719 313.550781 499.988281 C 313.632812 498.34375 313.753906 496.699219 313.914062 495.0625 C 314.070312 493.421875 314.273438 491.789062 314.515625 490.15625 C 314.757812 488.527344 315.039062 486.90625 315.359375 485.289062 C 315.683594 483.675781 316.042969 482.066406 316.441406 480.46875 C 316.84375 478.871094 317.28125 477.285156 317.761719 475.707031 C 318.238281 474.128906 318.757812 472.566406 319.3125 471.019531 C 319.867188 469.464844 320.460938 467.929688 321.089844 466.40625 C 321.722656 464.882812 322.386719 463.382812 323.089844 461.890625 C 323.796875 460.402344 324.535156 458.929688 325.3125 457.476562 C 326.089844 456.027344 326.902344 454.59375 327.75 453.179688 C 328.597656 451.765625 329.476562 450.371094 330.390625 449.003906 C 331.304688 447.636719 332.253906 446.289062 333.234375 444.964844 C 334.21875 443.640625 335.230469 442.34375 336.277344 441.066406 C 337.324219 439.796875 338.394531 438.550781 339.503906 437.328125 C 340.609375 436.109375 341.746094 434.914062 342.910156 433.75 C 344.074219 432.585938 345.269531 431.453125 346.488281 430.34375 C 347.707031 429.238281 348.957031 428.160156 350.230469 427.117188 C 351.503906 426.070312 352.804688 425.054688 354.121094 424.078125 C 355.445312 423.097656 356.792969 422.148438 358.164062 421.230469 C 359.535156 420.316406 360.925781 419.433594 362.335938 418.585938 C 363.75 417.742188 365.183594 416.933594 366.636719 416.15625 C 368.089844 415.378906 369.558594 414.636719 371.046875 413.933594 C 372.539062 413.226562 374.046875 412.558594 375.566406 411.929688 C 377.089844 411.296875 378.625 410.707031 380.175781 410.152344 C 381.726562 409.59375 383.292969 409.082031 384.871094 408.605469 C 386.441406 408.125 388.03125 407.6875 389.628906 407.285156 C 391.226562 406.886719 392.835938 406.523438 394.449219 406.203125 C 396.066406 405.882812 397.6875 405.597656 399.320312 405.355469 C 400.949219 405.117188 402.582031 404.914062 404.222656 404.753906 C 405.859375 404.589844 407.503906 404.46875 409.148438 404.386719 C 410.792969 404.308594 412.441406 404.265625 414.089844 404.265625 C 415.738281 404.265625 417.378906 404.308594 419.027344 404.386719 C 420.671875 404.46875 422.316406 404.589844 423.957031 404.753906 C 425.59375 404.914062 427.226562 405.117188 428.859375 405.355469 C 430.488281 405.597656 432.113281 405.882812 433.722656 406.203125 C 435.339844 406.523438 436.949219 406.886719 438.546875 407.285156 C 440.144531 407.6875 441.730469 408.125 443.308594 408.605469 C 444.882812 409.082031 446.449219 409.59375 448 410.152344 C 449.550781 410.707031 451.085938 411.296875 452.609375 411.929688 C 454.132812 412.558594 455.636719 413.226562 457.125 413.933594 C 458.613281 414.636719 460.085938 415.378906 461.539062 416.15625 C 462.992188 416.933594 464.421875 417.742188 465.835938 418.585938 C 467.25 419.433594 468.640625 420.316406 470.011719 421.230469 C 471.382812 422.148438 472.726562 423.097656 474.050781 424.078125 C 475.375 425.054688 476.671875 426.070312 477.945312 427.117188 C 479.222656 428.160156 480.464844 429.238281 481.6875 430.34375 C 482.90625 431.453125 484.101562 432.585938 485.265625 433.75 C 486.429688 434.914062 487.566406 436.109375 488.671875 437.328125 C 489.777344 438.550781 490.855469 439.796875 491.898438 441.066406 C 492.945312 442.34375 493.957031 443.640625 494.941406 444.964844 C 495.921875 446.289062 496.867188 447.636719 497.78125 449.003906 C 498.699219 450.371094 499.578125 451.765625 500.425781 453.179688 C 501.273438 454.59375 502.085938 456.027344 502.863281 457.476562 C 503.640625 458.929688 504.378906 460.402344 505.082031 461.890625 C 505.785156 463.382812 506.453125 464.882812 507.085938 466.40625 C 507.714844 467.929688 508.308594 469.464844 508.863281 471.019531 C 509.417969 472.566406 509.9375 474.128906 510.414062 475.707031 C 510.894531 477.285156 511.332031 478.871094 511.734375 480.46875 C 512.128906 482.066406 512.492188 483.675781 512.8125 485.289062 C 513.132812 486.90625 513.414062 488.527344 513.65625 490.15625 C 513.898438 491.789062 514.101562 493.421875 514.261719 495.0625 C 514.425781 496.699219 514.546875 498.34375 514.625 499.988281 C 514.707031 501.636719 514.746094 503.28125 514.746094 504.925781 Z M 514.746094 504.925781 " fill-opacity="1" fill-rule="nonzero"/><g clip-path="url(#1d1e8821e5)"><path fill="#27c93f" d="M 809.367188 504.925781 C 809.367188 506.574219 809.324219 508.222656 809.246094 509.867188 C 809.164062 511.515625 809.042969 513.152344 808.878906 514.792969 C 808.71875 516.433594 808.515625 518.070312 808.277344 519.699219 C 808.035156 521.328125 807.75 522.949219 807.429688 524.566406 C 807.109375 526.183594 806.746094 527.789062 806.347656 529.386719 C 805.945312 530.984375 805.507812 532.574219 805.027344 534.148438 C 804.550781 535.726562 804.039062 537.289062 803.480469 538.839844 C 802.925781 540.390625 802.332031 541.929688 801.703125 543.449219 C 801.074219 544.96875 800.40625 546.476562 799.699219 547.964844 C 798.996094 549.457031 798.253906 550.929688 797.476562 552.378906 C 796.699219 553.832031 795.890625 555.265625 795.042969 556.679688 C 794.199219 558.09375 793.316406 559.480469 792.402344 560.851562 C 791.484375 562.222656 790.535156 563.570312 789.554688 564.890625 C 788.578125 566.214844 787.5625 567.511719 786.515625 568.785156 C 785.472656 570.058594 784.394531 571.308594 783.289062 572.527344 C 782.179688 573.75 781.046875 574.941406 779.882812 576.105469 C 778.71875 577.269531 777.523438 578.40625 776.304688 579.511719 C 775.082031 580.621094 773.835938 581.695312 772.566406 582.742188 C 771.289062 583.78125 769.992188 584.796875 768.667969 585.777344 C 767.34375 586.761719 765.996094 587.710938 764.628906 588.625 C 763.261719 589.539062 761.867188 590.421875 760.453125 591.265625 C 759.039062 592.113281 757.605469 592.925781 756.15625 593.703125 C 754.703125 594.480469 753.230469 595.21875 751.742188 595.925781 C 750.25 596.628906 748.75 597.296875 747.226562 597.925781 C 745.703125 598.558594 744.167969 599.148438 742.613281 599.703125 C 741.066406 600.257812 739.503906 600.773438 737.925781 601.253906 C 736.347656 601.730469 734.761719 602.171875 733.164062 602.570312 C 731.566406 602.972656 729.957031 603.332031 728.34375 603.65625 C 726.726562 603.976562 725.105469 604.257812 723.476562 604.5 C 721.84375 604.742188 720.210938 604.945312 718.570312 605.105469 C 716.933594 605.265625 715.289062 605.386719 713.644531 605.46875 C 711.996094 605.550781 710.351562 605.589844 708.707031 605.589844 C 707.058594 605.589844 705.410156 605.550781 703.765625 605.46875 C 702.117188 605.386719 700.480469 605.265625 698.839844 605.105469 C 697.199219 604.945312 695.5625 604.742188 693.933594 604.5 C 692.304688 604.257812 690.683594 603.976562 689.066406 603.65625 C 687.449219 603.332031 685.847656 602.972656 684.246094 602.570312 C 682.648438 602.171875 681.058594 601.730469 679.484375 601.253906 C 677.910156 600.773438 676.34375 600.257812 674.792969 599.703125 C 673.242188 599.148438 671.703125 598.558594 670.179688 597.925781 C 668.664062 597.296875 667.15625 596.628906 665.667969 595.925781 C 664.175781 595.21875 662.703125 594.480469 661.253906 593.703125 C 659.800781 592.925781 658.367188 592.113281 656.953125 591.265625 C 655.539062 590.421875 654.152344 589.539062 652.78125 588.625 C 651.410156 587.710938 650.0625 586.761719 648.742188 585.777344 C 647.417969 584.796875 646.121094 583.78125 644.847656 582.742188 C 643.574219 581.695312 642.324219 580.621094 641.105469 579.511719 C 639.882812 578.40625 638.691406 577.269531 637.527344 576.105469 C 636.363281 574.941406 635.226562 573.75 634.121094 572.527344 C 633.011719 571.308594 631.9375 570.058594 630.890625 568.785156 C 629.847656 567.511719 628.835938 566.214844 627.855469 564.890625 C 626.871094 563.570312 625.921875 562.222656 625.007812 560.851562 C 624.09375 559.480469 623.210938 558.09375 622.367188 556.679688 C 621.519531 555.265625 620.707031 553.832031 619.929688 552.378906 C 619.152344 550.929688 618.414062 549.457031 617.707031 547.964844 C 617.003906 546.476562 616.335938 544.96875 615.703125 543.449219 C 615.074219 541.929688 614.484375 540.390625 613.929688 538.839844 C 613.375 537.289062 612.859375 535.726562 612.378906 534.148438 C 611.902344 532.574219 611.460938 530.984375 611.0625 529.386719 C 610.660156 527.789062 610.300781 526.183594 609.976562 524.566406 C 609.65625 522.949219 609.375 521.328125 609.132812 519.699219 C 608.890625 518.070312 608.6875 516.433594 608.527344 514.792969 C 608.367188 513.152344 608.246094 511.515625 608.164062 509.867188 C 608.082031 508.222656 608.042969 506.574219 608.042969 504.925781 C 608.042969 503.28125 608.082031 501.636719 608.164062 499.988281 C 608.246094 498.34375 608.367188 496.699219 608.527344 495.0625 C 608.6875 493.421875 608.890625 491.789062 609.132812 490.15625 C 609.375 488.527344 609.65625 486.90625 609.976562 485.289062 C 610.300781 483.675781 610.660156 482.066406 611.0625 480.46875 C 611.460938 478.871094 611.902344 477.285156 612.378906 475.707031 C 612.859375 474.128906 613.375 472.566406 613.929688 471.019531 C 614.484375 469.464844 615.074219 467.929688 615.703125 466.40625 C 616.335938 464.882812 617.003906 463.382812 617.707031 461.890625 C 618.414062 460.402344 619.152344 458.929688 619.929688 457.476562 C 620.707031 456.027344 621.519531 454.59375 622.367188 453.179688 C 623.210938 451.765625 624.09375 450.371094 625.007812 449.003906 C 625.921875 447.636719 626.871094 446.289062 627.855469 444.964844 C 628.835938 443.640625 629.851562 442.34375 630.890625 441.066406 C 631.9375 439.796875 633.011719 438.550781 634.121094 437.328125 C 635.226562 436.109375 636.363281 434.914062 637.527344 433.75 C 638.691406 432.585938 639.882812 431.453125 641.105469 430.34375 C 642.324219 429.238281 643.574219 428.160156 644.847656 427.117188 C 646.121094 426.070312 647.417969 425.054688 648.742188 424.078125 C 650.0625 423.097656 651.410156 422.148438 652.78125 421.230469 C 654.152344 420.316406 655.539062 419.433594 656.953125 418.585938 C 658.367188 417.742188 659.800781 416.933594 661.253906 416.15625 C 662.703125 415.378906 664.175781 414.636719 665.667969 413.933594 C 667.15625 413.226562 668.664062 412.558594 670.179688 411.929688 C 671.703125 411.296875 673.242188 410.707031 674.792969 410.152344 C 676.34375 409.59375 677.910156 409.082031 679.484375 408.605469 C 681.058594 408.125 682.648438 407.6875 684.246094 407.285156 C 685.847656 406.886719 687.449219 406.523438 689.066406 406.203125 C 690.683594 405.882812 692.304688 405.597656 693.933594 405.355469 C 695.5625 405.117188 697.199219 404.914062 698.839844 404.753906 C 700.480469 404.589844 702.117188 404.46875 703.765625 404.386719 C 705.410156 404.308594 707.058594 404.265625 708.707031 404.265625 C 710.351562 404.265625 711.996094 404.308594 713.644531 404.386719 C 715.289062 404.46875 716.933594 404.589844 718.570312 404.753906 C 720.210938 404.914062 721.84375 405.117188 723.476562 405.355469 C 725.105469 405.597656 726.726562 405.882812 728.34375 406.203125 C 729.957031 406.523438 731.566406 406.886719 733.164062 407.285156 C 734.761719 407.6875 736.347656 408.125 737.925781 408.605469 C 739.503906 409.082031 741.066406 409.59375 742.613281 410.152344 C 744.167969 410.707031 745.703125 411.296875 747.226562 411.929688 C 748.75 412.558594 750.25 413.226562 751.742188 413.933594 C 753.230469 414.636719 754.703125 415.378906 756.15625 416.15625 C 757.605469 416.933594 759.039062 417.742188 760.453125 418.585938 C 761.867188 419.433594 763.261719 420.316406 764.628906 421.230469 C 765.996094 422.148438 767.34375 423.097656 768.667969 424.078125 C 769.992188 425.054688 771.289062 426.070312 772.566406 427.117188 C 773.835938 428.160156 775.082031 429.238281 776.304688 430.34375 C 777.523438 431.453125 778.71875 432.585938 779.882812 433.75 C 781.046875 434.914062 782.179688 436.109375 783.289062 437.328125 C 784.394531 438.550781 785.472656 439.796875 786.515625 441.066406 C 787.5625 442.34375 788.578125 443.640625 789.554688 444.964844 C 790.535156 446.289062 791.484375 447.636719 792.402344 449.003906 C 793.316406 450.371094 794.199219 451.765625 795.042969 453.179688 C 795.890625 454.59375 796.699219 456.027344 797.476562 457.476562 C 798.253906 458.929688 798.996094 460.402344 799.699219 461.890625 C 800.40625 463.382812 801.074219 464.882812 801.703125 466.40625 C 802.332031 467.929688 802.925781 469.464844 803.480469 471.019531 C 804.039062 472.566406 804.550781 474.128906 805.027344 475.707031 C 805.507812 477.285156 805.945312 478.871094 806.347656 480.46875 C 806.746094 482.066406 807.109375 483.675781 807.429688 485.289062 C 807.75 486.90625 808.035156 488.527344 808.277344 490.15625 C 808.515625 491.789062 808.71875 493.421875 808.878906 495.0625 C 809.042969 496.699219 809.164062 498.34375 809.246094 499.988281 C 809.324219 501.636719 809.367188 503.28125 809.367188 504.925781 Z M 809.367188 504.925781 " fill-opacity="1" fill-rule="nonzero"/></g></svg>