<svg xmlns="http://www.w3.org/2000/svg" xmlns:xlink="http://www.w3.org/1999/xlink" width="1080" zoomAndPan="magnify" viewBox="0 0 810 1012.49997" height="1350" preserveAspectRatio="xMidYMid meet" version="1.0"><defs><g/><clipPath id="e191589c15"><path d="M 659 409.859375 L 809.800781 409.859375 L 809.800781 602.515625 L 659 602.515625 Z M 659 409.859375 " clip-rule="nonzero"/></clipPath><clipPath id="0c4c5ada85"><path d="M 437 409.859375 L 588 409.859375 L 588 602.515625 L 437 602.515625 Z M 437 409.859375 " clip-rule="nonzero"/></clipPath><clipPath id="9084a56357"><path d="M 215 409.859375 L 366 409.859375 L 366 602.515625 L 215 602.515625 Z M 215 409.859375 " clip-rule="nonzero"/></clipPath><clipPath id="e17cfdf105"><path d="M 0.199219 409.859375 L 151 409.859375 L 151 602.515625 L 0.199219 602.515625 Z M 0.199219 409.859375 " clip-rule="nonzero"/></clipPath></defs><g clip-path="url(#e191589c15)"><path fill="#ff0000" d="M 788.097656 452.683594 L 788.097656 431.273438 L 766.726562 431.273438 L 766.726562 409.859375 L 702.652344 409.859375 L 702.652344 431.273438 L 681.28125 431.273438 L 681.28125 452.683594 L 659.910156 452.683594 L 659.910156 602.515625 L 681.28125 602.515625 L 681.28125 581.101562 L 702.652344 581.101562 L 702.652344 602.515625 L 724.003906 602.515625 L 724.003906 581.101562 L 745.355469 581.101562 L 745.355469 602.515625 L 766.726562 602.515625 L 766.726562 581.101562 L 788.097656 581.101562 L 788.097656 602.515625 L 809.464844 602.515625 L 809.464844 452.683594 Z M 788.097656 452.683594 " fill-opacity="1" fill-rule="nonzero"/></g><path fill="#1d1d1b" d="M 681.28125 516.882812 L 702.652344 516.882812 L 702.652344 538.296875 L 681.28125 538.296875 Z M 681.28125 516.882812 " fill-opacity="1" fill-rule="nonzero"/><path fill="#1d1d1b" d="M 702.652344 538.296875 L 766.726562 538.296875 L 766.726562 559.691406 L 702.652344 559.691406 Z M 702.652344 538.296875 " fill-opacity="1" fill-rule="nonzero"/><path fill="#1d1d1b" d="M 766.726562 516.882812 L 788.097656 516.882812 L 788.097656 538.296875 L 766.726562 538.296875 Z M 766.726562 516.882812 " fill-opacity="1" fill-rule="nonzero"/><path fill="#ffffff" d="M 745.355469 452.683594 L 788.097656 452.683594 L 788.097656 495.492188 L 745.355469 495.492188 Z M 745.355469 452.683594 " fill-opacity="1" fill-rule="nonzero"/><path fill="#1d1d1b" d="M 766.726562 452.683594 L 788.097656 452.683594 L 788.097656 474.078125 L 766.726562 474.078125 Z M 766.726562 452.683594 " fill-opacity="1" fill-rule="nonzero"/><path fill="#ffffff" d="M 681.28125 452.683594 L 724.003906 452.683594 L 724.003906 495.492188 L 681.28125 495.492188 Z M 681.28125 452.683594 " fill-opacity="1" fill-rule="nonzero"/><path fill="#1d1d1b" d="M 702.652344 452.683594 L 724.003906 452.683594 L 724.003906 474.078125 L 702.652344 474.078125 Z M 702.652344 452.683594 " fill-opacity="1" fill-rule="nonzero"/><g clip-path="url(#0c4c5ada85)"><path fill="#ffb8ff" d="M 565.910156 452.683594 L 565.910156 431.273438 L 544.554688 431.273438 L 544.554688 409.859375 L 480.464844 409.859375 L 480.464844 431.273438 L 459.09375 431.273438 L 459.09375 452.683594 L 437.742188 452.683594 L 437.742188 602.515625 L 459.09375 602.515625 L 459.09375 581.101562 L 480.464844 581.101562 L 480.464844 602.515625 L 501.832031 602.515625 L 501.832031 581.101562 L 523.1875 581.101562 L 523.1875 602.515625 L 544.554688 602.515625 L 544.554688 581.101562 L 565.910156 581.101562 L 565.910156 602.515625 L 587.277344 602.515625 L 587.277344 452.683594 Z M 565.910156 452.683594 " fill-opacity="1" fill-rule="nonzero"/></g><path fill="#1d1d1b" d="M 459.09375 516.882812 L 480.464844 516.882812 L 480.464844 538.296875 L 459.09375 538.296875 Z M 459.09375 516.882812 " fill-opacity="1" fill-rule="nonzero"/><path fill="#1d1d1b" d="M 480.464844 538.296875 L 544.554688 538.296875 L 544.554688 559.691406 L 480.464844 559.691406 Z M 480.464844 538.296875 " fill-opacity="1" fill-rule="nonzero"/><path fill="#1d1d1b" d="M 544.554688 516.882812 L 565.910156 516.882812 L 565.910156 538.296875 L 544.554688 538.296875 Z M 544.554688 516.882812 " fill-opacity="1" fill-rule="nonzero"/><path fill="#ffffff" d="M 523.1875 452.683594 L 565.910156 452.683594 L 565.910156 495.492188 L 523.1875 495.492188 Z M 523.1875 452.683594 " fill-opacity="1" fill-rule="nonzero"/><path fill="#1d1d1b" d="M 523.1875 452.683594 L 544.554688 452.683594 L 544.554688 474.078125 L 523.1875 474.078125 Z M 523.1875 452.683594 " fill-opacity="1" fill-rule="nonzero"/><path fill="#ffffff" d="M 459.09375 452.683594 L 501.832031 452.683594 L 501.832031 495.492188 L 459.09375 495.492188 Z M 459.09375 452.683594 " fill-opacity="1" fill-rule="nonzero"/><path fill="#1d1d1b" d="M 459.09375 452.683594 L 480.464844 452.683594 L 480.464844 474.078125 L 459.09375 474.078125 Z M 459.09375 452.683594 " fill-opacity="1" fill-rule="nonzero"/><g clip-path="url(#9084a56357)"><path fill="#ffb851" d="M 343.738281 452.683594 L 343.738281 431.273438 L 322.386719 431.273438 L 322.386719 409.859375 L 258.277344 409.859375 L 258.277344 431.273438 L 236.921875 431.273438 L 236.921875 452.683594 L 215.570312 452.683594 L 215.570312 602.515625 L 236.921875 602.515625 L 236.921875 581.101562 L 258.277344 581.101562 L 258.277344 602.515625 L 279.644531 602.515625 L 279.644531 581.101562 L 301.015625 581.101562 L 301.015625 602.515625 L 322.386719 602.515625 L 322.386719 581.101562 L 343.738281 581.101562 L 343.738281 602.515625 L 365.089844 602.515625 L 365.089844 452.683594 Z M 343.738281 452.683594 " fill-opacity="1" fill-rule="nonzero"/></g><path fill="#1d1d1b" d="M 236.921875 516.882812 L 258.277344 516.882812 L 258.277344 538.296875 L 236.921875 538.296875 Z M 236.921875 516.882812 " fill-opacity="1" fill-rule="nonzero"/><path fill="#1d1d1b" d="M 258.277344 538.296875 L 322.367188 538.296875 L 322.367188 559.691406 L 258.277344 559.691406 Z M 258.277344 538.296875 " fill-opacity="1" fill-rule="nonzero"/><path fill="#1d1d1b" d="M 322.386719 516.882812 L 343.738281 516.882812 L 343.738281 538.296875 L 322.386719 538.296875 Z M 322.386719 516.882812 " fill-opacity="1" fill-rule="nonzero"/><path fill="#ffffff" d="M 301.015625 452.683594 L 343.738281 452.683594 L 343.738281 495.492188 L 301.015625 495.492188 Z M 301.015625 452.683594 " fill-opacity="1" fill-rule="nonzero"/><path fill="#1d1d1b" d="M 301.015625 474.078125 L 322.386719 474.078125 L 322.386719 495.492188 L 301.015625 495.492188 Z M 301.015625 474.078125 " fill-opacity="1" fill-rule="nonzero"/><path fill="#ffffff" d="M 236.921875 452.683594 L 279.644531 452.683594 L 279.644531 495.492188 L 236.921875 495.492188 Z M 236.921875 452.683594 " fill-opacity="1" fill-rule="nonzero"/><path fill="#1d1d1b" d="M 258.277344 474.078125 L 279.644531 474.078125 L 279.644531 495.492188 L 258.277344 495.492188 Z M 258.277344 474.078125 " fill-opacity="1" fill-rule="nonzero"/><g clip-path="url(#e17cfdf105)"><path fill="#00f4f0" d="M 128.699219 452.683594 L 128.699219 431.273438 L 107.347656 431.273438 L 107.347656 409.859375 L 43.253906 409.859375 L 43.253906 431.273438 L 21.886719 431.273438 L 21.886719 452.683594 L 0.53125 452.683594 L 0.53125 602.515625 L 21.886719 602.515625 L 21.886719 581.101562 L 43.253906 581.101562 L 43.253906 602.515625 L 64.609375 602.515625 L 64.609375 581.101562 L 85.976562 581.101562 L 85.976562 602.515625 L 107.347656 602.515625 L 107.347656 581.101562 L 128.699219 581.101562 L 128.699219 602.515625 L 150.070312 602.515625 L 150.070312 452.683594 Z M 128.699219 452.683594 " fill-opacity="1" fill-rule="nonzero"/></g><path fill="#1d1d1b" d="M 21.886719 516.882812 L 43.238281 516.882812 L 43.238281 538.296875 L 21.886719 538.296875 Z M 21.886719 516.882812 " fill-opacity="1" fill-rule="nonzero"/><path fill="#1d1d1b" d="M 43.253906 538.296875 L 107.347656 538.296875 L 107.347656 559.691406 L 43.253906 559.691406 Z M 43.253906 538.296875 " fill-opacity="1" fill-rule="nonzero"/><path fill="#1d1d1b" d="M 107.347656 516.882812 L 128.699219 516.882812 L 128.699219 538.296875 L 107.347656 538.296875 Z M 107.347656 516.882812 " fill-opacity="1" fill-rule="nonzero"/><path fill="#ffffff" d="M 85.976562 452.683594 L 128.699219 452.683594 L 128.699219 495.492188 L 85.976562 495.492188 Z M 85.976562 452.683594 " fill-opacity="1" fill-rule="nonzero"/><path fill="#1d1d1b" d="M 107.347656 474.078125 L 128.699219 474.078125 L 128.699219 495.492188 L 107.347656 495.492188 Z M 107.347656 474.078125 " fill-opacity="1" fill-rule="nonzero"/><path fill="#ffffff" d="M 21.886719 452.683594 L 64.609375 452.683594 L 64.609375 495.492188 L 21.886719 495.492188 Z M 21.886719 452.683594 " fill-opacity="1" fill-rule="nonzero"/><path fill="#1d1d1b" d="M 43.253906 474.078125 L 64.625 474.078125 L 64.625 495.492188 L 43.253906 495.492188 Z M 43.253906 474.078125 " fill-opacity="1" fill-rule="nonzero"/><g fill="#000000" fill-opacity="1"><g transform="translate(332.09644, 535.235648)"><g><path d="M 3.9375 0.140625 C 3.382812 0.140625 2.945312 -0.015625 2.625 -0.328125 C 2.300781 -0.640625 2.140625 -1.050781 2.140625 -1.5625 C 2.140625 -2.070312 2.300781 -2.488281 2.625 -2.8125 C 2.945312 -3.144531 3.382812 -3.3125 3.9375 -3.3125 C 4.5 -3.3125 4.941406 -3.15625 5.265625 -2.84375 C 5.585938 -2.53125 5.75 -2.113281 5.75 -1.59375 C 5.75 -1.070312 5.582031 -0.648438 5.25 -0.328125 C 4.925781 -0.015625 4.488281 0.140625 3.9375 0.140625 Z M 3.9375 0.140625 "/></g></g></g></svg>