<svg xmlns="http://www.w3.org/2000/svg" xmlns:xlink="http://www.w3.org/1999/xlink" width="1080" zoomAndPan="magnify" viewBox="0 0 810 1012.49997" height="1350" preserveAspectRatio="xMidYMid meet" version="1.0"><defs><g/><clipPath id="4465f537ce"><path d="M 0.199219 80 L 809.800781 80 L 809.800781 1012 L 0.199219 1012 Z M 0.199219 80 " clip-rule="nonzero"/></clipPath><clipPath id="88c53c8975"><path d="M 0.199219 320.023438 L 558.308594 80.839844 L 874.265625 818.09375 L 316.15625 1057.277344 Z M 0.199219 320.023438 " clip-rule="nonzero"/></clipPath><clipPath id="17dbdae50d"><path d="M 62 97 L 755 97 L 755 932 L 62 932 Z M 62 97 " clip-rule="nonzero"/></clipPath><clipPath id="6e7b80458c"><path d="M 0.199219 240.023438 L 558.308594 0.839844 L 874.265625 738.09375 L 316.15625 977.277344 Z M 0.199219 240.023438 " clip-rule="nonzero"/></clipPath><clipPath id="f2c576dc59"><path d="M 558.027344 0.960938 L -0.078125 240.140625 L 315.878906 977.394531 L 873.984375 738.214844 Z M 558.027344 0.960938 " clip-rule="nonzero"/></clipPath><clipPath id="de744c5fc4"><path d="M 558.027344 0.960938 L -0.078125 240.140625 L 315.878906 977.394531 L 873.984375 738.214844 Z M 558.027344 0.960938 " clip-rule="nonzero"/></clipPath><clipPath id="7252d9a5ba"><path d="M 34 86 L 726 86 L 726 924 L 34 924 Z M 34 86 " clip-rule="nonzero"/></clipPath><clipPath id="db4417624e"><path d="M 0.199219 240.023438 L 558.308594 0.839844 L 874.265625 738.09375 L 316.15625 977.277344 Z M 0.199219 240.023438 " clip-rule="nonzero"/></clipPath><clipPath id="d9f5c1ed40"><path d="M 558.027344 0.960938 L -0.078125 240.140625 L 315.878906 977.394531 L 873.984375 738.214844 Z M 558.027344 0.960938 " clip-rule="nonzero"/></clipPath><clipPath id="09d6a08ab9"><path d="M 558.027344 0.960938 L -0.078125 240.140625 L 315.878906 977.394531 L 873.984375 738.214844 Z M 558.027344 0.960938 " clip-rule="nonzero"/></clipPath><clipPath id="d0a036b81c"><path d="M 54 174 L 499 174 L 499 904 L 54 904 Z M 54 174 " clip-rule="nonzero"/></clipPath><clipPath id="e2af2c485f"><path d="M 0.199219 240.023438 L 558.308594 0.839844 L 874.265625 738.09375 L 316.15625 977.277344 Z M 0.199219 240.023438 " clip-rule="nonzero"/></clipPath><clipPath id="635c671f4b"><path d="M 558.027344 0.960938 L -0.078125 240.140625 L 315.878906 977.394531 L 873.984375 738.214844 Z M 558.027344 0.960938 " clip-rule="nonzero"/></clipPath><clipPath id="b303301a63"><path d="M 558.027344 0.960938 L -0.078125 240.140625 L 315.878906 977.394531 L 873.984375 738.214844 Z M 558.027344 0.960938 " clip-rule="nonzero"/></clipPath><clipPath id="3c07a37b24"><path d="M 193 362 L 402 362 L 402 707 L 193 707 Z M 193 362 " clip-rule="nonzero"/></clipPath><clipPath id="fb4975ab65"><path d="M 0.199219 240.023438 L 558.308594 0.839844 L 874.265625 738.09375 L 316.15625 977.277344 Z M 0.199219 240.023438 " clip-rule="nonzero"/></clipPath><clipPath id="03e004fa0e"><path d="M 558.027344 0.960938 L -0.078125 240.140625 L 315.878906 977.394531 L 873.984375 738.214844 Z M 558.027344 0.960938 " clip-rule="nonzero"/></clipPath><clipPath id="8b175fea82"><path d="M 558.027344 0.960938 L -0.078125 240.140625 L 315.878906 977.394531 L 873.984375 738.214844 Z M 558.027344 0.960938 " clip-rule="nonzero"/></clipPath><clipPath id="dee76ec074"><path d="M 421 584 L 669 584 L 669 844 L 421 844 Z M 421 584 " clip-rule="nonzero"/></clipPath><clipPath id="4211e4a7a5"><path d="M 0.199219 240.023438 L 558.308594 0.839844 L 874.265625 738.09375 L 316.15625 977.277344 Z M 0.199219 240.023438 " clip-rule="nonzero"/></clipPath><clipPath id="13c6ac641b"><path d="M 558.027344 0.960938 L -0.078125 240.140625 L 315.878906 977.394531 L 873.984375 738.214844 Z M 558.027344 0.960938 " clip-rule="nonzero"/></clipPath><clipPath id="593436d54e"><path d="M 558.027344 0.960938 L -0.078125 240.140625 L 315.878906 977.394531 L 873.984375 738.214844 Z M 558.027344 0.960938 " clip-rule="nonzero"/></clipPath><clipPath id="74c8d68e07"><path d="M 216 106 L 465 106 L 465 366 L 216 366 Z M 216 106 " clip-rule="nonzero"/></clipPath><clipPath id="ca3fddef49"><path d="M 0.199219 240.023438 L 558.308594 0.839844 L 874.265625 738.09375 L 316.15625 977.277344 Z M 0.199219 240.023438 " clip-rule="nonzero"/></clipPath><clipPath id="85d3d459bd"><path d="M 558.027344 0.960938 L -0.078125 240.140625 L 315.878906 977.394531 L 873.984375 738.214844 Z M 558.027344 0.960938 " clip-rule="nonzero"/></clipPath><clipPath id="9e72f2bac4"><path d="M 558.027344 0.960938 L -0.078125 240.140625 L 315.878906 977.394531 L 873.984375 738.214844 Z M 558.027344 0.960938 " clip-rule="nonzero"/></clipPath><clipPath id="1119a07ec0"><path d="M 34 86 L 726 86 L 726 924 L 34 924 Z M 34 86 " clip-rule="nonzero"/></clipPath><clipPath id="a687141254"><path d="M 0.199219 240.023438 L 558.308594 0.839844 L 874.265625 738.09375 L 316.15625 977.277344 Z M 0.199219 240.023438 " clip-rule="nonzero"/></clipPath><clipPath id="ce82a22f45"><path d="M 558.027344 0.960938 L -0.078125 240.140625 L 315.878906 977.394531 L 873.984375 738.214844 Z M 558.027344 0.960938 " clip-rule="nonzero"/></clipPath><clipPath id="8421ad7683"><path d="M 558.027344 0.960938 L -0.078125 240.140625 L 315.878906 977.394531 L 873.984375 738.214844 Z M 558.027344 0.960938 " clip-rule="nonzero"/></clipPath><clipPath id="b362e3f63b"><path d="M 62 174 L 479 174 L 479 904 L 62 904 Z M 62 174 " clip-rule="nonzero"/></clipPath><clipPath id="19bba421eb"><path d="M 0.199219 240.023438 L 558.308594 0.839844 L 874.265625 738.09375 L 316.15625 977.277344 Z M 0.199219 240.023438 " clip-rule="nonzero"/></clipPath><clipPath id="ac262ccd0a"><path d="M 558.027344 0.960938 L -0.078125 240.140625 L 315.878906 977.394531 L 873.984375 738.214844 Z M 558.027344 0.960938 " clip-rule="nonzero"/></clipPath><clipPath id="8a53bf7d62"><path d="M 558.027344 0.960938 L -0.078125 240.140625 L 315.878906 977.394531 L 873.984375 738.214844 Z M 558.027344 0.960938 " clip-rule="nonzero"/></clipPath><clipPath id="e26b72f8c6"><path d="M 54 174 L 370 174 L 370 892 L 54 892 Z M 54 174 " clip-rule="nonzero"/></clipPath><clipPath id="e1fef2a2c8"><path d="M 0.199219 240.023438 L 558.308594 0.839844 L 874.265625 738.09375 L 316.15625 977.277344 Z M 0.199219 240.023438 " clip-rule="nonzero"/></clipPath><clipPath id="72f3a6caeb"><path d="M 558.027344 0.960938 L -0.078125 240.140625 L 315.878906 977.394531 L 873.984375 738.214844 Z M 558.027344 0.960938 " clip-rule="nonzero"/></clipPath><clipPath id="83db3f2fc5"><path d="M 558.027344 0.960938 L -0.078125 240.140625 L 315.878906 977.394531 L 873.984375 738.214844 Z M 558.027344 0.960938 " clip-rule="nonzero"/></clipPath><clipPath id="833a826a76"><path d="M 216 157 L 538 157 L 538 844 L 216 844 Z M 216 157 " clip-rule="nonzero"/></clipPath><clipPath id="5e404932aa"><path d="M 0.199219 240.023438 L 558.308594 0.839844 L 874.265625 738.09375 L 316.15625 977.277344 Z M 0.199219 240.023438 " clip-rule="nonzero"/></clipPath><clipPath id="0de5808240"><path d="M 558.027344 0.960938 L -0.078125 240.140625 L 315.878906 977.394531 L 873.984375 738.214844 Z M 558.027344 0.960938 " clip-rule="nonzero"/></clipPath><clipPath id="594f5239ee"><path d="M 558.027344 0.960938 L -0.078125 240.140625 L 315.878906 977.394531 L 873.984375 738.214844 Z M 558.027344 0.960938 " clip-rule="nonzero"/></clipPath><clipPath id="6987e72404"><path d="M 204 106 L 669 106 L 669 904 L 204 904 Z M 204 106 " clip-rule="nonzero"/></clipPath><clipPath id="c1bd9026bd"><path d="M 0.199219 240.023438 L 558.308594 0.839844 L 874.265625 738.09375 L 316.15625 977.277344 Z M 0.199219 240.023438 " clip-rule="nonzero"/></clipPath><clipPath id="bcc1596932"><path d="M 558.027344 0.960938 L -0.078125 240.140625 L 315.878906 977.394531 L 873.984375 738.214844 Z M 558.027344 0.960938 " clip-rule="nonzero"/></clipPath><clipPath id="f67d2a91a9"><path d="M 558.027344 0.960938 L -0.078125 240.140625 L 315.878906 977.394531 L 873.984375 738.214844 Z M 558.027344 0.960938 " clip-rule="nonzero"/></clipPath><clipPath id="915cb33415"><rect x="0" width="810" y="0" height="932"/></clipPath></defs><g clip-path="url(#4465f537ce)"><g clip-path="url(#88c53c8975)"><g transform="matrix(1, 0, 0, 1, 0.000000000000000028, 80)"><g clip-path="url(#915cb33415)"><g clip-path="url(#17dbdae50d)"><g clip-path="url(#6e7b80458c)"><g clip-path="url(#f2c576dc59)"><g clip-path="url(#de744c5fc4)"><path fill="#000000" d="M 714.550781 476.285156 L 723.082031 496.199219 L 743.015625 487.65625 L 734.480469 467.742188 Z M 711.6875 524.65625 L 720.222656 544.570312 L 700.289062 553.109375 L 691.753906 533.195312 Z M 700.289062 553.109375 L 708.824219 573.023438 L 688.894531 581.566406 L 668.960938 590.109375 L 660.425781 570.195312 L 680.359375 561.652344 Z M 506.753906 376.761719 L 498.21875 356.847656 L 518.152344 348.304688 L 538.082031 339.765625 L 546.617188 359.679688 L 526.6875 368.222656 Z M 723.082031 496.199219 L 731.617188 516.113281 L 711.6875 524.65625 L 703.152344 504.742188 Z M 717.410156 427.914062 L 708.875 408 L 700.34375 388.085938 L 666.203125 308.429688 L 686.136719 299.886719 L 694.671875 319.800781 L 703.203125 339.714844 L 745.878906 439.285156 L 754.410156 459.203125 L 734.480469 467.742188 Z M 580.808594 274.3125 L 600.738281 265.769531 L 609.273438 285.683594 L 589.34375 294.226562 Z M 540.945312 291.394531 L 532.410156 271.480469 L 552.34375 262.9375 L 572.273438 254.398438 L 580.808594 274.3125 L 560.875 282.851562 Z M 609.273438 285.683594 L 629.203125 277.140625 L 637.738281 297.054688 L 617.808594 305.597656 Z M 637.738281 297.054688 L 657.671875 288.515625 L 666.203125 308.429688 L 646.273438 316.96875 Z M 546.617188 359.679688 L 566.546875 351.136719 L 575.082031 371.050781 L 555.152344 379.59375 Z M 464.03125 442.214844 L 455.496094 422.300781 L 475.425781 413.761719 L 495.359375 405.21875 L 503.890625 425.132812 L 483.960938 433.675781 Z M 503.890625 425.132812 L 523.824219 416.589844 L 532.359375 436.503906 L 512.425781 445.046875 Z M 82.578125 322.828125 L 74.042969 302.914062 L 93.976562 294.371094 L 85.441406 274.457031 L 105.371094 265.917969 L 96.835938 246.003906 L 116.769531 237.460938 L 108.234375 217.546875 L 128.164062 209.003906 L 148.097656 200.464844 L 168.027344 191.921875 L 187.960938 183.378906 L 207.890625 174.839844 L 227.820312 166.296875 L 247.753906 157.753906 L 267.683594 149.210938 L 287.617188 140.671875 L 327.476562 123.585938 L 347.410156 115.046875 L 367.339844 106.503906 L 387.273438 97.960938 L 395.808594 117.875 L 415.738281 109.335938 L 424.273438 129.25 L 444.203125 120.707031 L 469.808594 180.449219 L 478.339844 200.363281 L 495.410156 240.191406 L 503.945312 260.109375 L 512.480469 280.023438 L 492.546875 288.5625 L 501.082031 308.476562 L 481.152344 317.019531 L 489.6875 336.933594 L 469.753906 345.476562 L 449.824219 354.015625 L 429.890625 362.558594 L 409.960938 371.101562 L 390.03125 379.640625 L 370.097656 388.183594 L 350.167969 396.726562 L 330.234375 405.269531 L 310.304688 413.808594 L 327.375 453.636719 L 335.90625 473.550781 L 344.441406 493.464844 L 352.976562 513.382812 L 370.046875 553.210938 L 378.578125 573.125 L 412.71875 652.78125 L 432.648438 644.238281 L 452.582031 635.699219 L 492.441406 618.613281 L 512.375 610.074219 L 532.304688 601.53125 L 552.238281 592.988281 L 572.167969 584.445312 L 592.097656 575.90625 L 600.632812 595.820312 L 620.566406 587.277344 L 629.097656 607.191406 L 649.03125 598.652344 L 657.566406 618.566406 L 666.097656 638.480469 L 708.773438 738.050781 L 717.304688 757.964844 L 697.375 766.507812 L 705.910156 786.421875 L 685.976562 794.960938 L 694.511719 814.875 L 674.582031 823.417969 L 654.648438 831.960938 L 634.71875 840.503906 L 614.789062 849.042969 L 594.855469 857.585938 L 574.925781 866.128906 L 554.992188 874.667969 L 515.132812 891.753906 L 495.199219 900.292969 L 475.269531 908.835938 L 455.335938 917.378906 L 435.40625 925.917969 L 415.476562 934.460938 L 406.941406 914.546875 L 387.007812 923.089844 L 378.472656 903.175781 L 358.542969 911.714844 L 350.007812 891.800781 L 330.078125 900.34375 L 321.542969 880.429688 L 301.613281 888.972656 L 293.078125 869.054688 L 267.472656 809.3125 L 258.941406 789.398438 L 216.265625 689.828125 L 207.734375 669.914062 L 173.59375 590.257812 L 165.0625 570.34375 L 156.527344 550.429688 L 147.992188 530.511719 L 122.386719 470.769531 L 113.855469 450.855469 L 79.714844 371.199219 L 71.183594 351.285156 L 62.648438 331.371094 Z M 532.359375 436.503906 L 552.289062 427.964844 L 569.359375 467.792969 L 549.425781 476.335938 L 540.890625 456.417969 Z M 538.03125 504.789062 L 529.496094 484.875 L 549.425781 476.335938 L 557.960938 496.25 Z M 575.082031 371.050781 L 595.015625 362.511719 L 603.546875 382.425781 L 583.617188 390.964844 Z M 637.6875 462.082031 L 646.222656 481.996094 L 626.289062 490.539062 L 617.753906 470.625 Z M 526.632812 533.246094 L 506.703125 541.789062 L 498.167969 521.875 L 518.097656 513.332031 L 538.03125 504.789062 L 546.5625 524.703125 Z M 620.617188 422.253906 L 603.546875 382.425781 L 623.480469 373.882812 L 632.015625 393.796875 L 640.546875 413.710938 L 657.617188 453.539062 L 637.6875 462.082031 Z M 614.894531 518.992188 L 606.359375 499.078125 L 626.289062 490.539062 L 634.824219 510.453125 Z M 603.496094 547.449219 L 583.566406 555.992188 L 575.03125 536.078125 L 594.960938 527.535156 L 614.894531 518.992188 L 623.425781 538.90625 Z M 603.496094 547.449219 " fill-opacity="0.3" fill-rule="nonzero"/></g></g></g></g><g clip-path="url(#7252d9a5ba)"><g clip-path="url(#db4417624e)"><g clip-path="url(#d9f5c1ed40)"><g clip-path="url(#09d6a08ab9)"><path fill="#000000" d="M 686.082031 464.910156 L 694.617188 484.828125 L 714.546875 476.285156 L 706.015625 456.371094 Z M 683.222656 513.28125 L 691.753906 533.195312 L 671.824219 541.738281 L 663.289062 521.824219 Z M 671.824219 541.738281 L 680.359375 561.652344 L 660.425781 570.195312 L 640.496094 578.734375 L 631.960938 558.820312 L 651.894531 550.28125 Z M 478.289062 365.390625 L 469.753906 345.476562 L 489.683594 336.933594 L 509.617188 328.390625 L 518.152344 348.304688 L 498.21875 356.847656 Z M 694.617188 484.828125 L 703.152344 504.742188 L 683.222656 513.28125 L 674.6875 493.367188 Z M 688.945312 416.542969 L 671.875 376.714844 L 663.34375 356.800781 L 654.808594 336.882812 L 637.738281 297.054688 L 657.671875 288.515625 L 666.203125 308.429688 L 700.34375 388.085938 L 708.875 408 L 725.945312 447.828125 L 706.015625 456.371094 Z M 552.339844 262.9375 L 572.273438 254.398438 L 580.808594 274.3125 L 560.875 282.851562 Z M 512.480469 280.023438 L 503.945312 260.105469 L 523.875 251.566406 L 543.808594 243.023438 L 552.339844 262.9375 Z M 580.808594 274.3125 L 600.738281 265.769531 L 609.273438 285.683594 L 589.34375 294.226562 Z M 609.273438 285.683594 L 629.203125 277.140625 L 637.738281 297.054688 L 617.808594 305.597656 Z M 518.152344 348.304688 L 538.082031 339.765625 L 546.617188 359.679688 L 526.6875 368.21875 Z M 435.5625 430.84375 L 427.03125 410.929688 L 446.960938 402.386719 L 466.890625 393.847656 L 475.425781 413.761719 L 455.496094 422.300781 Z M 475.425781 413.761719 L 495.359375 405.21875 L 503.890625 425.132812 L 483.960938 433.675781 Z M 54.113281 311.457031 L 45.578125 291.542969 L 65.507812 283 L 56.976562 263.085938 L 76.90625 254.542969 L 68.371094 234.628906 L 88.304688 226.089844 L 79.769531 206.171875 L 99.699219 197.632812 L 119.632812 189.089844 L 139.5625 180.546875 L 159.492188 172.007812 L 179.425781 163.464844 L 199.355469 154.921875 L 219.289062 146.382812 L 259.148438 129.296875 L 279.082031 120.757812 L 299.011719 112.214844 L 318.945312 103.671875 L 338.875 95.132812 L 358.804688 86.589844 L 367.339844 106.503906 L 387.273438 97.960938 L 395.804688 117.875 L 415.738281 109.335938 L 432.808594 149.164062 L 441.339844 169.078125 L 475.480469 248.734375 L 484.011719 268.648438 L 464.082031 277.191406 L 472.617188 297.105469 L 452.683594 305.648438 L 461.21875 325.5625 L 441.289062 334.101562 L 421.355469 342.644531 L 401.425781 351.1875 L 381.496094 359.726562 L 361.5625 368.269531 L 341.632812 376.8125 L 321.699219 385.351562 L 281.839844 402.4375 L 290.371094 422.351562 L 333.046875 521.921875 L 341.578125 541.835938 L 375.71875 621.492188 L 384.25 641.40625 L 404.183594 632.867188 L 424.113281 624.324219 L 444.046875 615.78125 L 463.976562 607.242188 L 483.90625 598.699219 L 503.839844 590.15625 L 523.769531 581.617188 L 543.703125 573.074219 L 563.632812 564.53125 L 572.167969 584.445312 L 592.097656 575.90625 L 600.632812 595.820312 L 620.566406 587.277344 L 629.097656 607.191406 L 663.238281 686.847656 L 671.769531 706.761719 L 680.304688 726.679688 L 688.839844 746.59375 L 668.910156 755.132812 L 677.441406 775.046875 L 657.511719 783.589844 L 666.046875 803.503906 L 646.117188 812.046875 L 626.183594 820.585938 L 606.253906 829.128906 L 586.320312 837.671875 L 566.390625 846.210938 L 546.457031 854.753906 L 526.527344 863.296875 L 506.597656 871.835938 L 486.664062 880.378906 L 466.734375 888.921875 L 446.800781 897.464844 L 426.871094 906.003906 L 406.941406 914.546875 L 387.007812 923.089844 L 378.472656 903.175781 L 358.542969 911.714844 L 350.007812 891.800781 L 330.078125 900.34375 L 321.542969 880.429688 L 301.613281 888.96875 L 293.078125 869.054688 L 273.144531 877.597656 L 264.613281 857.683594 L 221.9375 758.113281 L 213.40625 738.199219 L 196.335938 698.371094 L 187.800781 678.453125 L 179.265625 658.539062 L 170.734375 638.625 L 128.058594 539.054688 L 119.527344 519.140625 L 85.386719 439.484375 L 76.855469 419.570312 L 42.714844 339.914062 L 34.179688 319.996094 Z M 503.890625 425.132812 L 523.824219 416.589844 L 532.359375 436.503906 L 540.890625 456.417969 L 520.960938 464.960938 Z M 509.5625 493.417969 L 501.03125 473.503906 L 520.960938 464.960938 L 529.496094 484.875 Z M 546.617188 359.679688 L 566.546875 351.136719 L 575.082031 371.050781 L 555.152344 379.59375 Z M 609.21875 450.707031 L 617.753906 470.621094 L 597.824219 479.164062 L 589.289062 459.25 Z M 498.167969 521.875 L 478.234375 530.414062 L 469.703125 510.5 L 489.632812 501.957031 L 509.5625 493.417969 L 518.097656 513.332031 Z M 592.152344 410.878906 L 575.082031 371.050781 L 595.015625 362.507812 L 603.546875 382.425781 L 629.152344 442.167969 L 609.21875 450.707031 L 600.6875 430.792969 Z M 586.425781 507.621094 L 577.890625 487.707031 L 597.824219 479.164062 L 606.359375 499.078125 Z M 575.03125 536.078125 L 555.097656 544.617188 L 546.5625 524.703125 L 566.496094 516.164062 L 586.425781 507.621094 L 594.960938 527.535156 Z M 575.03125 536.078125 " fill-opacity="1" fill-rule="nonzero"/></g></g></g></g><g clip-path="url(#d0a036b81c)"><g clip-path="url(#e2af2c485f)"><g clip-path="url(#635c671f4b)"><g clip-path="url(#b303301a63)"><path fill="#3c00ff" d="M 54.113281 311.457031 L 71.183594 351.285156 L 79.714844 371.199219 L 113.855469 450.855469 L 122.386719 470.769531 L 147.992188 530.511719 L 156.527344 550.429688 L 165.0625 570.34375 L 173.59375 590.257812 L 207.734375 669.914062 L 216.265625 689.828125 L 258.941406 789.398438 L 267.472656 809.3125 L 293.078125 869.054688 L 313.007812 860.515625 L 321.542969 880.429688 L 341.472656 871.886719 L 350.007812 891.800781 L 369.941406 883.261719 L 378.472656 903.175781 L 398.40625 894.632812 L 418.335938 886.089844 L 438.269531 877.550781 L 478.128906 860.464844 L 498.0625 851.921875 L 489.527344 832.007812 L 469.597656 840.550781 L 435.457031 760.894531 L 426.925781 740.980469 L 409.855469 701.152344 L 389.925781 709.691406 L 369.992188 718.234375 L 350.0625 726.777344 L 341.527344 706.863281 L 321.597656 715.402344 L 313.0625 695.488281 L 293.128906 704.03125 L 284.59375 684.117188 L 276.0625 664.203125 L 241.921875 584.546875 L 233.390625 564.632812 L 224.855469 544.71875 L 216.320312 524.800781 L 190.714844 465.058594 L 182.183594 445.144531 L 173.648438 425.230469 L 193.578125 416.691406 L 185.042969 396.773438 L 204.976562 388.234375 L 196.441406 368.320312 L 216.371094 359.777344 L 236.304688 351.234375 L 256.234375 342.695312 L 247.699219 322.78125 L 239.167969 302.867188 L 230.632812 282.949219 L 196.492188 203.292969 L 216.425781 194.753906 L 207.890625 174.839844 L 187.960938 183.378906 L 168.027344 191.921875 L 148.097656 200.464844 L 128.164062 209.003906 L 88.304688 226.089844 L 96.835938 246.003906 L 76.90625 254.542969 L 85.441406 274.457031 L 65.507812 283 L 74.042969 302.914062 Z M 54.113281 311.457031 " fill-opacity="1" fill-rule="nonzero"/></g></g></g></g><g clip-path="url(#3c07a37b24)"><g clip-path="url(#fb4975ab65)"><g clip-path="url(#03e004fa0e)"><g clip-path="url(#8b175fea82)"><path fill="#1ca4ff" d="M 213.511719 408.148438 L 204.976562 388.234375 L 224.90625 379.691406 L 244.839844 371.148438 L 264.769531 362.609375 L 273.304688 382.523438 L 253.371094 391.0625 L 261.90625 410.980469 L 296.046875 490.636719 L 304.578125 510.550781 L 338.71875 590.207031 L 347.25 610.121094 L 372.855469 669.863281 L 392.785156 661.324219 L 401.320312 681.238281 L 381.390625 689.777344 L 361.457031 698.320312 L 341.527344 706.863281 L 332.992188 686.949219 L 313.0625 695.488281 L 278.921875 615.832031 L 270.390625 595.917969 L 236.25 516.261719 L 227.71875 496.347656 L 193.578125 416.691406 Z M 213.511719 408.148438 " fill-opacity="1" fill-rule="nonzero"/></g></g></g></g><g clip-path="url(#dee76ec074)"><g clip-path="url(#4211e4a7a5)"><g clip-path="url(#13c6ac641b)"><g clip-path="url(#593436d54e)"><path fill="#1ca4ff" d="M 432.648438 644.238281 L 452.582031 635.699219 L 492.441406 618.613281 L 512.375 610.074219 L 532.304688 601.53125 L 552.238281 592.988281 L 572.167969 584.445312 L 580.703125 604.363281 L 600.632812 595.820312 L 626.238281 655.5625 L 634.769531 675.476562 L 668.910156 755.132812 L 648.976562 763.675781 L 657.511719 783.589844 L 637.582031 792.132812 L 617.648438 800.671875 L 577.789062 817.757812 L 557.855469 826.296875 L 537.925781 834.839844 L 517.992188 843.382812 L 509.457031 823.46875 L 489.527344 832.007812 L 472.457031 792.179688 L 463.925781 772.265625 L 429.785156 692.609375 L 421.253906 672.695312 L 441.183594 664.152344 Z M 432.648438 644.238281 " fill-opacity="1" fill-rule="nonzero"/></g></g></g></g><g clip-path="url(#74c8d68e07)"><g clip-path="url(#ca3fddef49)"><g clip-path="url(#85d3d459bd)"><g clip-path="url(#9e72f2bac4)"><path fill="#1ca4ff" d="M 227.820312 166.296875 L 247.753906 157.753906 L 267.683594 149.210938 L 287.617188 140.671875 L 327.476562 123.585938 L 347.410156 115.046875 L 367.339844 106.503906 L 375.875 126.417969 L 395.808594 117.875 L 404.339844 137.792969 L 438.480469 217.449219 L 447.011719 237.363281 L 464.082031 277.191406 L 444.152344 285.734375 L 452.683594 305.648438 L 432.753906 314.1875 L 412.824219 322.730469 L 392.890625 331.273438 L 372.960938 339.8125 L 353.027344 348.355469 L 333.097656 356.898438 L 313.167969 365.4375 L 304.632812 345.523438 L 284.699219 354.066406 L 276.167969 334.152344 L 242.027344 254.496094 L 233.496094 234.582031 L 216.425781 194.753906 L 236.355469 186.210938 Z M 227.820312 166.296875 " fill-opacity="1" fill-rule="nonzero"/></g></g></g></g><g clip-path="url(#1119a07ec0)"><g clip-path="url(#a687141254)"><g clip-path="url(#ce82a22f45)"><g clip-path="url(#8421ad7683)"><path fill="#000000" d="M 34.179688 320 L 76.855469 419.570312 L 85.386719 439.484375 L 119.527344 519.140625 L 128.058594 539.054688 L 170.734375 638.625 L 179.265625 658.539062 L 187.800781 678.457031 L 213.40625 738.199219 L 221.9375 758.113281 L 264.613281 857.683594 L 273.144531 877.597656 L 293.078125 869.054688 L 267.472656 809.3125 L 258.941406 789.398438 L 216.265625 689.828125 L 207.734375 669.914062 L 173.59375 590.257812 L 165.0625 570.34375 L 156.527344 550.429688 L 147.992188 530.511719 L 122.386719 470.769531 L 113.855469 450.855469 L 79.714844 371.199219 L 71.183594 351.285156 L 54.113281 311.457031 Z M 321.542969 880.429688 L 301.613281 888.972656 L 293.078125 869.054688 L 313.007812 860.515625 Z M 54.113281 311.457031 L 45.578125 291.542969 L 65.507812 283 L 74.042969 302.914062 Z M 350.007812 891.800781 L 330.078125 900.34375 L 321.542969 880.429688 L 341.472656 871.886719 Z M 65.507812 283 L 56.976562 263.085938 L 76.90625 254.542969 L 85.441406 274.457031 Z M 378.472656 903.175781 L 358.542969 911.714844 L 350.007812 891.800781 L 369.941406 883.261719 Z M 76.90625 254.542969 L 68.371094 234.628906 L 88.304688 226.089844 L 96.835938 246.003906 Z M 210.648438 456.519531 L 227.71875 496.347656 L 236.25 516.261719 L 270.390625 595.917969 L 278.921875 615.832031 L 313.0625 695.488281 L 293.128906 704.03125 L 284.59375 684.117188 L 276.0625 664.203125 L 241.921875 584.546875 L 233.390625 564.632812 L 224.855469 544.71875 L 216.320312 524.800781 L 190.714844 465.058594 L 182.183594 445.144531 L 173.648438 425.230469 L 193.578125 416.691406 Z M 418.335938 886.089844 L 438.269531 877.550781 L 478.128906 860.464844 L 498.0625 851.921875 L 489.527344 832.007812 L 509.457031 823.46875 L 517.992188 843.382812 L 537.925781 834.839844 L 557.855469 826.296875 L 577.789062 817.757812 L 617.648438 800.671875 L 637.582031 792.132812 L 657.511719 783.589844 L 666.046875 803.503906 L 646.117188 812.046875 L 626.183594 820.585938 L 606.253906 829.128906 L 586.320312 837.671875 L 566.390625 846.214844 L 546.460938 854.753906 L 526.527344 863.296875 L 506.597656 871.839844 L 486.664062 880.378906 L 446.804688 897.464844 L 426.871094 906.003906 L 406.941406 914.546875 L 387.007812 923.089844 L 378.472656 903.175781 L 398.40625 894.632812 Z M 341.527344 706.863281 L 321.597656 715.402344 L 313.0625 695.488281 L 332.992188 686.949219 Z M 193.578125 416.691406 L 185.042969 396.773438 L 204.976562 388.234375 L 213.511719 408.148438 Z M 509.484375 740.957031 L 529.417969 732.414062 L 537.949219 752.328125 L 518.019531 760.871094 Z M 492.417969 701.125 L 512.347656 692.585938 L 520.882812 712.5 L 500.949219 721.039062 Z M 304.660156 263.011719 L 324.589844 254.46875 L 333.125 274.386719 L 313.191406 282.925781 Z M 287.589844 223.183594 L 307.519531 214.640625 L 316.054688 234.554688 L 296.125 243.097656 Z M 557.882812 743.785156 L 577.8125 735.246094 L 586.347656 755.160156 L 566.417969 763.699219 Z M 540.8125 703.957031 L 560.746094 695.414062 L 569.277344 715.328125 L 549.347656 723.871094 Z M 523.746094 664.128906 L 543.675781 655.585938 L 552.210938 675.5 L 532.277344 684.042969 Z M 353.054688 265.84375 L 372.988281 257.300781 L 381.519531 277.214844 L 361.589844 285.757812 Z M 335.988281 226.015625 L 355.917969 217.472656 L 364.453125 237.386719 L 344.519531 245.929688 Z M 318.917969 186.1875 L 338.847656 177.644531 L 347.382812 197.558594 L 327.453125 206.101562 Z M 435.5625 430.84375 L 427.03125 410.929688 L 446.960938 402.386719 L 466.890625 393.847656 L 475.425781 413.761719 L 455.496094 422.300781 Z M 589.210938 706.789062 L 609.140625 698.246094 L 617.675781 718.160156 L 597.746094 726.703125 Z M 572.140625 666.960938 L 592.074219 658.417969 L 600.605469 678.332031 L 580.675781 686.875 Z M 532.304688 601.53125 L 512.375 610.074219 L 492.441406 618.613281 L 452.582031 635.699219 L 432.648438 644.238281 L 441.183594 664.152344 L 421.253906 672.695312 L 429.785156 692.609375 L 463.925781 772.265625 L 472.457031 792.179688 L 489.527344 832.007812 L 469.597656 840.550781 L 435.457031 760.894531 L 426.925781 740.980469 L 409.855469 701.152344 L 389.925781 709.691406 L 369.992188 718.234375 L 350.0625 726.777344 L 341.527344 706.863281 L 361.457031 698.320312 L 381.390625 689.777344 L 401.320312 681.238281 L 392.785156 661.324219 L 372.855469 669.863281 L 347.25 610.121094 L 338.71875 590.207031 L 304.578125 510.550781 L 296.046875 490.636719 L 261.90625 410.980469 L 253.371094 391.0625 L 273.304688 382.523438 L 264.769531 362.609375 L 244.839844 371.148438 L 224.90625 379.691406 L 204.976562 388.234375 L 196.441406 368.320312 L 216.371094 359.777344 L 236.304688 351.234375 L 256.234375 342.695312 L 247.699219 322.78125 L 239.167969 302.867188 L 230.632812 282.949219 L 196.492188 203.292969 L 216.425781 194.753906 L 233.496094 234.582031 L 242.027344 254.496094 L 276.167969 334.152344 L 284.699219 354.066406 L 304.632812 345.523438 L 313.167969 365.4375 L 333.097656 356.898438 L 353.027344 348.355469 L 372.960938 339.8125 L 392.890625 331.273438 L 412.824219 322.730469 L 432.753906 314.1875 L 452.683594 305.648438 L 461.21875 325.5625 L 441.289062 334.101562 L 421.355469 342.644531 L 401.425781 351.1875 L 381.496094 359.726562 L 361.5625 368.269531 L 341.632812 376.8125 L 321.699219 385.351562 L 281.839844 402.4375 L 290.371094 422.351562 L 333.046875 521.921875 L 341.578125 541.835938 L 375.71875 621.492188 L 384.25 641.410156 L 404.183594 632.867188 L 424.113281 624.324219 L 444.046875 615.78125 L 463.976562 607.242188 L 483.910156 598.699219 L 503.839844 590.15625 L 523.769531 581.617188 L 543.703125 573.074219 L 563.632812 564.53125 L 572.167969 584.445312 L 552.238281 592.988281 Z M 498.167969 521.875 L 478.234375 530.414062 L 469.703125 510.5 L 489.632812 501.960938 L 509.5625 493.417969 L 518.097656 513.332031 Z M 384.382812 228.84375 L 404.316406 220.304688 L 412.847656 240.21875 L 392.917969 248.757812 Z M 367.316406 189.015625 L 387.246094 180.476562 L 395.78125 200.390625 L 375.847656 208.929688 Z M 327.476562 123.585938 L 287.617188 140.671875 L 267.683594 149.210938 L 247.753906 157.753906 L 227.820312 166.296875 L 236.355469 186.210938 L 216.425781 194.753906 L 207.890625 174.839844 L 187.960938 183.378906 L 168.027344 191.921875 L 148.097656 200.464844 L 128.164062 209.003906 L 88.304688 226.089844 L 79.769531 206.175781 L 99.699219 197.632812 L 119.632812 189.089844 L 139.5625 180.550781 L 159.492188 172.007812 L 179.425781 163.464844 L 199.355469 154.921875 L 219.289062 146.382812 L 259.148438 129.296875 L 279.082031 120.757812 L 299.011719 112.214844 L 318.945312 103.671875 L 338.875 95.132812 L 358.804688 86.589844 L 367.339844 106.503906 L 347.410156 115.046875 Z M 509.5625 493.417969 L 501.03125 473.503906 L 520.960938 464.960938 L 529.496094 484.875 Z M 475.425781 413.761719 L 495.359375 405.21875 L 503.890625 425.132812 L 483.960938 433.675781 Z M 668.910156 755.132812 L 677.445312 775.046875 L 657.511719 783.589844 L 648.976562 763.675781 Z M 572.167969 584.445312 L 592.097656 575.90625 L 600.632812 595.820312 L 580.703125 604.363281 Z M 503.890625 425.132812 L 523.824219 416.589844 L 532.359375 436.503906 L 540.890625 456.417969 L 520.960938 464.960938 Z M 478.289062 365.390625 L 469.753906 345.476562 L 489.6875 336.933594 L 509.617188 328.390625 L 518.152344 348.304688 L 498.21875 356.847656 Z M 464.082031 277.191406 L 472.617188 297.105469 L 452.683594 305.648438 L 444.152344 285.734375 Z M 367.339844 106.503906 L 387.273438 97.960938 L 395.808594 117.875 L 375.875 126.417969 Z M 651.839844 715.304688 L 634.769531 675.476562 L 626.238281 655.5625 L 600.632812 595.820312 L 620.566406 587.277344 L 629.097656 607.191406 L 663.238281 686.847656 L 671.769531 706.765625 L 688.839844 746.59375 L 668.910156 755.132812 Z M 575.03125 536.078125 L 555.097656 544.617188 L 546.5625 524.703125 L 566.496094 516.164062 L 586.425781 507.621094 L 594.960938 527.535156 Z M 447.011719 237.363281 L 438.480469 217.449219 L 404.339844 137.792969 L 395.808594 117.875 L 415.738281 109.335938 L 432.808594 149.164062 L 441.339844 169.078125 L 475.480469 248.734375 L 484.011719 268.648438 L 464.082031 277.191406 Z M 586.425781 507.621094 L 577.890625 487.707031 L 597.824219 479.164062 L 606.359375 499.078125 Z M 518.152344 348.304688 L 538.082031 339.765625 L 546.617188 359.679688 L 526.6875 368.222656 Z M 609.21875 450.707031 L 617.753906 470.625 L 597.824219 479.164062 L 589.289062 459.25 Z M 546.617188 359.679688 L 566.546875 351.136719 L 575.082031 371.050781 L 555.152344 379.59375 Z M 512.480469 280.023438 L 503.945312 260.109375 L 523.875 251.566406 L 543.808594 243.023438 L 552.34375 262.9375 L 532.410156 271.480469 Z M 671.824219 541.738281 L 680.359375 561.652344 L 660.425781 570.195312 L 640.496094 578.734375 L 631.960938 558.820312 L 651.894531 550.28125 Z M 592.152344 410.878906 L 575.082031 371.050781 L 595.015625 362.511719 L 603.546875 382.425781 L 629.152344 442.167969 L 609.21875 450.707031 L 600.6875 430.792969 Z M 683.222656 513.28125 L 691.753906 533.195312 L 671.824219 541.738281 L 663.289062 521.824219 Z M 552.34375 262.9375 L 572.273438 254.398438 L 580.808594 274.3125 L 560.875 282.851562 Z M 694.617188 484.828125 L 703.152344 504.742188 L 683.222656 513.28125 L 674.6875 493.367188 Z M 580.808594 274.3125 L 600.738281 265.769531 L 609.273438 285.683594 L 589.34375 294.226562 Z M 706.015625 456.371094 L 714.550781 476.285156 L 694.617188 484.828125 L 686.082031 464.914062 Z M 609.273438 285.683594 L 629.203125 277.140625 L 637.738281 297.054688 L 617.808594 305.597656 Z M 688.945312 416.542969 L 671.875 376.714844 L 663.34375 356.800781 L 654.808594 336.882812 L 637.738281 297.054688 L 657.671875 288.515625 L 666.203125 308.429688 L 700.34375 388.085938 L 708.875 408 L 725.945312 447.828125 L 706.015625 456.371094 Z M 688.945312 416.542969 " fill-opacity="1" fill-rule="nonzero"/></g></g></g></g><g clip-path="url(#b362e3f63b)"><g clip-path="url(#19bba421eb)"><g clip-path="url(#ac262ccd0a)"><g clip-path="url(#8a53bf7d62)"><path fill="#1700d1" d="M 62.648438 331.371094 L 82.578125 322.828125 L 91.113281 342.742188 L 71.183594 351.285156 Z M 79.714844 371.199219 L 99.648438 362.65625 L 108.183594 382.570312 L 88.25 391.113281 Z M 96.785156 411.027344 L 116.714844 402.484375 L 125.25 422.398438 L 105.320312 430.941406 Z M 113.855469 450.855469 L 133.785156 442.316406 L 142.320312 462.230469 L 122.386719 470.769531 Z M 74.042969 302.914062 L 93.976562 294.371094 L 102.511719 314.289062 L 82.578125 322.828125 Z M 85.441406 274.457031 L 105.371094 265.917969 L 113.90625 285.832031 L 93.976562 294.371094 Z M 102.511719 314.289062 L 122.441406 305.746094 L 130.976562 325.660156 L 111.042969 334.203125 Z M 91.113281 342.742188 L 111.042969 334.203125 L 119.578125 354.117188 L 99.648438 362.65625 Z M 119.578125 354.117188 L 139.511719 345.574219 L 148.042969 365.488281 L 128.113281 374.03125 Z M 108.183594 382.570312 L 128.113281 374.03125 L 136.648438 393.945312 L 116.714844 402.484375 Z M 136.648438 393.945312 L 156.578125 385.402344 L 165.113281 405.316406 L 145.183594 413.859375 Z M 125.25 422.398438 L 145.183594 413.859375 L 153.714844 433.773438 L 133.785156 442.316406 Z M 153.714844 433.773438 L 173.648438 425.230469 L 182.183594 445.144531 L 162.25 453.6875 Z M 113.90625 285.832031 L 133.839844 277.289062 L 142.371094 297.203125 L 122.441406 305.746094 Z M 125.304688 257.375 L 145.234375 248.832031 L 153.769531 268.746094 L 133.839844 277.289062 Z M 96.835938 246.003906 L 116.769531 237.460938 L 125.304688 257.375 L 105.371094 265.917969 Z M 142.371094 297.203125 L 162.304688 288.660156 L 170.839844 308.578125 L 150.90625 317.117188 Z M 130.976562 325.660156 L 150.90625 317.117188 L 159.441406 337.03125 L 139.511719 345.574219 Z M 159.441406 337.03125 L 179.371094 328.492188 L 187.90625 348.40625 L 167.976562 356.945312 Z M 148.042969 365.488281 L 167.976562 356.945312 L 176.511719 376.859375 L 156.578125 385.402344 Z M 176.511719 376.859375 L 196.441406 368.320312 L 204.976562 388.234375 L 185.042969 396.773438 Z M 165.113281 405.316406 L 185.042969 396.773438 L 193.578125 416.691406 L 173.648438 425.230469 Z M 108.234375 217.546875 L 128.164062 209.003906 L 136.699219 228.917969 L 116.769531 237.460938 Z M 153.769531 268.746094 L 173.699219 260.207031 L 182.234375 280.121094 L 162.304688 288.660156 Z M 165.164062 240.292969 L 185.097656 231.75 L 193.632812 251.664062 L 173.699219 260.207031 Z M 136.699219 228.917969 L 156.632812 220.378906 L 165.164062 240.292969 L 145.234375 248.832031 Z M 182.234375 280.121094 L 202.167969 271.578125 L 210.699219 291.492188 L 190.769531 300.035156 Z M 170.839844 308.578125 L 190.769531 300.035156 L 199.304688 319.949219 L 179.371094 328.492188 Z M 199.304688 319.949219 L 219.234375 311.40625 L 227.769531 331.320312 L 207.839844 339.863281 Z M 187.90625 348.40625 L 207.839844 339.863281 L 216.371094 359.777344 L 196.441406 368.320312 Z M 148.097656 200.464844 L 168.027344 191.921875 L 176.5625 211.835938 L 156.632812 220.378906 Z M 187.960938 183.378906 L 207.890625 174.835938 L 216.425781 194.75 L 196.496094 203.292969 Z M 193.632812 251.664062 L 213.5625 243.121094 L 222.097656 263.035156 L 202.167969 271.578125 Z M 176.5625 211.835938 L 196.492188 203.292969 L 205.027344 223.207031 L 185.097656 231.75 Z M 210.699219 291.492188 L 230.632812 282.949219 L 239.167969 302.867188 L 219.234375 311.40625 Z M 227.769531 331.320312 L 247.699219 322.78125 L 256.234375 342.695312 L 236.304688 351.234375 Z M 130.921875 490.683594 L 150.855469 482.144531 L 159.386719 502.058594 L 139.457031 510.597656 Z M 170.785156 473.601562 L 190.714844 465.058594 L 199.25 484.972656 L 179.320312 493.515625 Z M 147.992188 530.511719 L 167.921875 521.972656 L 176.457031 541.886719 L 156.527344 550.429688 Z M 187.855469 513.429688 L 207.785156 504.886719 L 216.320312 524.800781 L 196.390625 533.34375 Z M 142.320312 462.230469 L 162.25 453.6875 L 170.785156 473.601562 L 150.855469 482.144531 Z M 159.386719 502.058594 L 179.320312 493.515625 L 187.855469 513.429688 L 167.921875 521.972656 Z M 165.0625 570.34375 L 184.992188 561.800781 L 193.527344 581.714844 L 173.59375 590.257812 Z M 176.457031 541.886719 L 196.390625 533.34375 L 204.921875 553.257812 L 184.992188 561.800781 Z M 204.921875 553.257812 L 224.855469 544.71875 L 233.390625 564.632812 L 213.457031 573.171875 Z M 182.128906 610.171875 L 202.0625 601.628906 L 210.59375 621.542969 L 190.664062 630.085938 Z M 193.527344 581.714844 L 213.457031 573.171875 L 221.992188 593.085938 L 202.0625 601.628906 Z M 221.992188 593.085938 L 241.921875 584.546875 L 250.457031 604.460938 L 230.527344 613 Z M 199.199219 650 L 219.128906 641.457031 L 227.664062 661.371094 L 207.734375 669.914062 Z M 210.59375 621.542969 L 230.527344 613 L 239.0625 632.914062 L 219.128906 641.457031 Z M 239.0625 632.914062 L 258.992188 624.375 L 267.527344 644.289062 L 247.59375 652.832031 Z M 216.265625 689.828125 L 236.199219 681.285156 L 244.734375 701.199219 L 224.800781 709.742188 Z M 227.664062 661.371094 L 247.59375 652.832031 L 256.128906 672.746094 L 236.199219 681.285156 Z M 256.128906 672.746094 L 276.0625 664.203125 L 284.59375 684.117188 L 264.664062 692.660156 Z M 233.335938 729.65625 L 253.265625 721.113281 L 261.800781 741.027344 L 241.871094 749.570312 Z M 244.734375 701.199219 L 264.664062 692.660156 L 273.199219 712.574219 L 253.265625 721.113281 Z M 273.199219 712.574219 L 293.128906 704.03125 L 301.664062 723.945312 L 281.734375 732.488281 Z M 250.40625 769.484375 L 270.335938 760.941406 L 278.871094 780.859375 L 258.941406 789.398438 Z M 261.800781 741.027344 L 281.734375 732.488281 L 290.269531 752.402344 L 270.335938 760.941406 Z M 290.269531 752.402344 L 310.199219 743.859375 L 318.734375 763.773438 L 298.800781 772.316406 Z M 301.664062 723.945312 L 321.597656 715.402344 L 330.128906 735.316406 L 310.199219 743.859375 Z M 330.128906 735.316406 L 350.0625 726.777344 L 358.597656 746.691406 L 338.664062 755.230469 Z M 369.992188 718.234375 L 389.925781 709.691406 L 398.457031 729.605469 L 378.527344 738.148438 Z M 267.472656 809.3125 L 287.40625 800.773438 L 295.941406 820.6875 L 276.007812 829.226562 Z M 278.871094 780.859375 L 298.800781 772.316406 L 307.335938 792.230469 L 287.40625 800.773438 Z M 307.335938 792.230469 L 327.269531 783.6875 L 335.800781 803.601562 L 315.871094 812.144531 Z M 318.734375 763.773438 L 338.664062 755.230469 L 347.199219 775.148438 L 327.269531 783.6875 Z M 347.199219 775.148438 L 367.128906 766.605469 L 375.664062 786.519531 L 355.734375 795.0625 Z M 358.597656 746.691406 L 378.527344 738.148438 L 387.0625 758.0625 L 367.128906 766.605469 Z M 387.0625 758.0625 L 406.992188 749.523438 L 415.527344 769.4375 L 395.597656 777.976562 Z M 398.457031 729.605469 L 418.390625 721.066406 L 426.925781 740.980469 L 406.992188 749.523438 Z M 284.542969 849.140625 L 304.472656 840.601562 L 313.007812 860.515625 L 293.078125 869.054688 Z M 295.941406 820.6875 L 315.871094 812.144531 L 324.40625 832.058594 L 304.472656 840.601562 Z M 324.40625 832.058594 L 344.335938 823.515625 L 352.871094 843.429688 L 332.941406 851.972656 Z M 335.800781 803.601562 L 355.734375 795.0625 L 364.269531 814.976562 L 344.335938 823.515625 Z M 364.269531 814.976562 L 384.199219 806.433594 L 392.734375 826.347656 L 372.800781 834.890625 Z M 375.664062 786.519531 L 395.597656 777.976562 L 404.128906 797.890625 L 384.199219 806.433594 Z M 404.128906 797.890625 L 424.0625 789.351562 L 432.597656 809.265625 L 412.664062 817.804688 Z M 415.527344 769.4375 L 435.457031 760.894531 L 443.992188 780.808594 L 424.0625 789.351562 Z M 313.007812 860.515625 L 332.941406 851.972656 L 341.472656 871.886719 L 321.542969 880.429688 Z M 341.472656 871.886719 L 361.40625 863.34375 L 369.941406 883.261719 L 350.007812 891.800781 Z M 352.871094 843.429688 L 372.800781 834.890625 L 381.335938 854.804688 L 361.40625 863.34375 Z M 381.335938 854.804688 L 401.269531 846.261719 L 409.800781 866.175781 L 389.871094 874.71875 Z M 392.734375 826.347656 L 412.664062 817.804688 L 421.199219 837.71875 L 401.269531 846.261719 Z M 421.199219 837.71875 L 441.128906 829.179688 L 449.664062 849.09375 L 429.734375 857.632812 Z M 432.597656 809.265625 L 452.527344 800.722656 L 461.0625 820.636719 L 441.128906 829.179688 Z M 369.941406 883.261719 L 389.871094 874.71875 L 398.40625 894.632812 L 378.472656 903.175781 Z M 409.800781 866.175781 L 429.734375 857.632812 L 438.269531 877.550781 L 418.335938 886.089844 Z M 449.664062 849.09375 L 469.597656 840.550781 L 478.128906 860.464844 L 458.199219 869.007812 Z M 449.664062 849.09375 " fill-opacity="1" fill-rule="nonzero"/></g></g></g></g><g clip-path="url(#e26b72f8c6)"><g clip-path="url(#e1fef2a2c8)"><g clip-path="url(#72f3a6caeb)"><g clip-path="url(#83db3f2fc5)"><path fill="#ffffff" d="M 54.113281 311.457031 L 71.183594 351.285156 L 79.714844 371.199219 L 113.855469 450.855469 L 122.386719 470.769531 L 147.992188 530.511719 L 156.527344 550.429688 L 165.0625 570.34375 L 173.59375 590.257812 L 207.734375 669.914062 L 216.265625 689.828125 L 258.941406 789.398438 L 267.472656 809.3125 L 293.078125 869.054688 L 313.007812 860.515625 L 304.472656 840.601562 L 295.941406 820.6875 L 278.871094 780.859375 L 270.335938 760.941406 L 253.265625 721.113281 L 244.734375 701.199219 L 210.59375 621.542969 L 202.0625 601.628906 L 159.386719 502.058594 L 150.855469 482.144531 L 133.785156 442.316406 L 125.25 422.398438 L 116.714844 402.484375 L 108.183594 382.570312 L 74.042969 302.914062 Z M 341.472656 871.886719 L 321.542969 880.429688 L 313.007812 860.515625 L 332.941406 851.972656 Z M 85.441406 274.457031 L 93.976562 294.371094 L 74.042969 302.914062 L 65.507812 283 Z M 369.941406 883.261719 L 350.007812 891.800781 L 341.472656 871.886719 L 361.40625 863.34375 Z M 96.835938 246.003906 L 105.371094 265.917969 L 85.441406 274.457031 L 76.90625 254.542969 Z M 108.234375 217.546875 L 128.164062 209.003906 L 148.097656 200.464844 L 168.027344 191.921875 L 187.960938 183.378906 L 207.890625 174.839844 L 216.425781 194.753906 L 196.492188 203.292969 L 156.632812 220.378906 L 136.699219 228.917969 L 116.769531 237.460938 L 96.835938 246.003906 L 88.304688 226.089844 Z M 108.234375 217.546875 " fill-opacity="0.4" fill-rule="nonzero"/></g></g></g></g><g clip-path="url(#833a826a76)"><g clip-path="url(#5e404932aa)"><g clip-path="url(#0de5808240)"><g clip-path="url(#594f5239ee)"><path fill="#ffffff" d="M 441.183594 664.152344 L 421.253906 672.695312 L 429.785156 692.609375 L 463.925781 772.265625 L 472.457031 792.179688 L 489.527344 832.007812 L 509.457031 823.46875 L 500.925781 803.554688 L 475.320312 743.8125 L 466.785156 723.894531 L 458.253906 703.980469 Z M 244.890625 206.125 L 270.496094 265.867188 L 279.027344 285.78125 L 304.632812 345.523438 L 284.699219 354.066406 L 276.167969 334.152344 L 242.027344 254.496094 L 233.496094 234.582031 L 216.425781 194.753906 L 236.355469 186.210938 Z M 537.925781 834.839844 L 517.992188 843.382812 L 509.457031 823.46875 L 529.390625 814.925781 Z M 452.582031 635.699219 L 461.113281 655.613281 L 441.183594 664.152344 L 432.648438 644.238281 Z M 333.097656 356.898438 L 313.167969 365.4375 L 304.632812 345.523438 L 324.5625 336.984375 Z M 247.753906 157.753906 L 256.289062 177.667969 L 236.355469 186.210938 L 227.820312 166.296875 Z M 247.753906 157.753906 " fill-opacity="0.5" fill-rule="nonzero"/></g></g></g></g><g clip-path="url(#6987e72404)"><g clip-path="url(#c1bd9026bd)"><g clip-path="url(#bcc1596932)"><g clip-path="url(#f67d2a91a9)"><path fill="#000000" d="M 369.941406 883.261719 L 378.472656 903.175781 L 398.40625 894.632812 L 418.335938 886.089844 L 438.269531 877.550781 L 478.128906 860.464844 L 498.0625 851.921875 L 489.527344 832.007812 L 469.597656 840.550781 L 449.664062 849.09375 L 429.734375 857.632812 L 409.800781 866.175781 Z M 361.457031 698.320312 L 341.527344 706.863281 L 332.992188 686.949219 L 352.925781 678.40625 L 310.25 578.835938 L 301.71875 558.921875 L 293.183594 539.007812 L 284.648438 519.089844 L 267.578125 479.261719 L 259.046875 459.347656 L 233.441406 399.605469 L 213.511719 408.148438 L 204.976562 388.234375 L 224.90625 379.691406 L 244.839844 371.148438 L 264.769531 362.609375 L 273.304688 382.523438 L 253.371094 391.0625 L 261.90625 410.980469 L 296.046875 490.636719 L 304.578125 510.550781 L 338.71875 590.207031 L 347.25 610.121094 L 372.855469 669.863281 L 392.785156 661.324219 L 401.320312 681.238281 L 381.390625 689.777344 Z M 637.582031 792.132812 L 629.046875 772.21875 L 648.976562 763.675781 L 657.511719 783.589844 Z M 580.703125 604.363281 L 560.769531 612.902344 L 552.238281 592.988281 L 572.167969 584.445312 Z M 432.753906 314.1875 L 424.21875 294.273438 L 444.152344 285.734375 L 452.683594 305.648438 Z M 375.875 126.417969 L 355.945312 134.960938 L 347.410156 115.046875 L 367.339844 106.503906 Z M 609.167969 615.734375 L 626.238281 655.5625 L 634.769531 675.476562 L 668.910156 755.132812 L 648.976562 763.675781 L 640.441406 743.761719 L 631.910156 723.847656 L 597.769531 644.191406 L 589.238281 624.277344 L 580.703125 604.363281 L 600.632812 595.820312 Z M 404.339844 137.792969 L 438.480469 217.449219 L 447.011719 237.363281 L 464.082031 277.191406 L 444.152344 285.734375 L 435.617188 265.820312 L 427.082031 245.902344 L 410.011719 206.074219 L 401.480469 186.160156 L 375.875 126.417969 L 395.808594 117.875 Z M 404.339844 137.792969 " fill-opacity="0.3" fill-rule="nonzero"/></g></g></g></g></g></g></g></g><g fill="#ffffff" fill-opacity="1"><g transform="translate(616.024335, 789.004056)"><g><path d="M 3.9375 0.140625 C 3.382812 0.140625 2.945312 -0.015625 2.625 -0.328125 C 2.300781 -0.640625 2.140625 -1.050781 2.140625 -1.5625 C 2.140625 -2.070312 2.300781 -2.488281 2.625 -2.8125 C 2.945312 -3.144531 3.382812 -3.3125 3.9375 -3.3125 C 4.5 -3.3125 4.941406 -3.15625 5.265625 -2.84375 C 5.585938 -2.53125 5.75 -2.113281 5.75 -1.59375 C 5.75 -1.070312 5.582031 -0.648438 5.25 -0.328125 C 4.925781 -0.015625 4.488281 0.140625 3.9375 0.140625 Z M 3.9375 0.140625 "/></g></g></g><g fill="#000000" fill-opacity="1"><g transform="translate(705.26117, 904.053489)"><g><path d="M 3.9375 0.140625 C 3.382812 0.140625 2.945312 -0.015625 2.625 -0.328125 C 2.300781 -0.640625 2.140625 -1.050781 2.140625 -1.5625 C 2.140625 -2.070312 2.300781 -2.488281 2.625 -2.8125 C 2.945312 -3.144531 3.382812 -3.3125 3.9375 -3.3125 C 4.5 -3.3125 4.941406 -3.15625 5.265625 -2.84375 C 5.585938 -2.53125 5.75 -2.113281 5.75 -1.59375 C 5.75 -1.070312 5.582031 -0.648438 5.25 -0.328125 C 4.925781 -0.015625 4.488281 0.140625 3.9375 0.140625 Z M 3.9375 0.140625 "/></g></g></g></svg>