<svg xmlns="http://www.w3.org/2000/svg" xmlns:xlink="http://www.w3.org/1999/xlink" width="1080" zoomAndPan="magnify" viewBox="0 0 810 1012.49997" height="1350" preserveAspectRatio="xMidYMid meet" version="1.0"><defs><g/><clipPath id="252c206240"><path d="M 5 83.785156 L 808 83.785156 L 808 921 L 5 921 Z M 5 83.785156 " clip-rule="nonzero"/></clipPath></defs><path fill="#000000" d="M 754.109375 604.082031 C 754.109375 604.128906 754.085938 604.148438 754.039062 604.148438 C 753.992188 604.148438 753.96875 604.128906 753.96875 604.082031 C 753.96875 604.035156 753.992188 604.011719 754.039062 604.011719 C 754.085938 604.011719 754.109375 604.035156 754.109375 604.082031 Z M 754.109375 604.082031 " fill-opacity="1" fill-rule="nonzero"/><path fill="#32648d" d="M 650.683594 597.453125 L 650.753906 597.523438 L 650.753906 597.558594 L 650.648438 597.59375 C 645.589844 599.441406 641.402344 600.207031 637.878906 601.777344 C 634.285156 603.207031 631.390625 605.824219 629.679688 609.171875 L 629.644531 609.242188 C 627.480469 613.253906 625.597656 620.371094 626.15625 632.472656 C 627.585938 633.519531 629.332031 634.320312 631.109375 634.878906 L 631.25 634.914062 C 637.148438 636.726562 647.019531 637.914062 658.046875 637.738281 C 680.03125 637.496094 707.109375 632.296875 721.484375 625.53125 C 733.871094 619.636719 744.480469 612.519531 753.933594 604.082031 C 705.921875 614.125 678.808594 611.441406 662.164062 604.5 C 657.839844 602.617188 654.035156 600.277344 650.683594 597.453125 Z M 650.683594 597.453125 " fill-opacity="1" fill-rule="nonzero"/><path fill="#32648d" d="M 601.449219 228.566406 L 601.660156 228.882812 L 601.902344 229.160156 Z M 601.449219 228.566406 " fill-opacity="1" fill-rule="nonzero"/><path fill="#32648d" d="M 417.804688 756.921875 C 417.769531 756.050781 417.804688 755.144531 417.769531 754.273438 C 417.769531 753.921875 417.734375 753.679688 417.734375 753.328125 Z M 417.804688 756.921875 " fill-opacity="1" fill-rule="nonzero"/><path fill="#32648d" d="M 380.992188 603 C 378.96875 601.988281 376.597656 601.253906 374.050781 600.90625 L 373.945312 600.90625 L 373.945312 600.835938 L 373.210938 600.835938 C 371.398438 601.011719 368.746094 601.640625 363.582031 607.394531 C 351.578125 620.996094 347.390625 629.542969 337.480469 637.53125 C 327.570312 645.484375 314.730469 649.738281 289.050781 655.074219 C 280.917969 656.75 276.242188 658.597656 273.171875 660.097656 C 274.183594 660.933594 274.078125 661.144531 275.578125 661.945312 C 279.347656 664.039062 284.164062 665.886719 288.070312 666.898438 C 299.097656 669.6875 317.242188 672.933594 336.15625 669.6875 C 355.066406 666.410156 374.746094 657.238281 391.53125 633.414062 C 394.425781 629.296875 394.742188 623.230469 392.367188 616.707031 C 389.996094 610.183594 384.691406 604.570312 380.992188 603 Z M 380.992188 603 " fill-opacity="1" fill-rule="nonzero"/><path fill="#32648d" d="M 521.894531 136.171875 L 519.90625 136.554688 C 520.566406 136.417969 521.300781 136.347656 521.964844 136.207031 C 521.929688 136.207031 521.929688 136.171875 521.894531 136.171875 Z M 521.894531 136.171875 " fill-opacity="1" fill-rule="nonzero"/><path fill="#32648d" d="M 618.96875 324.453125 C 595.554688 324.765625 582.433594 330.871094 575.523438 338.855469 C 565.753906 350.191406 564.847656 370.074219 570.917969 394.558594 C 576.957031 419.078125 589.414062 446.496094 601.136719 469.269531 C 607 480.675781 612.6875 490.929688 617.257812 499.269531 C 621.863281 507.640625 625.246094 513.566406 627.304688 518.625 C 629.191406 523.300781 631.320312 527.414062 633.449219 531.253906 C 642.519531 511.894531 644.125 492.886719 643.21875 473.074219 C 642.03125 448.554688 636.378906 423.476562 637.214844 398.082031 C 638.160156 368.398438 643.949219 349.078125 644.4375 326.125 C 636.796875 325.078125 627.933594 324.453125 618.96875 324.453125 Z M 623.292969 342.101562 L 623.257812 342.378906 C 623.257812 342.484375 623.257812 342.589844 623.257812 342.730469 C 623.257812 344.332031 622.804688 345.867188 622.003906 347.125 L 622.039062 347.089844 C 620.957031 349.078125 619.699219 350.820312 618.234375 352.320312 C 614.816406 356.121094 610.242188 358.773438 605.078125 359.679688 L 604.941406 359.714844 C 604.207031 359.820312 603.371094 359.855469 602.496094 359.855469 C 598.101562 359.855469 594.054688 358.460938 590.738281 356.085938 L 590.808594 356.121094 C 589.097656 354.9375 587.597656 353.578125 586.375 352.042969 L 586.339844 352.007812 C 585.261719 350.820312 584.492188 349.285156 584.179688 347.648438 L 584.179688 347.578125 C 584.179688 347.402344 584.144531 347.226562 584.144531 347.054688 C 584.144531 345.554688 584.703125 344.160156 585.644531 343.113281 C 586.761719 341.820312 588.085938 340.777344 589.621094 340.007812 L 589.691406 339.972656 C 593.007812 338.089844 597.472656 336.695312 602.53125 335.925781 C 604.417969 335.648438 606.300781 335.507812 608.046875 335.472656 L 608.046875 335.578125 L 609.753906 335.578125 C 612.023438 335.648438 614.117188 335.890625 615.964844 336.347656 C 617.816406 336.765625 619.421875 337.390625 620.710938 338.265625 C 622.003906 339.136719 622.980469 340.460938 623.292969 342.101562 Z M 623.292969 342.101562 " fill-opacity="1" fill-rule="nonzero"/><path fill="#32648d" d="M 234.964844 478.164062 C 234.964844 471.886719 235.453125 465.75 236.359375 459.714844 L 236.289062 460.378906 C 239.847656 434.601562 240.335938 410.5 239.917969 391.457031 C 239.5 372.898438 238.175781 360.550781 238.175781 352.84375 C 238.175781 352.738281 238.175781 352.632812 238.175781 352.53125 C 238.175781 352.425781 238.175781 352.285156 238.175781 352.179688 L 238.175781 352.007812 L 238.140625 351.796875 L 238.140625 351.761719 C 238.140625 351.691406 238.140625 351.65625 238.140625 351.589844 C 238.140625 310.289062 245.398438 270.703125 258.550781 233.972656 C 268.21875 208.023438 282.59375 181.691406 304.121094 160.34375 C 282.941406 153.296875 245.398438 142.554688 204.710938 140.53125 C 200.804688 140.324219 196.230469 140.183594 191.660156 140.183594 L 191.625 140.183594 L 191.625 140.21875 C 187.265625 140.21875 182.867188 140.359375 178.542969 140.601562 C 143.71875 142.625 110.777344 152.84375 87.257812 178.097656 C 63.671875 203.351562 48.144531 244.753906 51.527344 313.289062 C 52.191406 326.265625 57.773438 362.609375 67.335938 405.789062 C 76.929688 448.972656 90.433594 499.789062 106.695312 544.679688 C 122.992188 589.570312 142.742188 628.636719 161.511719 647.121094 C 170.96875 656.363281 179.167969 660.097656 186.601562 659.78125 C 194.070312 659.433594 203.070312 655.074219 214.0625 641.714844 C 235.660156 615.417969 256.074219 592.152344 277.148438 569.550781 L 276.453125 570.28125 C 250.980469 547.785156 234.964844 514.894531 234.964844 478.164062 Z M 234.964844 478.164062 " fill-opacity="1" fill-rule="nonzero"/><path fill="#32648d" d="M 420.5625 138.472656 L 420.5625 138.40625 C 379.808594 138.507812 350.601562 150.960938 328.410156 169.621094 C 305.554688 188.910156 290.234375 215.3125 280.152344 242.34375 C 268.183594 274.433594 264.101562 305.476562 262.460938 326.542969 L 262.914062 326.265625 C 275.230469 319.289062 291.386719 312.3125 308.695312 308.269531 C 326 304.222656 344.632812 303 361.523438 309.628906 C 378.410156 316.253906 392.367188 331.847656 397.429688 355.496094 C 421.679688 469.097656 389.890625 511.335938 378.167969 543.214844 C 374.433594 552.390625 370.558594 564.179688 367.316406 576.210938 L 366.757812 578.546875 C 368.222656 578.199219 369.722656 577.78125 371.1875 577.640625 C 379.457031 576.945312 385.949219 579.734375 389.785156 581.410156 C 401.582031 586.363281 409.675781 596.757812 414.039062 608.613281 C 415.1875 611.71875 415.992188 615.066406 416.480469 618.519531 C 416.933594 619.707031 417.179688 621.101562 417.179688 622.53125 C 417.179688 622.671875 417.179688 622.8125 417.179688 622.949219 C 416.621094 640.390625 416.269531 660.863281 416.269531 681.441406 C 416.269531 705.824219 416.757812 730.101562 417.667969 754.273438 C 418.46875 772.617188 419.621094 788.871094 421.050781 801.671875 C 422.550781 814.71875 424.644531 824.589844 425.972656 827.9375 C 430.367188 839.097656 436.824219 853.714844 448.476562 863.652344 C 460.132812 873.558594 476.847656 880.1875 507.378906 873.558594 C 533.863281 867.804688 550.191406 859.816406 561.113281 848.339844 C 572.035156 836.867188 578.527344 820.890625 582.675781 796.441406 C 588.921875 759.816406 601.449219 653.609375 602.984375 633.625 C 602.289062 618.554688 604.484375 606.976562 609.265625 598.152344 C 614.152344 589.082031 621.757812 583.535156 628.285156 580.535156 C 631.5625 579.035156 634.632812 578.027344 637.148438 577.292969 C 634.074219 572.863281 631.320312 569.167969 628.457031 565.574219 L 628.773438 565.957031 C 619.734375 554.933594 612.023438 542.273438 606.195312 528.636719 L 605.8125 527.625 C 602.289062 520.335938 599.320312 514.824219 596.214844 509.417969 L 596.949219 510.777344 C 592.378906 502.40625 586.585938 491.941406 580.515625 480.1875 C 568.371094 456.644531 555.183594 428.113281 548.308594 400.316406 C 541.46875 372.550781 540.492188 343.808594 558.007812 323.546875 C 573.5 305.546875 600.753906 298.082031 641.613281 302.269531 C 640.425781 298.605469 639.695312 295.570312 637.636719 290.6875 C 627.691406 267.320312 615.722656 247.160156 601.519531 228.882812 C 566.871094 184.167969 510.867188 139.90625 424.402344 138.472656 Z M 420.5625 138.472656 " fill-opacity="1" fill-rule="nonzero"/><path fill="#32648d" d="M 261.972656 354.796875 L 262.042969 354.761719 L 262.144531 354.65625 Z M 261.972656 354.796875 " fill-opacity="1" fill-rule="nonzero"/><path fill="#32648d" d="M 313.265625 331.183594 L 313.613281 331.148438 L 313.894531 331.042969 Z M 313.265625 331.183594 " fill-opacity="1" fill-rule="nonzero"/><path fill="#32648d" d="M 356.5 535.019531 C 370.492188 496.859375 398.019531 469.027344 374.851562 360.414062 C 371.046875 342.625 363.546875 335.4375 353.21875 331.394531 C 348.195312 329.542969 342.367188 328.464844 336.261719 328.464844 C 335.875 328.464844 335.457031 328.464844 335.074219 328.464844 L 335.144531 328.464844 C 327.710938 328.53125 320.523438 329.472656 313.613281 331.148438 C 298.957031 334.847656 286.046875 340.078125 274.042969 346.773438 C 269.542969 349.25 265.671875 351.832031 262.042969 354.726562 L 261.378906 355.355469 C 261.585938 360.449219 262.566406 372.792969 262.984375 390.96875 C 263.402344 410.847656 262.914062 436.207031 259.109375 463.65625 C 250.875 523.300781 293.65625 572.6875 343.902344 572.757812 C 346.867188 560.515625 351.683594 548.097656 356.5 535.019531 Z M 326.804688 361.703125 C 325.164062 360.027344 323.835938 358.144531 322.757812 356.085938 L 322.6875 355.949219 C 321.777344 354.484375 321.253906 352.703125 321.253906 350.785156 C 321.253906 350.4375 321.289062 350.089844 321.324219 349.738281 L 321.324219 349.773438 C 321.847656 346.007812 324.917969 344.054688 327.886719 342.972656 C 330.640625 342.066406 333.710938 341.542969 336.992188 341.542969 C 337.480469 341.542969 337.96875 341.542969 338.527344 341.578125 L 338.492188 341.4375 C 340.308594 341.4375 342.261719 341.613281 344.214844 341.890625 C 349.484375 342.625 354.195312 344.054688 357.753906 346.148438 C 359.535156 347.125 361.070312 348.34375 362.289062 349.808594 L 362.324219 349.84375 C 363.511719 351.203125 364.210938 352.984375 364.210938 354.972656 C 364.210938 355.25 364.210938 355.53125 364.175781 355.808594 L 364.175781 355.773438 C 363.824219 357.867188 362.882812 359.679688 361.59375 361.144531 C 360.160156 362.890625 358.558594 364.390625 356.742188 365.644531 L 356.671875 365.679688 C 353.148438 368.261719 348.714844 369.796875 343.9375 369.796875 C 342.996094 369.796875 342.050781 369.726562 341.144531 369.621094 L 341.25 369.621094 C 335.457031 368.644531 330.503906 365.785156 326.804688 361.703125 Z M 326.804688 361.703125 " fill-opacity="1" fill-rule="nonzero"/><path fill="#32648d" d="M 273.347656 347.125 C 273.589844 346.984375 273.835938 346.914062 274.042969 346.773438 C 274.078125 346.773438 274.113281 346.738281 274.148438 346.703125 Z M 273.347656 347.125 " fill-opacity="1" fill-rule="nonzero"/><path fill="#32648d" d="M 620.117188 214.652344 C 635.226562 234.007812 648.3125 256.054688 658.398438 279.703125 L 659.128906 281.621094 C 662.933594 290.828125 665.480469 298.605469 666.910156 304.640625 C 667.644531 307.675781 668.132812 310.222656 668.304688 312.871094 C 668.375 314.199219 668.445312 315.558594 667.886719 317.894531 C 667.886719 318 667.714844 318.242188 667.679688 318.347656 C 668.726562 348.902344 661.222656 369.621094 660.351562 398.78125 C 659.652344 419.917969 664.992188 444.75 666.316406 471.851562 C 667.574219 497.316406 664.539062 525.289062 648.171875 552.738281 C 649.570312 554.414062 650.789062 556.085938 652.117188 557.761719 C 695.347656 488.875 726.507812 412.660156 743.117188 347.679688 C 752.015625 312.699219 756.726562 280.992188 757.144531 255.878906 C 757.496094 230.765625 752.851562 212.558594 746.992188 204.953125 C 700.722656 145.101562 638.160156 129.859375 585.679688 129.441406 L 585.679688 129.476562 L 580.652344 129.476562 C 560.414062 129.789062 540.875 132.125 521.996094 136.207031 C 564.847656 155.460938 597.296875 185.109375 620.117188 214.652344 Z M 620.117188 214.652344 " fill-opacity="1" fill-rule="nonzero"/><g clip-path="url(#252c206240)"><path fill="#000000" d="M 426.320312 92.78125 L 425.972656 92.78125 C 385.355469 92.085938 350.496094 102.058594 322.335938 118.664062 C 294.632812 108.933594 237.164062 92.15625 176.550781 95.503906 C 134.367188 97.839844 88.304688 110.816406 54.179688 147.265625 C 20.160156 183.714844 2.1875 240.113281 5.957031 316.847656 C 7.003906 338.019531 12.972656 372.550781 22.847656 417.265625 C 32.757812 461.980469 46.644531 514.335938 63.984375 562.085938 C 81.328125 609.871094 100.308594 652.773438 130.003906 681.929688 C 144.835938 696.546875 165.246094 708.824219 189.289062 707.8125 C 206.175781 707.113281 221.425781 699.617188 234.613281 688.558594 C 241.035156 697.105469 247.875 700.835938 254.121094 704.289062 C 261.972656 708.648438 269.613281 711.613281 277.535156 713.566406 C 291.769531 717.160156 316.125 721.972656 344.667969 717.054688 C 354.40625 715.414062 364.628906 712.207031 374.816406 707.636719 C 375.199219 719.148438 375.65625 730.414062 376.074219 741.820312 C 377.503906 777.953125 378.375 811.335938 389.089844 840.597656 C 390.796875 845.375 395.542969 870 414.140625 891.730469 C 432.742188 913.496094 469.238281 927.0625 510.761719 918.066406 C 540.074219 911.71875 577.304688 900.277344 602.078125 864.628906 C 626.539062 829.402344 637.566406 778.863281 639.761719 696.894531 C 640.320312 692.464844 640.984375 688.699219 641.648438 685.175781 L 647.476562 685.699219 L 648.171875 685.699219 C 679.4375 687.128906 713.355469 682.628906 741.6875 669.304688 C 766.777344 657.550781 785.757812 645.65625 799.609375 624.554688 C 803.066406 619.324219 806.832031 613.007812 807.878906 602.128906 C 808.925781 591.246094 802.75 574.222656 792.492188 566.375 C 771.976562 550.609375 759.097656 556.609375 745.28125 559.503906 C 732.964844 562.398438 718.726562 564.214844 704.140625 564.597656 L 703.863281 564.597656 C 743.710938 496.6875 772.289062 424.554688 788.585938 360.726562 C 798.25 323.058594 803.660156 288.316406 804.078125 257.9375 C 804.53125 227.558594 802.089844 200.664062 784.082031 177.398438 C 727.871094 104.710938 648.835938 84.621094 587.667969 83.921875 C 585.785156 83.886719 583.863281 83.851562 581.980469 83.886719 L 581.980469 83.785156 C 548.691406 84.0625 516.660156 89.085938 486.335938 98.050781 L 484.90625 98.539062 C 467.390625 95.257812 447.046875 93.167969 426.320312 92.78125 Z M 508.984375 115 C 530.335938 109.734375 554.902344 106.558594 580.164062 106.246094 L 580.375 106.246094 L 580.410156 106.105469 C 638.261719 105.546875 712.132812 121.976562 765.207031 190.585938 C 777.140625 206 780.699219 228.535156 780.28125 256.296875 C 779.824219 284.027344 774.765625 317.230469 765.484375 353.609375 C 747.480469 424.066406 713.492188 506.207031 665.621094 579.910156 C 667.191406 581.058594 669.003906 582.070312 670.886719 582.839844 L 671.0625 582.910156 C 681.042969 587.09375 703.828125 590.6875 749.292969 581.234375 C 760.738281 578.792969 769.113281 577.152344 777.800781 583.851562 C 781.710938 587.199219 784.152344 592.152344 784.152344 597.699219 C 784.152344 598.046875 784.152344 598.394531 784.117188 598.742188 L 784.117188 598.710938 C 783.59375 603.140625 782.023438 607.113281 779.617188 610.429688 C 770.824219 623.789062 753.480469 636.449219 731.289062 646.878906 C 711.609375 656.15625 683.378906 661.003906 658.363281 661.28125 C 645.800781 661.421875 634.25 660.445312 624.410156 657.339844 L 623.78125 657.097656 C 619.980469 694.070312 611.253906 767.070312 605.566406 800.382812 C 601.03125 827.238281 593.074219 848.585938 577.863281 864.558594 C 562.683594 880.535156 541.222656 890.160156 512.332031 896.441406 C 476.566406 904.21875 450.464844 895.847656 433.648438 881.511719 C 416.863281 867.210938 409.1875 848.238281 404.546875 836.621094 C 401.371094 828.597656 399.730469 818.207031 398.125 804.324219 C 396.519531 790.441406 395.371094 773.457031 394.566406 754.304688 C 393.800781 734.84375 393.378906 711.960938 393.378906 688.976562 C 393.378906 681.410156 393.449219 673.875 393.519531 666.304688 C 379.109375 679.699219 360.894531 689.117188 340.65625 692.710938 L 340.027344 692.8125 C 316.265625 696.894531 295.085938 692.882812 282.417969 689.675781 C 275.683594 687.964844 269.824219 685.558594 264.308594 682.558594 C 258.515625 679.421875 253.003906 675.828125 249.304688 668.816406 C 247.839844 666.132812 246.96875 662.886719 246.96875 659.46875 C 246.96875 658.109375 247.105469 656.75 247.386719 655.492188 C 248.640625 650.820312 251.257812 646.84375 254.851562 644.050781 L 254.886719 644.015625 C 261.726562 638.402344 270.730469 635.261719 284.375 632.402344 C 309.148438 627.242188 317.800781 623.71875 323.070312 619.496094 C 327.535156 615.871094 332.632812 608.546875 341.5625 597.800781 C 341.527344 597.488281 341.492188 596.964844 341.457031 596.476562 L 341.457031 596.371094 C 324.570312 595.882812 308.832031 591.316406 295.085938 583.605469 L 295.609375 583.886719 C 290.445312 589.394531 264.03125 617.648438 231.859375 656.851562 C 218.320312 673.246094 203.351562 682.664062 187.578125 683.328125 C 171.808594 683.988281 157.535156 675.96875 145.390625 664.074219 C 121.140625 640.25 101.808594 599.265625 84.957031 552.949219 C 68.136719 506.628906 54.460938 455.039062 44.722656 411.09375 C 34.953125 367.144531 29.230469 331.707031 28.394531 314.617188 C 24.765625 241.996094 41.550781 193.0625 70.335938 162.191406 C 99.160156 131.324219 138.65625 119.640625 177.144531 117.40625 C 246.269531 113.394531 311.871094 137.777344 325.164062 143.007812 C 350.777344 125.429688 383.75 114.476562 424.890625 115.175781 C 445.617188 115.488281 465.539062 118.246094 484.59375 123.164062 L 482.847656 122.777344 L 483.546875 122.464844 C 490.210938 119.953125 498.722656 117.40625 507.449219 115.316406 Z M 508.984375 115 " fill-opacity="1" fill-rule="nonzero"/></g><g fill="#000000" fill-opacity="1"><g transform="translate(443.639523, 634.871806)"><g><path d="M 3.9375 0.140625 C 3.382812 0.140625 2.945312 -0.015625 2.625 -0.328125 C 2.300781 -0.640625 2.140625 -1.050781 2.140625 -1.5625 C 2.140625 -2.070312 2.300781 -2.488281 2.625 -2.8125 C 2.945312 -3.144531 3.382812 -3.3125 3.9375 -3.3125 C 4.5 -3.3125 4.941406 -3.15625 5.265625 -2.84375 C 5.585938 -2.53125 5.75 -2.113281 5.75 -1.59375 C 5.75 -1.070312 5.582031 -0.648438 5.25 -0.328125 C 4.925781 -0.015625 4.488281 0.140625 3.9375 0.140625 Z M 3.9375 0.140625 "/></g></g></g><g fill="#ffffff" fill-opacity="1"><g transform="translate(683.145416, 775.802203)"><g><path d="M 45.609375 1.703125 C 39.160156 1.703125 34.070312 -0.101562 30.34375 -3.71875 C 26.613281 -7.34375 24.75 -12.148438 24.75 -18.140625 C 24.75 -24.015625 26.613281 -28.84375 30.34375 -32.625 C 34.070312 -36.414062 39.160156 -38.3125 45.609375 -38.3125 C 52.160156 -38.3125 57.300781 -36.503906 61.03125 -32.890625 C 64.757812 -29.273438 66.625 -24.472656 66.625 -18.484375 C 66.625 -12.492188 64.726562 -7.628906 60.9375 -3.890625 C 57.15625 -0.160156 52.046875 1.703125 45.609375 1.703125 Z M 45.609375 1.703125 "/></g></g></g></svg>