<svg xmlns="http://www.w3.org/2000/svg" xmlns:xlink="http://www.w3.org/1999/xlink" width="1080" zoomAndPan="magnify" viewBox="0 0 810 1012.49997" height="1350" preserveAspectRatio="xMidYMid meet" version="1.0"><defs><g/><clipPath id="37da2ce4aa"><path d="M 0.199219 162 L 809.800781 162 L 809.800781 850 L 0.199219 850 Z M 0.199219 162 " clip-rule="nonzero"/></clipPath><clipPath id="8f917f8dac"><path d="M 0.199219 126.960938 L 809.800781 126.960938 L 809.800781 884.835938 L 0.199219 884.835938 Z M 0.199219 126.960938 " clip-rule="nonzero"/></clipPath></defs><path fill="#00d8ff" d="M 477.300781 505.234375 C 477.300781 506.414062 477.269531 507.597656 477.210938 508.777344 C 477.152344 509.960938 477.066406 511.140625 476.953125 512.316406 C 476.835938 513.496094 476.691406 514.667969 476.515625 515.835938 C 476.34375 517.007812 476.140625 518.171875 475.910156 519.332031 C 475.679688 520.492188 475.421875 521.648438 475.132812 522.792969 C 474.84375 523.941406 474.53125 525.082031 474.1875 526.214844 C 473.84375 527.34375 473.472656 528.46875 473.074219 529.582031 C 472.675781 530.695312 472.25 531.796875 471.796875 532.890625 C 471.34375 533.984375 470.863281 535.066406 470.359375 536.136719 C 469.851562 537.203125 469.320312 538.261719 468.761719 539.304688 C 468.207031 540.347656 467.621094 541.375 467.015625 542.390625 C 466.40625 543.40625 465.773438 544.402344 465.117188 545.386719 C 464.457031 546.371094 463.777344 547.335938 463.070312 548.289062 C 462.367188 549.238281 461.640625 550.167969 460.890625 551.085938 C 460.136719 552 459.367188 552.894531 458.570312 553.769531 C 457.777344 554.648438 456.960938 555.503906 456.125 556.339844 C 455.289062 557.175781 454.429688 557.992188 453.554688 558.785156 C 452.679688 559.582031 451.78125 560.351562 450.867188 561.101562 C 449.953125 561.851562 449.019531 562.582031 448.070312 563.285156 C 447.121094 563.988281 446.152344 564.671875 445.167969 565.328125 C 444.1875 565.984375 443.1875 566.617188 442.171875 567.226562 C 441.15625 567.835938 440.128906 568.417969 439.085938 568.976562 C 438.039062 569.53125 436.984375 570.0625 435.914062 570.570312 C 434.84375 571.074219 433.761719 571.554688 432.671875 572.007812 C 431.578125 572.460938 430.472656 572.886719 429.359375 573.285156 C 428.246094 573.683594 427.121094 574.054688 425.992188 574.398438 C 424.859375 574.738281 423.71875 575.054688 422.570312 575.34375 C 421.421875 575.628906 420.269531 575.890625 419.109375 576.121094 C 417.949219 576.351562 416.78125 576.554688 415.613281 576.726562 C 414.441406 576.898438 413.269531 577.046875 412.089844 577.160156 C 410.914062 577.277344 409.734375 577.363281 408.550781 577.421875 C 407.371094 577.480469 406.1875 577.507812 405.003906 577.507812 C 403.820312 577.507812 402.640625 577.480469 401.457031 577.421875 C 400.273438 577.363281 399.09375 577.277344 397.917969 577.160156 C 396.742188 577.046875 395.566406 576.898438 394.394531 576.726562 C 393.226562 576.554688 392.0625 576.351562 390.898438 576.121094 C 389.738281 575.890625 388.585938 575.628906 387.4375 575.34375 C 386.289062 575.054688 385.152344 574.738281 384.019531 574.398438 C 382.886719 574.054688 381.761719 573.683594 380.648438 573.285156 C 379.535156 572.886719 378.429688 572.460938 377.339844 572.007812 C 376.246094 571.554688 375.164062 571.074219 374.09375 570.570312 C 373.023438 570.0625 371.96875 569.53125 370.925781 568.972656 C 369.882812 568.417969 368.851562 567.835938 367.835938 567.226562 C 366.824219 566.617188 365.824219 565.984375 364.839844 565.328125 C 363.855469 564.671875 362.886719 563.988281 361.9375 563.285156 C 360.988281 562.582031 360.054688 561.851562 359.140625 561.101562 C 358.226562 560.351562 357.332031 559.582031 356.453125 558.785156 C 355.578125 557.992188 354.71875 557.175781 353.882812 556.339844 C 353.046875 555.503906 352.230469 554.648438 351.4375 553.769531 C 350.640625 552.894531 349.871094 552 349.121094 551.085938 C 348.367188 550.167969 347.640625 549.238281 346.9375 548.289062 C 346.230469 547.335938 345.550781 546.371094 344.894531 545.386719 C 344.234375 544.402344 343.601562 543.40625 342.996094 542.390625 C 342.386719 541.375 341.804688 540.347656 341.246094 539.304688 C 340.6875 538.261719 340.15625 537.203125 339.648438 536.132812 C 339.144531 535.066406 338.664062 533.984375 338.210938 532.890625 C 337.757812 531.796875 337.332031 530.695312 336.933594 529.582031 C 336.535156 528.46875 336.164062 527.34375 335.820312 526.214844 C 335.480469 525.082031 335.164062 523.941406 334.875 522.792969 C 334.589844 521.648438 334.328125 520.492188 334.097656 519.332031 C 333.867188 518.171875 333.664062 517.007812 333.492188 515.835938 C 333.316406 514.667969 333.171875 513.496094 333.058594 512.316406 C 332.941406 511.140625 332.855469 509.960938 332.796875 508.777344 C 332.738281 507.597656 332.710938 506.414062 332.710938 505.234375 C 332.710938 504.050781 332.738281 502.867188 332.796875 501.6875 C 332.855469 500.503906 332.941406 499.324219 333.058594 498.148438 C 333.171875 496.972656 333.316406 495.796875 333.492188 494.628906 C 333.664062 493.457031 333.867188 492.292969 334.097656 491.132812 C 334.328125 489.972656 334.589844 488.820312 334.875 487.671875 C 335.164062 486.523438 335.480469 485.382812 335.820312 484.253906 C 336.164062 483.121094 336.535156 481.996094 336.933594 480.882812 C 337.332031 479.769531 337.757812 478.667969 338.210938 477.574219 C 338.664062 476.480469 339.144531 475.398438 339.648438 474.332031 C 340.15625 473.261719 340.6875 472.207031 341.246094 471.160156 C 341.804688 470.117188 342.386719 469.089844 342.996094 468.074219 C 343.601562 467.0625 344.234375 466.0625 344.894531 465.078125 C 345.550781 464.09375 346.230469 463.128906 346.9375 462.179688 C 347.640625 461.226562 348.367188 460.296875 349.121094 459.382812 C 349.871094 458.46875 350.640625 457.570312 351.4375 456.695312 C 352.230469 455.820312 353.046875 454.960938 353.882812 454.125 C 354.71875 453.289062 355.578125 452.472656 356.453125 451.679688 C 357.332031 450.886719 358.226562 450.113281 359.140625 449.363281 C 360.054688 448.613281 360.988281 447.882812 361.9375 447.179688 C 362.886719 446.476562 363.855469 445.792969 364.839844 445.136719 C 365.824219 444.480469 366.824219 443.847656 367.835938 443.238281 C 368.851562 442.632812 369.882812 442.046875 370.925781 441.492188 C 371.96875 440.933594 373.023438 440.402344 374.09375 439.894531 C 375.164062 439.390625 376.246094 438.910156 377.339844 438.457031 C 378.429688 438.003906 379.535156 437.582031 380.648438 437.183594 C 381.761719 436.785156 382.886719 436.414062 384.019531 436.070312 C 385.152344 435.726562 386.289062 435.410156 387.4375 435.121094 C 388.585938 434.835938 389.738281 434.578125 390.898438 434.34375 C 392.0625 434.113281 393.226562 433.914062 394.394531 433.738281 C 395.566406 433.566406 396.742188 433.421875 397.917969 433.304688 C 399.09375 433.1875 400.273438 433.101562 401.457031 433.042969 C 402.640625 432.984375 403.820312 432.957031 405.003906 432.957031 C 406.1875 432.957031 407.371094 432.984375 408.550781 433.042969 C 409.734375 433.101562 410.914062 433.1875 412.089844 433.304688 C 413.269531 433.421875 414.441406 433.566406 415.613281 433.738281 C 416.78125 433.914062 417.949219 434.113281 419.109375 434.34375 C 420.269531 434.578125 421.421875 434.835938 422.570312 435.121094 C 423.71875 435.410156 424.859375 435.726562 425.992188 436.070312 C 427.121094 436.414062 428.246094 436.78125 429.359375 437.183594 C 430.472656 437.582031 431.578125 438.003906 432.671875 438.457031 C 433.761719 438.910156 434.84375 439.390625 435.914062 439.894531 C 436.984375 440.402344 438.039062 440.933594 439.085938 441.492188 C 440.128906 442.046875 441.15625 442.632812 442.171875 443.238281 C 443.1875 443.847656 444.1875 444.480469 445.167969 445.136719 C 446.152344 445.792969 447.121094 446.476562 448.070312 447.179688 C 449.019531 447.882812 449.953125 448.613281 450.867188 449.363281 C 451.78125 450.113281 452.679688 450.886719 453.554688 451.679688 C 454.429688 452.472656 455.289062 453.289062 456.125 454.125 C 456.960938 454.960938 457.777344 455.820312 458.570312 456.695312 C 459.367188 457.570312 460.136719 458.46875 460.890625 459.382812 C 461.640625 460.296875 462.367188 461.226562 463.070312 462.179688 C 463.777344 463.128906 464.457031 464.09375 465.117188 465.078125 C 465.773438 466.0625 466.40625 467.0625 467.015625 468.074219 C 467.621094 469.089844 468.207031 470.117188 468.761719 471.160156 C 469.320312 472.207031 469.851562 473.261719 470.359375 474.332031 C 470.863281 475.398438 471.34375 476.480469 471.796875 477.574219 C 472.25 478.667969 472.675781 479.769531 473.074219 480.882812 C 473.472656 481.996094 473.84375 483.121094 474.1875 484.253906 C 474.53125 485.382812 474.84375 486.523438 475.132812 487.671875 C 475.421875 488.820312 475.679688 489.972656 475.910156 491.132812 C 476.140625 492.292969 476.34375 493.457031 476.515625 494.628906 C 476.691406 495.796875 476.835938 496.972656 476.953125 498.148438 C 477.066406 499.324219 477.152344 500.503906 477.210938 501.6875 C 477.269531 502.867188 477.300781 504.050781 477.300781 505.234375 Z M 477.300781 505.234375 " fill-opacity="1" fill-rule="nonzero"/><g clip-path="url(#37da2ce4aa)"><path stroke-linecap="butt" transform="matrix(1.441088, 0, 0, 1.44071, 16.58774, 162.876918)" fill="none" stroke-linejoin="miter" d="M 269.52973 135.630588 C 336.886047 135.630588 399.460822 145.293793 446.639247 161.537413 C 503.483761 181.107843 538.434557 210.769869 538.434557 237.631084 C 538.434557 265.620215 501.393869 297.134085 440.350597 317.357947 C 394.202209 332.647176 333.47066 340.629352 269.52973 340.629352 C 203.975979 340.629352 141.899959 333.137928 95.231132 317.189844 C 36.185591 297.006652 0.622193 265.086082 0.622193 237.631084 C 0.622193 210.986776 33.989984 181.555213 90.034864 162.014608 C 137.39219 145.505277 201.5066 135.630588 269.52702 135.630588 Z M 269.52973 135.630588 " stroke="#00d8ff" stroke-width="24" stroke-opacity="1" stroke-miterlimit="4"/></g><g clip-path="url(#8f917f8dac)"><path stroke-linecap="butt" transform="matrix(1.441088, 0, 0, 1.44071, 16.58774, 162.876918)" fill="none" stroke-linejoin="miter" d="M 180.740503 186.920949 C 214.3902 128.572978 254.019535 79.199532 291.659272 46.441159 C 337.010736 6.974939 380.161173 -8.479682 403.429176 4.936013 C 427.678426 18.921089 436.471693 66.751784 423.495932 129.736142 C 413.697023 177.355353 390.263671 233.946377 358.321668 289.33628 C 325.571899 346.125232 288.070404 396.157533 250.940265 428.606813 C 203.959715 469.675434 158.540485 484.536272 134.760174 470.819618 C 111.681914 457.52051 102.856119 413.900522 113.926311 355.590509 C 123.280677 306.320094 146.76011 245.849146 180.72695 186.929083 Z M 180.740503 186.920949 " stroke="#00d8ff" stroke-width="24" stroke-opacity="1" stroke-miterlimit="4"/><path stroke-linecap="butt" transform="matrix(1.441088, 0, 0, 1.44071, 16.58774, 162.876918)" fill="none" stroke-linejoin="miter" d="M 180.819111 289.479981 C 147.079964 231.199793 124.099286 172.201101 114.509095 123.228933 C 102.967255 64.230241 111.128946 19.119017 134.375265 5.65994 C 158.597409 -8.363094 204.428653 7.904927 252.515138 50.60035 C 288.870039 82.878817 326.200764 131.43615 358.234928 186.769114 C 391.076859 243.50384 415.694754 300.978761 425.268681 349.349012 C 437.387884 410.562866 427.580844 457.330717 403.816796 471.090752 C 380.760221 484.438664 338.566634 470.307175 293.575683 431.589284 C 255.564591 398.879715 214.894376 348.337683 180.8164 289.469135 Z M 180.819111 289.479981 " stroke="#00d8ff" stroke-width="24" stroke-opacity="1" stroke-miterlimit="4"/></g><g fill="#000000" fill-opacity="1"><g transform="translate(443.639523, 634.871806)"><g><path d="M 3.9375 0.140625 C 3.382812 0.140625 2.945312 -0.015625 2.625 -0.328125 C 2.300781 -0.640625 2.140625 -1.050781 2.140625 -1.5625 C 2.140625 -2.070312 2.300781 -2.488281 2.625 -2.8125 C 2.945312 -3.144531 3.382812 -3.3125 3.9375 -3.3125 C 4.5 -3.3125 4.941406 -3.15625 5.265625 -2.84375 C 5.585938 -2.53125 5.75 -2.113281 5.75 -1.59375 C 5.75 -1.070312 5.582031 -0.648438 5.25 -0.328125 C 4.925781 -0.015625 4.488281 0.140625 3.9375 0.140625 Z M 3.9375 0.140625 "/></g></g></g><g fill="#ffffff" fill-opacity="1"><g transform="translate(658.125413, 704.96629)"><g><path d="M 45.609375 1.703125 C 39.160156 1.703125 34.070312 -0.101562 30.34375 -3.71875 C 26.613281 -7.34375 24.75 -12.148438 24.75 -18.140625 C 24.75 -24.015625 26.613281 -28.84375 30.34375 -32.625 C 34.070312 -36.414062 39.160156 -38.3125 45.609375 -38.3125 C 52.160156 -38.3125 57.300781 -36.503906 61.03125 -32.890625 C 64.757812 -29.273438 66.625 -24.472656 66.625 -18.484375 C 66.625 -12.492188 64.726562 -7.628906 60.9375 -3.890625 C 57.15625 -0.160156 52.046875 1.703125 45.609375 1.703125 Z M 45.609375 1.703125 "/></g></g></g></svg>