<svg xmlns="http://www.w3.org/2000/svg" xmlns:xlink="http://www.w3.org/1999/xlink" width="1080" zoomAndPan="magnify" viewBox="0 0 810 1012.49997" height="1350" preserveAspectRatio="xMidYMid meet" version="1.0"><defs><g/><clipPath id="a8fc8de6af"><path d="M 12 131 L 809.800781 131 L 809.800781 910 L 12 910 Z M 12 131 " clip-rule="nonzero"/></clipPath></defs><g clip-path="url(#a8fc8de6af)"><path fill="#00678c" d="M 746.976562 733.023438 C 703.621094 731.816406 669.984375 736.257812 641.792969 748.117188 C 633.675781 751.378906 620.652344 751.378906 619.582031 761.59375 C 623.917969 765.882812 624.441406 772.898438 628.246094 778.839844 C 634.746094 789.621094 646.144531 804.148438 656.4375 811.683594 L 691.128906 836.476562 C 712.269531 849.398438 736.125 856.945312 756.71875 869.878906 C 768.652344 877.425781 780.574219 887.121094 792.503906 895.214844 C 798.582031 899.523438 802.261719 906.539062 809.855469 909.222656 L 809.855469 907.589844 C 806.066406 902.761719 804.972656 895.757812 801.191406 890.347656 L 784.910156 874.730469 C 769.199219 853.71875 749.671875 835.390625 728.53125 820.320312 C 711.175781 808.460938 673.242188 792.304688 666.195312 772.378906 L 665.125 771.171875 C 677.03125 769.960938 691.128906 765.773438 702.527344 762.535156 C 720.972656 757.707031 737.765625 758.769531 756.71875 753.925781 L 782.761719 746.378906 L 782.761719 741.546875 C 773.003906 731.851562 765.957031 718.917969 755.664062 709.765625 C 728.019531 686.058594 697.640625 662.886719 666.195312 643.492188 C 649.390625 632.722656 627.699219 625.707031 609.8125 616.5625 C 603.289062 613.328125 592.460938 611.710938 588.667969 606.324219 C 578.886719 594.488281 573.480469 578.851562 566.433594 564.832031 L 521.984375 471.085938 C 512.226562 450.074219 506.25 429.0625 494.339844 409.667969 C 438.492188 318.074219 377.761719 262.585938 284.511719 208.160156 C 264.464844 196.84375 240.613281 191.976562 215.253906 186.0625 L 174.59375 183.886719 C 165.90625 180.121094 157.242188 169.878906 149.648438 165.023438 C 118.746094 145.632812 39.046875 103.605469 16.265625 158.988281 C 1.621094 194.007812 37.953125 228.484375 50.289062 246.269531 C 59.523438 258.660156 71.429688 272.667969 77.957031 286.675781 C 81.601562 295.832031 82.816406 305.539062 86.621094 315.234375 C 95.285156 338.941406 103.425781 365.351562 114.8125 387.449219 C 120.886719 398.765625 127.265625 410.636719 134.859375 420.863281 C 139.199219 426.902344 146.792969 429.484375 148.410156 439.183594 C 140.8125 449.964844 140.292969 466.109375 135.953125 479.601562 C 116.425781 540.484375 124.019531 615.910156 151.664062 660.738281 C 160.351562 674.203125 180.828125 703.847656 208.605469 692.519531 C 233.003906 682.824219 227.5625 652.113281 234.609375 625.171875 C 236.25 618.714844 235.15625 614.402344 238.398438 610.078125 L 238.398438 611.285156 L 260.636719 656.003906 C 277.441406 682.402344 306.726562 709.886719 331.113281 728.214844 C 344.117188 737.914062 354.417969 754.625 370.679688 760.542969 L 370.679688 758.914062 L 369.609375 758.914062 C 366.351562 754.082031 361.46875 751.910156 357.128906 748.140625 C 347.371094 738.445312 336.535156 726.585938 328.9375 715.816406 C 306.179688 685.648438 286.128906 652.234375 268.230469 617.757812 C 259.542969 601.058594 251.949219 582.738281 244.925781 566.039062 C 241.644531 559.566406 241.644531 549.855469 236.238281 546.644531 C 228.097656 558.480469 216.1875 568.742188 210.199219 583.28125 C 199.894531 606.445312 198.824219 635.003906 195.03125 664.636719 C 192.847656 665.179688 193.816406 664.636719 192.847656 665.84375 C 175.519531 661.546875 169.539062 643.746094 163.039062 628.675781 C 146.78125 590.417969 144.058594 529.003906 158.152344 484.816406 C 161.945312 473.5 178.226562 437.9375 171.726562 427.167969 C 168.445312 416.925781 157.632812 411.007812 151.652344 402.917969 C 144.605469 392.679688 137.035156 379.757812 132.152344 368.441406 C 119.148438 338.253906 112.648438 304.863281 98.539062 274.683594 C 92.015625 260.675781 80.640625 246.125 71.417969 233.203125 C 61.113281 218.652344 49.753906 208.414062 41.613281 191.179688 C 38.902344 185.144531 35.113281 175.554688 39.449219 169.082031 C 40.519531 164.769531 42.707031 163.042969 47.019531 162.078125 C 54.066406 156.039062 74.140625 163.695312 81.1875 166.910156 C 101.238281 175 118.042969 182.535156 134.847656 193.835938 C 142.441406 199.222656 150.585938 209.464844 160.339844 212.167969 L 171.738281 212.167969 C 189.089844 215.9375 208.59375 213.375 224.839844 218.207031 C 253.578125 227.382812 279.59375 240.835938 302.921875 255.398438 C 373.933594 300.117188 432.503906 363.695312 472.066406 439.675781 C 478.566406 452.066406 481.277344 463.382812 487.257812 476.316406 C 498.652344 502.726562 512.75 529.652344 524.109375 555.53125 C 535.507812 580.855469 546.347656 606.734375 562.605469 627.746094 C 570.746094 639.0625 603.261719 644.976562 617.894531 650.90625 C 628.746094 655.738281 645.539062 660.085938 655.320312 666 C 673.742188 677.316406 692.171875 690.25 709.511719 702.640625 C 718.175781 709.089844 745.296875 722.566406 746.914062 733.3125 Z M 194.097656 264.820312 C 186.574219 264.753906 179.171875 265.652344 171.882812 267.511719 L 171.882812 268.71875 L 172.953125 268.71875 C 177.292969 277.34375 184.886719 283.269531 190.304688 290.820312 L 202.785156 316.683594 L 203.855469 315.476562 C 211.449219 310.089844 215.25 301.46875 215.25 288.546875 C 211.996094 284.78125 211.460938 281 208.75 277.234375 C 205.496094 271.847656 198.445312 269.140625 194.097656 264.84375 Z M 194.097656 264.820312 " fill-opacity="1" fill-rule="evenodd"/></g><g fill="#ffffff" fill-opacity="1"><g transform="translate(616.024335, 789.004056)"><g><path d="M 3.9375 0.140625 C 3.382812 0.140625 2.945312 -0.015625 2.625 -0.328125 C 2.300781 -0.640625 2.140625 -1.050781 2.140625 -1.5625 C 2.140625 -2.070312 2.300781 -2.488281 2.625 -2.8125 C 2.945312 -3.144531 3.382812 -3.3125 3.9375 -3.3125 C 4.5 -3.3125 4.941406 -3.15625 5.265625 -2.84375 C 5.585938 -2.53125 5.75 -2.113281 5.75 -1.59375 C 5.75 -1.070312 5.582031 -0.648438 5.25 -0.328125 C 4.925781 -0.015625 4.488281 0.140625 3.9375 0.140625 Z M 3.9375 0.140625 "/></g></g></g><g fill="#000000" fill-opacity="1"><g transform="translate(705.26117, 904.053489)"><g><path d="M 3.9375 0.140625 C 3.382812 0.140625 2.945312 -0.015625 2.625 -0.328125 C 2.300781 -0.640625 2.140625 -1.050781 2.140625 -1.5625 C 2.140625 -2.070312 2.300781 -2.488281 2.625 -2.8125 C 2.945312 -3.144531 3.382812 -3.3125 3.9375 -3.3125 C 4.5 -3.3125 4.941406 -3.15625 5.265625 -2.84375 C 5.585938 -2.53125 5.75 -2.113281 5.75 -1.59375 C 5.75 -1.070312 5.582031 -0.648438 5.25 -0.328125 C 4.925781 -0.015625 4.488281 0.140625 3.9375 0.140625 Z M 3.9375 0.140625 "/></g></g></g></svg>