<svg xmlns="http://www.w3.org/2000/svg" xmlns:xlink="http://www.w3.org/1999/xlink" width="1080" zoomAndPan="magnify" viewBox="0 0 810 1012.49997" height="1350" preserveAspectRatio="xMidYMid meet" version="1.0"><defs><g/><clipPath id="345ad487aa"><path d="M 0.199219 80.960938 L 809.800781 80.960938 L 809.800781 910.800781 L 0.199219 910.800781 Z M 0.199219 80.960938 " clip-rule="nonzero"/></clipPath></defs><g clip-path="url(#345ad487aa)"><path fill="#007acc" d="M -20.039062 910.800781 L 809.800781 910.800781 L 809.800781 80.960938 L -20.039062 80.960938 Z M -20.039062 910.800781 " fill-opacity="1" fill-rule="nonzero"/></g><path fill="#ffffff" d="M 163.433594 498.601562 L 163.171875 532.605469 L 271.183594 532.605469 L 271.183594 839.519531 L 347.582031 839.519531 L 347.582031 532.605469 L 455.59375 532.605469 L 455.59375 499.285156 C 455.59375 480.839844 455.199219 465.410156 454.675781 465.019531 C 454.277344 464.5 388.550781 464.242188 308.847656 464.371094 L 163.820312 464.761719 Z M 163.433594 498.601562 " fill-opacity="1" fill-rule="nonzero"/><path fill="#ffffff" d="M 649.570312 463.820312 C 670.640625 469.074219 686.71875 478.441406 701.46875 493.707031 C 709.085938 501.875 720.429688 516.753906 721.335938 520.320312 C 721.597656 521.390625 685.519531 545.605469 663.636719 559.1875 C 662.859375 559.707031 659.714844 556.269531 656.148438 551.019531 C 645.484375 535.460938 634.269531 528.75 617.152344 527.582031 C 592 525.863281 575.792969 539.023438 575.921875 561.035156 C 575.921875 567.484375 576.863281 571.3125 579.488281 576.5625 C 585.03125 588.039062 595.304688 594.878906 627.558594 608.847656 C 686.976562 634.390625 712.390625 651.25 728.210938 675.234375 C 745.84375 701.980469 749.796875 744.636719 737.804688 776.371094 C 724.644531 810.894531 691.96875 834.332031 646.003906 842.113281 C 631.773438 844.605469 598.0625 844.21875 582.761719 841.464844 C 549.4375 835.53125 517.832031 819.0625 498.351562 797.476562 C 490.699219 789.046875 475.820312 767.035156 476.730469 765.449219 C 477.152344 764.929688 480.554688 762.824219 484.378906 760.585938 C 488.074219 758.480469 502.046875 750.441406 515.207031 742.789062 L 539.03125 728.980469 L 544.058594 736.339844 C 551.027344 747.003906 566.328125 761.625 575.53125 766.519531 C 602.015625 780.457031 638.355469 778.480469 656.28125 762.433594 C 663.929688 755.433594 667.074219 748.203125 667.074219 737.539062 C 667.074219 727.910156 665.90625 723.695312 660.882812 716.46875 C 654.433594 707.230469 641.269531 699.449219 603.863281 683.273438 C 561.042969 664.832031 542.597656 653.355469 525.742188 635.171875 C 515.984375 624.636719 506.777344 607.777344 502.953125 593.679688 C 499.777344 581.976562 499 552.605469 501.496094 540.742188 C 510.34375 499.382812 541.5625 470.53125 586.585938 461.972656 C 601.207031 459.21875 635.210938 460.253906 649.570312 463.820312 Z M 649.570312 463.820312 " fill-opacity="1" fill-rule="nonzero"/><g fill="#000000" fill-opacity="1"><g transform="translate(443.639523, 634.871806)"><g><path d="M 3.9375 0.140625 C 3.382812 0.140625 2.945312 -0.015625 2.625 -0.328125 C 2.300781 -0.640625 2.140625 -1.050781 2.140625 -1.5625 C 2.140625 -2.070312 2.300781 -2.488281 2.625 -2.8125 C 2.945312 -3.144531 3.382812 -3.3125 3.9375 -3.3125 C 4.5 -3.3125 4.941406 -3.15625 5.265625 -2.84375 C 5.585938 -2.53125 5.75 -2.113281 5.75 -1.59375 C 5.75 -1.070312 5.582031 -0.648438 5.25 -0.328125 C 4.925781 -0.015625 4.488281 0.140625 3.9375 0.140625 Z M 3.9375 0.140625 "/></g></g></g><g fill="#ffffff" fill-opacity="1"><g transform="translate(658.125413, 704.96629)"><g><path d="M 45.609375 1.703125 C 39.160156 1.703125 34.070312 -0.101562 30.34375 -3.71875 C 26.613281 -7.34375 24.75 -12.148438 24.75 -18.140625 C 24.75 -24.015625 26.613281 -28.84375 30.34375 -32.625 C 34.070312 -36.414062 39.160156 -38.3125 45.609375 -38.3125 C 52.160156 -38.3125 57.300781 -36.503906 61.03125 -32.890625 C 64.757812 -29.273438 66.625 -24.472656 66.625 -18.484375 C 66.625 -12.492188 64.726562 -7.628906 60.9375 -3.890625 C 57.15625 -0.160156 52.046875 1.703125 45.609375 1.703125 Z M 45.609375 1.703125 "/></g></g></g></svg>